<?xml version="1.0" encoding="utf-8"?>
<!-- Generator: Adobe Illustrator 16.0.0, SVG Export Plug-In . SVG Version: 6.00 Build 0)  -->
<!DOCTYPE svg PUBLIC "-//W3C//DTD SVG 1.1//EN" "http://www.w3.org/Graphics/SVG/1.1/DTD/svg11.dtd">
<svg version="1.1" id="Layer_1" xmlns="http://www.w3.org/2000/svg" xmlns:xlink="http://www.w3.org/1999/xlink" x="0px" y="0px"
	 width="100px" height="100px" viewBox="0 0 100 100" enable-background="new 0 0 100 100" xml:space="preserve">
<g>
	<path fill="#DBE4EB" d="M50,95.46C24.933,95.46,4.54,75.066,4.54,50C4.54,24.933,24.933,4.54,50,4.54
		c25.067,0,45.46,20.393,45.46,45.46C95.46,75.066,75.066,95.46,50,95.46z M50,11.945c-20.983,0-38.055,17.071-38.055,38.055
		c0,20.983,17.071,38.055,38.055,38.055c20.984,0,38.055-17.071,38.055-38.055C88.055,29.016,70.983,11.945,50,11.945z"/>
</g>
<path fill="#DBE4EB" d="M59.219,36.248c0,5.091-4.127,9.219-9.219,9.219c-5.091,0-9.219-4.127-9.219-9.219
	c0-5.092,4.128-9.219,9.219-9.219C55.092,27.029,59.219,31.156,59.219,36.248"/>
<path fill="#DBE4EB" d="M59.415,65.919c-4.409-2.547-5.919-8.185-3.374-12.595c2.546-4.408,8.185-5.919,12.594-3.374
	c4.41,2.546,5.92,8.185,3.375,12.594C69.463,66.954,63.825,68.464,59.415,65.919"/>
<path fill="#DBE4EB" d="M43.958,53.324c-2.546-4.41-8.185-5.92-12.593-3.375c-4.409,2.546-5.921,8.184-3.375,12.594
	c2.545,4.408,8.184,5.92,12.593,3.374S46.504,57.733,43.958,53.324z M37.782,61.064c-1.729,1-3.941,0.406-4.939-1.323
	c-0.999-1.729-0.405-3.939,1.323-4.938c1.73-0.998,3.941-0.407,4.939,1.323C40.104,57.854,39.511,60.066,37.782,61.064z"/>
<g>
	<path fill="#DBE4EB" d="M48.151,66.926c-0.841,0-1.667-0.399-2.18-1.145l-6.784-9.499c-0.829-1.202,3.944-4.16,4.771-2.958
		l6.368,9.457c0.829,1.202,0.526,2.849-0.677,3.678C49.191,66.775,48.668,66.926,48.151,66.926z"/>
</g>
</svg>
