<svg width="28" height="28" viewBox="0 0 28 28" fill="none" xmlns="http://www.w3.org/2000/svg">
<path d="M24 14C24 19.5229 19.5229 24 14 24C8.47714 24 4 19.5229 4 14C4 8.47714 8.47714 4 14 4C19.5229 4 24 8.47714 24 14ZM12.8433 19.2949L20.2627 11.8756C20.5146 11.6236 20.5146 11.2151 20.2627 10.9632L19.3503 10.0508C19.0983 9.79883 18.6898 9.79883 18.4379 10.0508L12.3871 16.1015L9.56214 13.2766C9.3102 13.0246 8.90169 13.0246 8.64972 13.2766L7.73734 14.189C7.4854 14.4409 7.4854 14.8494 7.73734 15.1013L11.9309 19.2949C12.1829 19.5469 12.5913 19.5469 12.8433 19.2949V19.2949Z" fill="#F9E600"/>
</svg>
