<svg width="28" height="28" viewBox="0 0 28 28" fill="none" xmlns="http://www.w3.org/2000/svg">
<path d="M13.8 13.744C14.384 13.744 14.892 13.844 15.324 14.044C15.756 14.244 16.088 14.532 16.32 14.908C16.56 15.276 16.68 15.728 16.68 16.264C16.68 16.856 16.552 17.368 16.296 17.8C16.04 18.224 15.672 18.552 15.192 18.784C14.72 19.008 14.148 19.12 13.476 19.12C13.036 19.12 12.62 19.08 12.228 19C11.844 18.92 11.52 18.804 11.256 18.652V17.656C11.544 17.832 11.892 17.972 12.3 18.076C12.716 18.172 13.112 18.22 13.488 18.22C13.912 18.22 14.28 18.156 14.592 18.028C14.912 17.892 15.16 17.688 15.336 17.416C15.512 17.136 15.6 16.788 15.6 16.372C15.6 15.812 15.428 15.384 15.084 15.088C14.74 14.784 14.196 14.632 13.452 14.632C13.228 14.632 12.972 14.652 12.684 14.692C12.396 14.732 12.164 14.772 11.988 14.812L11.46 14.476L11.784 10.432H16.08V11.392H12.684L12.48 13.876C12.616 13.852 12.8 13.824 13.032 13.792C13.264 13.76 13.52 13.744 13.8 13.744Z" fill="#000000"/>
<rect x="4.5" y="4.5" width="19" height="19" rx="9.5" stroke="#000000"/>
</svg>
