<svg width="28" height="28" viewBox="0 0 28 28" fill="none" xmlns="http://www.w3.org/2000/svg">
<path d="M17.124 17.056H15.876V19H14.856V17.056H10.752V16.156L14.784 10.384H15.876V16.108H17.124V17.056ZM14.856 13.408C14.856 13.2 14.856 13.012 14.856 12.844C14.864 12.668 14.872 12.504 14.88 12.352C14.888 12.2 14.892 12.056 14.892 11.92C14.9 11.776 14.908 11.64 14.916 11.512H14.868C14.804 11.664 14.724 11.828 14.628 12.004C14.532 12.18 14.44 12.328 14.352 12.448L11.784 16.108H14.856V13.408Z" fill="white"/>
<rect x="4.5" y="4.5" width="19" height="19" rx="9.5" stroke="white"/>
</svg>
