<svg width="28" height="28" viewBox="0 0 28 28" fill="none" xmlns="http://www.w3.org/2000/svg">
<path d="M24 14C24 19.5229 19.5229 24 14 24C8.47714 24 4 19.5229 4 14C4 8.47714 8.47714 4 14 4C19.5229 4 24 8.47714 24 14Z" fill="black"/>
<path d="M20.2627 11.8756L12.8433 19.2949C12.5913 19.5469 12.1829 19.5469 11.9309 19.2949L7.73729 15.1013C7.48535 14.8494 7.48535 14.4409 7.73729 14.189L8.64968 13.2766C8.90165 13.0246 9.31016 13.0246 9.5621 13.2766L12.3871 16.1015L18.4379 10.0508C18.6898 9.79883 19.0983 9.79883 19.3503 10.0508L20.2627 10.9632C20.5146 11.2151 20.5146 11.6236 20.2627 11.8756Z" fill="#F9E600"/>
</svg>
