<svg width="28" height="28" viewBox="0 0 28 28" fill="none" xmlns="http://www.w3.org/2000/svg">
<path d="M16.416 12.436C16.416 12.82 16.344 13.152 16.2 13.432C16.056 13.712 15.848 13.94 15.576 14.116C15.312 14.292 15 14.416 14.64 14.488V14.536C15.328 14.616 15.84 14.832 16.176 15.184C16.512 15.536 16.68 15.996 16.68 16.564C16.68 17.06 16.564 17.504 16.332 17.896C16.1 18.28 15.74 18.58 15.252 18.796C14.772 19.012 14.152 19.12 13.392 19.12C12.944 19.12 12.528 19.084 12.144 19.012C11.76 18.948 11.392 18.828 11.04 18.652V17.668C11.4 17.844 11.788 17.984 12.204 18.088C12.62 18.184 13.02 18.232 13.404 18.232C14.172 18.232 14.724 18.084 15.06 17.788C15.404 17.484 15.576 17.068 15.576 16.54C15.576 16.18 15.48 15.892 15.288 15.676C15.104 15.452 14.832 15.288 14.472 15.184C14.112 15.08 13.68 15.028 13.176 15.028H12.348V14.128H13.188C13.66 14.128 14.052 14.06 14.364 13.924C14.684 13.788 14.924 13.6 15.084 13.36C15.252 13.112 15.336 12.828 15.336 12.508C15.336 12.092 15.196 11.772 14.916 11.548C14.636 11.316 14.256 11.2 13.776 11.2C13.472 11.2 13.196 11.232 12.948 11.296C12.7 11.352 12.468 11.436 12.252 11.548C12.044 11.652 11.832 11.776 11.616 11.92L11.088 11.2C11.296 11.04 11.532 10.892 11.796 10.756C12.068 10.62 12.368 10.512 12.696 10.432C13.024 10.352 13.38 10.312 13.764 10.312C14.66 10.312 15.324 10.512 15.756 10.912C16.196 11.312 16.416 11.82 16.416 12.436Z" fill="white"/>
<rect x="4.5" y="4.5" width="19" height="19" rx="9.5" stroke="white"/>
</svg>
