<svg width="28" height="28" viewBox="0 0 28 28" fill="none" xmlns="http://www.w3.org/2000/svg">
<path d="M16.74 19H11.076V18.124L13.32 15.856C13.752 15.424 14.116 15.04 14.412 14.704C14.708 14.368 14.932 14.04 15.084 13.72C15.236 13.392 15.312 13.036 15.312 12.652C15.312 12.18 15.172 11.824 14.892 11.584C14.612 11.336 14.248 11.212 13.8 11.212C13.384 11.212 13.016 11.284 12.696 11.428C12.384 11.572 12.064 11.772 11.736 12.028L11.172 11.32C11.396 11.128 11.64 10.956 11.904 10.804C12.176 10.652 12.468 10.532 12.78 10.444C13.1 10.356 13.44 10.312 13.8 10.312C14.336 10.312 14.796 10.404 15.18 10.588C15.564 10.772 15.86 11.036 16.068 11.38C16.284 11.716 16.392 12.12 16.392 12.592C16.392 12.928 16.34 13.248 16.236 13.552C16.132 13.848 15.984 14.14 15.792 14.428C15.6 14.716 15.368 15.008 15.096 15.304C14.824 15.6 14.524 15.908 14.196 16.228L12.408 17.992V18.04H16.74V19Z" fill="white"/>
<rect x="4.5" y="4.5" width="19" height="19" rx="9.5" stroke="white"/>
</svg>
