<svg width="24" height="24" viewBox="0 0 24 24" fill="none" xmlns="http://www.w3.org/2000/svg">
<path d="M9.55 12.95C9.55 12.5367 9.57667 12.13 9.63 11.73C9.69 11.33 9.79 10.9533 9.93 10.6C10.07 10.24 10.2633 9.92333 10.51 9.65C10.7567 9.37 11.0667 9.15333 11.44 9C11.82 8.84 12.28 8.76 12.82 8.76C12.96 8.76 13.1133 8.76667 13.28 8.78C13.4533 8.79333 13.5933 8.81667 13.7 8.85V9.6C13.58 9.56 13.4433 9.53 13.29 9.51C13.1433 9.49 12.9933 9.48 12.84 9.48C12.38 9.48 11.9967 9.55667 11.69 9.71C11.3833 9.86333 11.14 10.0733 10.96 10.34C10.7867 10.6067 10.66 10.9133 10.58 11.26C10.5 11.6067 10.45 11.9767 10.43 12.37H10.49C10.59 12.21 10.7167 12.0667 10.87 11.94C11.0233 11.8133 11.2067 11.7133 11.42 11.64C11.64 11.5667 11.8933 11.53 12.18 11.53C12.5933 11.53 12.9533 11.6167 13.26 11.79C13.5733 11.9567 13.8167 12.2033 13.99 12.53C14.1633 12.85 14.25 13.24 14.25 13.7C14.25 14.1933 14.1567 14.62 13.97 14.98C13.7833 15.34 13.52 15.6167 13.18 15.81C12.8467 16.0033 12.4467 16.1 11.98 16.1C11.64 16.1 11.3233 16.0367 11.03 15.91C10.7367 15.7833 10.4767 15.59 10.25 15.33C10.03 15.07 9.85667 14.7433 9.73 14.35C9.61 13.95 9.55 13.4833 9.55 12.95ZM11.97 15.36C12.39 15.36 12.73 15.2267 12.99 14.96C13.25 14.6867 13.38 14.2667 13.38 13.7C13.38 13.2467 13.2633 12.8867 13.03 12.62C12.8033 12.3533 12.46 12.22 12 12.22C11.6867 12.22 11.4133 12.2867 11.18 12.42C10.9467 12.5467 10.7633 12.71 10.63 12.91C10.5033 13.11 10.44 13.3167 10.44 13.53C10.44 13.75 10.47 13.9667 10.53 14.18C10.5967 14.3933 10.6933 14.59 10.82 14.77C10.9533 14.95 11.1133 15.0933 11.3 15.2C11.4933 15.3067 11.7167 15.36 11.97 15.36Z" fill="white"/>
<rect x="4.5" y="4.5" width="15" height="15" rx="7.5" stroke="white"/>
</svg>
