<svg width="32" height="33" viewBox="0 0 32 33" fill="none" xmlns="http://www.w3.org/2000/svg">
<rect y="0.5" width="32" height="32" rx="16" fill="#5C5C5C"/>
<path fill-rule="evenodd" clip-rule="evenodd" d="M16.4217 15.5222C14.383 14.9978 13.7273 14.4556 13.7273 13.6111C13.7273 12.6422 14.6344 11.9667 16.1523 11.9667C17.7509 11.9667 18.3437 12.7222 18.3976 13.8333H20.3824C20.3195 12.3044 19.3765 10.9 17.4994 10.4467V8.5H14.8051V10.42C13.0627 10.7933 11.6617 11.9133 11.6617 13.6289C11.6617 15.6822 13.3771 16.7044 15.8828 17.3C17.9008 17.7793 18.4678 18.4597 18.562 19.1927L20.2626 20.9131C20.5054 20.4977 20.6429 20.0059 20.6429 19.4333C20.6429 16.9089 18.4604 16.0467 16.4217 15.5222ZM13.4759 19.1667C13.5742 20.2105 14.2952 21.0255 16.1257 21.0333L17.6365 22.5616C17.591 22.5712 17.5454 22.5803 17.4994 22.5889V24.5H14.8051V22.5711C13.0807 22.2067 11.6078 21.1133 11.5 19.1667H13.4759ZM24.5 19.913L23.587 19L20.2452 22.3478L18.413 20.5217L17.5 21.4348L20.2452 24.1739L24.5 19.913Z" fill="#DBE4EB"/>
</svg>
