<svg width="25" height="29" viewBox="0 0 25 29" fill="none" xmlns="http://www.w3.org/2000/svg">
<path d="M8.83351 23.3024C8.04924 23.3024 7.37809 23.0236 6.82007 22.466C6.26205 21.9084 5.98257 21.2373 5.98162 20.4527V3.35457C5.98162 2.5709 6.2611 1.90028 6.82007 1.34269C7.37904 0.785102 8.05019 0.505833 8.83351 0.504883H21.667C22.4513 0.504883 23.1229 0.784152 23.6819 1.34269C24.2409 1.90123 24.5199 2.57186 24.5189 3.35457V20.4527C24.5189 21.2363 24.2399 21.9074 23.6819 22.466C23.1239 23.0245 22.4522 23.3033 21.667 23.3024H8.83351ZM8.83351 20.4527H21.667V3.35457H8.83351V20.4527ZM3.12972 29.0017C2.34545 29.0017 1.67431 28.7229 1.11629 28.1654C0.558268 27.6078 0.278783 26.9367 0.277832 26.1521V6.20425H3.12972V26.1521H18.8151V29.0017H3.12972Z" fill="#007AFF"/>
</svg>
