<svg width="60" height="60" viewBox="0 0 60 60" fill="none" xmlns="http://www.w3.org/2000/svg">
<circle cx="23.6364" cy="32" r="3.63636" fill="black"/>
<circle cx="37.3636" cy="32" r="3.63636" fill="black"/>
<path fill-rule="evenodd" clip-rule="evenodd" d="M30 60C46.5685 60 60 46.5685 60 30C60 13.4315 46.5685 0 30 0C13.4315 0 0 13.4315 0 30C0 46.5685 13.4315 60 30 60ZM38 42.4766L40.4609 45.4062C48.6641 45.2891 51.8281 39.7812 51.8281 39.7812C51.8281 27.5938 46.4375 17.8672 46.4375 17.8672C40.9297 14 35.8906 14 35.8906 14L35.3047 14.4688C41.5156 16.1094 45.5 19.2734 45.3828 19.3906C38.9375 14.4688 22.5312 14 14.5625 19.3906C14.5625 19.3906 17.4922 16.3438 24.2891 14.4688L23.9375 14C23.9375 14 18.8984 14 13.3906 17.8672C13.3906 17.8672 8 27.5938 8 39.7812C8 39.7812 11.1641 45.2891 19.3672 45.4062L22.0625 42.4766C17.1406 40.9531 15.5 37.9062 15.5 37.9062C21.9453 43.8828 38.5859 43.6484 44.6797 37.9062C44.6797 37.9062 42.8047 41.1875 38 42.4766Z" fill="black"/>
</svg>
