<svg width="60" height="60" viewBox="0 0 60 60" fill="none" xmlns="http://www.w3.org/2000/svg">
<path fill-rule="evenodd" clip-rule="evenodd" d="M60 30C60 46.5685 46.5685 60 30 60C13.4315 60 0 46.5685 0 30C0 13.4315 13.4315 0 30 0C46.5685 0 60 13.4315 60 30ZM49.8712 21.8259C49.8467 20.1444 49.5358 18.4762 48.9405 16.9036C47.8987 14.2181 45.7774 12.0946 43.092 11.0551C41.5393 10.4709 39.8978 10.1577 38.2363 10.1222C36.0995 10.0267 35.422 10 29.9978 10C24.5735 10 23.8783 10 21.757 10.1222C20.0977 10.1577 18.4562 10.4709 16.9036 11.0551C14.2181 12.0946 12.0946 14.2181 11.0551 16.9036C10.4709 18.4562 10.1555 20.0977 10.1244 21.757C10.0289 23.896 10 24.5735 10 29.9978C10 35.422 10 36.1151 10.1244 38.2386C10.1577 39.9 10.4709 41.5393 11.0551 43.0964C12.0968 45.7797 14.2181 47.9032 16.9058 48.9427C18.4518 49.5469 20.0933 49.8889 21.7592 49.9422C23.8983 50.0378 24.5757 50.0666 30 50.0666C35.4243 50.0666 36.1195 50.0666 38.2408 49.9422C39.9 49.9089 41.5415 49.5957 43.0964 49.0116C45.7819 47.9698 47.9032 45.8463 48.9449 43.163C49.5291 41.6082 49.8423 39.9689 49.8756 38.3052C49.9711 36.1684 50 35.4909 50 30.0644L49.9999 29.9898V29.9894C49.9956 24.6338 49.995 23.9417 49.8712 21.8259ZM29.9845 40.2554C24.3114 40.2554 19.7157 35.6597 19.7157 29.9867C19.7157 24.3136 24.3114 19.7179 29.9845 19.7179C35.653 19.7179 40.2532 24.3136 40.2532 29.9867C40.2532 35.6597 35.653 40.2554 29.9845 40.2554ZM40.6619 21.7326C39.3359 21.7326 38.2674 20.6619 38.2674 19.3381C38.2674 18.0142 39.3359 16.9436 40.6619 16.9436C41.9836 16.9436 43.0542 18.0142 43.0542 19.3381C43.0542 20.6619 41.9836 21.7326 40.6619 21.7326ZM36.6547 29.9867C36.6547 33.6706 33.6683 36.6571 29.9843 36.6571C26.3004 36.6571 23.314 33.6706 23.314 29.9867C23.314 26.3028 26.3004 23.3163 29.9843 23.3163C33.6683 23.3163 36.6547 26.3028 36.6547 29.9867Z" fill="black"/>
</svg>
