<svg width="60" height="60" viewBox="0 0 60 60" fill="none" xmlns="http://www.w3.org/2000/svg">
<path fill-rule="evenodd" clip-rule="evenodd" d="M60 30C60 46.5685 46.5685 60 30 60C13.4315 60 0 46.5685 0 30C0 13.4315 13.4315 0 30 0C46.5685 0 60 13.4315 60 30ZM21.6251 45.0001H14.1251V20H21.6251V45.0001ZM49.1251 45.0001H41.6251V31.6451C41.6251 28.1651 40.3851 26.4326 37.9276 26.4326C35.9801 26.4326 34.7451 27.4026 34.1251 29.3451V45.0001H26.6251C26.6251 45.0001 26.7251 22.5001 26.6251 20H32.5451L33.0026 25.0001H33.1576C34.6951 22.5001 37.1526 20.805 40.5226 20.805C43.0851 20.805 45.1576 21.5176 46.7401 23.3076C48.3326 25.1001 49.1251 27.5051 49.1251 30.8826V45.0001ZM21.75 13.75C21.75 15.8211 20.0151 17.5 17.875 17.5C15.7349 17.5 14 15.8211 14 13.75C14 11.6789 15.7349 10 17.875 10C20.0151 10 21.75 11.6789 21.75 13.75Z" fill="black"/>
</svg>
