<svg width="60" height="60" viewBox="0 0 60 60" fill="none" xmlns="http://www.w3.org/2000/svg">
<path fill-rule="evenodd" clip-rule="evenodd" d="M30 60C46.5685 60 60 46.5685 60 30C60 26.9331 59.5398 23.9737 58.6847 21.187C56.3565 22.8747 53.3827 24.1367 49.7367 24.8431L49.6729 26.2803C52.0526 26.9652 54.6142 26.9592 56.5506 26.7934C57.3968 26.7209 58.1338 26.617 58.6977 26.5224C57.8803 29.2433 56.4594 31.4563 54.5479 33.0875C52.3807 34.9368 49.5441 36.0714 46.1477 36.3186L45.6997 36.3512L45.5219 36.7637C44.2089 39.8116 42.0314 42.4078 39.2586 44.2313C36.7699 45.8679 33.8997 46.8178 30.9381 46.9939L35.9527 31.0556C37.3192 26.7128 38.5084 23.4183 39.7202 20.9109C40.9308 18.406 42.1433 16.731 43.5342 15.5894C46.0431 13.5302 49.2846 13.0715 54.7237 13.0028C49.3138 5.14866 40.2582 0 30 0C13.4315 0 0 13.4315 0 30C0 46.5685 13.4315 60 30 60ZM29.9204 12.2529C33.9466 12.2529 37.8317 13.6204 40.955 16.0981C40.0327 17.2191 39.1968 18.5935 38.388 20.267C37.3057 22.5066 36.2567 25.3146 35.1135 28.8232C34.9698 28.1934 34.7119 27.5917 34.3493 27.049C33.764 26.1731 32.9321 25.4903 31.9588 25.0872C30.9855 24.684 29.9145 24.5785 28.8812 24.7841C27.848 24.9896 26.8988 25.4969 26.1539 26.2418C25.409 26.9868 24.9016 27.9359 24.6961 28.9692C24.4906 30.0024 24.5961 31.0734 24.9992 32.0467C25.4024 33.0201 26.0851 33.852 26.9611 34.4373C27.837 35.0225 28.8669 35.3349 29.9204 35.3349C30.6202 35.3359 31.3132 35.1987 31.9599 34.9314C32.5196 34.7 33.035 34.375 33.4843 33.971L29.1501 47.747C28.249 47.7079 27.3485 47.6 26.4565 47.4226C23.0123 46.7375 19.8486 45.0464 17.3654 42.5633C14.8823 40.0802 13.1912 36.9164 12.5062 33.4722C11.8211 30.028 12.1727 26.458 13.5165 23.2136C14.8604 19.9693 17.1362 17.1962 20.056 15.2453C22.9759 13.2943 26.4087 12.2529 29.9204 12.2529Z" fill="black"/>
</svg>
