<svg width="60" height="60" viewBox="0 0 60 60" fill="none" xmlns="http://www.w3.org/2000/svg">
<path fill-rule="evenodd" clip-rule="evenodd" d="M30 60C46.5685 60 60 46.5685 60 30C60 13.4315 46.5685 0 30 0C13.4315 0 0 13.4315 0 30C0 46.5685 13.4315 60 30 60ZM9.74978 28.2704C20.4872 23.5924 27.6472 20.5083 31.2295 19.0182C41.4584 14.7637 43.5837 14.0247 44.9692 14.0003C45.274 13.9949 45.9551 14.0704 46.3964 14.4285C46.7691 14.7309 46.8716 15.1393 46.9207 15.426C46.9698 15.7126 47.0309 16.3657 46.9821 16.8759C46.4277 22.7001 44.0293 36.8336 42.8093 43.3567C42.293 46.1166 41.2764 47.042 40.2921 47.1326C38.5984 47.2885 37.2273 46.3112 35.7012 45.2231L35.6898 45.215C35.2923 44.9318 34.8844 44.6413 34.4572 44.3613C32.7651 43.252 31.4572 42.3613 30.146 41.4681C28.9453 40.6504 27.7418 39.8309 26.2375 38.8398C23.1077 36.7772 24.4179 35.5141 26.165 33.83L26.1726 33.8227C26.4529 33.5524 26.7446 33.2711 27.0309 32.9736C27.1598 32.8398 27.7903 32.2535 28.6791 31.4273L28.6799 31.4265C31.5316 28.7753 37.0407 23.6534 37.1797 23.0608C37.2028 22.9635 37.2236 22.601 37.0085 22.4096C36.793 22.2182 36.4753 22.2836 36.2457 22.3357C35.9207 22.4095 30.7421 25.8324 20.7097 32.6044C19.2398 33.6139 17.9083 34.1056 16.7154 34.0798C15.4003 34.0516 12.8706 33.3364 10.99 32.725C10.7332 32.6417 10.4823 32.5626 10.2394 32.486L10.1843 32.4687C8.27286 31.8677 6.86915 31.4263 7.00969 30.3054C7.09284 29.6421 8.0062 28.9638 9.74978 28.2704Z" fill="black"/>
</svg>
