<svg width="60" height="60" viewBox="0 0 60 60" fill="none" xmlns="http://www.w3.org/2000/svg">
<path fill-rule="evenodd" clip-rule="evenodd" d="M30 60C46.5685 60 60 46.5685 60 30C60 13.4315 46.5685 0 30 0C13.4315 0 0 13.4315 0 30C0 46.5685 13.4315 60 30 60ZM42.5636 18.0963C42.8183 18.2621 43.0811 18.415 43.3511 18.5546C45.1077 19.4304 46.8234 19.697 47.6684 19.6054V26.425C47.6684 26.425 45.2568 26.325 43.4669 25.85C40.972 25.1826 39.3729 24.1576 39.3729 24.1576C39.3729 24.1576 38.263 23.4235 38.1797 23.3735V37.4661C38.1797 38.2494 37.9722 40.2093 37.3505 41.8434C36.8057 43.2407 36.0269 44.535 35.0473 45.6707C35.0473 45.6707 33.5141 47.5715 30.8209 48.8472C28.576 49.9111 26.579 49.9694 25.7859 49.9925C25.7211 49.9944 25.6643 49.9961 25.6161 49.998C25.6161 49.998 21.9288 50.1463 18.6031 47.8864L18.5865 47.8698V47.8864C17.4621 47.1019 16.4595 46.1559 15.6108 45.0791C14.5583 43.7366 13.9125 42.1442 13.7459 41.6776V41.6609C13.4809 40.8685 12.9251 38.9511 13.0084 37.1003C13.1409 33.8396 14.235 31.8306 14.525 31.3306C15.287 29.9596 16.2825 28.7321 17.4665 27.7033C18.8178 26.5705 20.3892 25.73 22.0816 25.2349C23.774 24.7398 25.5506 24.6009 27.2994 24.8268L27.291 31.8214C26.715 31.6337 26.1128 31.5384 25.507 31.5389C22.3063 31.5389 19.7123 34.1488 19.7123 37.372C19.7123 40.5951 22.3063 43.205 25.507 43.205C26.5035 43.2063 27.4832 42.9478 28.3493 42.455C29.1804 41.9829 29.8827 41.3137 30.3945 40.5064C30.9062 39.6991 31.2118 38.7784 31.2842 37.8253V37.8103C31.2884 37.7903 31.2883 37.7703 31.2883 37.7511C31.2892 37.7359 31.2902 37.7214 31.2911 37.7073C31.2931 37.678 31.295 37.6503 31.295 37.6211C31.31 37.2728 31.31 36.9203 31.31 36.5637V10H38.1797C38.1688 10 38.0972 10.6583 38.2705 11.6757H38.2622C38.4697 12.9015 39.033 14.6523 40.5412 16.378C41.144 17.0298 41.823 17.6067 42.5636 18.0963Z" fill="black"/>
</svg>
