<svg width="60" height="60" viewBox="0 0 60 60" fill="none" xmlns="http://www.w3.org/2000/svg">
<path fill-rule="evenodd" clip-rule="evenodd" d="M30 60C46.5685 60 60 46.5685 60 30C60 13.4315 46.5685 0 30 0C13.4315 0 0 13.4315 0 30C0 46.5685 13.4315 60 30 60ZM37.0787 21.2752H39.7948V28.9885H37.0787V21.2752ZM29.6136 21.2422H32.3298V28.959H29.6136V21.2422ZM14 20.428L20.7866 14H46.5814V32L34.3632 43.572H28.9316L22.1443 50V43.572H14V20.428ZM38.4364 35.858L43.8659 30.7168V16.572H22.1443V35.858H28.2523V40.358L33.0055 35.858H38.4364Z" fill="black"/>
</svg>
