<svg width="60" height="60" viewBox="0 0 60 60" fill="none" xmlns="http://www.w3.org/2000/svg">
<path fill-rule="evenodd" clip-rule="evenodd" d="M30 60C46.5685 60 60 46.5685 60 30C60 13.4315 46.5685 0 30 0C13.4315 0 0 13.4315 0 30C0 46.5685 13.4315 60 30 60ZM48.7803 17.3244C49.4261 17.9861 49.8879 18.807 50.1192 19.7048C50.7472 23.114 51.0408 26.5772 50.9955 30.0442C51.0165 33.4956 50.7232 36.9417 50.1192 40.3393C49.8879 41.2371 49.4261 42.058 48.7803 42.7197C48.1342 43.3814 47.3269 43.8605 46.4389 44.109C40.98 44.7628 35.4844 45.0573 29.9873 44.9908C29.9873 44.9908 16.8874 44.9908 13.5577 44.0649C12.6687 43.8136 11.8599 43.3341 11.2109 42.6732C10.5618 42.0121 10.0947 41.1927 9.85552 40.2953C9.26514 36.8961 8.97921 33.4505 9.00117 29.9999C8.98062 26.5496 9.26654 23.1041 9.85552 19.7048C10.0997 18.8049 10.5678 17.9825 11.2156 17.3152C11.8633 16.6479 12.6694 16.1577 13.5577 15.891C19.0093 15.2373 24.4976 14.9428 29.9873 15.0092C29.9873 15.0092 43.153 15.0092 46.4389 15.9351C47.3269 16.1837 48.1342 16.6628 48.7803 17.3244ZM25.8033 23.5848V36.4153L36.7564 29.9999L25.8033 23.5848Z" fill="black"/>
</svg>
