<svg width="24" height="24" viewBox="0 0 24 24" fill="none" xmlns="http://www.w3.org/2000/svg">
<path d="M11.2533 11.5995H11.2533V11.6C11.2533 12.0735 10.8538 12.4636 10.3451 12.4636C9.84548 12.4636 9.43699 12.0734 9.43699 11.6C9.43699 11.1265 9.83649 10.7364 10.3451 10.7364C10.8542 10.7364 11.2622 11.1268 11.2533 11.5995ZM16.2086 18.0876H5.87429C4.85154 18.0876 4.02441 17.3596 4.02441 16.464V5.648C4.02441 4.75237 4.85154 4.02441 5.87429 4.02441H18.1257C19.1485 4.02441 19.9756 4.75237 19.9756 5.648V19.9503C18.9282 19.1405 18.521 18.8298 18.1188 18.5126C17.655 18.1466 17.1979 17.7721 15.7731 16.6131L15.7087 16.5606L15.7345 16.6396L16.2086 18.0876ZM17.3943 13.232L17.4146 13.2456L17.4187 13.2394V13.232C17.4187 11.94 17.0886 10.7709 16.7587 9.92513C16.5938 9.50217 16.4288 9.15985 16.3051 8.92319C16.2432 8.80485 16.1916 8.71292 16.1554 8.65051C16.1373 8.61931 16.1231 8.59548 16.1134 8.57943L16.1023 8.56123L16.0994 8.55659L16.0986 8.55541L16.0984 8.5551L16.0984 8.55501L16.0777 8.568L16.1004 8.55369L16.0911 8.54759C15.4298 8.11358 14.7845 7.90261 14.3045 7.80012C14.0645 7.74888 13.8658 7.72474 13.7268 7.71342C13.6574 7.70775 13.6029 7.70529 13.5656 7.70425C13.547 7.70373 13.5327 7.70356 13.5231 7.70353L13.512 7.70354L13.5092 7.70357L13.5084 7.70359L13.5082 7.70359L13.5081 7.70359L13.5086 7.728L13.5081 7.70359L13.4983 7.70378L13.4913 7.71074L13.3633 7.83874L13.3334 7.86865L13.3743 7.87958C14.1495 8.08707 14.7168 8.34034 15.0901 8.54149C15.2292 8.61644 15.3414 8.68415 15.4273 8.73957C13.3029 7.8064 10.8539 7.83497 8.81867 8.61721L8.81832 8.61735C8.69417 8.66726 8.58844 8.7118 8.50429 8.74821C8.59762 8.68745 8.72403 8.61084 8.88459 8.52556C9.27839 8.31643 9.8777 8.05516 10.6986 7.84767L10.7391 7.83743L10.7103 7.80716L10.6188 7.71116L10.6118 7.70379L10.6016 7.70359L10.6011 7.728L10.6016 7.70359L10.6015 7.70359L10.6013 7.70359L10.6006 7.70357L10.5977 7.70354L10.5867 7.70353C10.577 7.70356 10.5627 7.70373 10.5441 7.70425C10.5068 7.70529 10.4523 7.70775 10.3829 7.71342C10.244 7.72474 10.0452 7.74888 9.80519 7.80012C9.3252 7.90261 8.67995 8.11358 8.01861 8.54759L8.01728 8.54557L8.01135 8.55498L8.032 8.568L8.01133 8.55501L8.01127 8.5551L8.01108 8.55541L8.01034 8.55659L8.00746 8.56123L7.99633 8.57943C7.98661 8.59548 7.97239 8.61931 7.95431 8.65051C7.91814 8.71292 7.86654 8.80485 7.80465 8.92319C7.68088 9.15985 7.51592 9.50217 7.35097 9.92513C7.02114 10.7709 6.69101 11.94 6.69101 13.232H6.68615L6.69507 13.2455L6.71543 13.232L6.6951 13.2455L6.69514 13.2456L6.69528 13.2458L6.69576 13.2465L6.6976 13.2492L6.70472 13.2593C6.71103 13.2681 6.72047 13.2808 6.73316 13.297C6.75854 13.3294 6.79692 13.3755 6.84925 13.4309C6.95393 13.5417 7.11445 13.6897 7.33844 13.8393C7.7866 14.1387 8.48817 14.4443 9.50332 14.4724L9.51428 14.4727L9.52179 14.4647L9.504 14.448L9.5218 14.4647L9.52181 14.4647L9.52185 14.4647L9.52204 14.4645L9.52278 14.4637L9.52567 14.4606L9.53688 14.4486L9.57898 14.4037C9.61499 14.3652 9.66587 14.3106 9.72532 14.2466C9.84421 14.1186 9.99744 13.9525 10.1347 13.8004L10.1616 13.7705L10.1228 13.7604C9.54561 13.6093 9.14857 13.3748 8.89612 13.1787C8.76987 13.0806 8.67973 12.9921 8.62129 12.9283C8.62109 12.928 8.62088 12.9278 8.62068 12.9276C8.65997 12.9489 8.69994 12.9698 8.73631 12.9885C8.77371 13.0078 8.80746 13.0247 8.83297 13.0376C8.85914 13.0507 8.87535 13.0589 8.87912 13.0611L8.87909 13.0611L8.88069 13.0619C10.4293 13.8208 12.6281 14.0693 14.6046 13.3431C14.8926 13.2494 15.21 13.1171 15.5435 12.9347C15.5424 12.9359 15.5412 12.9372 15.54 12.9385C15.4793 13.0037 15.3857 13.094 15.2549 13.1936C14.9934 13.3927 14.5827 13.6292 13.9873 13.7763L13.9477 13.7861L13.975 13.8164C14.1123 13.9685 14.2633 14.1307 14.3799 14.2547C14.4382 14.3168 14.488 14.3693 14.5232 14.4063L14.5642 14.4495L14.5752 14.4609L14.578 14.4639L14.5787 14.4646L14.5789 14.4648L14.5789 14.4649L14.5789 14.4649L14.5966 14.448L14.5789 14.4649L14.5864 14.4727L14.5972 14.4724C15.6124 14.4443 16.3162 14.1387 16.7667 13.8393C16.9918 13.6897 17.1534 13.5417 17.259 13.431C17.3117 13.3756 17.3505 13.3295 17.3761 13.2971C17.3889 13.2809 17.3984 13.2682 17.4048 13.2594L17.412 13.2493L17.4139 13.2466L17.4144 13.2459L17.4145 13.2457L17.4145 13.2456L17.3943 13.232ZM14.5904 11.6C14.5904 12.0735 14.1909 12.4636 13.6823 12.4636C13.1826 12.4636 12.7741 12.0734 12.7741 11.6C12.7741 11.1265 13.1736 10.7364 13.6823 10.7364C14.1909 10.7364 14.5904 11.1265 14.5904 11.6Z" fill="white" stroke="#DBE4EB" stroke-width="0.0488281"/>
</svg>
