<svg width="24" height="24" viewBox="0 0 24 24" fill="none" xmlns="http://www.w3.org/2000/svg">
<path d="M19.9756 12.0487C19.9756 16.0439 17.0733 19.357 13.2744 19.9714V14.3997H15.1139H15.1348L15.138 14.379L15.4928 12.0524L15.4971 12.0243H15.4687H13.2744V10.5379C13.2744 10.2232 13.3511 9.91547 13.5477 9.6867C13.7437 9.45862 14.0621 9.30539 14.5535 9.30539H15.5626H15.587V9.28097V7.30126V7.28068L15.5667 7.2772L15.5626 7.30126L15.5667 7.27719L15.5667 7.27719L15.5665 7.27716L15.566 7.27708L15.564 7.27673L15.5561 7.27541L15.5254 7.2704C15.4986 7.26609 15.4593 7.25994 15.4094 7.25256C15.3097 7.23781 15.1677 7.21814 14.9982 7.19847C14.6594 7.15914 14.2107 7.11976 13.7716 7.11976C12.8526 7.11976 12.0904 7.39992 11.558 7.93619C11.0255 8.47246 10.7256 9.26203 10.7256 10.2754V12.0243H8.71774H8.69333V12.0487V14.3753V14.3997H8.71774H10.7256V19.9714C6.92669 19.357 4.02441 16.0439 4.02441 12.0487C4.02441 7.61578 7.59427 4.02441 12 4.02441C16.4057 4.02441 19.9756 7.61578 19.9756 12.0487Z" fill="#F2F2F2" stroke="#DBE4EB" stroke-width="0.0488281"/>
</svg>
