<svg width="24" height="24" viewBox="0 0 24 24" fill="none" xmlns="http://www.w3.org/2000/svg">
<path d="M9.81613 16.9262L9.81045 16.9024C9.7668 16.9129 9.72738 16.9081 9.6987 16.8946C9.67007 16.8811 9.65345 16.8599 9.65 16.8369C9.64287 16.7796 9.69086 16.7244 9.77843 16.7022C9.82037 16.698 9.86013 16.7057 9.88987 16.7206C9.92041 16.7359 9.93718 16.7569 9.94039 16.7777L9.96452 16.774M9.81613 16.9262L9.81026 16.9025C9.85356 16.8918 9.88881 16.8721 9.91168 16.849C9.93449 16.826 9.9438 16.801 9.94036 16.7775L9.96452 16.774M9.81613 16.9262C9.71935 16.9493 9.63548 16.9063 9.62581 16.8402L9.77419 16.6781C9.86774 16.6681 9.95484 16.7111 9.96452 16.774M9.81613 16.9262C9.90968 16.903 9.97419 16.8402 9.96452 16.774M9.18387 16.9779V16.9778L9.1816 16.978C9.13267 16.9825 9.09347 16.9724 9.06729 16.9548C9.04157 16.9374 9.02764 16.9124 9.02764 16.8832C9.02764 16.86 9.04058 16.8369 9.06616 16.8187C9.09175 16.8005 9.12859 16.7885 9.17097 16.7885V16.7886L9.17346 16.7884C9.21698 16.7839 9.25642 16.7937 9.28427 16.8118C9.31192 16.8298 9.3272 16.855 9.3272 16.8832C9.3272 16.9064 9.31426 16.9295 9.28867 16.9476C9.26309 16.9658 9.22625 16.9779 9.18387 16.9779ZM8.49606 16.8737L8.49619 16.8734L8.492 16.8725C8.44835 16.8635 8.41306 16.8421 8.39156 16.8169C8.37001 16.7916 8.36375 16.7649 8.37149 16.7422C8.37975 16.718 8.40188 16.6975 8.43391 16.6856C8.46565 16.6738 8.50461 16.6715 8.54154 16.6816C8.58579 16.6953 8.62081 16.7192 8.64228 16.7459C8.66386 16.7727 8.67047 16.8001 8.66366 16.8234C8.65688 16.8466 8.63557 16.8667 8.60355 16.8774C8.57183 16.888 8.53258 16.8881 8.49606 16.8737ZM9.92228 17.5973C9.95163 17.5923 9.97504 17.5879 9.99172 17.5847C9.99185 17.9282 9.9942 18.3701 9.99655 18.7543C9.99727 18.8712 9.99799 18.9828 9.99864 19.0846C10.0002 19.327 10.0014 19.514 10.0014 19.5862C10.0014 19.6888 9.96668 19.8008 9.88488 19.8778C9.80417 19.9537 9.67369 19.9992 9.47395 19.9628C6.26899 18.8608 4.02441 15.7311 4.02441 12.0727C4.02441 7.49682 7.43654 4.02441 11.8968 4.02441C16.3578 4.02441 19.9756 7.49765 19.9756 12.0727C19.9756 15.7314 17.7952 18.8609 14.5809 19.9562C14.3828 19.9926 14.2523 19.9471 14.1711 19.8711C14.0889 19.7941 14.0534 19.6821 14.0534 19.5796C14.0534 19.49 14.0545 19.2794 14.0559 18.9973C14.0566 18.8525 14.0575 18.6889 14.0583 18.5131C14.0607 17.9949 14.0631 17.3712 14.0631 16.8137C14.0631 16.0653 13.8314 15.572 13.546 15.2967C14.4298 15.1941 15.3396 15.0731 16.0321 14.5897C16.7411 14.095 17.218 13.2242 17.218 11.6227C17.218 11.1663 17.1383 10.8219 16.993 10.5175C16.8497 10.2174 16.6432 9.9576 16.3894 9.66897C16.4801 9.42852 16.7361 8.55118 16.3002 7.4188L16.296 7.40794L16.2849 7.40435C16.109 7.34736 15.8795 7.37782 15.6381 7.45168C15.3957 7.52583 15.137 7.64511 14.9002 7.77077C14.6634 7.8965 14.4477 8.02902 14.2913 8.13007C14.2131 8.18061 14.1497 8.2233 14.1058 8.25338C14.0839 8.26842 14.0668 8.28031 14.0552 8.28844L14.0471 8.29416C13.4029 8.11036 12.7111 8.01523 12.0258 8.01523C11.3405 8.01523 10.6487 8.11036 10.0045 8.29417L9.9964 8.28846C9.98481 8.28035 9.96774 8.26849 9.94579 8.2535C9.90189 8.22351 9.83846 8.18093 9.76025 8.13052C9.60388 8.02973 9.38824 7.89752 9.15135 7.772C8.9146 7.64655 8.65591 7.52739 8.41356 7.45308C8.17215 7.37907 7.9427 7.3482 7.76677 7.40431L7.75563 7.40787L7.75142 7.41878C7.31552 8.54787 7.57153 9.42832 7.66223 9.66894C7.40837 9.95648 7.2193 10.2157 7.09361 10.5161C6.96623 10.8205 6.90462 11.1655 6.90462 11.6227C6.90462 13.2189 7.36111 14.0905 8.04983 14.5871C8.72317 15.0726 9.61412 15.1958 10.4979 15.297C10.2781 15.521 10.0856 15.8778 10.0132 16.377C9.78236 16.4846 9.38215 16.6235 8.95384 16.5843C8.51992 16.5445 8.05453 16.3217 7.70523 15.6902L7.70516 15.6901C7.48107 15.2908 7.16521 15.0743 6.90556 14.9577C6.77579 14.8994 6.65998 14.8661 6.57648 14.8473C6.53472 14.8379 6.50101 14.8321 6.47763 14.8287C6.46594 14.827 6.45683 14.8258 6.45058 14.8251L6.44339 14.8244L6.44148 14.8242L6.44095 14.8242L6.44079 14.8241L6.44075 14.8241L6.43871 14.8485L6.44072 14.8241L6.43902 14.8241C6.33913 14.8228 6.26203 14.8299 6.20391 14.8438C6.14608 14.8576 6.10458 14.8788 6.07895 14.9077C6.05242 14.9377 6.04532 14.9732 6.05095 15.0091C6.05642 15.044 6.07383 15.0795 6.09623 15.1131C6.1411 15.1802 6.21084 15.2466 6.26818 15.2955C6.29705 15.3202 6.32319 15.3407 6.34212 15.3551C6.35159 15.3623 6.35928 15.368 6.36462 15.3719L6.3708 15.3763L6.37244 15.3775L6.37288 15.3778L6.373 15.3779L6.37304 15.3779L6.3871 15.358L6.37284 15.3782L6.37673 15.3801C6.63389 15.5007 6.8549 15.7974 7.01277 16.0687C7.09128 16.2037 7.15341 16.331 7.19592 16.4247C7.21716 16.4714 7.23348 16.5098 7.24448 16.5363L7.25692 16.567L7.26005 16.575L7.26082 16.577L7.26083 16.577C7.50269 17.3318 8.19872 17.5805 8.82544 17.642C9.1395 17.6728 9.43834 17.6569 9.65849 17.6335C9.76861 17.6217 9.85918 17.608 9.92228 17.5973ZM7.15061 15.4301L7.15073 15.4302L7.15296 15.428C7.16637 15.4142 7.18577 15.4096 7.2102 15.4152C7.23484 15.421 7.26212 15.437 7.28527 15.4605C7.30986 15.4889 7.32332 15.5191 7.3266 15.5443C7.3299 15.5697 7.32288 15.5872 7.31068 15.5969L7.31056 15.5967L7.30833 15.599C7.29492 15.6127 7.27552 15.6174 7.25109 15.6117C7.22645 15.606 7.19916 15.59 7.17601 15.5664C7.15143 15.538 7.13797 15.5078 7.13469 15.4826C7.13139 15.4572 7.13841 15.4397 7.15061 15.4301ZM6.7871 15.1429L6.80726 15.1567C6.80752 15.1563 6.80779 15.1559 6.80807 15.1555C6.80828 15.1551 6.80849 15.1547 6.80871 15.1543L6.7871 15.1429ZM6.91657 15.1425C6.91725 15.1427 6.91794 15.1429 6.91863 15.1431L6.92581 15.1198L6.91467 15.1415C6.9153 15.1418 6.91594 15.1421 6.91657 15.1425ZM7.84789 16.3395L7.84823 16.3399L7.85139 16.3359C7.86564 16.3179 7.89071 16.3086 7.92282 16.3131C7.95487 16.3176 7.99189 16.336 8.02408 16.3705L8.02406 16.3705L8.0249 16.3713C8.05362 16.3993 8.07219 16.4354 8.07889 16.4686C8.08576 16.5028 8.07939 16.5286 8.06639 16.5419L8.0663 16.5418L8.06473 16.5438C8.05038 16.5619 8.02603 16.5711 7.99456 16.5666C7.96294 16.5621 7.92572 16.5437 7.89167 16.5088L7.89175 16.5087L7.88998 16.5072C7.85672 16.4791 7.83647 16.4433 7.82998 16.411C7.82343 16.3785 7.83119 16.3534 7.84789 16.3395ZM7.47769 15.8549L7.47779 15.8551L7.48015 15.8531C7.49763 15.8386 7.52172 15.8356 7.54868 15.8457C7.57588 15.8559 7.60403 15.8791 7.62417 15.913L7.62413 15.913L7.62496 15.9143C7.67312 15.9853 7.66719 16.0552 7.6298 16.0867C7.61874 16.0952 7.59724 16.098 7.56769 16.086C7.53898 16.0743 7.50801 16.0502 7.48472 16.0159C7.46116 15.9812 7.45022 15.9453 7.45022 15.9159C7.45022 15.8864 7.46082 15.8658 7.47769 15.8549Z" fill="white" stroke="#DBE4EB" stroke-width="0.0488281"/>
</svg>
