<?xml version="1.0" encoding="UTF-8"?>
<svg id="Capa_1" data-name="Capa 1" xmlns="http://www.w3.org/2000/svg" xmlns:xlink="http://www.w3.org/1999/xlink" viewBox="0 0 170 115">
  <defs>
    <style>
      .cls-1 {
        fill: url(#Degradado_sin_nombre_90);
        stroke: url(#Degradado_sin_nombre_83-10);
      }

      .cls-1, .cls-2, .cls-3, .cls-4, .cls-5, .cls-6, .cls-7, .cls-8, .cls-9, .cls-10, .cls-11, .cls-12 {
        stroke-linejoin: round;
        stroke-width: 5.49px;
      }

      .cls-2 {
        stroke: url(#Degradado_sin_nombre_83);
      }

      .cls-2, .cls-4, .cls-5, .cls-6, .cls-7, .cls-8, .cls-9, .cls-11, .cls-12 {
        fill: none;
      }

      .cls-3 {
        fill: url(#Degradado_sin_nombre_90-3);
        stroke: url(#Degradado_sin_nombre_83-12);
      }

      .cls-4 {
        stroke: url(#Degradado_sin_nombre_83-4);
      }

      .cls-5 {
        stroke: url(#Degradado_sin_nombre_83-6);
      }

      .cls-6 {
        stroke: url(#Degradado_sin_nombre_83-7);
      }

      .cls-7 {
        stroke: url(#Degradado_sin_nombre_83-9);
      }

      .cls-8 {
        stroke: url(#Degradado_sin_nombre_83-8);
      }

      .cls-9 {
        stroke: url(#Degradado_sin_nombre_83-3);
      }

      .cls-10 {
        fill: url(#Degradado_sin_nombre_90-2);
        stroke: url(#Degradado_sin_nombre_83-11);
      }

      .cls-11 {
        stroke: url(#Degradado_sin_nombre_83-5);
      }

      .cls-12 {
        stroke: url(#Degradado_sin_nombre_83-2);
      }
    </style>
    <linearGradient id="Degradado_sin_nombre_83" data-name="Degradado sin nombre 83" x1="55.6" y1="78.71" x2="55.6" y2="36.29" gradientUnits="userSpaceOnUse">
      <stop offset="0" stop-color="#f29400"/>
      <stop offset=".19" stop-color="#e6c081"/>
      <stop offset=".31" stop-color="#eec687"/>
      <stop offset=".69" stop-color="#c58511"/>
      <stop offset="1" stop-color="#f29400"/>
    </linearGradient>
    <linearGradient id="Degradado_sin_nombre_83-2" data-name="Degradado sin nombre 83" x1="74.61" y1="113.71" x2="74.61" xlink:href="#Degradado_sin_nombre_83"/>
    <linearGradient id="Degradado_sin_nombre_83-3" data-name="Degradado sin nombre 83" x1="34.4" y1="113.71" x2="34.4" y2="73.22" xlink:href="#Degradado_sin_nombre_83"/>
    <linearGradient id="Degradado_sin_nombre_83-4" data-name="Degradado sin nombre 83" x1="114.4" x2="114.4" xlink:href="#Degradado_sin_nombre_83"/>
    <linearGradient id="Degradado_sin_nombre_83-5" data-name="Degradado sin nombre 83" x1="138.61" y1="113.71" x2="138.61" xlink:href="#Degradado_sin_nombre_83"/>
    <linearGradient id="Degradado_sin_nombre_83-6" data-name="Degradado sin nombre 83" x1="93.21" y1="113.71" x2="93.21" y2="73.22" xlink:href="#Degradado_sin_nombre_83"/>
    <linearGradient id="Degradado_sin_nombre_83-7" data-name="Degradado sin nombre 83" x1="114.4" y1="113.71" x2="114.4" y2="36.29" xlink:href="#Degradado_sin_nombre_83"/>
    <linearGradient id="Degradado_sin_nombre_83-8" data-name="Degradado sin nombre 83" x1="114.4" y1="113.71" x2="114.4" y2="36.29" xlink:href="#Degradado_sin_nombre_83"/>
    <linearGradient id="Degradado_sin_nombre_83-9" data-name="Degradado sin nombre 83" x1="114.4" y1="113.71" x2="114.4" y2="36.29" xlink:href="#Degradado_sin_nombre_83"/>
    <linearGradient id="Degradado_sin_nombre_90" data-name="Degradado sin nombre 90" x1="55.89" y1="51.82" x2="114.56" y2="-6.84" gradientUnits="userSpaceOnUse">
      <stop offset="0" stop-color="#fccb00"/>
      <stop offset=".25" stop-color="#fffad2"/>
      <stop offset=".3" stop-color="#fff6c0"/>
      <stop offset=".39" stop-color="#ffed93"/>
      <stop offset=".52" stop-color="#ffde4c"/>
      <stop offset=".6" stop-color="#ffd621"/>
      <stop offset=".83" stop-color="#f4db7c"/>
      <stop offset=".87" stop-color="#f2dc8e"/>
      <stop offset="1" stop-color="#fffad2"/>
    </linearGradient>
    <linearGradient id="Degradado_sin_nombre_83-10" data-name="Degradado sin nombre 83" x1="85.23" y1="43.7" x2="85.23" y2="1.29" xlink:href="#Degradado_sin_nombre_83"/>
    <linearGradient id="Degradado_sin_nombre_90-2" data-name="Degradado sin nombre 90" x1="83.45" y1="65.98" x2="135.42" y2="14.01" xlink:href="#Degradado_sin_nombre_90"/>
    <linearGradient id="Degradado_sin_nombre_83-11" data-name="Degradado sin nombre 83" x1="109.43" x2="109.43" y2="1.29" xlink:href="#Degradado_sin_nombre_83"/>
    <linearGradient id="Degradado_sin_nombre_90-3" data-name="Degradado sin nombre 90" x1="43.18" y1="84.51" x2="84.89" y2="42.8" xlink:href="#Degradado_sin_nombre_90"/>
    <linearGradient id="Degradado_sin_nombre_83-12" data-name="Degradado sin nombre 83" x1="64.03" x2="64.03" y2="38.21" xlink:href="#Degradado_sin_nombre_83"/>
  </defs>
  <g>
    <polygon class="cls-2" points="53.41 75.96 95.8 39.04 57.79 39.04 15.39 75.96 53.41 75.96"/>
    <polygon class="cls-12" points="95.8 39.04 74.2 75.96 63.8 110.97 53.41 75.96 95.8 39.04"/>
    <polygon class="cls-9" points="63.8 110.97 53.41 75.96 15.39 75.96 5 110.97 63.8 110.97"/>
  </g>
  <g>
    <g>
      <polygon class="cls-4" points="112.21 75.96 154.61 39.04 116.59 39.04 74.2 75.96 112.21 75.96"/>
      <polygon class="cls-11" points="154.61 39.04 165 74.05 122.61 110.97 112.21 75.96 154.61 39.04"/>
      <polygon class="cls-5" points="122.61 110.97 112.21 75.96 74.2 75.96 63.8 110.97 122.61 110.97"/>
    </g>
    <g>
      <polygon class="cls-6" points="112.21 75.96 154.61 39.04 116.59 39.04 74.2 75.96 112.21 75.96"/>
      <polygon class="cls-8" points="154.61 39.04 165 74.05 122.61 110.97 112.21 75.96 154.61 39.04"/>
      <polygon class="cls-7" points="122.61 110.97 112.21 75.96 74.2 75.96 63.8 110.97 122.61 110.97"/>
    </g>
  </g>
  <g>
    <polygon class="cls-1" points="83.04 40.95 125.43 4.03 87.42 4.03 45.02 40.95 83.04 40.95"/>
    <polygon class="cls-10" points="125.43 4.03 135.83 39.04 93.43 75.96 83.04 40.95 125.43 4.03"/>
    <polygon class="cls-3" points="93.43 75.96 83.04 40.95 45.02 40.95 34.63 75.96 93.43 75.96"/>
  </g>
</svg>