<svg width="24" height="24" viewBox="0 0 24 24" fill="none" xmlns="http://www.w3.org/2000/svg">
<path d="M8.71277 4.548C7.91557 4.58575 7.39057 4.7114 6.93979 4.88591L6.93561 4.88753L6.9356 4.88751C6.47015 5.06293 6.04854 5.33772 5.70015 5.69275L5.6935 5.69952L5.69344 5.69945C5.33813 6.04805 5.0631 6.46992 4.88749 6.93567L4.88593 6.9398L4.88591 6.93979C4.71048 7.39293 4.58387 7.9207 4.54749 8.72513C4.50945 9.56627 4.5 9.82948 4.5 12C4.5 14.1701 4.50873 14.433 4.54747 15.2759L8.71277 4.548ZM8.71277 4.548H8.71332L8.72481 4.54747C9.56624 4.50874 9.8291 4.5 12 4.5C14.1705 4.5 14.4337 4.50945 15.2749 4.54749C16.0793 4.58387 16.6071 4.71048 17.0602 4.88591L17.0602 4.88593L17.064 4.88735C17.5294 5.06325 17.9516 5.33818 18.3007 5.69363L18.3007 5.69369L18.3074 5.70032C18.6625 6.04839 18.9365 6.46945 19.1116 6.93525L19.1116 6.93526L19.1136 6.94037C19.2894 7.39289 19.4154 7.92048 19.4525 8.72405C19.4913 9.56696 19.5 9.82984 19.5 12C19.5 14.1705 19.4905 14.4337 19.4525 15.2756M8.71277 4.548L4.54747 15.276C4.58457 16.0795 4.71058 16.6073 4.88591 17.0602L4.88759 17.0645L4.88757 17.0645C5.0629 17.5302 5.3377 17.9521 5.6928 18.3006L5.69915 18.3069L5.69909 18.3069C6.04803 18.6618 6.47012 18.9365 6.93599 19.1116L6.94111 19.1136L6.94109 19.1136C7.39391 19.2895 7.92144 19.4161 8.72439 19.4525M19.4525 15.2756C19.4525 15.2756 19.4525 15.2756 19.4525 15.2756L19.952 15.2982L19.4525 15.2756ZM19.4525 15.2756C19.4161 16.0786 19.2895 16.6061 19.1136 17.0589L19.1136 17.0589L19.1116 17.064C18.9365 17.5299 18.6619 17.952 18.3069 18.3009L18.3069 18.3008L18.3007 18.3071C17.9519 18.6623 17.5299 18.9365 17.0645 19.1117L17.0645 19.1117L17.0596 19.1136C16.6071 19.2894 16.0795 19.4154 15.2759 19.4525M15.2759 19.4525C15.2759 19.4525 15.2759 19.4525 15.2759 19.4525L15.2989 19.952L15.2759 19.4525ZM15.2759 19.4525C14.4338 19.4913 14.1709 19.5 12 19.5C9.82949 19.5 9.56626 19.4905 8.72439 19.4525M8.72439 19.4525C8.72441 19.4525 8.72443 19.4525 8.72444 19.4525L8.70182 19.952L8.72439 19.4525ZM12.9207 15.0355C12.2182 15.2479 11.4637 15.2099 10.7861 14.9278L12.9207 15.0355ZM12.9207 15.0355C13.6232 14.8231 14.2302 14.3733 14.638 13.7631M12.9207 15.0355L14.638 13.7631M14.638 13.7631C15.0458 13.1528 15.229 12.4199 15.1565 11.6896M14.638 13.7631L15.1565 11.6896M15.1565 11.6896C15.084 10.9594 14.7603 10.2771 14.2407 9.75906L15.1565 11.6896ZM5.34255 18.6575C4.93555 18.2579 4.62059 17.7745 4.41964 17.2407L5.34255 18.6575ZM7.10012 5.29768L7.09984 5.29779C6.66524 5.46722 6.33983 5.67654 6.01031 6.0055C5.6937 6.31423 5.44974 6.68953 5.29609 7.1042C5.16725 7.4362 5.02651 7.91247 4.98852 8.74445C4.94944 9.59972 4.94145 9.86193 4.94145 12C4.94145 14.1381 4.94944 14.4003 4.98852 15.2555C5.02652 16.0876 5.16726 16.5638 5.29611 16.8958C5.44916 17.3087 5.69229 17.6837 6.00787 17.9921C6.31626 18.3077 6.69128 18.5508 7.10417 18.7039C7.43617 18.8327 7.91246 18.9735 8.74446 19.0115C9.59972 19.0506 9.8612 19.0585 12 19.0585C14.1388 19.0585 14.4003 19.0506 15.2555 19.0115C16.0909 18.9733 16.5677 18.8316 16.8999 18.7023L16.9002 18.7022C17.3348 18.5328 17.6602 18.3234 17.9897 17.9945C18.3065 17.6857 18.5504 17.3098 18.7039 16.8959C18.8327 16.5639 18.9735 16.0876 19.0115 15.2555C19.0506 14.4003 19.0585 14.1381 19.0585 12C19.0585 9.86193 19.0506 9.59972 19.0115 8.74445C18.9733 7.90907 18.8316 7.43229 18.7023 7.10012L18.7022 7.09984C18.5328 6.66523 18.3235 6.33981 17.9945 6.01028C17.6857 5.69371 17.3105 5.44976 16.8958 5.2961C16.5638 5.16725 16.0875 5.02652 15.2555 4.98852C14.4003 4.94944 14.1381 4.94145 12 4.94145C9.86193 4.94145 9.59973 4.94944 8.74446 4.98852C7.90907 5.02667 7.43229 5.1684 7.10012 5.29768ZM16.0132 7.46892L15.6495 7.12582L16.0132 7.46891C16.0565 7.42295 16.1087 7.38615 16.1665 7.3607C16.2243 7.33524 16.2867 7.32166 16.3499 7.32073C16.4131 7.31981 16.4758 7.33158 16.5344 7.35533C16.5929 7.37909 16.6461 7.41435 16.6908 7.45904C16.7355 7.50372 16.7707 7.55691 16.7945 7.61547C16.8182 7.67402 16.83 7.73675 16.8291 7.79993C16.8282 7.86312 16.8146 7.92548 16.7891 7.98331C16.7637 8.04115 16.7269 8.0933 16.6809 8.13665C16.5915 8.22098 16.4728 8.26715 16.3499 8.26536C16.227 8.26357 16.1097 8.21396 16.0228 8.12706C15.9359 8.04016 15.8862 7.92282 15.8845 7.79993C15.8827 7.67705 15.9288 7.55831 16.0132 7.46892ZM14.2407 9.75902C13.9093 9.42786 13.5086 9.1743 13.0675 9.01657C12.6263 8.85884 12.1557 8.80088 11.6895 8.84686C11.2232 8.89285 10.773 9.04164 10.3711 9.28252C9.96931 9.5234 9.62588 9.85038 9.36559 10.2399C9.10529 10.6294 8.93459 11.0719 8.8658 11.5353C8.797 11.9987 8.8318 12.4716 8.96771 12.92C9.10362 13.3683 9.33724 13.781 9.65177 14.1282C9.96614 14.4753 10.3535 14.7483 10.786 14.9278L14.2407 9.75902ZM9.44592 9.44592C9.78132 9.11051 10.1795 8.84445 10.6177 8.66293C11.056 8.48141 11.5257 8.38798 12 8.38798C12.4743 8.38798 12.944 8.48141 13.3823 8.66293C13.8205 8.84445 14.2187 9.11051 14.5541 9.44592C14.8895 9.78132 15.1555 10.1795 15.3371 10.6177C15.5186 11.056 15.612 11.5257 15.612 12C15.612 12.4743 15.5186 12.944 15.3371 13.3823C15.1555 13.8205 14.8895 14.2187 14.5541 14.5541C13.8767 15.2315 12.958 15.612 12 15.612C11.042 15.612 10.1233 15.2315 9.44592 14.5541C8.76853 13.8767 8.38798 12.958 8.38798 12C8.38798 11.042 8.76853 10.1233 9.44592 9.44592Z" fill="white" stroke="#DBE4EB"/>
</svg>
