<svg width="16" height="16" viewBox="0 0 16 16" fill="none" xmlns="http://www.w3.org/2000/svg">
<path fill-rule="evenodd" clip-rule="evenodd" d="M4.70182 0.048C5.55491 0.00872726 5.82691 0 8 0C10.1731 0 10.4451 0.00945454 11.2975 0.048C12.1498 0.0865454 12.7316 0.222545 13.2407 0.419636C13.7738 0.621091 14.2575 0.936 14.6575 1.34327C15.0647 1.74255 15.3789 2.22545 15.5796 2.75927C15.7775 3.26836 15.9127 3.85018 15.952 4.70109C15.9913 5.55564 16 5.82764 16 8C16 10.1731 15.9905 10.4451 15.952 11.2982C15.9135 12.1491 15.7775 12.7309 15.5796 13.24C15.3789 13.7739 15.0642 14.2576 14.6575 14.6575C14.2575 15.0647 13.7738 15.3789 13.2407 15.5796C12.7316 15.7775 12.1498 15.9127 11.2989 15.952C10.4451 15.9913 10.1731 16 8 16C5.82691 16 5.55491 15.9905 4.70182 15.952C3.85091 15.9135 3.26909 15.7775 2.76 15.5796C2.22612 15.3789 1.74241 15.0642 1.34255 14.6575C0.935549 14.2579 0.620593 13.7745 0.419636 13.2407C0.222545 12.7316 0.0872727 12.1498 0.048 11.2989C0.00872726 10.4444 0 10.1724 0 8C0 5.82691 0.00945454 5.55491 0.048 4.70255C0.0865454 3.85018 0.222545 3.26836 0.419636 2.75927C0.620889 2.22551 0.936086 1.74205 1.34327 1.34255C1.74257 0.935637 2.2258 0.620686 2.75927 0.419636C3.26836 0.222545 3.85018 0.0872727 4.70109 0.048H4.70182ZM11.2327 1.488C10.3891 1.44945 10.136 1.44145 8 1.44145C5.864 1.44145 5.61091 1.44945 4.76727 1.488C3.98691 1.52364 3.56364 1.65382 3.28145 1.76364C2.90836 1.90909 2.64145 2.08145 2.36145 2.36145C2.09603 2.61967 1.89177 2.93402 1.76364 3.28145C1.65382 3.56364 1.52364 3.98691 1.488 4.76727C1.44945 5.61091 1.44145 5.864 1.44145 8C1.44145 10.136 1.44945 10.3891 1.488 11.2327C1.52364 12.0131 1.65382 12.4364 1.76364 12.7185C1.89164 13.0655 2.096 13.3804 2.36145 13.6385C2.61964 13.904 2.93455 14.1084 3.28145 14.2364C3.56364 14.3462 3.98691 14.4764 4.76727 14.512C5.61091 14.5505 5.86327 14.5585 8 14.5585C10.1367 14.5585 10.3891 14.5505 11.2327 14.512C12.0131 14.4764 12.4364 14.3462 12.7185 14.2364C13.0916 14.0909 13.3585 13.9185 13.6385 13.6385C13.904 13.3804 14.1084 13.0655 14.2364 12.7185C14.3462 12.4364 14.4764 12.0131 14.512 11.2327C14.5505 10.3891 14.5585 10.136 14.5585 8C14.5585 5.864 14.5505 5.61091 14.512 4.76727C14.4764 3.98691 14.3462 3.56364 14.2364 3.28145C14.0909 2.90836 13.9185 2.64145 13.6385 2.36145C13.3803 2.09605 13.066 1.89179 12.7185 1.76364C12.4364 1.65382 12.0131 1.52364 11.2327 1.488ZM6.97818 10.4662C7.54884 10.7037 8.18428 10.7358 8.77595 10.5569C9.36762 10.378 9.87883 9.99921 10.2223 9.48527C10.5657 8.97132 10.72 8.35409 10.6589 7.73899C10.5978 7.12388 10.3251 6.54907 9.88727 6.11273C9.60817 5.8338 9.2707 5.62023 8.89915 5.48738C8.5276 5.35453 8.13122 5.30572 7.73854 5.34445C7.34586 5.38318 6.96666 5.50849 6.62822 5.71137C6.28979 5.91424 6.00054 6.18963 5.78131 6.51771C5.56208 6.84579 5.41832 7.21839 5.36038 7.6087C5.30243 7.99901 5.33175 8.3973 5.44621 8.77492C5.56068 9.15254 5.75744 9.50008 6.02234 9.79253C6.28724 10.085 6.61369 10.315 6.97818 10.4662ZM5.09236 5.09236C5.4742 4.71053 5.92751 4.40764 6.4264 4.20099C6.92529 3.99434 7.46 3.88798 8 3.88798C8.54 3.88798 9.07471 3.99434 9.5736 4.20099C10.0725 4.40764 10.5258 4.71053 10.9076 5.09236C11.2895 5.4742 11.5924 5.92751 11.799 6.4264C12.0057 6.92529 12.112 7.46 12.112 8C12.112 8.54 12.0057 9.07471 11.799 9.5736C11.5924 10.0725 11.2895 10.5258 10.9076 10.9076C10.1365 11.6788 9.09058 12.112 8 12.112C6.90942 12.112 5.86352 11.6788 5.09236 10.9076C4.32121 10.1365 3.88798 9.09058 3.88798 8C3.88798 6.90942 4.32121 5.86352 5.09236 5.09236ZM13.024 4.50036C13.1186 4.41111 13.1944 4.30377 13.2468 4.18471C13.2992 4.06565 13.3271 3.93729 13.329 3.80722C13.3309 3.67716 13.3067 3.54803 13.2578 3.4275C13.2089 3.30696 13.1363 3.19746 13.0443 3.10548C12.9524 3.0135 12.8429 2.94091 12.7223 2.89201C12.6018 2.84311 12.4727 2.81889 12.3426 2.82079C12.2125 2.82268 12.0842 2.85066 11.9651 2.90305C11.8461 2.95545 11.7387 3.0312 11.6495 3.12582C11.4759 3.30984 11.3808 3.55427 11.3845 3.80722C11.3882 4.06017 11.4903 4.30173 11.6692 4.48061C11.8481 4.6595 12.0896 4.76162 12.3426 4.76531C12.5955 4.769 12.84 4.67396 13.024 4.50036Z" fill="white"/>
</svg>
