<svg width="60" height="59" viewBox="0 0 60 59" fill="none" xmlns="http://www.w3.org/2000/svg">
<path d="M30 0C26.0603 0 22.1593 0.775973 18.5195 2.28361C14.8797 3.79126 11.5726 6.00104 8.7868 8.7868C3.16071 14.4129 0 22.0435 0 30C0 43.26 8.61 54.51 20.52 58.5C22.02 58.74 22.5 57.81 22.5 57C22.5 56.31 22.5 54.42 22.5 51.93C14.19 53.73 12.42 47.91 12.42 47.91C11.04 44.43 9.09 43.5 9.09 43.5C6.36 41.64 9.3 41.7 9.3 41.7C12.3 41.91 13.89 44.79 13.89 44.79C16.5 49.35 20.91 48 22.62 47.28C22.89 45.33 23.67 44.01 24.51 43.26C17.85 42.51 10.86 39.93 10.86 28.5C10.86 25.17 12 22.5 13.95 20.37C13.65 19.62 12.6 16.5 14.25 12.45C14.25 12.45 16.77 11.64 22.5 15.51C24.87 14.85 27.45 14.52 30 14.52C32.55 14.52 35.13 14.85 37.5 15.51C43.23 11.64 45.75 12.45 45.75 12.45C47.4 16.5 46.35 19.62 46.05 20.37C48 22.5 49.14 25.17 49.14 28.5C49.14 39.96 42.12 42.48 35.43 43.23C36.51 44.16 37.5 45.99 37.5 48.78V57C37.5 57.81 37.98 58.77 39.51 58.5C51.42 54.48 60 43.26 60 30C60 26.0603 59.224 22.1593 57.7164 18.5195C56.2087 14.8797 53.999 11.5726 51.2132 8.7868C48.4274 6.00104 45.1203 3.79126 41.4805 2.28361C37.8407 0.775973 33.9397 0 30 0Z" fill="#DBE4EB"/>
</svg>
