<svg width="60" height="60" viewBox="0 0 60 60" fill="none" xmlns="http://www.w3.org/2000/svg">
<path fill-rule="evenodd" clip-rule="evenodd" d="M30 60C46.5685 60 60 46.5685 60 30C60 13.4315 46.5685 0 30 0C13.4315 0 0 13.4315 0 30C0 46.5685 13.4315 60 30 60ZM12.8301 39.6637L10.0785 49.7746L20.1853 47.0169C23.2924 48.8285 26.8257 49.7804 30.4224 49.7746C41.6629 49.7746 50.7745 40.663 50.7745 29.4225C50.7745 18.1821 41.6629 9.07043 30.4224 9.07043C19.182 9.07043 10.0703 18.1821 10.0703 29.4225C10.0644 33.0207 11.017 36.5556 12.8301 39.6637ZM22.3223 20.0768C22.5577 19.9589 22.8145 19.8896 23.0773 19.8733V19.8713C23.3503 19.8523 23.6242 19.8496 23.8975 19.8631C24.0074 19.8713 24.1173 19.8835 24.2272 19.8957C24.5508 19.9344 24.907 20.1297 25.0271 20.4025C25.6336 21.7783 26.2238 23.1642 26.7936 24.5563C26.9198 24.8636 26.8445 25.2605 26.6044 25.6472C26.4393 25.9094 26.2606 26.1628 26.0691 26.4063C25.8391 26.6994 25.3446 27.2408 25.3446 27.2408C25.3446 27.2408 25.1431 27.4809 25.2204 27.7801C25.272 27.9272 25.3418 28.0674 25.428 28.1973L25.5481 28.3907C26.1255 29.3371 26.8233 30.2045 27.624 30.9713C27.6898 31.0349 27.7551 31.0991 27.8205 31.1633C27.9979 31.3375 28.1754 31.5119 28.3628 31.6755C29.3157 32.5157 30.3937 33.2023 31.5581 33.7107L31.5682 33.7148C31.6183 33.7366 31.6613 33.7555 31.7031 33.7739C31.8058 33.8191 31.9018 33.8614 32.0811 33.9366C32.2073 33.9906 32.3372 34.0355 32.4698 34.0709C32.6068 34.1062 32.7512 34.0998 32.8846 34.0527C33.018 34.0056 33.1343 33.9198 33.2188 33.8063C34.6902 32.0235 34.8266 31.9075 34.8368 31.9075V31.9116C34.9391 31.8161 35.0608 31.7436 35.1934 31.699C35.3261 31.6545 35.4668 31.6388 35.6061 31.6531C35.7303 31.6586 35.8524 31.6869 35.9663 31.7365C37.047 32.2291 38.8176 33.0004 38.8176 33.0004L40.0021 33.5316C40.1995 33.6272 40.3807 33.8532 40.3888 34.0709C40.3892 34.0786 40.3895 34.0865 40.3899 34.0947C40.3963 34.2325 40.4064 34.4497 40.3603 34.83C40.2952 35.3572 40.1365 35.9901 39.9777 36.3219C39.8658 36.5559 39.7192 36.7615 39.5503 36.9365C39.3224 37.1746 39.1535 37.3191 38.8787 37.5226C38.7118 37.6488 38.6243 37.7058 38.6243 37.7058C38.3414 37.8849 38.1827 37.9744 37.8448 38.1535C37.321 38.4326 36.7422 38.5931 36.1495 38.6237C36.0837 38.6269 36.0179 38.6304 35.9522 38.6338C35.64 38.6504 35.3289 38.6669 35.0179 38.6501L33.8599 38.4731C30.9663 37.712 28.2903 36.2862 26.0447 34.309C25.661 33.9697 25.3002 33.609 24.9371 33.2459C24.8669 33.1757 24.7965 33.1053 24.7259 33.035C22.9166 31.2338 21.5469 29.2902 20.7145 27.4545C20.3074 26.5468 20.0469 25.576 20.0429 24.5787C20.036 23.3442 20.4406 22.1426 21.1927 21.1636C21.2153 21.1343 21.2376 21.1048 21.2601 21.0751C21.3857 20.9091 21.5168 20.736 21.7239 20.5409C21.9 20.3582 22.1015 20.2019 22.3223 20.0768Z" fill="#DBE4EB"/>
</svg>
