<svg width="32" height="32" viewBox="0 0 32 32" fill="none" xmlns="http://www.w3.org/2000/svg">
<rect width="32" height="32" rx="16" fill="#D9D9D9" fill-opacity="0.1"/>
<path d="M8 10.24C8 9.00288 9.00288 8 10.24 8H21.76C22.9971 8 24 9.00288 24 10.24V21.76C24 22.9971 22.9971 24 21.76 24H10.24C9.00288 24 8 22.9971 8 21.76V10.24Z" fill="white"/>
<path d="M13.76 12.32C13.76 13.1153 13.1153 13.76 12.32 13.76C11.5247 13.76 10.88 13.1153 10.88 12.32C10.88 11.5247 11.5247 10.88 12.32 10.88C13.1153 10.88 13.76 11.5247 13.76 12.32Z" fill="black"/>
<path d="M11.2 14.72C11.2 14.5433 11.3433 14.4 11.52 14.4H13.12C13.2967 14.4 13.44 14.5433 13.44 14.72V20.8C13.44 20.9767 13.2967 21.12 13.12 21.12H11.52C11.3433 21.12 11.2 20.9767 11.2 20.8V14.72Z" fill="black"/>
<path d="M14.72 14.4L16.16 14.4C16.3367 14.4 16.48 14.5433 16.48 14.72V15.04C17.12 14.24 18.2933 14.1867 18.88 14.24C20.7089 14.4062 21.0133 16.2667 20.96 17.28L20.96 20.8C20.96 20.9767 20.8167 21.12 20.64 21.12L19.2 21.12C19.0233 21.12 18.88 20.9767 18.88 20.8V17.28C18.8267 16.8533 18.528 16 17.76 16C16.992 16 16.5333 16.96 16.48 17.28V20.8C16.48 20.9767 16.3367 21.12 16.16 21.12L14.72 21.12C14.5433 21.12 14.4 20.9767 14.4 20.8V14.72C14.4 14.5433 14.5433 14.4 14.72 14.4Z" fill="black"/>
</svg>
