<svg width="100" height="100" viewBox="0 0 100 100" fill="none" xmlns="http://www.w3.org/2000/svg">
<path d="M50 100C77.6142 100 100 77.6142 100 50C100 22.3858 77.6142 0 50 0C22.3858 0 0 22.3858 0 50C0 77.6142 22.3858 100 50 100Z" fill="#DBE4EB"/>
<path d="M74.884 59.237C75.45 57.885 73.831 56.737 72.471 57.336C69.762 58.527 66.827 59.14 63.858 59.135C52.233 59.135 42.81 49.902 42.81 38.511C42.81 34.525 43.964 30.803 45.962 27.649C46.749 26.407 45.802 24.682 44.359 25.05C33.22 27.892 25 37.813 25 49.617C25 63.636 36.597 75 50.905 75C61.737 75 71.016 68.486 74.884 59.237Z" fill="black"/>
<path d="M60.031 25.285C58.559 24.303 56.803 26.057 57.784 27.531L59.535 30.157C60.245 31.221 60.623 32.471 60.623 33.75C60.623 35.03 60.245 36.28 59.535 37.344L57.784 39.97C56.803 41.442 58.559 43.198 60.032 42.215L62.656 40.465C63.72 39.756 64.971 39.377 66.25 39.377C67.529 39.377 68.779 39.756 69.844 40.465L72.469 42.215C73.941 43.198 75.697 41.442 74.714 39.968L72.964 37.344C72.255 36.28 71.876 35.03 71.876 33.75C71.876 32.471 72.255 31.221 72.964 30.157L74.715 27.531C75.697 26.059 73.941 24.303 72.467 25.286L69.844 27.036C68.779 27.745 67.529 28.124 66.25 28.124C64.971 28.124 63.72 27.745 62.656 27.036L60.031 25.285Z" fill="black"/>
</svg>
