<svg width="24" height="25" viewBox="0 0 24 25" fill="none" xmlns="http://www.w3.org/2000/svg">
<path d="M12.0003 10.1227C13.2842 10.1227 14.3229 11.1614 14.3229 12.4453C14.3229 13.7292 13.2842 14.7679 12.0003 14.7679C10.7164 14.7679 9.67773 13.7292 9.67773 12.4453C9.67773 11.1614 10.7164 10.1227 12.0003 10.1227ZM9.67773 6.76789C9.67773 8.05176 10.7164 9.09047 12.0003 9.09047C13.2842 9.09047 14.3229 8.05176 14.3229 6.76789C14.3229 5.48402 13.2842 4.44531 12.0003 4.44531C10.7164 4.44531 9.67773 5.48402 9.67773 6.76789ZM9.67773 18.1227C9.67773 19.4066 10.7164 20.4453 12.0003 20.4453C13.2842 20.4453 14.3229 19.4066 14.3229 18.1227C14.3229 16.8389 13.2842 15.8002 12.0003 15.8002C10.7164 15.8002 9.67773 16.8389 9.67773 18.1227Z" fill="#F2F2F2"/>
</svg>
