<svg width="24" height="18" viewBox="0 0 24 18" fill="none" xmlns="http://www.w3.org/2000/svg">
<path d="M19.2857 15.4286V16.0714C19.2857 17.1366 18.4223 18 17.3571 18H1.92857C0.863438 18 0 17.1366 0 16.0714V5.78571C0 4.72058 0.863438 3.85714 1.92857 3.85714H2.57143V12.2143C2.57143 13.9866 4.01336 15.4286 5.78571 15.4286H19.2857ZM23.1429 12.2143V1.92857C23.1429 0.863437 22.2794 0 21.2143 0H5.78571C4.72058 0 3.85714 0.863437 3.85714 1.92857V12.2143C3.85714 13.2794 4.72058 14.1429 5.78571 14.1429H21.2143C22.2794 14.1429 23.1429 13.2794 23.1429 12.2143ZM10.2857 3.85714C10.2857 4.92228 9.42228 5.78571 8.35714 5.78571C7.29201 5.78571 6.42857 4.92228 6.42857 3.85714C6.42857 2.79201 7.29201 1.92857 8.35714 1.92857C9.42228 1.92857 10.2857 2.79201 10.2857 3.85714ZM6.42857 9.64286L8.65909 7.41234C8.84736 7.22407 9.15264 7.22407 9.34096 7.41234L10.9286 9L16.3734 3.5552C16.5616 3.36692 16.8669 3.36692 17.0552 3.5552L20.5714 7.07143V11.5714H6.42857V9.64286Z" fill="#F2F2F2"/>
</svg>
