<svg width="44" height="44" viewBox="0 0 44 44" fill="none" xmlns="http://www.w3.org/2000/svg">
<path d="M23.3333 10H20.6667V23.3333H23.3333V10ZM29.7733 12.8933L27.88 14.7867C29.9867 16.48 31.3333 19.08 31.3333 22C31.3333 27.16 27.16 31.3333 22 31.3333C16.84 31.3333 12.6667 27.16 12.6667 22C12.6667 19.08 14.0133 16.48 16.1067 14.7733L14.2267 12.8933C11.64 15.0933 10 18.3467 10 22C10 28.6267 15.3733 34 22 34C28.6267 34 34 28.6267 34 22C34 18.3467 32.36 15.0933 29.7733 12.8933Z" fill="white"/>
</svg>
