<svg width="25" height="25" viewBox="0 0 25 25" fill="none" xmlns="http://www.w3.org/2000/svg">
<path fill-rule="evenodd" clip-rule="evenodd" d="M15.9543 8.66913C14.9143 7.64056 13.4857 7.00056 11.9086 7.00056C9.14286 7.00056 6.83429 8.96627 6.30857 11.572H4C4.56 7.6977 7.87429 4.71484 11.9086 4.71484C14.1143 4.71484 16.1143 5.60627 17.5657 7.0577L19.9086 4.71484V11.572H13.0514L15.9543 8.66913ZM8.04572 17.3328C9.08572 18.3614 10.5143 19.0014 12.0914 19.0014C14.8571 19.0014 17.1657 17.0357 17.6914 14.43H20C19.44 18.3043 16.1257 21.2871 12.0914 21.2871C9.88572 21.2871 7.88572 20.3957 6.43429 18.9443L4.09143 21.2871L4.09143 14.43H10.9486L8.04572 17.3328Z" fill="#FFFF32"/>
</svg>
