<svg width="24" height="24" viewBox="0 0 24 24" fill="none" xmlns="http://www.w3.org/2000/svg">
<mask id="path-1-inside-1_187_113" fill="#000000">
<path d="M17.6568 6.34315H15.6628L15.6557 14.2415L7.05024 5.63604L5.63603 7.05025L14.2415 15.6557L6.34313 15.6487V17.6569H17.6568V6.34315Z"/>
</mask>
<path d="M17.6568 6.34315H15.6628L15.6557 14.2415L7.05024 5.63604L5.63603 7.05025L14.2415 15.6557L6.34313 15.6487V17.6569H17.6568V6.34315Z" fill="#000000"/>
<path d="M17.6568 6.34315L21.6568 6.34315L21.6568 2.34315L17.6568 2.34315L17.6568 6.34315ZM15.6628 6.34315L15.6628 2.34315L11.6664 2.34315L11.6628 6.33956L15.6628 6.34315ZM15.6557 14.2415L12.8273 17.07L19.6471 23.8897L19.6557 14.2451L15.6557 14.2415ZM7.05024 5.63604L9.87867 2.80761L7.05024 -0.0208151L4.22181 2.80761L7.05024 5.63604ZM5.63603 7.05025L2.8076 4.22183L-0.0208275 7.05025L2.8076 9.87868L5.63603 7.05025ZM14.2415 15.6557L14.2379 19.6557L23.907 19.6644L17.0699 12.8273L14.2415 15.6557ZM6.34313 15.6487L6.34671 11.6487L2.34313 11.6451L2.34313 15.6487H6.34313ZM6.34313 17.6569L2.34313 17.6569L2.34313 21.6569L6.34313 21.6569L6.34313 17.6569ZM17.6568 17.6569L17.6568 21.6569L21.6568 21.6569L21.6568 17.6569L17.6568 17.6569ZM17.6568 2.34315L15.6628 2.34315L15.6628 10.3431H17.6568L17.6568 2.34315ZM11.6628 6.33956L11.6557 14.2379L19.6557 14.2451L19.6628 6.34673L11.6628 6.33956ZM18.4842 11.4131L9.87867 2.80761L4.22181 8.46447L12.8273 17.07L18.4842 11.4131ZM4.22181 2.80761L2.8076 4.22183L8.46445 9.87868L9.87867 8.46447L4.22181 2.80761ZM2.8076 9.87868L11.4131 18.4842L17.0699 12.8273L8.46445 4.22183L2.8076 9.87868ZM14.2451 11.6557L6.34671 11.6487L6.33955 19.6487L14.2379 19.6557L14.2451 11.6557ZM2.34313 15.6487L2.34313 17.6569L10.3431 17.6569L10.3431 15.6487H2.34313ZM6.34313 21.6569L17.6568 21.6569L17.6568 13.6569L6.34313 13.6569L6.34313 21.6569ZM21.6568 17.6569V6.34315L13.6568 6.34315V17.6569L21.6568 17.6569Z" fill="#DBE4EB" mask="url(#path-1-inside-1_187_113)"/>
</svg>
