<svg width="16" height="16" viewBox="0 0 16 16" fill="none" xmlns="http://www.w3.org/2000/svg">
<g clip-path="url(#clip0_146_294)">
<path d="M14.2857 16H1.71429C0.7675 16 0 15.2325 0 14.2857V1.71429C0 0.7675 0.7675 0 1.71429 0H14.2857C15.2325 0 16 0.7675 16 1.71429V14.2857C16 15.2325 15.2325 16 14.2857 16Z" fill="black"/>
<path d="M13.5468 5.92646L6.97543 12.4979C6.75225 12.7211 6.39047 12.7211 6.16729 12.4979L2.453 8.78357C2.22986 8.56043 2.22986 8.19861 2.453 7.97546L3.26111 7.16736C3.48429 6.94421 3.84611 6.94421 4.06925 7.16736L6.57136 9.66946L11.9306 4.31025C12.1538 4.08707 12.5156 4.08711 12.7387 4.31025L13.5468 5.11836C13.77 5.3415 13.77 5.70332 13.5468 5.92646Z" fill="#F9E600"/>
</g>
<defs>
<clipPath id="clip0_146_294">
<rect width="16" height="16" fill="white"/>
</clipPath>
</defs>
</svg>
