<svg width="16" height="20" viewBox="0 0 16 20" fill="none" xmlns="http://www.w3.org/2000/svg">
<path d="M12.5714 12.286C11.764 12.286 11.0219 12.5652 10.4361 13.0322L6.77586 10.7446C6.88425 10.2543 6.88425 9.74623 6.77586 9.25592L10.4361 6.96828C11.0219 7.43532 11.764 7.71457 12.5714 7.71457C14.465 7.71457 16 6.17953 16 4.28599C16 2.39246 14.465 0.857422 12.5714 0.857422C10.6779 0.857422 9.14286 2.39246 9.14286 4.28599C9.14286 4.54164 9.17107 4.79064 9.22414 5.03031L5.56393 7.31796C4.97811 6.85096 4.236 6.57171 3.42857 6.57171C1.53504 6.57171 0 8.10674 0 10.0003C0 11.8938 1.53504 13.4289 3.42857 13.4289C4.236 13.4289 4.97811 13.1496 5.56393 12.6826L9.22414 14.9702C9.17004 15.2147 9.14279 15.4642 9.14286 15.7146C9.14286 17.6081 10.6779 19.1431 12.5714 19.1431C14.465 19.1431 16 17.6081 16 15.7146C16 13.821 14.465 12.286 12.5714 12.286Z" fill="#F2F2F2"/>
</svg>
