<svg width="43" height="52" viewBox="0 0 43 52" fill="none" xmlns="http://www.w3.org/2000/svg">
<path d="M23.2743 1C22.8495 0.99942 22.4417 1.1751 22.1396 1.48882C21.9934 1.64467 21.8743 1.82627 21.7878 2.02533C21.711 2.22615 21.6725 2.44081 21.6743 2.6572C21.6743 2.6572 21.6743 10.7404 21.6743 18.8475C21.6743 22.9011 21.6743 26.9546 21.6743 30.0067C21.6743 33.0588 21.6743 35.0021 21.6743 35.1571C21.6038 36.6508 20.9829 38.0571 19.9431 39.0785C18.9033 40.0998 17.5261 40.656 16.1028 40.6294C14.7413 40.5631 13.4565 39.9482 12.5152 38.9124C11.574 37.8767 11.0489 36.4997 11.0489 35.0677C11.0489 33.6356 11.574 32.2586 12.5152 31.2229C13.4565 30.1871 14.7413 29.5722 16.1028 29.506C16.205 29.506 16.4092 29.506 16.7496 29.5894H17.0787C17.1905 29.5782 17.3009 29.5543 17.4078 29.5179C17.5136 29.4845 17.6162 29.4406 17.7141 29.3867C17.9106 29.2715 18.081 29.1129 18.2134 28.9218C18.2772 28.8293 18.3306 28.7292 18.3723 28.6237C18.4165 28.5162 18.4507 28.4044 18.4744 28.2899C18.4915 28.1714 18.4915 28.0508 18.4744 27.9322V20.9697C18.4718 20.5485 18.3178 20.1439 18.0432 19.8371C17.9073 19.6842 17.7457 19.5589 17.5666 19.4675C17.3841 19.3799 17.1881 19.3274 16.9879 19.3125C16.7496 19.3125 16.4319 19.3125 16.0575 19.3125C13.0772 19.3102 10.1635 20.2378 7.68569 21.9777C5.20791 23.7176 3.27769 26.1915 2.13984 29.0855C1.00199 31.9795 0.707752 35.1634 1.29443 38.2334C1.88111 41.3034 3.3223 44.1211 5.43521 46.3294C7.54813 48.5376 10.2376 50.0369 13.1626 50.6371C16.0876 51.2372 19.1163 50.9112 21.8647 49.7004C24.6131 48.4895 26.9573 46.4485 28.6002 43.8359C30.243 41.2234 31.1105 38.1571 31.0925 35.0259V20.0636C33.4418 22.0794 36.3768 23.1901 39.41 23.211C39.8412 23.211 40.261 23.211 40.6468 23.211C40.8393 23.1864 41.0269 23.1301 41.2028 23.0442C41.3784 22.9524 41.5362 22.8271 41.668 22.6746C41.8038 22.524 41.9081 22.3453 41.9744 22.15C42.042 21.9593 42.0767 21.7574 42.0766 21.5539V13.8045C42.0757 13.4926 41.9912 13.1873 41.8326 12.9237C41.674 12.6601 41.4479 12.4488 41.1801 12.3142C41.004 12.2199 40.8104 12.167 40.6128 12.1592C38.2163 11.9788 35.957 10.9164 34.2324 9.15885C32.5077 7.4013 31.428 5.06116 31.1832 2.54991C31.1298 2.1465 30.9501 1.77321 30.6726 1.48882C30.5243 1.35624 30.3554 1.25138 30.1733 1.17883C29.9944 1.09719 29.801 1.05658 29.606 1.05963L23.2743 1Z" fill="black" stroke="#DBE4EB" stroke-miterlimit="10"/>
</svg>
