<svg width="48" height="50" viewBox="0 0 48 50" fill="none" xmlns="http://www.w3.org/2000/svg">
<path d="M10.4766 5.49841C10.5197 6.23353 10.4137 6.96988 10.1655 7.65869C9.91726 8.3475 9.53257 8.97305 9.03689 9.49384C8.54121 10.0146 7.94587 10.4188 7.29028 10.6796C6.6347 10.9404 5.93384 11.0518 5.23418 11.0065C4.56125 11.0336 3.88998 10.9187 3.26004 10.6686C2.6301 10.4185 2.05429 10.0382 1.56662 9.55031C1.07894 9.06238 0.689308 8.47665 0.420765 7.8278C0.152222 7.17895 0.0102116 6.48014 0.00312329 5.77263C-0.0210962 5.03099 0.0957381 4.29172 0.34678 3.5981C0.597822 2.90447 0.978032 2.27045 1.46515 1.73311C1.95228 1.19577 2.53652 0.765898 3.1837 0.468703C3.83087 0.171509 4.52796 0.0129648 5.23418 0.00230181C5.92717 -0.0190571 6.61703 0.108416 7.26151 0.376908C7.90599 0.645399 8.49154 1.04926 8.9823 1.56378C9.47306 2.07829 9.85871 2.69262 10.1157 3.36917C10.3726 4.04572 10.4954 4.77026 10.4766 5.49841Z" fill="#DBE4EB"/>
<path d="M10.4766 13.7487H0.00317383V49.4914H10.4766V13.7487Z" fill="#DBE4EB"/>
<path d="M35.5998 14.2971C33.6303 14.239 31.6798 14.7154 29.9367 15.6802C28.1935 16.645 26.7165 18.0657 25.6483 19.8051H25.3873L24.8994 15.1317H15.4812C15.4812 18.148 15.7422 21.7246 15.7422 25.8616V49.5153H26.2043V29.9748C26.1485 29.048 26.2367 28.1178 26.4653 27.2207C27.2596 25.3013 28.5645 22.8215 31.4467 22.8215C35.1118 22.8215 36.6778 26.1239 36.6778 30.5232V49.5033H47.1399V29.1521C47.1058 18.9825 42.1357 14.2971 35.5998 14.2971Z" fill="#DBE4EB"/>
</svg>
