<svg width="48" height="50" viewBox="0 0 48 50" fill="none" xmlns="http://www.w3.org/2000/svg">
<path d="M22.3994 49.1313C19.1654 49.1313 16.2719 49.1313 13.5599 49.036C8.14728 48.9048 4.33462 46.8304 1.90632 42.6695C0.909294 40.7158 0.263092 38.586 0 36.3865V36.1481V12.8879V12.7687C0.263092 10.5692 0.909294 8.43935 1.90632 6.48567C4.32327 2.33675 8.09054 0.262295 13.4351 0.119229C16.7484 0.0357738 20.1186 0 23.466 0C26.8134 0 30.2743 7.33616e-07 33.6784 0.131145C38.6372 0.250367 42.2456 2.09831 44.6852 5.75842C46.3149 8.29793 47.159 11.304 47.1022 14.3662C47.1816 20.3273 47.2497 27.4807 47.1022 34.8128C46.9774 40.7739 44.8327 44.8394 40.5662 47.2715C38.4089 48.4687 36.0047 49.091 33.565 49.0837C29.8318 49.1314 26.0985 49.1313 22.3994 49.1313ZM23.3752 10.9803C19.9598 11.0356 16.6988 12.4849 14.2823 15.0216C11.8659 17.5582 10.4837 20.9832 10.4281 24.5716C10.431 28.202 11.7994 31.684 14.2353 34.2589C16.6711 36.8338 19.9767 38.2927 23.4319 38.3179H23.5795C25.2871 38.3179 26.9781 37.9645 28.5558 37.2779C30.1335 36.5913 31.5671 35.5849 32.7746 34.3162C33.9821 33.0475 34.94 31.5413 35.5935 29.8836C36.247 28.226 36.5833 26.4493 36.5833 24.6551C36.5833 22.8609 36.247 21.0842 35.5935 19.4265C34.94 17.7689 33.9821 16.2627 32.7746 14.994C31.5671 13.7253 30.1335 12.7189 28.5558 12.0323C26.9781 11.3457 25.2871 10.9923 23.5795 10.9923L23.3752 10.9803ZM36.3904 7.54675C35.9035 7.55285 35.4226 7.66151 34.9762 7.86629C34.5299 8.07106 34.1272 8.36781 33.7919 8.73897C33.4687 9.08265 33.214 9.49056 33.0425 9.93886C32.8711 10.3872 32.7864 10.8668 32.7934 11.3499C32.8451 12.3202 33.2485 13.2329 33.9206 13.9006C34.5926 14.5682 35.4825 14.9402 36.4075 14.9402C37.3324 14.9402 38.2223 14.5682 38.8944 13.9006C39.5664 13.2329 39.9698 12.3202 40.0215 11.3499C40.0259 10.863 39.9355 10.3802 39.756 9.93128C39.5765 9.48231 39.3116 9.07658 38.9776 8.73897C38.6502 8.37332 38.2569 8.07964 37.8205 7.87498C37.3842 7.67032 36.9135 7.55875 36.4358 7.54675H36.3904Z" fill="#DBE4EB"/>
<path d="M23.5115 32.2019C22.0827 32.183 20.6911 31.7204 19.5121 30.8722C18.3331 30.0239 17.4194 28.8281 16.886 27.4353C16.3527 26.0425 16.2235 24.515 16.5149 23.0452C16.8062 21.5754 17.505 20.2291 18.5233 19.1758C19.5415 18.1225 20.8337 17.4094 22.2369 17.1263C23.6402 16.8431 25.0918 17.0026 26.409 17.5847C27.7262 18.1667 28.8499 19.1453 29.6387 20.3971C30.4275 21.6489 30.8461 23.118 30.8418 24.6194C30.8149 26.6422 30.0304 28.5725 28.6583 29.9918C27.2862 31.4112 25.437 32.2052 23.5115 32.2019Z" fill="#DBE4EB"/>
</svg>
