<svg width="101" height="83" viewBox="0 0 101 83" fill="none" xmlns="http://www.w3.org/2000/svg">
<path d="M0.295044 73.357C10.8607 74.4665 21.4592 71.5843 30.0078 65.2767C28.0466 64.7864 26.4188 64.453 24.8302 63.9431C21.9868 63.0695 19.3689 61.5847 17.1599 59.5925C14.951 57.6004 13.2045 55.1493 12.0429 52.411C11.2388 50.6655 11.4153 50.4497 13.3373 50.4497C15.4588 50.7141 17.6123 50.5201 19.6525 49.881C16.3361 49.0045 13.2854 47.3276 10.7681 44.9975C6.89431 41.5361 4.51733 36.7048 4.13906 31.5237C3.98216 29.3468 4.25673 29.2095 6.1003 30.092C8.04382 31.016 10.1656 31.5046 12.3174 31.5237C10.8325 30.0757 9.42502 28.5503 8.10078 26.9541C5.8953 23.9928 4.52906 20.4917 4.14594 16.8193C3.76283 13.1469 4.37701 9.43915 5.9238 6.08644C6.76713 4.1252 7.10053 4.12521 8.51262 5.63537C18.3487 16.8993 32.0954 24.0074 46.9726 25.5224C49.326 25.7577 49.5222 25.5224 49.2672 23.2081C48.8765 19.0431 49.7301 14.8557 51.72 11.176C53.71 7.49632 56.7469 4.48967 60.4463 2.5366C64.1592 0.615548 68.3635 -0.146052 72.5144 0.350511C76.6652 0.847075 80.5713 2.5789 83.7263 5.32156C84.2187 5.84133 84.8525 6.20558 85.5495 6.36938C86.2466 6.53318 86.9763 6.48937 87.6487 6.24335C90.8353 5.3997 93.9197 4.20932 96.8469 2.69351C97.298 2.43854 97.7099 1.94823 98.5532 2.26203C97.1002 6.48332 94.4239 10.1768 90.8651 12.8724C94.3132 12.3981 97.6873 11.4887 100.907 10.1658C100.897 10.611 100.797 11.0496 100.611 11.4544C100.426 11.8592 100.159 12.2217 99.828 12.5193C97.8145 15.2192 95.4311 17.6224 92.7479 19.6582C92.1763 20.051 91.7191 20.5883 91.4228 21.2153C91.1265 21.8423 91.0018 22.5367 91.0613 23.2277C91.273 36.6145 86.8759 49.6671 78.6074 60.1971C74.0146 66.4151 68.171 71.6027 61.4526 75.4264C54.7342 79.25 47.2898 81.625 39.5983 82.3983C26.6372 84.0804 13.4842 81.4181 2.19745 74.828C1.7714 74.5895 1.35889 74.3276 0.961859 74.0435C0.720033 73.8345 0.496919 73.6048 0.295044 73.357Z" fill="#DBE4EB"/>
</svg>
