<svg width="64" height="49" viewBox="0 0 64 49" fill="none" xmlns="http://www.w3.org/2000/svg">
<path d="M54.4099 5.4407C48.9405 0.826815 40.294 0.0399535 39.9309 0.00418696C39.6472 -0.0185639 39.3639 0.0517993 39.1199 0.20557C38.876 0.359341 38.6836 0.58893 38.5692 0.862586C38.4012 1.24844 38.2608 1.64696 38.1494 2.05481C42.4144 2.74586 46.5133 4.29201 50.2227 6.60907C50.4767 6.77358 50.6728 7.02056 50.7813 7.3126C50.8898 7.60465 50.9048 7.92587 50.824 8.22765C50.7432 8.52944 50.5711 8.79536 50.3336 8.98518C50.0961 9.17499 49.8062 9.27836 49.5079 9.27965C49.2499 9.28054 48.9974 9.20177 48.7817 9.05312C41.8712 4.55846 33.236 4.28425 31.5793 4.28425C29.9226 4.28425 21.2761 4.51077 14.377 9.05312C14.2243 9.16517 14.0515 9.24341 13.8691 9.28307C13.6867 9.32273 13.4985 9.32298 13.3161 9.28381C13.1336 9.24465 12.9606 9.16687 12.8076 9.05523C12.6546 8.9436 12.5249 8.80043 12.4262 8.63444C12.3276 8.46845 12.2621 8.2831 12.2338 8.08969C12.2055 7.89627 12.2149 7.69881 12.2615 7.50935C12.3082 7.31988 12.391 7.14238 12.505 6.98761C12.6189 6.83284 12.7617 6.70404 12.9245 6.60907C16.6422 4.29211 20.7485 2.74608 25.0207 2.05481C24.8051 1.3514 24.6122 0.862586 24.6008 0.862586C24.4874 0.588946 24.2948 0.359835 24.0503 0.207863C23.8059 0.0558897 23.522 -0.0112124 23.2391 0.0161026C22.876 0.0161026 14.2181 0.826812 8.68071 5.51223C5.78718 8.31395 0.000106518 24.7427 0.000106518 38.8944C-0.00295086 39.1458 0.0598615 39.3933 0.181666 39.6097C4.17587 46.9657 15.0692 48.8971 17.5542 48.9805C17.7737 48.9838 17.9909 48.9326 18.1881 48.8311C18.3853 48.7296 18.5568 48.5806 18.6889 48.3964L21.1967 44.8197C17.4027 43.9181 13.8407 42.1607 10.7572 39.6693C10.509 39.4098 10.3645 39.0605 10.3533 38.6928C10.342 38.3251 10.465 37.9668 10.6969 37.6912C10.9288 37.4155 11.2522 37.2434 11.6009 37.21C11.9496 37.1766 12.2972 37.2844 12.5728 37.5114C12.6636 37.5829 19.0293 43.2579 31.568 43.2579C44.1066 43.2579 50.4951 37.5591 50.5518 37.4995C50.8282 37.2505 51.1868 37.1258 51.55 37.1526C51.9131 37.1794 52.2516 37.3554 52.4922 37.6425C52.6113 37.7839 52.7026 37.9486 52.7608 38.1272C52.8191 38.3059 52.8431 38.4948 52.8315 38.6832C52.8199 38.8716 52.7729 39.0558 52.6932 39.225C52.6136 39.3943 52.5028 39.5452 52.3674 39.6693C49.2916 42.1642 45.7317 43.9183 41.9393 44.8078L44.447 48.3844C44.5752 48.5738 44.7458 48.7273 44.9436 48.8312C45.1415 48.9352 45.3606 48.9864 45.5817 48.9805C48.0668 48.8971 58.9601 46.9657 62.9543 39.5978C63.0711 39.3835 63.1336 39.1413 63.1358 38.8944C63.1699 24.7427 57.3828 8.31395 54.4099 5.4407ZM22.6377 33.1717C19.9825 33.1717 17.8265 30.5846 17.8265 27.4014C17.8265 24.2181 19.9825 21.631 22.6377 21.631C25.293 21.631 27.4489 24.2181 27.4489 27.4014C27.4489 30.5846 25.3043 33.1717 22.6491 33.1717H22.6377ZM40.4982 33.1717C37.843 33.1717 35.687 30.5846 35.687 27.4014C35.687 24.2181 37.8316 21.631 40.4982 21.631C43.1648 21.631 45.2981 24.2181 45.2981 27.4014C45.2981 30.5846 43.1761 33.1717 40.5096 33.1717H40.4982Z" fill="black"/>
</svg>
