<svg width="98" height="84" viewBox="0 0 98 84" fill="none" xmlns="http://www.w3.org/2000/svg">
<path fill-rule="evenodd" clip-rule="evenodd" d="M95.945 1.73322C96.6033 2.29245 97.0958 3.02139 97.3689 3.84086C97.6421 4.66033 97.6855 5.53903 97.4944 6.38141L80.9807 79.6534C80.8036 80.4378 80.4292 81.1641 79.893 81.7634C79.3569 82.3628 78.6767 82.8155 77.9168 83.0786C77.1568 83.3418 76.3423 83.4066 75.5503 83.2671C74.7583 83.1276 74.015 82.7883 73.3907 82.2814L51.8171 64.6302L42.7757 80.9674C42.3205 81.782 41.6343 82.4436 40.8036 82.8689C39.9729 83.2941 39.035 83.464 38.1079 83.357C37.1809 83.25 36.3063 82.8711 35.5943 82.2678C34.8823 81.6646 34.3648 80.864 34.1071 79.9672L25.4776 49.6464L4.72765 45.4886C3.72866 45.2904 2.8204 44.7748 2.13813 44.0187C1.45587 43.2625 1.03609 42.3062 0.941298 41.2922C0.846508 40.2782 1.08179 39.2606 1.61209 38.3912C2.1424 37.5217 2.93938 36.8467 3.88433 36.4668L91.0811 1.00757C91.8808 0.672772 92.7569 0.563444 93.6143 0.69137C94.4718 0.819297 95.2779 1.17958 95.945 1.73322V1.73322ZM22.0258 39.2518L30.1846 40.8796C31.0322 41.0553 31.8159 41.4584 32.4517 42.0458C33.0874 42.6332 33.5512 43.3826 33.7933 44.2137L40.0888 66.3365L46.3452 55.0398C46.6821 54.4366 47.1472 53.9146 47.7076 53.5106C48.268 53.1066 48.9102 52.8304 49.589 52.7014C50.2677 52.5724 50.9665 52.5937 51.636 52.7639C52.3056 52.9341 52.9298 53.2491 53.4645 53.6865L73.4692 70.1021L86.3153 13.1085L22.0258 39.2518Z" fill="black"/>
<path fill-rule="evenodd" clip-rule="evenodd" d="M97.4945 6.38137C97.7257 5.34507 97.6013 4.26109 97.1413 3.30412C96.6813 2.34715 95.9125 1.5729 94.9588 1.10622C94.005 0.639551 92.9219 0.507635 91.884 0.731669C90.8461 0.955702 89.9139 1.52269 89.2376 2.34122L46.816 54.3533C46.0232 55.3236 45.6481 56.5689 45.7731 57.8156C45.8982 59.0624 46.5131 60.2084 47.4828 61.0019L73.4104 82.2814C74.0347 82.7883 74.778 83.1276 75.57 83.2671C76.362 83.4066 77.1765 83.3417 77.9364 83.0786C78.6963 82.8155 79.3766 82.3628 79.9127 81.7634C80.4489 81.164 80.8233 80.4377 81.0004 79.6533L97.4945 6.38137Z" fill="black"/>
<path fill-rule="evenodd" clip-rule="evenodd" d="M95.3959 9.34275C96.4036 8.71856 97.1399 7.73854 97.459 6.59696C97.7781 5.45539 97.6566 4.23561 97.1186 3.1794C96.5807 2.12318 95.6654 1.30765 94.5545 0.894474C93.4435 0.481297 92.2178 0.500627 91.1204 0.94864L3.92363 36.3883C2.97869 36.7682 2.18171 37.4431 1.6514 38.3126C1.12109 39.1821 0.885815 40.1996 0.980604 41.2136C1.07539 42.2277 1.49517 43.184 2.17744 43.9402C2.85971 44.6963 3.76797 45.2118 4.76695 45.41L28.3018 50.1366C29.484 50.3769 30.7133 50.1521 31.734 49.509L95.3959 9.34275Z" fill="black"/>
</svg>
