<svg width="110" height="82" viewBox="0 0 110 82" fill="none" xmlns="http://www.w3.org/2000/svg">
<path d="M94.0611 9.61086C84.6275 2.02086 69.6633 0.726416 69.0357 0.667579C68.5481 0.631439 68.0612 0.745537 67.6404 0.994493C67.2197 1.24345 66.8852 1.61533 66.6822 2.06007C66.4047 2.7001 66.1625 3.35482 65.9565 4.02131C73.3337 5.16091 80.4241 7.70413 86.8438 11.5133C87.275 11.7884 87.6058 12.1956 87.7868 12.6741C87.9679 13.1526 87.9894 13.6767 87.8483 14.1685C87.7072 14.6602 87.411 15.0931 87.0037 15.4028C86.5965 15.7125 86.1001 15.8822 85.5885 15.8868C85.1445 15.8953 84.7079 15.7725 84.3334 15.5338C72.3894 8.13991 57.4644 7.68883 54.6009 7.68883C51.7375 7.68883 36.8125 8.06146 24.8685 15.5338C24.3367 15.829 23.7119 15.9087 23.123 15.7564C22.5341 15.6042 22.0261 15.2317 21.704 14.7157C21.3818 14.1998 21.2701 13.5798 21.3918 12.9839C21.5136 12.388 21.8595 11.8615 22.3581 11.5133C28.7778 7.70413 35.8682 5.16091 43.2454 4.02131C43.0434 3.35347 42.8011 2.69852 42.5197 2.06007C42.319 1.61356 41.985 1.24004 41.5637 0.990752C41.1424 0.741459 40.6542 0.628576 40.1662 0.667579C39.5386 0.667579 24.594 2.02084 15.0035 9.7089C10.0023 14.3374 0 41.3438 0 64.6237C0.00395416 65.0361 0.111891 65.4408 0.313806 65.8004C7.21737 77.9209 26.0453 81.0981 30.3404 81.2354C30.7226 81.2451 31.1014 81.1608 31.4434 80.9898C31.7853 80.8188 32.0801 80.5664 32.3016 80.2548L36.636 74.3711C30.0846 72.8983 23.9336 70.0135 18.6122 65.9181C18.1388 65.502 17.8502 64.9148 17.8097 64.2859C17.7693 63.6569 17.9803 63.0377 18.3964 62.5644C18.8125 62.091 19.3997 61.8024 20.0286 61.7619C20.6576 61.7215 21.2768 61.9325 21.7502 62.3486C21.8874 62.4859 32.9096 71.8214 54.5617 71.8214C76.2138 71.8214 87.2752 62.4467 87.3929 62.3486C87.8662 61.9325 88.4855 61.7215 89.1144 61.7619C89.7434 61.8024 90.3305 62.091 90.7466 62.5644C91.1627 63.0377 91.3738 63.6569 91.3333 64.2859C91.2929 64.9148 91.0042 65.502 90.5309 65.9181C85.1972 70.0053 79.0416 72.889 72.4875 74.3711L76.8218 80.2548C77.0491 80.5604 77.345 80.8083 77.6856 80.9786C78.0263 81.149 78.4022 81.2369 78.783 81.2354C83.0781 81.0981 101.906 77.9209 108.81 65.8004C109.012 65.4408 109.119 65.0361 109.123 64.6237C109.202 41.3438 99.1996 14.3375 94.0611 9.61086ZM39.1464 55.2293C34.5571 55.2293 30.8503 50.9734 30.8503 45.7369C30.8503 40.5004 34.5571 36.2445 39.1464 36.2445C43.7357 36.2445 47.462 40.5004 47.462 45.7369C47.462 50.9734 43.7553 55.2293 39.166 55.2293H39.1464ZM70.0163 55.2293C65.427 55.2293 61.7006 50.9734 61.7006 45.7369C61.7006 40.5004 65.427 36.2445 70.0163 36.2445C74.6056 36.2445 78.3123 40.5004 78.3123 45.7369C78.3123 50.9734 74.6252 55.2293 70.0359 55.2293H70.0163Z" fill="black"/>
</svg>
