<svg width="39" height="50" viewBox="0 0 39 50" fill="none" xmlns="http://www.w3.org/2000/svg">
<path d="M33.9508 7.28446C34.4374 6.12323 34.6541 4.85704 34.5831 3.59044C34.5121 2.32384 34.1553 1.09316 33.5423 0C31.6349 0.810301 29.9304 2.07079 28.5609 3.68396C28.3842 3.90953 28.1446 4.07115 27.8759 4.14602C27.6072 4.22089 27.3229 4.20522 27.063 4.10124C21.8883 2.1462 16.2269 2.1462 11.0522 4.10124C10.7902 4.20259 10.505 4.21692 10.235 4.14229C9.96509 4.06765 9.72351 3.90765 9.54299 3.68396C8.16958 2.06756 6.45611 0.810209 4.53888 0.0119247C3.9304 1.10491 3.57716 2.33387 3.50813 3.59802C3.43909 4.86217 3.65622 6.12552 4.14172 7.28446C4.25942 7.54471 4.29753 7.83688 4.2508 8.12081C4.20407 8.40474 4.07479 8.6665 3.88074 8.87011C1.45509 11.3634 0.061016 14.7597 0 18.3244C0 24.9174 5.06085 30.8427 12.5954 33.0841C12.881 33.1699 13.132 33.3515 13.3103 33.6012C13.4885 33.8509 13.5841 34.1549 13.5826 34.4671V35.4327C13.6382 36.0245 13.565 36.6217 13.3686 37.1793C13.1722 37.737 12.8577 38.2404 12.4489 38.6515C12.0401 39.0627 11.5477 39.3708 11.0088 39.5526C10.47 39.7344 9.89894 39.7851 9.33873 39.7009C7.06929 39.7009 5.4126 38.4014 3.78996 37.1257C2.96205 36.4537 2.08992 35.8442 1.1801 35.3016L1.8042 36.2196C3.83535 39.1882 6.15017 42.5741 9.53163 42.5741H12.255C12.4352 42.5725 12.6138 42.6088 12.7805 42.6809C12.9471 42.753 13.0984 42.8594 13.2253 42.9938C13.3522 43.1282 13.4522 43.288 13.5194 43.4637C13.5866 43.6394 13.6197 43.8274 13.6166 44.0167V49.9778H24.4532V41.1673C24.5637 39.2043 24.2252 37.2421 23.466 35.4447C23.3763 35.2474 23.3298 35.0315 23.3298 34.8128C23.3298 34.5941 23.3763 34.3782 23.466 34.1809C23.5533 33.9824 23.6824 33.8073 23.8436 33.6689C24.0048 33.5305 24.1939 33.4325 24.3965 33.3821C32.453 31.4388 38.0698 25.2393 38.0698 18.3244C38.0118 14.7614 36.6219 11.3653 34.2004 8.87011C34.0111 8.66334 33.8859 8.4011 33.8413 8.11801C33.7967 7.83492 33.8349 7.54428 33.9508 7.28446Z" fill="black"/>
</svg>
