<?xml version="1.0" encoding="utf-8"?>
<!-- Generator: Adobe Illustrator 24.0.0, SVG Export Plug-In . SVG Version: 6.00 Build 0)  -->
<svg version="1.1" id="Capa_1" xmlns="http://www.w3.org/2000/svg" xmlns:xlink="http://www.w3.org/1999/xlink" x="0px" y="0px"
	 viewBox="0 0 43 52" style="enable-background:new 0 0 43 52;" xml:space="preserve">
<path d="M23.3,1c-0.4,0-0.8,0.2-1.1,0.5C22,1.6,21.9,1.8,21.8,2c-0.1,0.2-0.1,0.4-0.1,0.6c0,0,0,8.1,0,16.2c0,4.1,0,8.1,0,11.2
	s0,5,0,5.2c-0.1,1.5-0.7,2.9-1.7,3.9c-1,1-2.4,1.6-3.8,1.6c-1.4-0.1-2.6-0.7-3.6-1.7c-0.9-1-1.5-2.4-1.5-3.8c0-1.4,0.5-2.8,1.5-3.8
	c0.9-1,2.2-1.7,3.6-1.7c0.1,0,0.3,0,0.6,0.1h0.3c0.1,0,0.2,0,0.3-0.1c0.1,0,0.2-0.1,0.3-0.1c0.2-0.1,0.4-0.3,0.5-0.5
	c0.1-0.1,0.1-0.2,0.2-0.3c0-0.1,0.1-0.2,0.1-0.3c0-0.1,0-0.2,0-0.4v-7c0-0.4-0.2-0.8-0.4-1.1c-0.1-0.2-0.3-0.3-0.5-0.4
	c-0.2-0.1-0.4-0.1-0.6-0.2c-0.2,0-0.6,0-0.9,0c-3,0-5.9,0.9-8.4,2.7c-2.5,1.7-4.4,4.2-5.5,7.1s-1.4,6.1-0.8,9.1
	c0.6,3.1,2,5.9,4.1,8.1c2.1,2.2,4.8,3.7,7.7,4.3c2.9,0.6,6,0.3,8.7-0.9c2.7-1.2,5.1-3.3,6.7-5.9c1.6-2.6,2.5-5.7,2.5-8.8v-15
	c2.3,2,5.3,3.1,8.3,3.1c0.4,0,0.9,0,1.2,0c0.2,0,0.4-0.1,0.6-0.2c0.2-0.1,0.3-0.2,0.5-0.4c0.1-0.2,0.2-0.3,0.3-0.5
	c0.1-0.2,0.1-0.4,0.1-0.6v-7.7c0-0.3-0.1-0.6-0.2-0.9c-0.2-0.3-0.4-0.5-0.7-0.6c-0.2-0.1-0.4-0.1-0.6-0.2c-2.4-0.2-4.7-1.2-6.4-3
	c-1.7-1.8-2.8-4.1-3-6.6c-0.1-0.4-0.2-0.8-0.5-1.1c-0.1-0.1-0.3-0.2-0.5-0.3c-0.2-0.1-0.4-0.1-0.6-0.1L23.3,1z"/>
</svg>
