<svg width="84" height="84" viewBox="0 0 84 84" fill="none" xmlns="http://www.w3.org/2000/svg">
<path d="M40.2865 82.7973C34.6774 82.7973 29.6958 82.7973 25.0085 82.6404C15.6534 82.4247 9.04397 78.9925 4.86653 72.1478C3.13931 68.9426 2.02211 65.4446 1.57166 61.8317V61.4198V23.1168V22.901C2.042 19.2836 3.16501 15.7816 4.88613 12.5653C9.06357 5.75977 15.5749 2.32759 24.7927 2.11186C30.5196 1.97457 36.3248 1.89612 42.1105 1.89612C47.8962 1.89612 53.8779 1.89612 59.7617 2.11186C68.3323 2.32759 74.5494 5.34791 78.7857 11.3689C81.6028 15.5537 83.0615 20.5051 82.9632 25.5487C83.1005 35.3549 83.2181 47.1224 82.9632 59.1644C82.7474 68.9706 79.0407 75.678 71.6664 79.679C67.9397 81.6515 63.782 82.6691 59.5656 82.6404C53.1327 82.7189 46.6998 82.7973 40.2865 82.7973ZM31.8336 8.01521C29.637 8.01521 27.4404 8.01521 25.2438 8.01521C15.8495 8.25056 9.96576 12.7026 8.23986 20.9006C7.84457 22.6054 7.63414 24.3479 7.61225 26.0979V32.5896C7.61225 41.121 7.49458 49.9662 7.61225 58.6348C7.8476 69.9512 13.7313 76.1291 24.6358 76.541C30.2646 76.7371 36.1091 76.8548 41.9928 76.8548C47.8765 76.8548 53.8583 76.7371 59.9774 76.541C68.9207 76.2468 74.5886 71.8536 76.3734 63.8321C76.7252 62.4322 76.9289 60.9992 76.9813 59.5566C76.9813 56.399 76.9813 53.2414 77.099 50.1034C77.4341 40.8574 77.2704 31.5999 76.6087 22.3715C76.384 18.7814 74.872 15.3927 72.3502 12.8276C69.8283 10.2625 66.4658 8.69311 62.88 8.40745C59.9142 8.03257 56.926 7.8622 53.9368 7.89754C52.3482 7.89754 50.7792 7.89754 49.1906 7.89754H44.4836H31.8336V8.01521Z" fill="#DBE4EB"/>
<path d="M42.1104 2.87688C47.9941 2.87688 53.8778 2.87689 59.7615 3.09262C67.9987 3.28875 73.9609 6.1914 78.0011 11.9378C80.6753 15.9644 82.0449 20.7167 81.9236 25.5489C82.0609 35.4727 82.1786 47.1225 81.9236 59.1449C81.7078 68.5589 78.1776 74.9917 71.1368 78.7573C67.5473 80.6512 63.5453 81.6281 59.487 81.6011C52.9953 81.6011 46.6408 81.758 40.2276 81.758C34.638 81.758 29.6565 81.758 24.9691 81.6011C15.967 81.3854 9.65183 78.1101 5.63129 71.5792C3.97746 68.4726 2.90723 65.0891 2.47369 61.5965V61.3611V23.2934V23.0973C2.9069 19.5922 3.97701 16.1958 5.63129 13.0754C9.55377 6.58365 15.869 3.26913 24.7534 3.09262C30.4606 2.95534 36.2659 2.87688 42.0319 2.87688M44.3658 7.09357H31.6373C29.1073 7.09357 27.0088 7.09357 25.0476 7.09357C20.7883 7.02697 16.6162 8.3033 13.1232 10.7415C9.94726 13.2238 7.80246 16.7938 7.10222 20.7634C6.70141 22.5275 6.48452 24.3284 6.45501 26.1372C6.45501 28.3142 6.45501 30.4912 6.45501 32.6681C6.45501 41.1995 6.33733 50.0251 6.45501 58.7134C6.69036 70.6378 12.9075 77.1491 24.42 77.5806C30.0684 77.7767 35.9128 77.8944 41.8162 77.8944C47.7195 77.8944 53.7013 77.7767 59.8204 77.5806C69.2735 77.2668 75.2749 72.599 77.1577 64.1068C77.5187 62.6349 77.729 61.1301 77.7853 59.6156C77.7853 56.4776 77.7853 53.32 77.903 50.182C78.2413 40.903 78.0711 31.6124 77.3931 22.352C77.1734 18.5424 75.583 14.9408 72.9156 12.2121C70.2481 9.4833 66.6836 7.81156 62.8799 7.50541C59.8694 7.11361 56.8349 6.93667 53.7994 6.9759H49.0336C47.4646 6.9759 45.9152 6.9759 44.3462 6.9759M41.9927 0.797974C36.2266 0.797974 30.4475 0.869887 24.6553 1.01371C16.1043 1.20984 8.67122 4.19094 3.92502 11.9378C2.08677 15.4176 0.909731 19.208 0.453613 23.1169V61.6161C0.930154 65.4797 2.11352 69.2225 3.94462 72.6579C8.74966 80.5028 16.2612 83.4251 24.9103 83.6212C30.0095 83.7389 35.1088 83.7781 40.208 83.7781C46.6409 83.7781 53.0737 83.7781 59.487 83.6212C63.8671 83.6458 68.1855 82.5881 72.0585 80.5421C80.5115 75.9527 83.6495 68.2254 83.826 59.2037C84.081 47.9854 84.0025 36.7475 83.826 25.5292C83.9155 20.2898 82.3958 15.149 79.472 10.8003C74.6474 3.93597 67.5869 1.32751 59.6635 1.13138C53.7667 1.00063 47.883 0.928718 42.0123 0.915643L41.9927 0.797974ZM44.3462 8.93714C47.5038 8.93714 50.6418 8.81947 53.7994 8.81947C56.743 8.78342 59.6856 8.9538 62.6054 9.32938C65.9645 9.59304 69.1151 11.0624 71.476 13.4666C73.8369 15.8707 75.2488 19.0474 75.4515 22.4109C76.5694 34.7471 75.8829 47.1225 75.8241 59.4783C75.7754 60.8553 75.5781 62.223 75.2357 63.5577C73.5883 71.0496 68.4302 75.2271 59.7615 75.5017C53.7797 75.6978 47.798 75.8155 41.8162 75.8155C35.8344 75.8155 30.2645 75.7174 24.4984 75.5017C14.0842 75.1094 8.63198 69.3434 8.41625 58.5566C8.20051 47.7697 8.41625 36.9829 8.41625 26.0392C8.44322 24.3554 8.647 22.6792 9.02423 21.038C10.6521 13.3499 16.1435 9.15288 25.0868 8.93714C27.2638 8.93714 29.4407 8.93714 31.6373 8.93714H42.2673H44.3462Z" fill="#DBE4EB"/>
<path d="M42.2674 28.8632C39.6046 28.8825 37.0071 29.6894 34.8019 31.182C32.5967 32.6747 30.8825 34.7864 29.8751 37.2514C28.8677 39.7163 28.6121 42.4243 29.1406 45.0342C29.6691 47.644 30.958 50.0392 32.845 51.9181C34.732 53.7969 37.1328 55.0754 39.745 55.5926C42.3571 56.1097 45.0639 55.8424 47.5244 54.8243C49.985 53.8063 52.0893 52.0829 53.5724 49.8712C55.0555 47.6596 55.851 45.0586 55.8588 42.3957C55.8078 38.8124 54.3576 35.391 51.8181 32.8625C49.2786 30.3339 45.851 28.8986 42.2674 28.8632Z" fill="#DBE4EB" stroke="#DBE4EB" stroke-miterlimit="10"/>
<path d="M80.4526 52.5355C79.6681 36.1984 82.5512 8.54487 61.7424 6.95627C40.9336 5.36766 11.4169 8.91751 11.4169 8.91751C7.89406 14.4205 6.24311 20.9143 6.70997 27.4316C7.20028 39.1991 6.94531 49.9271 6.94531 49.9271C6.94531 49.9271 4.29764 73.1678 17.2222 75.9135C30.1468 78.6592 68.5871 78.1101 71.4898 74.168C74.3924 70.2259 81.2371 68.9119 80.4526 52.5355ZM42.3261 63.8323C38.0509 63.8321 33.8722 62.5617 30.3203 60.1824C26.7684 57.803 24.0035 54.4221 22.3766 50.4686C20.7496 46.515 20.334 42.1673 21.1824 37.9772C22.0309 33.787 24.1052 29.9434 27.1419 26.9343C30.1787 23.9251 34.0411 21.886 38.2388 21.0758C42.4365 20.2657 46.7803 20.721 50.7188 22.384C54.6573 24.047 58.0129 26.8426 60.3597 30.4161C62.7065 33.9896 63.9386 38.1797 63.8998 42.4547C63.8584 48.1492 61.5672 53.5963 57.5258 57.6083C53.4844 61.6203 48.0207 63.8716 42.3261 63.8715V63.8323Z" fill="#DBE4EB" stroke="#DBE4EB" stroke-miterlimit="10"/>
<path d="M64.4882 24.529C63.3838 24.5201 62.3249 24.0881 61.5295 23.3219C60.7342 22.5557 60.2628 21.5137 60.2127 20.4104C60.2032 19.874 60.3006 19.341 60.4992 18.8427C60.6979 18.3443 60.9939 17.8905 61.3698 17.5078C61.7728 17.0881 62.2572 16.7551 62.7934 16.5291C63.3296 16.3032 63.9063 16.1891 64.4882 16.1937C65.0559 16.1893 65.6189 16.2981 66.1442 16.5136C66.6695 16.7291 67.1466 17.047 67.5477 17.4489C67.9366 17.8301 68.2461 18.2847 68.4582 18.7863C68.6703 19.2879 68.7808 19.8266 68.7833 20.3712C68.735 21.4617 68.2788 22.4944 67.5051 23.2644C66.7314 24.0345 65.6966 24.4858 64.6058 24.529H64.4882Z" fill="#DBE4EB"/>
<path d="M64.547 15.2719V17.2331C65.4177 17.2414 66.2497 17.5939 66.8613 18.2137C67.1572 18.5023 67.3929 18.8468 67.5545 19.2273C67.7162 19.6078 67.8005 20.0166 67.8027 20.43C67.7533 21.2801 67.3842 22.0801 66.7694 22.6694C66.1546 23.2588 65.3397 23.5937 64.4882 23.6072C63.6405 23.5984 62.828 23.267 62.2159 22.6804C61.6038 22.0938 61.2382 21.2961 61.1933 20.4496C61.1871 20.0431 61.262 19.6396 61.4135 19.2624C61.565 18.8853 61.7903 18.5421 62.0759 18.253C62.3913 17.9275 62.7694 17.6693 63.1874 17.494C63.6054 17.3187 64.0546 17.2299 64.5078 17.2331V15.2719M64.5078 15.2719C63.8204 15.2667 63.1387 15.3979 62.5023 15.658C61.8659 15.9181 61.2874 16.3019 60.8004 16.7871C60.3133 17.2723 59.9275 17.8493 59.665 18.4847C59.4025 19.1201 59.2687 19.8013 59.2713 20.4888C59.3267 21.8487 59.9037 23.1351 60.8824 24.0809C61.8611 25.0268 63.1664 25.5594 64.5274 25.5684H64.6647C66.0135 25.5243 67.2951 24.9688 68.2493 24.0145C69.2036 23.0603 69.759 21.7787 69.8031 20.43C69.7826 19.0582 69.2245 17.7492 68.2489 16.7846C67.2734 15.8201 65.9582 15.2769 64.5863 15.2719H64.5078Z" fill="black"/>
</svg>
