<svg width="83" height="83" viewBox="0 0 83 83" fill="none" xmlns="http://www.w3.org/2000/svg">
<path d="M18.9878 9.67013C19.0592 10.8761 18.8743 12.0835 18.4451 13.2128C18.016 14.3421 17.3525 15.3676 16.4983 16.2219C15.644 17.0761 14.6185 17.7396 13.4892 18.1687C12.3599 18.5979 11.1525 18.7829 9.94652 18.7115C8.78347 18.7588 7.62272 18.5724 6.53294 18.1634C5.44315 17.7543 4.44643 17.131 3.6017 16.3301C2.75696 15.5293 2.08136 14.5672 1.61484 13.5007C1.14832 12.4343 0.900368 11.2852 0.885599 10.1212C0.841044 8.89797 1.04162 7.6781 1.47553 6.53351C1.90944 5.38891 2.56789 4.3427 3.41218 3.45638C4.25646 2.57006 5.2695 1.86158 6.39168 1.37262C7.51387 0.883659 8.72253 0.624087 9.94652 0.609205C11.1444 0.576664 12.3362 0.788954 13.4492 1.23305C14.5622 1.67714 15.5728 2.34366 16.4192 3.19189C17.2656 4.04013 17.9299 5.05222 18.3716 6.16613C18.8133 7.28005 19.023 8.47236 18.9878 9.67013Z" fill="#DBE4EB"/>
<path d="M18.9877 23.242H0.885498V82.04H18.9877V23.242Z" fill="#DBE4EB"/>
<path d="M62.4096 24.1442C59.0101 24.0462 55.6427 24.8268 52.6331 26.4106C49.6234 27.9945 47.0733 30.3279 45.2292 33.1855H44.7585L43.8563 25.4975H27.578C27.578 30.479 28.0291 36.3431 28.0291 43.1486V82.0008H46.1313V49.9149C46.0339 48.3968 46.1863 46.8729 46.5824 45.4041C47.9357 42.2268 50.1911 38.1671 55.1727 38.1671C61.5075 38.1671 64.214 43.5801 64.214 50.8171V82.0008H82.3162V48.6597C82.3162 31.8323 73.726 24.1442 62.4096 24.1442Z" fill="#DBE4EB"/>
</svg>
