<svg width="59" height="51" viewBox="0 0 59 51" fill="none" xmlns="http://www.w3.org/2000/svg">
<path d="M0 44.3986C6.11666 45.0749 12.2529 43.3228 17.2023 39.4866C16.0676 39.1886 15.1258 38.9859 14.2067 38.6878C12.5619 38.1526 11.0479 37.2471 9.77015 36.0343C8.49243 34.8216 7.48168 33.3307 6.80831 31.6656C6.34308 30.6046 6.44521 30.4734 7.54589 30.4734C8.77638 30.6324 10.0249 30.5187 11.211 30.1396C9.28987 29.5979 7.52224 28.5752 6.05941 27.1591C3.82334 25.0522 2.45247 22.116 2.2354 18.9685C2.13327 17.6571 2.2354 17.5617 3.37012 18.0982C4.49235 18.6666 5.72138 18.9639 6.96717 18.9685C6.10504 18.0913 5.29054 17.1639 4.52753 16.1906C3.26203 14.3969 2.47762 12.2793 2.25609 10.0586C2.03455 7.83798 2.384 5.59554 3.268 3.56506C3.74458 2.37284 3.93748 2.37284 4.75447 3.30277C10.4698 10.1685 18.4582 14.4909 27.0971 15.3919C28.4587 15.5349 28.5722 15.3919 28.4134 13.985C28.1914 11.4523 28.6882 8.90723 29.8413 6.67087C30.9944 4.43451 32.7521 2.60706 34.8926 1.41906C37.0411 0.249626 39.4749 -0.213173 41.8772 0.0909023C44.2795 0.394978 46.539 1.45184 48.3617 3.12393C48.6479 3.43786 49.0152 3.65702 49.4184 3.75446C49.8217 3.8519 50.2432 3.82336 50.6311 3.67235C52.4795 3.16293 54.2682 2.43919 55.9643 1.51444C56.2253 1.37137 56.4523 1.0614 56.9515 1.26407C56.1064 3.82447 54.5587 6.06462 52.5035 7.70206C54.4994 7.41903 56.4522 6.86602 58.3132 6.05679C58.3106 6.3291 58.2526 6.59766 58.143 6.84443C58.0334 7.0912 57.8747 7.31046 57.6778 7.48746C56.5168 9.12839 55.1416 10.5893 53.5928 11.8271C53.2621 12.0659 52.9975 12.3925 52.8261 12.7737C52.6547 13.1548 52.5825 13.5769 52.6169 13.997C52.7357 22.134 50.1921 30.0673 45.4114 36.4703C42.7429 40.2628 39.3458 43.4239 35.4402 45.7488C31.5346 48.0737 27.2077 49.5106 22.7398 49.9662C15.2409 50.9869 7.63147 49.3686 1.10068 45.3642C0.862388 45.2212 0.624102 45.0543 0.397158 44.8874C0.170215 44.7205 0.260985 44.7205 0 44.3986Z" fill="black"/>
</svg>
