<svg width="73" height="84" viewBox="0 0 73 84" fill="none" xmlns="http://www.w3.org/2000/svg">
<path d="M39.5822 0.700606C39.2247 0.702142 38.8712 0.775538 38.5427 0.916373C38.2097 1.04686 37.9086 1.24751 37.6601 1.50472C37.3948 1.75047 37.1872 2.05188 37.0521 2.3873C36.9175 2.71707 36.8508 3.07061 36.856 3.42676C36.856 3.42676 36.856 16.7239 36.856 30.0604C36.856 36.7286 36.856 43.3969 36.856 48.4176V56.8902C36.7292 59.3439 35.654 61.6525 33.8573 63.3284C32.0606 65.0044 29.683 65.9166 27.2263 65.8727C24.8024 65.8727 22.4778 64.9097 20.7638 63.1958C19.0498 61.4818 18.0869 59.1572 18.0869 56.7333C18.0869 54.3094 19.0498 51.9848 20.7638 50.2708C22.4778 48.5568 24.8024 47.5939 27.2263 47.5939L28.3442 47.7116C28.5327 47.741 28.7246 47.741 28.913 47.7116C29.1063 47.6932 29.297 47.6537 29.4817 47.5939L30.0113 47.3586C30.1772 47.2607 30.3346 47.1491 30.482 47.0251C30.6215 46.9025 30.7466 46.7643 30.8546 46.6133C30.9713 46.4548 31.07 46.2837 31.1488 46.1033C31.2281 45.9275 31.2873 45.7433 31.3253 45.5542C31.365 45.3667 31.365 45.173 31.3253 44.9855V33.5318C31.3256 33.1843 31.2659 32.8392 31.1488 32.5119C31.0152 32.1957 30.8295 31.904 30.5997 31.649C30.3639 31.4035 30.0846 31.204 29.7759 31.0606C29.4638 30.9073 29.1232 30.8205 28.7757 30.8057C28.3442 30.8057 27.8147 30.8057 27.1675 30.8057C22.0279 30.8057 17.0036 32.3298 12.7302 35.1852C8.45673 38.0406 5.12599 42.0991 3.15914 46.8475C1.19228 51.5959 0.677673 56.821 1.68037 61.8619C2.68306 66.9027 5.15802 71.5331 8.79229 75.1673C12.4266 78.8016 17.0569 81.2765 22.0978 82.2792C27.1387 83.2819 32.3637 82.7673 37.1121 80.8004C41.8605 78.8336 45.919 75.5028 48.7744 71.2294C51.6299 66.9559 53.1539 61.9318 53.1539 56.7921V32.0413C57.2126 35.3631 62.2852 37.1969 67.5298 37.2385C68.2751 37.2385 68.9811 37.2385 69.6675 37.1209C70.0039 37.0992 70.3316 37.0055 70.6286 36.8463C70.9362 36.702 71.2101 36.4949 71.4327 36.2383C71.6669 35.9978 71.8474 35.7104 71.9622 35.395C72.0791 35.0812 72.1389 34.7491 72.1387 34.4143V21.6663C72.1391 21.3251 72.0794 20.9865 71.9622 20.666C71.8286 20.3498 71.643 20.0582 71.4131 19.8031C71.1824 19.5518 70.9019 19.3514 70.5893 19.2147C70.2864 19.0527 69.9517 18.959 69.6087 18.9402C65.4697 18.6441 61.5672 16.8992 58.5867 14.012C55.6062 11.1248 53.7383 7.27972 53.3108 3.15216C53.2727 2.81645 53.173 2.49068 53.0166 2.19117C52.8652 1.89368 52.659 1.62752 52.4087 1.40668C52.1682 1.17251 51.8807 0.991992 51.5653 0.87711C51.2521 0.75853 50.9197 0.698701 50.5847 0.700606H39.5822Z" fill="#DBE4EB" stroke="#DBE4EB" stroke-miterlimit="10"/>
</svg>
