<svg width="57" height="51" viewBox="0 0 57 51" fill="none" xmlns="http://www.w3.org/2000/svg">
<path fill-rule="evenodd" clip-rule="evenodd" d="M54.967 0.669609C55.3479 1.00956 55.6328 1.45268 55.7909 1.95082C55.9489 2.44897 55.974 2.98309 55.8634 3.49516L46.3204 48.0365C46.2157 48.5142 45.9974 48.9562 45.6858 49.3211C45.3742 49.686 44.9796 49.9618 44.5389 50.1228C44.0993 50.2801 43.6288 50.3166 43.172 50.229C42.7152 50.1413 42.2873 49.9324 41.929 49.6221L29.4471 38.8921L24.2161 48.8233C23.9527 49.3185 23.5557 49.7207 23.0751 49.9792C22.5945 50.2377 22.0518 50.341 21.5154 50.2759C20.9791 50.2109 20.4731 49.9805 20.0611 49.6138C19.6492 49.2471 19.3498 48.7605 19.2006 48.2153L14.2079 29.7836L2.20255 27.2561C1.62456 27.1356 1.09907 26.8222 0.704329 26.3626C0.309588 25.9029 0.0667158 25.3216 0.0118731 24.7052C-0.0429696 24.0888 0.0931556 23.4702 0.399976 22.9417C0.706797 22.4131 1.16791 22.0028 1.71463 21.7719L52.1642 0.21656C52.6264 0.0169938 53.1317 -0.0462828 53.6255 0.0335505C54.1194 0.113384 54.5832 0.333306 54.967 0.669609ZM12.1994 23.4768L16.9198 24.4663C17.4112 24.5706 17.8659 24.8148 18.2341 25.1723C18.6023 25.5297 18.87 25.9866 19.0077 26.4931L22.6502 39.9413L26.2813 33.0741C26.4772 32.7083 26.7459 32.3912 27.0689 32.1443C27.392 31.8974 27.762 31.7266 28.1536 31.6435C28.5511 31.5619 28.9609 31.5741 29.3534 31.6793C29.7459 31.7845 30.1112 31.9799 30.423 32.2515L41.9971 42.2304L49.4295 7.5845L12.1994 23.4768Z" fill="#DBE4EB"/>
<path fill-rule="evenodd" clip-rule="evenodd" d="M54.7965 5.43851C55.3795 5.05907 55.8055 4.46333 55.9902 3.76938C56.1748 3.07542 56.1045 2.33393 55.7932 1.69187C55.482 1.04981 54.9524 0.554057 54.3097 0.30289C53.6669 0.0517242 52.9578 0.0634747 52.3228 0.335818L1.86188 21.8912C1.32188 22.1293 0.868474 22.5425 0.567864 23.0705C0.267253 23.5986 0.135185 24.2138 0.190946 24.8263C0.246707 25.4388 0.487376 26.0165 0.877809 26.4751C1.26824 26.9337 1.78799 27.2491 2.36115 27.3753L15.9778 30.2486C16.6655 30.3892 17.3783 30.253 17.9749 29.8671L54.7965 5.43851Z" fill="#DBE4EB"/>
<path fill-rule="evenodd" clip-rule="evenodd" d="M56.0102 3.63845C56.1442 3.0058 56.0715 2.34419 55.8039 1.76022C55.5363 1.17626 55.0893 0.703975 54.535 0.419486C53.9837 0.135013 53.3569 0.0555852 52.757 0.194198C52.1571 0.332811 51.6198 0.681236 51.233 1.18249L26.689 32.8002C26.2304 33.39 26.0133 34.147 26.0857 34.9049C26.158 35.6627 26.5138 36.3594 27.0748 36.8418L42.0758 49.7654C42.4341 50.0774 42.8627 50.2872 43.3205 50.3748C43.7783 50.4624 44.2499 50.4248 44.6898 50.2655C45.1298 50.1062 45.5233 49.8307 45.8326 49.4654C46.1419 49.1001 46.3565 48.6574 46.4558 48.1798L56.0102 3.63845Z" fill="#DBE4EB"/>
</svg>
