<svg width="67" height="83" viewBox="0 0 67 83" fill="none" xmlns="http://www.w3.org/2000/svg">
<path d="M59.1361 11.9636C59.9799 10.0582 60.3578 7.97927 60.2384 5.89884C60.1191 3.81841 59.5059 1.79633 58.4496 0C55.1529 1.33297 52.2069 3.40653 49.8398 6.06024C49.5292 6.42427 49.1151 6.68499 48.6525 6.80763C48.19 6.93027 47.7011 6.909 47.251 6.74667C38.3104 3.51077 28.5184 3.51077 19.5778 6.74667C19.1247 6.91057 18.6325 6.93269 18.1666 6.81007C17.7006 6.68746 17.2831 6.42592 16.9694 6.06024C14.598 3.42076 11.6524 1.36086 8.35951 0.0392257C7.30764 1.84077 6.6971 3.86569 6.5778 5.94842C6.45849 8.03114 6.83382 10.1125 7.6731 12.0224C7.87369 12.4511 7.93798 12.9311 7.85732 13.3975C7.77666 13.8639 7.55491 14.2944 7.22199 14.6309C3.03673 18.7356 0.634453 24.3222 0.53418 30.1835C0.53418 41.0096 9.2813 50.7765 22.3039 54.4637C22.7943 54.6039 23.2259 54.8997 23.5336 55.3065C23.8414 55.7133 24.0087 56.209 24.0102 56.7191V58.3665C24.1063 59.3399 23.9798 60.3224 23.6404 61.2397C23.3009 62.157 22.7573 62.9852 22.0507 63.6615C21.3442 64.3379 20.4931 64.8447 19.5618 65.1438C18.6305 65.4429 17.6434 65.5263 16.6752 65.3878V65.3878C12.7527 65.3878 9.88929 63.2304 7.08472 61.1515C5.64852 60.0439 4.13446 59.041 2.55426 58.1508C2.92689 58.6411 3.27992 59.151 3.63294 59.6413C7.14357 64.5052 11.066 70.0555 16.9498 70.0555H21.6567C21.9649 70.0555 22.27 70.1165 22.5544 70.235C22.8389 70.3536 23.097 70.5272 23.314 70.746C23.531 70.9648 23.7025 71.2244 23.8186 71.5099C23.9348 71.7953 23.9932 72.1009 23.9906 72.409V82.2152H42.7205V67.7217C42.9115 64.4861 42.3265 61.2517 41.0142 58.2881C40.8534 57.9672 40.7687 57.6135 40.7668 57.2545C40.765 56.8955 40.8459 56.541 41.0034 56.2184C41.1609 55.8958 41.3907 55.6139 41.6749 55.3946C41.9591 55.1753 42.2901 55.0245 42.642 54.954C56.5472 51.7375 66.1769 41.5587 66.1769 30.1835C66.0767 24.3222 63.6744 18.7356 59.4891 14.6309C59.1672 14.2742 58.9611 13.8283 58.898 13.3521C58.835 12.8758 58.918 12.3916 59.1361 11.9636Z" fill="#DBE4EB"/>
</svg>
