<svg id="Capa_1" data-name="Capa 1" xmlns="http://www.w3.org/2000/svg" viewBox="0 0 26.47 28.35"><defs><style>.cls-1{fill:#ffff32;stroke-width:0.56px;}.cls-1,.cls-3{stroke:#ffff32;}.cls-2,.cls-3{fill:none;stroke-linecap:round;stroke-linejoin:round;stroke-width:1.61px;}.cls-2,.cls-4{stroke:#dbe4eb;}.cls-4{stroke-width:0.8px;}.cls-5{fill:#dbe4eb;}</style></defs><title>ssi_icon_recive</title><path class="cls-1" d="M23.47,9.59a4.43,4.43,0,1,1-8.85,0V8.11h8.85Z"/><path class="cls-2" d="M10.51,20h7.67m0,0h.92l4-2.65a1.6,1.6,0,0,1,1.65.33,2,2,0,0,1,.5,1.69L17.5,24.83H9.88L5.5,23.4H1.16V17.34H5.5a6.19,6.19,0,0,1,3.92-1.52A4.7,4.7,0,0,1,13,17.34h2.32A2.22,2.22,0,0,1,17,18.47,8.21,8.21,0,0,0,18.18,20Z"/><path d="M1.16,15.75H5.5a6.21,6.21,0,0,1,3.92-1.51A4.72,4.72,0,0,1,13,15.75h2.32A2.22,2.22,0,0,1,17,16.89a8.29,8.29,0,0,0,1.14,1.51h.92l4-2.65a1.58,1.58,0,0,1,1.65.34,2,2,0,0,1,.5,1.68L17.5,23.25H9.88L5.5,21.82H1.16Z"/><path class="cls-3" d="M10.51,18.4h7.67m0,0h.92l4-2.65a1.58,1.58,0,0,1,1.65.34,2,2,0,0,1,.5,1.68L17.5,23.25H9.88L5.5,21.82H1.16V15.75H5.5a6.21,6.21,0,0,1,3.92-1.51A4.72,4.72,0,0,1,13,15.75h2.32A2.22,2.22,0,0,1,17,16.89,8.29,8.29,0,0,0,18.18,18.4Z"/><path class="cls-4" d="M23.35,7.83A4.31,4.31,0,1,1,19,3.52,4.3,4.3,0,0,1,23.35,7.83Z"/><path class="cls-5" d="M20.67,7.83A1.63,1.63,0,1,1,19,6.2,1.63,1.63,0,0,1,20.67,7.83Z"/></svg>