<svg id="Capa_1" data-name="Capa 1" xmlns="http://www.w3.org/2000/svg" xmlns:xlink="http://www.w3.org/1999/xlink" viewBox="0 0 26.47 28.35"><defs><style>.cls-1{fill:none;}.cls-2{fill:#ffff32;}.cls-3{fill:#dbe4eb;}.cls-4{clip-path:url(#clip-path);}</style><clipPath id="clip-path"><rect class="cls-1" x="13.18" width="12.91" height="30.37"/></clipPath></defs><title>ssi_icon_NFT</title><path class="cls-2" d="M13.2,25.84a2,2,0,0,1-2-1.52,1.9,1.9,0,0,1,.23-1.49,1.93,1.93,0,0,1,.84-.78v-.88c-.47-.21-.91-.46-1.34-.7l-.3-.17c0,.13,0,.26,0,.39a1.13,1.13,0,0,1-.39.93c-.14.12-.27.25-.4.38l-.08.08a2,2,0,0,1,0,1.33A2,2,0,0,1,9,24.46a2,2,0,0,1-2.5-.26,2,2,0,0,1-.3-2.52,1.87,1.87,0,0,1,1.65-.91,3,3,0,0,1,.71.09s.31-.29.37-.36V19.34l-1-.53a2.42,2.42,0,0,1-1.19-1.44,1.94,1.94,0,0,1-.09-.48H5.91a2,2,0,0,1-1,.94,1.9,1.9,0,0,1-.77.16,2,2,0,0,1-2-2.11,2,2,0,0,1,1.31-1.76,2,2,0,0,1-1.31-2A2,2,0,0,1,3.75,10.3a2.58,2.58,0,0,1,.39,0,2,2,0,0,1,1.75,1.13h.74A1.35,1.35,0,0,1,6.69,11,2,2,0,0,1,7.82,9.46l1.07-.54V7.8l-.38-.38a2.05,2.05,0,0,1-.64.11,2,2,0,0,1-.75-.15,2.06,2.06,0,0,1-1-.87A2,2,0,0,1,6.51,4,2,2,0,0,1,9,3.85a2,2,0,0,1,.75,2.31l.55.55a1,1,0,0,1,.33.79,3.23,3.23,0,0,0,0,.44l1.05-.57a6.36,6.36,0,0,1,.58-.3V6.2a2,2,0,0,1-1-1.07,1.93,1.93,0,0,1-.05-1.32,2,2,0,0,1,1.95-1.4h.14a2,2,0,0,1,1.83,1.66,2,2,0,0,1-1.1,2.1v.91a12.25,12.25,0,0,1,1.3.68L15.7,8s0-.41,0-.46A1,1,0,0,1,16,6.71l.56-.54a1.91,1.91,0,0,1,0-1.43,1.93,1.93,0,0,1,.86-1,2,2,0,0,1,1-.27A2,2,0,0,1,20,4.11a2,2,0,0,1-1,3.34,1.84,1.84,0,0,1-.47.06,2,2,0,0,1-.63-.1l-.39.39V8.9l1,.53a2.36,2.36,0,0,1,1.29,1.94h.76a2,2,0,0,1,3.79.85A2,2,0,0,1,23,14.12a2,2,0,0,1-.3,3.83,2.28,2.28,0,0,1-.44.05,2,2,0,0,1-1.75-1.13h-.75a2.37,2.37,0,0,1-1.29,1.95l-.95.52v1.13l.37.36a2.11,2.11,0,0,1,.65-.11,2,2,0,0,1,.79.17,2,2,0,0,1,1,.87,2,2,0,0,1-.41,2.47,2,2,0,0,1-1.36.53,2.08,2.08,0,0,1-1.13-.34,2,2,0,0,1-.85-1.22,2,2,0,0,1,.06-1.12,5,5,0,0,0-.47-.45,1.25,1.25,0,0,1-.41-1c0-.11,0-.22,0-.33l-1,.56-.62.31v.9a1.94,1.94,0,0,1,1.08,2.18,2,2,0,0,1-1.92,1.59ZM7.89,22.47a.25.25,0,1,0,.26.25.25.25,0,0,0-.07-.17A.26.26,0,0,0,7.89,22.47ZM4.12,15.74a.26.26,0,0,0-.19.08.3.3,0,0,0-.07.17.27.27,0,0,0,.26.25A.26.26,0,0,0,4.36,16,.26.26,0,0,0,4.12,15.74Zm2.51-.63v-2H5.92a2,2,0,0,1-1,1l0,0a2.25,2.25,0,0,1,1.07,1Zm13.83,0a2,2,0,0,1,.94-.92l.15-.06a2.11,2.11,0,0,1-.34-.16,2,2,0,0,1-.76-.83h-.72v2ZM4.11,12a.25.25,0,0,0-.17.08.25.25,0,0,0-.08.18.27.27,0,0,0,.26.24.25.25,0,0,0,.24-.24A.26.26,0,0,0,4.11,12ZM18.47,5.28a.25.25,0,0,0-.18.42.3.3,0,0,0,.18.08h0a.25.25,0,1,0,0-.5ZM7.9,5.28a.26.26,0,0,0-.26.25.26.26,0,1,0,.26-.25Z"/><path class="cls-3" d="M13.2,2.91h.11a1.51,1.51,0,0,1,1.36,1.25,1.53,1.53,0,0,1-1.1,1.7V7.41A25.54,25.54,0,0,1,16,8.65l.19.09h.06v-1a2.26,2.26,0,0,0,0-.26.46.46,0,0,1,.17-.39l.79-.79a1.53,1.53,0,0,1,.55-2.1,1.6,1.6,0,0,1,.76-.2,1.56,1.56,0,0,1,1.12.47A1.52,1.52,0,0,1,18.84,7a1.45,1.45,0,0,1-.35,0,1.61,1.61,0,0,1-.75-.19L17,7.6V9.18a.39.39,0,0,0,.17.11l1.06.57a1.88,1.88,0,0,1,1,1.74c0,.07,0,.14,0,.21a.15.15,0,0,0,0,.06h1.53a1.62,1.62,0,0,1,1.44-1.12,2.2,2.2,0,0,1,.36,0,1.49,1.49,0,0,1,0,2.92,1.45,1.45,0,0,1-.35,0,1.6,1.6,0,0,1-.79-.22,1.62,1.62,0,0,1-.68-.9H19.23v3h1.56a1.51,1.51,0,0,1,.82-1,1.43,1.43,0,0,1,.64-.15,1.45,1.45,0,0,1,.35,0,1.5,1.5,0,0,1-.05,2.93,1.86,1.86,0,0,1-.33,0,1.63,1.63,0,0,1-1.44-1.12H19.27c-.07.08,0,.17,0,.25a1.89,1.89,0,0,1-1,1.76c-.41.21-.81.44-1.22.66v1.64l.75.74a1.67,1.67,0,0,1,.77-.2,1.44,1.44,0,0,1,.6.13,1.5,1.5,0,0,1,.42,2.51,1.53,1.53,0,0,1-1,.4,1.54,1.54,0,0,1-.85-.26,1.52,1.52,0,0,1-.65-.92A1.63,1.63,0,0,1,17.17,22c-.24-.24-.47-.48-.72-.71a.68.68,0,0,1-.25-.6c0-.38,0-.76,0-1.14h-.05a.34.34,0,0,0-.15.06l-1.55.85a3.47,3.47,0,0,1-.88.39v1.57c.88.41,1.25,1,1.09,1.76a1.5,1.5,0,0,1-1.44,1.2h0a1.5,1.5,0,0,1-1.48-1.13,1.45,1.45,0,0,1,.17-1.13,1.54,1.54,0,0,1,.91-.69V20.84a26.59,26.59,0,0,1-2.37-1.23l-.23-.12a.41.41,0,0,0,0,.24c0,.33,0,.66,0,1a.62.62,0,0,1-.23.54c-.2.18-.39.38-.58.57L9.21,22a1.52,1.52,0,0,1-1.33,2.29,1.55,1.55,0,0,1-1.07-.43A1.5,1.5,0,0,1,6.58,22a1.4,1.4,0,0,1,1.23-.68,2.53,2.53,0,0,1,.85.16L9,21.06l.36-.34V19l-1.23-.67a1.88,1.88,0,0,1-1-1.14,1.7,1.7,0,0,1-.07-.51v-.33H5.58a1.54,1.54,0,0,1-.89,1,1.46,1.46,0,0,1-.57.12,1.52,1.52,0,0,1-.42-.06,1.49,1.49,0,0,1-1.1-1.52,1.52,1.52,0,0,1,1.25-1.4l.3,0A1.65,1.65,0,0,1,5.6,15.61H7.13v-3H5.58a1.5,1.5,0,0,1-.9,1,1.55,1.55,0,0,1-1,0A1.52,1.52,0,0,1,2.6,12.17a1.5,1.5,0,0,1,1.24-1.38l.3,0a1.64,1.64,0,0,1,1.45,1.13h1.5a.85.85,0,0,0,0-.35,1.86,1.86,0,0,1,0-.34,1.67,1.67,0,0,1,.9-1.31s1-.51,1.33-.67V7.59c-.25-.26-.5-.5-.76-.75A1.71,1.71,0,0,1,7.87,7a1.59,1.59,0,0,1-.56-.11,1.51,1.51,0,0,1-.46-2.54,1.52,1.52,0,0,1,1-.39,1.48,1.48,0,0,1,.87.28,1.53,1.53,0,0,1,.47,2c0,.08.08.12.13.16.21.22.43.44.65.65a.55.55,0,0,1,.17.42c0,.34,0,.68,0,1a.6.6,0,0,0,0,.23h0a.34.34,0,0,0,.17-.08L12,7.8a3.31,3.31,0,0,1,.84-.37V5.86a1.54,1.54,0,0,1-1-.91,1.41,1.41,0,0,1,0-1,1.5,1.5,0,0,1,1.47-1m0,2.24a.75.75,0,1,0,0-1.49h0a.75.75,0,0,0,0,1.49m5.29,1.13a.75.75,0,1,0,0-1.5h0a.75.75,0,0,0-.75.74.76.76,0,0,0,.74.76h0m-10.58,0h0a.75.75,0,1,0,0-1.49.75.75,0,1,0,0,1.49M4.11,13h0a.75.75,0,0,0,0-1.49.76.76,0,0,0-.75.76.77.77,0,0,0,.75.73m18.15,0a.75.75,0,0,0,0-1.49h0a.75.75,0,1,0,0,1.49m0,3.74a.75.75,0,0,0,0-1.5h0a.75.75,0,1,0,0,1.5m-18.14,0a.75.75,0,0,0,0-1.5.75.75,0,1,0,0,1.5m14.35,6.72a.75.75,0,1,0,0-1.49h0a.76.76,0,0,0-.75.76.74.74,0,0,0,.75.73m-10.58,0a.75.75,0,1,0-.75-.75.75.75,0,0,0,.75.75m5.3,1.12a.75.75,0,0,0,.75-.74.77.77,0,0,0-.74-.75h0a.75.75,0,1,0,0,1.49m0-22.67a2.52,2.52,0,0,0-2.43,1.75,2.52,2.52,0,0,0,1,2.83v.26l-.3.16-.37.21a1.54,1.54,0,0,0-.43-.76L10.33,6a2.45,2.45,0,0,0-1-2.56A2.59,2.59,0,0,0,7.87,3a2.52,2.52,0,0,0-1.69.65,2.48,2.48,0,0,0-.51,3.12A2.51,2.51,0,0,0,6.94,7.85,2.48,2.48,0,0,0,7.87,8a2.92,2.92,0,0,0,.5,0l0,0v.6L7.62,9A2.64,2.64,0,0,0,6.2,10.89h0a2.48,2.48,0,0,0-2-1.13,2.72,2.72,0,0,0-.49.05,2.48,2.48,0,0,0-1.2,4.31,2.49,2.49,0,0,0,1,4.28,2.72,2.72,0,0,0,.69.09,2.55,2.55,0,0,0,1-.2,2.5,2.5,0,0,0,1.1-.9h0a1,1,0,0,0,0,.14,2.87,2.87,0,0,0,1.42,1.72l.62.34.09.05v.65l0,0a2.62,2.62,0,0,0-.55-.05,2.39,2.39,0,0,0-2.07,1.15,2.48,2.48,0,0,0,.37,3.14,2.55,2.55,0,0,0,1.77.71,2.53,2.53,0,0,0,2.48-3l.25-.24a1.75,1.75,0,0,0,.52-.85c.22.12.44.24.67.35v.27a2.55,2.55,0,0,0-.78.82,2.51,2.51,0,1,0,4.62,1.78,2.36,2.36,0,0,0-1.06-2.56v-.31l.3-.16.06,0,.31-.16a1.76,1.76,0,0,0,.52.86l.25.23a2.4,2.4,0,0,0,0,1.1,2.48,2.48,0,0,0,1.06,1.51,2.51,2.51,0,0,0,3.1-.23,2.5,2.5,0,0,0-.7-4.17,2.45,2.45,0,0,0-1-.21,2.22,2.22,0,0,0-.51.06v-.64l.69-.38a2.9,2.9,0,0,0,1.48-1.89h.05a2.41,2.41,0,0,0,2,1.13,2.64,2.64,0,0,0,.55-.06,2.51,2.51,0,0,0,2-2.41,2.55,2.55,0,0,0-.85-1.91,2.51,2.51,0,0,0,.85-1.9,2.47,2.47,0,0,0-2-2.4,2.22,2.22,0,0,0-.57-.07,2.4,2.4,0,0,0-2,1.12h-.05A2.83,2.83,0,0,0,18.68,9l-.54-.29L18,8.6V8l0,0a2.59,2.59,0,0,0,.48,0,2.46,2.46,0,0,0,.6-.07,2.52,2.52,0,0,0,1.22-4.18A2.56,2.56,0,0,0,18.47,3a2.6,2.6,0,0,0-1.27.34A2.55,2.55,0,0,0,16,6l-.33.33a1.55,1.55,0,0,0-.44.76c-.21-.12-.43-.24-.66-.35V6.45A2.41,2.41,0,0,0,15.66,4a2.52,2.52,0,0,0-2.3-2.07Zm7,12.6v-.78a2.19,2.19,0,0,0,.36.39,2.64,2.64,0,0,0-.36.39ZM5.77,14.14a3.33,3.33,0,0,0,.36-.39v.8a3,3,0,0,0-.36-.41Z"/><g class="cls-4"><path d="M20.78,12.63a1.62,1.62,0,0,0,.68.9,1.56,1.56,0,0,0,1.14.18,1.49,1.49,0,0,0,0-2.92,1.55,1.55,0,0,0-1.8,1.08H19.25a.15.15,0,0,1,0-.06c0-.07,0-.14,0-.21a1.88,1.88,0,0,0-1-1.74l-1.06-.57A.39.39,0,0,1,17,9.18V7.6l.77-.78a1.55,1.55,0,0,0,1.1.15,1.52,1.52,0,0,0,.75-2.52,1.55,1.55,0,0,0-1.88-.27,1.53,1.53,0,0,0-.55,2.1l-.79.79a.46.46,0,0,0-.17.39,2.26,2.26,0,0,1,0,.26v1h-.06L16,8.65a25.54,25.54,0,0,0-2.38-1.24V5.86a1.53,1.53,0,0,0,1.1-1.7,1.51,1.51,0,0,0-1.36-1.25,1.52,1.52,0,0,0-1.58,1,1.41,1.41,0,0,0,0,1,1.54,1.54,0,0,0,1,.91V7.43A3.31,3.31,0,0,0,12,7.8l-1.59.87c-.06,0-.11.09-.19.08a.6.6,0,0,1,0-.23c0-.35,0-.69,0-1A.55.55,0,0,0,10,7.07c-.22-.21-.44-.43-.65-.65-.05,0-.12-.08-.13-.16A1.53,1.53,0,0,0,6.85,4.38a1.51,1.51,0,0,0,.46,2.54,1.6,1.6,0,0,0,1.32-.08c.26.25.51.49.76.75V9.22c-.29.16-1.33.67-1.33.67a1.67,1.67,0,0,0-.9,1.31,1.86,1.86,0,0,0,0,.34.85.85,0,0,1,0,.35H5.59a1.58,1.58,0,0,0-1.75-1.1A1.5,1.5,0,0,0,2.6,12.17a1.52,1.52,0,0,0,1.08,1.52,1.53,1.53,0,0,0,1.9-1H7.13v3H5.6a1.58,1.58,0,0,0-1.75-1.1,1.52,1.52,0,0,0-1.25,1.4,1.49,1.49,0,0,0,1.1,1.52,1.41,1.41,0,0,0,1-.06,1.54,1.54,0,0,0,.89-1H7.14v.33a1.7,1.7,0,0,0,.07.51,1.88,1.88,0,0,0,1,1.14L9.39,19v1.68L9,21.06l-.37.37A1.6,1.6,0,0,0,6.58,22a1.5,1.5,0,0,0,.23,1.89A1.54,1.54,0,0,0,8.7,24,1.54,1.54,0,0,0,9.21,22l.15-.16c.19-.19.38-.39.58-.57a.62.62,0,0,0,.23-.54c0-.32,0-.65,0-1a.41.41,0,0,1,0-.24l.23.12a26.59,26.59,0,0,0,2.37,1.23v1.55a1.54,1.54,0,0,0-.91.69,1.45,1.45,0,0,0-.17,1.13,1.52,1.52,0,0,0,2.95-.07c.16-.75-.21-1.35-1.09-1.76V20.81a3.47,3.47,0,0,0,.88-.39L16,19.57a.24.24,0,0,1,.2-.06c0,.38,0,.76,0,1.14a.68.68,0,0,0,.25.6c.25.23.48.47.72.71A1.63,1.63,0,0,0,17,23.08a1.54,1.54,0,0,0,2.52.78,1.5,1.5,0,0,0-.42-2.51,1.57,1.57,0,0,0-1.37.07L17,20.68V19c.41-.22.81-.45,1.22-.66a1.89,1.89,0,0,0,1-1.76c0-.08,0-.17,0-.25h1.51a1.55,1.55,0,0,0,1.77,1.08,1.5,1.5,0,0,0,.05-2.93,1.47,1.47,0,0,0-1,.11,1.51,1.51,0,0,0-.82,1H19.23v-3Zm1.48-1.12a.75.75,0,1,1-.76.73A.76.76,0,0,1,22.26,11.51ZM18.48,4.78a.75.75,0,1,1-.76.74A.76.76,0,0,1,18.48,4.78ZM7.91,6.27a.75.75,0,1,1,.74-.74A.75.75,0,0,1,7.91,6.27ZM4.13,13a.78.78,0,0,1-.77-.73.76.76,0,0,1,.75-.76.75.75,0,0,1,0,1.49Zm0,3.74a.75.75,0,1,1,0-1.5.75.75,0,0,1,0,1.5Zm3.77,6.72a.75.75,0,1,1,.76-.73A.76.76,0,0,1,7.89,23.46ZM18.48,22a.75.75,0,1,1,0,1.49.74.74,0,0,1-.75-.73A.75.75,0,0,1,18.48,22Zm-6-17.56a.75.75,0,1,1,.74.74A.75.75,0,0,1,12.44,4.41Zm1.5,19.43a.75.75,0,0,1-.75.74.74.74,0,0,1-.75-.76.75.75,0,0,1,.76-.73A.77.77,0,0,1,13.94,23.84Zm8.32-8.6a.75.75,0,1,1-.76.73A.76.76,0,0,1,22.26,15.24Z"/></g><path class="cls-3" d="M11.61,15.63a.42.42,0,0,1-.27.42.39.39,0,0,1-.47-.18L9.67,14.3l-.38-.51h0v1.68a.81.81,0,0,1,0,.22.39.39,0,0,1-.78,0,1,1,0,0,1,0-.17V12.69a.91.91,0,0,1,0-.17.39.39,0,0,1,.68-.23c.06.07.11.15.16.22l1.37,1.79.15.19v-1.8a1.21,1.21,0,0,1,0-.19.4.4,0,0,1,.4-.33.41.41,0,0,1,.38.32.66.66,0,0,1,0,.2c0,1,0,1.91,0,2.87Z"/><path class="cls-3" d="M14.12,13.73h.24a.38.38,0,0,1,.4.38.39.39,0,0,1-.41.4H13.23c-.07.06-.05.13-.05.2v1a.39.39,0,0,1-.78,0,1,1,0,0,1,0-.17v-3a.39.39,0,0,1,.38-.38h1.6a.39.39,0,1,1,0,.78h-.89a.69.69,0,0,0-.28,0v.75Z"/><path class="cls-3" d="M17.51,13c-.12,0-.23,0-.35,0a.68.68,0,0,0,0,.27v2.32a.81.81,0,0,1,0,.22.39.39,0,0,1-.4.32.4.4,0,0,1-.37-.33.79.79,0,0,1,0-.22V13.21a.63.63,0,0,0,0-.26c-.1,0-.21,0-.33,0a.39.39,0,1,1,0-.78H17.5a.38.38,0,0,1,.42.38A.39.39,0,0,1,17.51,13Z"/></svg>