<svg width="52" height="64" viewBox="0 0 52 64" fill="none" xmlns="http://www.w3.org/2000/svg">
<path d="M48.9138 21.6842C48.9138 26.2439 45.226 29.9317 40.6664 29.9317L41.9035 27.8698M25.3496 14.6149C25.3496 10.0552 29.0374 6.36743 33.5971 6.36743L32.36 8.4293" stroke="white" stroke-width="1.5" stroke-linecap="round" stroke-linejoin="round"/>
<path d="M50.3381 10.0624V13.2108C50.3381 15.8657 47.7667 18.0186 44.5944 18.0186C41.422 18.0186 38.8506 15.8657 38.8506 13.2108V10.0624C38.8506 12.7173 41.422 14.6149 44.5944 14.6149C47.7667 14.6149 50.3381 12.7173 50.3381 10.0624Z" stroke="white" stroke-width="1.5" stroke-linecap="round" stroke-linejoin="round"/>
<path d="M50.3381 5.80776C50.3381 6.5821 50.1172 7.29689 49.7284 7.90956C48.7829 9.40719 46.8389 10.3602 44.5944 10.3602C42.3499 10.3602 40.4058 9.40719 39.4603 7.90956C39.0715 7.29689 38.8506 6.5821 38.8506 5.80776C38.8506 4.48031 39.4957 3.28049 40.5295 2.41254C41.5723 1.53609 43.0038 1 44.5944 1C46.185 1 47.6165 1.53609 48.6592 2.40404C49.6931 3.28049 50.3381 4.48031 50.3381 5.80776Z" stroke="white" stroke-width="1.5" stroke-linecap="round" stroke-linejoin="round"/>
<path d="M50.3381 5.80776V10.0624C50.3381 12.7173 47.7667 14.6149 44.5944 14.6149C41.422 14.6149 38.8506 12.7173 38.8506 10.0624V5.80776C38.8506 3.15285 41.422 1 44.5944 1C46.185 1 47.6165 1.53609 48.6592 2.40404C49.6931 3.28049 50.3381 4.48031 50.3381 5.80776Z" stroke="white" stroke-width="1.5" stroke-linecap="round" stroke-linejoin="round"/>
<path d="M46.1645 61.9765C46.243 61.8194 46.243 61.7408 46.243 61.5837C46.1645 61.5837 46.0859 61.5837 46.0074 61.5052L45.9288 61.4266C46.0074 61.191 46.0859 60.9554 46.3216 60.7983C46.5572 60.4841 46.5572 60.1699 46.4001 59.8557C46.243 59.463 46.0859 58.9917 45.8503 58.6775C45.1433 57.8135 44.4364 57.028 43.6509 56.2425C42.8655 55.457 42.0014 54.6716 41.1374 53.8861C40.9803 53.8075 40.9018 53.6504 40.7447 53.5719H32.9685C32.7329 54.3574 32.5758 55.1428 32.3401 56.0069C32.183 56.6352 31.9474 57.3422 31.7117 57.9706C31.319 59.2273 30.8477 60.4841 30.3764 61.6623C30.1408 62.1336 29.9837 62.6049 29.748 63.0761H36.1104C36.7388 62.9976 37.3671 62.919 37.917 62.7619C39.8807 62.4478 41.9229 62.2121 43.8866 61.8194C44.2008 61.7408 44.5935 61.5837 44.9077 61.7408C43.8866 62.055 42.8655 62.2907 41.7658 62.4478C41.1374 62.5263 40.5876 62.5263 39.9592 62.6834C39.3308 62.8405 38.6239 62.919 37.9955 63.0761H45.3004C45.4575 62.8405 45.6146 62.6049 45.8503 62.3692C46.0074 62.2121 46.0859 62.1336 46.1645 61.9765ZM31.1619 62.6834C31.2405 62.6834 31.2405 62.6834 31.1619 62.6834Z" fill="white"/>
<path d="M22.6795 58.9917C21.6584 57.9706 20.5587 56.9495 19.3805 56.0069C19.0663 55.7712 18.7522 55.7712 18.3594 55.7712C17.3383 55.9283 16.4743 56.3211 15.6103 57.028C14.1964 58.2062 12.8611 59.463 11.5258 60.6412C11.1331 60.9554 10.7403 61.3481 10.3476 61.7408C10.269 61.8194 10.1905 61.8979 10.1119 61.9765C9.79775 62.2907 9.40501 62.6049 9.09082 62.9976H26.3713C25.9785 62.5263 25.5072 62.055 25.1145 61.5052C24.4076 60.6412 23.5435 59.8557 22.6795 58.9917ZM11.4472 62.762C11.2116 62.8405 10.976 62.762 10.8974 62.4478C11.0545 62.2907 11.1331 62.4478 11.2901 62.4478C11.3687 62.6049 11.5258 62.6049 11.4472 62.762ZM11.9971 62.6834V62.6049H12.0756C12.0756 62.6049 12.0756 62.6049 12.0756 62.6834V62.762C12.0756 62.762 11.9971 62.762 11.9971 62.6834ZM12.3113 62.055C12.2327 62.055 12.2327 62.055 12.2327 61.9765C12.2327 61.9765 12.2327 61.8979 12.3113 61.8979C12.3898 61.8979 12.3898 61.8979 12.3898 61.9765C12.3898 61.9765 12.3113 62.055 12.3113 62.055ZM13.4109 60.6412C13.4895 60.5626 13.568 60.6412 13.568 60.7197C13.4895 60.7197 13.4895 60.7197 13.4109 60.6412ZM16.3172 58.6775C16.3957 58.6775 16.3172 58.5989 16.3172 58.6775C16.3957 58.6775 16.3957 58.6775 16.3172 58.6775ZM21.737 59.3059C21.6584 59.3059 21.5799 59.3059 21.5799 59.2273C21.6584 59.1488 21.737 59.1488 21.737 59.3059Z" fill="white"/>
<path d="M46.6366 59.0702C47.2649 59.7771 48.0504 59.6201 48.4432 58.756C48.993 57.4993 49.6214 56.2425 50.0927 54.9858C50.0927 54.9072 50.1712 54.8287 50.1712 54.7501C49.7785 54.0432 48.9144 53.5719 48.0504 53.5719H41.2168C41.7666 54.1217 42.395 54.6716 42.9448 55.1428C44.2801 56.3996 45.4584 57.7349 46.6366 59.0702Z" fill="white"/>
<path d="M7.36234 58.0491C8.93329 57.4993 10.5042 57.1065 12.0752 56.5567C13.489 56.0069 15.06 55.6927 16.4738 55.2999C17.1808 55.1428 17.3379 54.9858 17.7306 54.4359C17.8091 54.1217 17.5735 53.8075 17.3379 53.6504C17.3379 53.6504 17.3379 53.6504 17.2593 53.5719H10.8184C10.897 53.5719 10.9755 53.5719 11.0541 53.5719C11.0541 53.5719 11.0541 53.5719 11.1326 53.5719C11.2112 53.5719 11.2112 53.5719 11.2897 53.6504L11.3683 53.729L11.4468 53.8075C11.5254 53.8861 11.5254 53.9646 11.6039 54.0432C11.0541 53.9646 10.5042 53.8861 10.1115 53.5719H7.91217V53.6504C7.83363 53.6504 7.83363 53.5719 7.83363 53.5719H6.18413C6.34123 53.6504 6.49832 53.729 6.65541 53.8861C6.41977 53.8861 6.18413 53.8861 6.10558 53.5719H3.51352C2.09966 53.5719 1 54.593 1 55.9283V58.9131H1.07855V58.9917C1.07855 58.9917 1.07855 58.9917 1 58.9917V60.327C1.07855 60.2484 1.23564 60.2484 1.31419 60.1699C3.27788 59.3059 5.39866 58.756 7.36234 58.0491ZM13.8818 55.3785C13.8818 55.2999 13.8818 55.2214 13.8818 55.3785ZM13.9603 54.7501C13.8818 54.7501 13.8032 54.6716 13.8818 54.593C13.8818 54.593 13.9603 54.593 13.9603 54.5145L14.0389 54.593C14.0389 54.6716 13.9603 54.7501 13.9603 54.7501ZM15.1385 55.1428C14.9814 55.2214 14.9029 55.1428 14.9029 55.0643C14.9814 54.9858 15.06 54.9858 15.1385 55.1428ZM14.5102 54.0432C14.0389 54.1217 14.0389 54.1217 13.8032 53.8075C13.9603 53.8861 14.196 53.9646 14.5102 54.0432ZM12.8607 54.6716C12.9392 54.6716 12.9392 54.6716 13.0178 54.6716C13.0178 54.6716 13.0178 54.6716 13.0963 54.6716C13.1749 54.6716 13.1749 54.6716 13.2534 54.7501C13.2534 54.7501 13.3319 54.7501 13.3319 54.8287C13.3319 54.8287 13.4105 54.8287 13.4105 54.9072C13.489 54.9858 13.489 54.9858 13.5676 55.0643C13.489 55.0643 13.4105 55.0643 13.3319 55.0643H13.2534C13.2534 55.0643 13.1749 55.0643 13.1749 54.9858L13.0963 54.9072C13.0963 54.9072 13.0963 54.9072 13.0178 54.8287C12.8607 54.8287 12.8607 54.7501 12.8607 54.6716ZM12.2323 55.8498C12.2323 55.8498 12.3108 55.8498 12.3108 55.9283C12.3108 56.0069 12.2323 56.0854 12.1537 56.0069L12.0752 55.9283C12.1537 55.9283 12.2323 55.8498 12.2323 55.8498ZM6.89106 56.7138C7.36234 56.7923 7.44089 57.028 7.44089 57.4207C7.1267 57.3422 7.04815 57.028 6.89106 56.7138ZM11.2112 55.2214C11.0541 55.2999 10.897 55.2999 10.8184 55.2214C10.9755 55.1428 11.0541 55.1428 11.2112 55.2214ZM10.6613 56.4782C10.7399 56.5567 10.6613 56.5567 10.6613 56.5567C10.5828 56.5567 10.5828 56.5567 10.6613 56.4782C10.5828 56.5567 10.5828 56.4782 10.6613 56.4782ZM10.5042 54.593C10.5828 54.593 10.5828 54.593 10.5042 54.593ZM10.1115 55.7712C10.19 55.7712 10.19 55.7712 10.19 55.8498C10.19 55.8498 10.19 55.8498 10.1115 55.8498C10.1115 55.8498 10.1115 55.8498 10.1115 55.7712ZM9.87586 56.5567C9.87586 56.6352 9.87586 56.6352 9.87586 56.6352C9.79731 56.6352 9.79731 56.5567 9.87586 56.5567ZM9.16893 56.0069C8.93329 56.2425 8.7762 56.164 8.54055 56.0069C8.7762 55.8498 8.93329 55.7712 9.16893 56.0069ZM8.69765 56.8709C8.6191 56.8709 8.54055 56.9494 8.46201 56.9494C8.46201 56.9494 8.46201 56.9494 8.38346 56.9494H8.30491C8.30491 56.9494 8.30491 56.9494 8.22636 56.9494C8.14782 56.9494 8.14782 56.8709 8.06927 56.7923C8.38346 56.6352 8.54055 56.4782 8.69765 56.8709ZM7.04815 54.4359C7.1267 54.4359 7.1267 54.4359 7.04815 54.4359ZM8.38346 55.2999C7.67653 55.5356 7.51944 54.9858 6.9696 54.6716C7.67653 54.6716 7.91217 54.9858 8.38346 55.2999ZM6.89106 54.0432C6.89106 54.1217 6.89106 54.1217 6.89106 54.2003C6.81251 54.2003 6.81251 54.2003 6.73396 54.1217C6.73396 54.0432 6.65541 54.0432 6.65541 53.9646C6.73396 53.9646 6.81251 53.9646 6.89106 54.0432ZM3.04223 57.6564C3.04223 57.5778 3.04223 57.5778 3.04223 57.5778C3.12078 57.5778 3.12078 57.6564 3.04223 57.6564C3.12078 57.6564 3.12078 57.6564 3.04223 57.6564ZM4.29899 56.9494C4.29899 56.8709 4.29899 56.8709 4.29899 56.8709C4.37754 56.8709 4.37754 56.9494 4.29899 56.9494ZM5.32011 56.9494C5.24156 56.9494 5.24156 56.8709 5.16301 56.8709C5.16301 56.8709 5.16301 56.7923 5.24156 56.7923C5.32011 56.7923 5.39866 56.7923 5.39866 56.8709C5.39866 56.8709 5.39866 56.9494 5.32011 56.9494ZM5.39866 55.8498C5.39866 55.8498 5.32011 55.8498 5.24156 55.7712C5.24156 55.6927 5.24156 55.6927 5.32011 55.6927C5.39866 55.6927 5.39866 55.6927 5.4772 55.7712C5.39866 55.7712 5.39866 55.7712 5.39866 55.8498ZM6.41977 56.5567C6.34123 56.5567 6.34123 56.4782 6.34123 56.4782C6.34123 56.4782 6.41977 56.4782 6.41977 56.5567ZM6.34123 54.9858C6.26268 54.9858 6.26268 54.9858 6.26268 54.9072C6.26268 54.9072 6.26268 54.9072 6.34123 54.9858ZM6.18413 55.457C6.18413 55.5356 6.18413 55.5356 6.18413 55.5356V55.457ZM6.34123 57.4207C6.34123 57.6564 6.18413 57.6564 6.02704 57.5778C6.10558 57.3422 6.18413 57.2636 6.34123 57.4207ZM5.6343 54.4359C5.39866 54.3574 5.24156 54.2788 5.08447 54.0432C5.32011 54.1217 5.55575 54.1217 5.6343 54.4359ZM5.00592 57.8135C5.08447 57.7349 5.08447 57.7349 5.08447 57.7349C5.16301 57.7349 5.16301 57.6564 5.24156 57.6564C5.24156 57.7349 5.24156 57.8135 5.24156 57.8135C5.24156 57.892 5.16301 57.892 5.00592 57.892C4.92737 57.892 4.92737 57.892 5.00592 57.8135ZM4.45609 55.0643C4.37754 54.9858 4.22044 54.9858 4.29899 54.7501C4.45609 54.7501 4.61318 54.8287 4.45609 55.0643ZM3.9848 55.9283C4.06335 55.9283 4.1419 55.9283 4.1419 56.0069C4.06335 56.0854 3.9848 56.0069 3.9848 55.9283ZM3.74916 57.9706C3.74916 58.0491 3.74916 58.0491 3.74916 58.0491C3.67061 57.9706 3.67061 57.9706 3.74916 57.9706ZM2.80659 56.2425C2.88514 56.2425 2.88514 56.2425 2.96369 56.2425H3.04223H3.12078H3.19933H3.27788C3.35642 56.2425 3.43497 56.3211 3.43497 56.3211C3.43497 56.5567 3.35642 56.5567 3.27788 56.5567H3.19933C3.12078 56.5567 3.12078 56.5567 3.04223 56.5567C3.04223 56.5567 2.96369 56.5567 2.96369 56.4782L2.88514 56.3996C2.88514 56.3211 2.80659 56.3211 2.80659 56.2425ZM2.17821 55.5356C2.09966 55.5356 1.94257 55.5356 1.94257 55.3785C2.09966 55.3785 2.17821 55.3785 2.17821 55.5356ZM1.39274 57.2636C1.47128 57.2636 1.54983 57.2636 1.54983 57.4207C1.47128 57.3422 1.31419 57.4207 1.39274 57.2636Z" fill="white"/>
<path d="M11.9966 59.7772C13.2534 58.6775 14.4316 57.4207 15.7669 56.4782C15.8455 56.3996 16.0811 56.3996 16.0811 56.164C15.924 56.0069 15.7669 56.0854 15.5313 56.0854C14.9029 56.2425 14.2745 56.3211 13.6461 56.4782C12.0752 56.9495 10.5042 57.4993 8.93329 57.9706C7.2838 58.4419 5.71285 59.0702 4.1419 59.6201C3.67061 59.7772 3.19933 59.9343 2.6495 60.0914L2.57095 60.1699C2.33531 60.2484 2.09966 60.327 1.86402 60.4055C1.78547 60.4055 1.70693 60.4841 1.70693 60.4841C1.47128 60.5626 1.23564 60.6412 1 60.7197C1 61.0339 1.07855 61.3481 1.23564 61.5838C1.31419 61.5838 1.39274 61.6623 1.39274 61.6623C1.47128 61.7408 1.47128 61.8194 1.54983 61.8979C1.47128 61.8979 1.47128 61.8979 1.39274 61.9765C1.86402 62.6049 2.6495 62.9976 3.51352 62.9976H5.16301H5.24156H6.34123C6.41977 62.9976 6.41977 62.9976 6.49832 62.9976H8.69765C9.32603 62.4478 9.87586 61.8194 10.5042 61.2696C10.897 60.7983 11.4468 60.327 11.9966 59.7772ZM2.25676 61.3481L2.33531 61.2696C2.41385 61.2696 2.4924 61.3481 2.4924 61.5052C2.33531 61.5052 2.25676 61.4267 2.25676 61.3481ZM2.96369 60.7983C2.88514 60.7983 2.80659 60.7197 2.80659 60.6412C2.80659 60.5626 2.88514 60.4841 2.96369 60.4841C3.04223 60.4841 3.12078 60.5626 3.12078 60.6412C3.12078 60.7983 3.04223 60.7983 2.96369 60.7983ZM4.29899 62.1336C4.22044 62.1336 4.22044 62.055 4.22044 62.055C4.22044 62.055 4.22044 61.9765 4.29899 61.9765C4.37754 61.9765 4.45609 61.9765 4.45609 62.055C4.37754 62.055 4.29899 62.1336 4.29899 62.1336ZM4.61318 60.6412C4.61318 60.6412 4.61318 60.6412 4.61318 60.5626H4.69173C4.69173 60.6412 4.69173 60.6412 4.61318 60.6412ZM5.55575 62.4478C5.4772 62.4478 5.24156 62.4478 5.32011 62.2121C5.4772 62.1336 5.6343 62.055 5.79139 62.2907C5.71285 62.3692 5.6343 62.4478 5.55575 62.4478ZM6.41977 61.4267C6.34123 61.5052 6.34123 61.4267 6.34123 61.4267V61.3481C6.34123 61.3481 6.41977 61.4267 6.41977 61.4267ZM8.06927 58.9917C8.14782 59.0702 8.14782 58.9917 8.06927 58.9917C8.06927 59.0702 8.06927 59.0702 8.06927 59.0702C7.99072 59.0702 7.99072 59.0702 8.06927 58.9917ZM6.41977 59.6201C6.49832 59.6201 6.49832 59.6201 6.41977 59.6201ZM6.49832 59.6986C6.57687 59.6986 6.57687 59.6986 6.57687 59.7772C6.57687 59.7772 6.57687 59.7772 6.49832 59.6986ZM6.89106 60.7197C7.20525 60.6412 7.2838 60.7197 7.36234 60.9554C7.1267 61.0339 7.04815 60.9554 6.89106 60.7197ZM7.44089 62.8405C7.28379 62.8405 7.28379 62.762 7.28379 62.5263C7.36234 62.6049 7.44089 62.6834 7.51944 62.762C7.51944 62.762 7.44089 62.8405 7.44089 62.8405ZM7.59798 59.7772C7.51944 59.6986 7.51944 59.6986 7.51944 59.6986C7.51944 59.6986 7.51944 59.6201 7.59798 59.5415C7.67653 59.6201 7.67653 59.6201 7.67653 59.6986C7.67653 59.7772 7.67653 59.7772 7.67653 59.8557C7.67653 59.8557 7.67653 59.7772 7.59798 59.7772ZM7.75508 62.2907C7.67653 62.2907 7.67653 62.2121 7.75508 62.2907ZM8.14782 61.7408C8.06927 61.6623 8.06927 61.6623 8.14782 61.7408ZM8.38346 61.3481C8.22636 61.3481 8.06927 61.2696 7.99072 61.191C7.91217 61.191 7.91217 61.1125 7.91217 61.0339C7.99072 61.0339 8.06927 61.0339 8.14782 61.0339H8.22636C8.22636 61.0339 8.30491 61.0339 8.30491 61.1125C8.30491 61.1125 8.30491 61.191 8.38346 61.191C8.38346 61.191 8.38346 61.191 8.38346 61.2696C8.30491 61.2696 8.38346 61.3481 8.38346 61.3481ZM8.46201 61.5052C8.46201 61.4267 8.46201 61.4267 8.46201 61.5052C8.54055 61.5052 8.54055 61.5838 8.54055 61.5838C8.46201 61.5838 8.46201 61.5838 8.46201 61.5052ZM12.3108 58.6775C12.1537 58.9131 11.9966 58.9917 11.761 58.9131C11.9181 58.756 12.0752 58.6775 12.3108 58.6775ZM9.01184 59.2273C9.09039 59.2273 9.09039 59.3059 9.09039 59.3059C9.09039 59.3844 9.09039 59.3844 9.01184 59.463C9.01184 59.463 8.93329 59.463 8.85474 59.3844C8.85474 59.3059 8.93329 59.2273 9.01184 59.2273ZM9.09039 61.0339C9.16893 61.0339 9.24748 61.0339 9.24748 61.191C9.09039 61.191 9.01184 61.191 9.09039 61.0339ZM10.1115 59.3844C10.1115 59.2273 10.1901 59.2273 10.2686 59.2273C10.3471 59.2273 10.4257 59.3059 10.4257 59.3844C10.4257 59.463 10.3471 59.5415 10.2686 59.5415C10.1901 59.463 10.1115 59.3844 10.1115 59.3844ZM10.7399 60.2484C10.4257 60.1699 10.2686 60.2484 10.1115 60.0914C10.3471 59.9343 10.5042 59.8557 10.7399 60.2484Z" fill="white"/>
<path d="M48.5213 61.3481C47.7359 61.1125 47.186 61.2696 46.7147 61.9765C46.4791 62.2907 46.2435 62.6834 46.0078 62.9976H48.05C48.757 62.9976 49.4639 62.6834 49.8566 62.2121L49.7781 62.1336C49.3854 61.8194 48.9926 61.5052 48.5213 61.3481Z" fill="white"/>
<path d="M50.4074 55.3785C50.1717 55.5356 50.0932 55.8498 50.0146 56.0855C49.8575 56.6353 49.6219 57.1851 49.3077 57.6564C48.915 58.3633 48.7579 59.1488 48.5222 59.8557C48.3651 60.4841 48.8364 60.8769 49.2291 61.2696C49.4648 61.5052 49.779 61.7409 50.0146 61.898C50.2503 61.5052 50.4074 61.1125 50.4074 60.6412V55.9284C50.4859 55.7713 50.4859 55.5356 50.4074 55.3785Z" fill="white"/>
<path d="M31.9472 55.6927C32.0257 55.3785 32.1043 55.0644 32.1828 54.7502C32.3399 54.3574 32.4185 53.9647 32.5756 53.4934H19.6938C19.6938 53.572 19.6152 53.6505 19.6152 53.7291V53.8076C19.6152 53.8861 19.6152 53.9647 19.6152 54.0432V54.1218C19.6152 54.2003 19.6152 54.2789 19.6152 54.3574V54.436C19.6152 54.5145 19.6152 54.5931 19.6152 54.5931C19.6152 54.6716 19.6152 54.6716 19.6152 54.7502C19.6152 54.8287 19.6152 54.8287 19.6938 54.9073C19.6938 54.9858 19.7723 54.9858 19.7723 55.0644C19.8509 55.2215 19.8509 55.3 19.8509 55.3C19.8509 55.3785 19.9294 55.4571 20.008 55.4571L20.0865 55.5356C20.1651 55.6142 20.2436 55.6927 20.3222 55.8498C21.8146 57.3422 23.2284 58.8346 24.7208 60.327C25.5063 61.1125 26.2132 61.9765 26.9987 62.762C27.0772 62.8406 27.0772 62.8406 27.1558 62.9191H29.3551C29.5908 62.4478 29.7479 61.9765 29.9049 61.5052C30.769 59.6987 31.4759 57.735 31.9472 55.6927ZM20.872 55.0644C20.7934 55.1429 20.7934 55.1429 20.7149 55.1429C20.7934 55.0644 20.7934 54.9858 20.872 54.9073C20.872 54.9073 20.872 54.9858 20.9505 54.9858C20.872 54.9858 20.872 54.9858 20.872 55.0644ZM21.2647 56.0069C21.2647 55.9284 21.2647 55.9284 21.2647 56.0069C21.2647 55.9284 21.2647 55.9284 21.3433 55.9284V56.0069C21.2647 56.0069 21.2647 56.0069 21.2647 56.0069ZM21.5789 54.7502C21.5789 54.6716 21.5789 54.6716 21.5789 54.7502ZM28.9624 61.898L28.8838 61.8194C28.8838 61.8194 28.8838 61.8194 28.9624 61.7409C28.9624 61.7409 29.0409 61.8194 28.9624 61.898C29.0409 61.898 29.0409 61.8194 28.9624 61.898Z" fill="white"/>
<path d="M16.1511 49.834C10.7964 49.2944 5.91901 46.4717 3.30392 42.383C2.24543 40.7227 1.41524 38.6057 1.14543 36.883C1.02455 35.6833 0.976031 34.4773 1.00015 33.2717C1.12468 29.5359 1.99637 26.651 3.76052 24.0774C4.30544 23.2693 4.94661 22.5306 5.66996 21.8774C7.05249 20.5282 8.66119 19.4323 10.4228 18.6396C12.029 17.87 13.744 17.352 15.5077 17.1038C16.8813 16.9655 18.2657 16.9724 19.6379 17.1245C22.7926 17.6019 25.5737 18.951 28.2511 21.2962C30.9284 23.6415 32.9624 26.7547 33.6473 29.7434C33.9171 30.8642 33.9586 31.3 33.9586 32.6906C33.9968 33.7091 33.8991 34.7281 33.6681 35.7208L33.502 36.5094L32.9209 36.634C31.2111 36.9688 29.5261 37.4196 27.8775 37.983C26.8813 38.3566 26.6737 38.4396 25.2001 39.083C23.7266 39.7264 23.1454 39.9547 22.3775 40.1623C20.7794 40.5981 19.0775 40.6396 17.936 40.2661C16.3794 39.7472 15.2171 38.5019 14.9681 37.1113C14.8885 36.4807 14.9237 35.8408 15.0718 35.2227C15.4039 34.0396 16.1303 32.8151 17.2718 31.5491L17.6662 31.134C17.6662 31.134 17.7492 31.6528 17.8115 32.2547C17.8737 32.8566 17.9567 33.3755 17.9567 33.3962L18.4134 33.251C19.7841 32.7573 21.2669 32.6637 22.6888 32.9811C23.8102 33.2547 24.9127 33.6013 25.9888 34.0189C26.4869 34.2057 27.0266 34.3925 27.2134 34.434C28.3036 34.5793 29.4127 34.4362 30.4303 34.0189C30.6794 33.9151 30.7001 33.8944 30.7624 33.6453C30.8456 33.0671 30.8456 32.48 30.7624 31.9019L30.7001 31.5906L29.6832 30.9057C23.6228 26.8793 18.5171 24.4717 14.2001 23.6415C13.0171 23.3925 10.9624 23.2057 10.9624 23.3302C10.9624 23.4547 10.9624 23.4132 10.9417 23.434C10.9209 23.4547 11.5228 23.7868 13.1001 24.5547L15.2794 25.6132C14.9749 25.7422 14.663 25.8531 14.3454 25.9453C13.1657 26.3189 12.0143 26.7767 10.9001 27.3151C10.07 27.7302 8.86618 28.4151 8.86618 28.4981L9.86241 28.6227L10.8586 28.7057L10.319 29.2868C9.57184 30.0547 9.15675 30.5528 8.09826 31.8396L7.22656 32.9396H7.99448C8.25172 32.9398 8.50852 32.9606 8.76241 33.0019C8.76241 33.0227 8.40958 34.2057 7.97373 35.6378C7.53788 37.0698 7.18505 38.2528 7.20581 38.2528L8.01524 38.0868C8.55486 37.9623 8.84543 37.9208 8.86618 37.9623C8.88694 38.0038 8.96996 39.1453 9.07373 40.5359C9.1775 41.9264 9.23977 43.0679 9.26052 43.0679C9.50952 42.8992 9.74539 42.7118 9.96618 42.5076L10.7134 41.9472C10.7341 41.9472 11.3567 42.8811 12.1247 44.0227C12.8926 45.1642 13.5152 46.0981 13.536 46.0981C13.7782 45.8835 14.0005 45.6473 14.2001 45.3925C14.6983 44.8113 14.8435 44.6661 14.8851 44.7283L15.4662 45.4132C15.736 45.7453 16.2341 46.2849 16.5662 46.617L17.1473 47.1981H18.3926C20.3643 47.1981 21.5888 47.3849 23.2284 47.9868L23.7266 48.1528L23.5605 48.2774C22.5851 49.0038 21.319 49.4811 19.7417 49.7302C19.1086 49.8136 18.4707 49.8554 17.8322 49.8547C17.1473 49.8755 16.3794 49.8547 16.1511 49.834Z" fill="white"/>
</svg>
