<svg id="Capa_1" data-name="Capa 1" xmlns="http://www.w3.org/2000/svg" viewBox="0 0 26.47 28.35"><defs><style>.cls-1{fill:#31ced8;}.cls-2{fill:#dbe4eb;}</style></defs><title>ssi_icon_tydraDEX</title><path class="cls-1" d="M13.25,27.19h-.09a.5.5,0,0,1-.36-.28l-1-2.15a12.78,12.78,0,0,1-1.22-5.43V13.56C9.92,13,7.9,11.07,7.91,9.11a.49.49,0,0,1,.29-.45.54.54,0,0,1,.21-.05h0A4.53,4.53,0,0,1,7.9,5.77a.5.5,0,0,1,.4-.45h.09a.48.48,0,0,1,.45.28,6.23,6.23,0,0,0,.43.72,9.85,9.85,0,0,1,0-3A.49.49,0,0,1,9.73,3h0a.5.5,0,0,1,.47.32,7.05,7.05,0,0,0,1.27,2.32,20,20,0,0,0,1.27-4.06.49.49,0,0,1,.49-.39.5.5,0,0,1,.49.39A19.72,19.72,0,0,0,15,5.61a6.24,6.24,0,0,0,1.28-2.32A.5.5,0,0,1,16.74,3h0a.5.5,0,0,1,.46.38,10.26,10.26,0,0,1,0,3,7.33,7.33,0,0,0,.42-.73.49.49,0,0,1,.45-.28h.09a.51.51,0,0,1,.41.45,4.47,4.47,0,0,1-.55,2.84h0a.46.46,0,0,1,.2.05.5.5,0,0,1,.3.45c0,2-2,3.89-2.65,4.45l0,3a5.91,5.91,0,0,0,.77,2.85L18.19,22a.5.5,0,0,1-.09.6l-4.5,4.5A.5.5,0,0,1,13.25,27.19Z"/><path class="cls-2" d="M13.25,1.66a21.21,21.21,0,0,0,1.32,4.21.47.47,0,0,0,.39.27c.79,0,1.78-2.67,1.78-2.67a12.8,12.8,0,0,1-.13,3.66.33.33,0,0,0,.25.15c.52,0,1.24-1.46,1.24-1.46.26,2.66-1.39,3.27-1.23,3.74a.19.19,0,0,0,.2.13c.35,0,1-.58,1-.58,0,2.07-2.66,4.22-2.66,4.22l0,3.22a6.45,6.45,0,0,0,.84,3.09l1.44,2.55-4.5,4.5-1-2.14a12.25,12.25,0,0,1-1.17-5.22v-6S8.4,11.18,8.41,9.11c0,0,.66.58,1,.58a.17.17,0,0,0,.19-.13c.16-.47-1.49-1.08-1.23-3.74,0,0,.72,1.46,1.24,1.46a.31.31,0,0,0,.25-.15,13.2,13.2,0,0,1-.13-3.66s1,2.67,1.79,2.67a.48.48,0,0,0,.39-.27,21.21,21.21,0,0,0,1.32-4.21M12.14,16.07s.69-.54.89-.76c.05-.06.15-.21.22-.32a2.44,2.44,0,0,0,.23.32,10.56,10.56,0,0,0,.87.76,9.68,9.68,0,0,1-.87-2.21H13a9.19,9.19,0,0,1-.89,2.21M13.25.66a1,1,0,0,0-1,.79,27.59,27.59,0,0,1-.88,3.18,11.88,11.88,0,0,1-.7-1.51,1,1,0,0,0-.94-.65H9.7a1,1,0,0,0-.92.76,6.32,6.32,0,0,0-.12,1.62l-.27,0H8.22a1,1,0,0,0-.82.89,5.22,5.22,0,0,0,.36,2.64,1,1,0,0,0-.35.75c0,2,1.82,3.92,2.65,4.68v5.54A13.32,13.32,0,0,0,11.33,25l1,2.14a1,1,0,0,0,.74.56h.17a1,1,0,0,0,.7-.29l4.51-4.5a1,1,0,0,0,.16-1.2l-1.44-2.55a5.46,5.46,0,0,1-.71-2.61l0-2.76c.83-.76,2.66-2.64,2.65-4.67a1,1,0,0,0-.35-.75,5.22,5.22,0,0,0,.36-2.64,1,1,0,0,0-.82-.89H18.1a1.09,1.09,0,0,0-.26,0,6.78,6.78,0,0,0-.13-1.62,1,1,0,0,0-.91-.76h-.06a1,1,0,0,0-.94.65,10.64,10.64,0,0,1-.7,1.51c-.31-.88-.67-2.25-.88-3.18a1,1,0,0,0-1-.79Z"/><path d="M13.25,26.69l4.5-4.5-1.44-2.55a6.45,6.45,0,0,1-.84-3.09l0-3.22s2.67-2.15,2.66-4.22c0,0-1.06.92-1.22.45s1.49-1.08,1.23-3.74c0,0-1,2-1.49,1.31a12.8,12.8,0,0,0,.13-3.66s-1.36,3.69-2.17,2.4a21.21,21.21,0,0,1-1.32-4.21"/><path d="M20.69,20.73l-.28,0a1.3,1.3,0,0,1-.77-.7l0-.05-.5-2.26a1,1,0,0,1,.11-.81,1,1,0,0,1,.66-.48.76.76,0,0,1,.27,0,1,1,0,0,1,1,.8l0,.05A6.89,6.89,0,0,0,20,9.14a.87.87,0,0,1-.33-.56,1.09,1.09,0,0,1,1.08-1.27,1.11,1.11,0,0,1,.78.33,9,9,0,0,1-.06,12.76A1,1,0,0,1,20.69,20.73Z"/><path class="cls-2" d="M20.73,7.81a.59.59,0,0,1,.42.18,8.48,8.48,0,0,1,0,12.06.54.54,0,0,1-.41.18l-.18,0a.89.89,0,0,1-.43-.43l-.48-2.2a.53.53,0,0,1,.38-.69.47.47,0,0,1,.17,0,.53.53,0,0,1,.52.4L21,18.44a7.43,7.43,0,0,0-.69-9.7c-.22-.1-.22-.53,0-.75a.62.62,0,0,1,.43-.18m0-1h0a1.59,1.59,0,0,0-1.57,1.85,1.29,1.29,0,0,0,.5.86,6.37,6.37,0,0,1,1.43,6.65,1.6,1.6,0,0,0-2.31.46,1.58,1.58,0,0,0-.15,1.2L19.11,20l0,.12.06.12a1.79,1.79,0,0,0,1,.93l.05,0h.06a2.73,2.73,0,0,0,.38,0,1.53,1.53,0,0,0,1.12-.48,9.52,9.52,0,0,0,.05-13.46,1.57,1.57,0,0,0-1.13-.48Z"/><path class="cls-1" d="M5.75,21A1.1,1.1,0,0,1,5,20.6,9.25,9.25,0,0,1,5,7.68a1,1,0,0,1,.76-.33l.28,0a1.31,1.31,0,0,1,.78.7l0,.05.55,2.3a1,1,0,0,1-.77,1.31.81.81,0,0,1-.27,0h0a1,1,0,0,1-1-.81l0-.05A6.89,6.89,0,0,0,6.54,19,1.13,1.13,0,0,1,5.75,21Z"/><path class="cls-2" d="M5.73,7.85l.19,0a.8.8,0,0,1,.42.43l.54,2.25a.55.55,0,0,1-.38.7.47.47,0,0,1-.17,0,.53.53,0,0,1-.52-.4L5.49,9.69a7.43,7.43,0,0,0,.69,9.7.59.59,0,0,1,0,.86.62.62,0,0,1-.43.2.61.61,0,0,1-.42-.2A8.72,8.72,0,0,1,5.33,8a.53.53,0,0,1,.4-.18m0-1h0a1.51,1.51,0,0,0-1.11.48,9.74,9.74,0,0,0,0,13.61,1.62,1.62,0,0,0,1.14.51A1.61,1.61,0,0,0,6.89,21a1.58,1.58,0,0,0,0-2.27A6.37,6.37,0,0,1,5.39,12a1.58,1.58,0,0,0,1.37.25,1.49,1.49,0,0,0,.94-.71,1.56,1.56,0,0,0,.14-1.21L7.32,8.07l0-.11,0-.11a1.86,1.86,0,0,0-1-.93l-.06,0H6.11a1.69,1.69,0,0,0-.38,0Z"/><path d="M10.74,10.52l-.83-.41h.59a1.14,1.14,0,0,1,.8.33l1.26,1.26S10.74,12.16,10.74,10.52Z"/><path class="cls-1" d="M13.52,15.38c-.06-.07-.18-.25-.27-.39a2.35,2.35,0,0,1-.27.39,13.25,13.25,0,0,1-1.06.91A11,11,0,0,0,13,13.63h.54a11.55,11.55,0,0,0,1.05,2.66A13.56,13.56,0,0,1,13.52,15.38Z"/><path class="cls-1" d="M15.73,10.52c0,1.64-1.82,1.18-1.82,1.18l1.26-1.26a1.14,1.14,0,0,1,.81-.33h.58Z"/><path d="M13.25,15a2.35,2.35,0,0,1-.27.39,13.25,13.25,0,0,1-1.06.91A11,11,0,0,0,13,13.63h.27"/></svg>