<?xml version="1.0" encoding="utf-8"?>
<!-- Generator: Adobe Illustrator 16.0.0, SVG Export Plug-In . SVG Version: 6.00 Build 0)  -->
<!DOCTYPE svg PUBLIC "-//W3C//DTD SVG 1.1//EN" "http://www.w3.org/Graphics/SVG/1.1/DTD/svg11.dtd">
<svg version="1.1" id="Capa_1" xmlns="http://www.w3.org/2000/svg" xmlns:xlink="http://www.w3.org/1999/xlink" x="0px" y="0px"
	 width="612px" height="612px" viewBox="0 0 612 612" enable-background="new 0 0 612 612" xml:space="preserve">
<title>ssi_icon_ToT</title>
<g>
	<g>
		
			<rect x="115.243" y="115.659" transform="matrix(0.7071 -0.7071 0.7071 0.7071 -126.8939 305.7603)" width="380.791" height="380.791"/>
		<path d="M305.769,52.484l254.326,254.326L305.769,561.135L51.443,306.809L305.769,52.484 M305.769,21.04l-15.953,15.722
			L35.49,291.088l-15.491,14.797l15.722,15.953l254.326,254.324L306,591.885l15.722-15.723l254.326-254.324l15.953-15.953
			l-17.109-15.722L320.566,35.837l-15.723-15.722L305.769,21.04z"/>
	</g>
	<polygon fill="#FFFF32" points="347.154,235.367 358.482,235.367 358.482,227.969 339.756,227.969 339.756,235.367 
		332.126,235.367 332.126,243.229 324.496,242.997 324.496,250.627 347.154,250.627 347.154,243.229 347.154,242.997 	"/>
	<polygon fill="#FFFF32" points="320.566,528.766 320.566,549.807 330.739,549.807 330.508,540.326 339.987,540.326 
		339.987,531.078 349.697,531.078 349.697,520.904 359.64,520.904 359.64,510.963 369.813,510.963 369.813,500.791 379.523,500.791 
		379.523,491.08 389.696,491.08 389.696,480.676 399.406,480.676 399.406,470.734 409.349,470.734 409.349,460.791 419.291,460.791 
		419.291,450.619 429.001,450.619 429.001,440.678 439.867,440.678 439.867,429.811 449.348,429.811 449.348,420.1 459.289,420.1 
		459.289,410.158 469,410.158 469,400.217 478.941,400.217 478.941,390.043 488.652,390.043 488.652,380.332 498.594,380.332 
		498.594,370.391 508.305,370.391 508.305,360.449 518.246,360.449 518.246,350.275 528.42,350.275 527.957,340.334 
		537.437,340.334 537.437,330.623 547.379,330.623 547.379,320.682 557.551,320.682 557.551,310.51 566.568,310.51 566.568,298.949 
		557.551,298.949 557.551,289.238 548.072,289.238 548.072,279.297 538.13,279.297 538.13,269.123 528.42,269.123 528.42,259.182 
		518.246,259.182 518.246,249.702 508.998,249.702 508.998,239.76 499.057,239.76 499.057,229.588 489.346,229.588 489.346,219.414 
		479.173,219.414 479.173,209.241 469.23,209.241 469.23,199.299 459.521,199.299 459.521,189.357 449.578,189.357 449.578,179.415 
		439.867,179.415 439.867,169.242 429.926,169.242 429.926,159.301 419.984,159.301 419.984,150.053 409.811,150.053 
		409.811,177.797 399.639,177.797 399.639,188.201 389.696,188.201 389.928,199.299 389.465,199.299 389.465,199.53 
		380.217,199.299 380.68,208.547 389.465,208.547 389.465,199.762 389.696,199.762 389.696,199.53 399.639,199.299 399.639,218.721 
		389.003,218.721 389.003,229.124 379.523,229.124 379.523,249.008 369.582,249.008 369.582,269.123 359.64,269.354 359.64,289.008 
		350.623,289.008 350.623,325.768 350.623,468.422 340.681,468.422 340.681,498.479 330.739,498.479 330.739,528.766 	"/>
	<polygon fill="#FFFF32" points="280.567,138.492 280.567,98.031 290.278,98.031 290.278,67.512 300.451,67.281 300.451,49.478 
		300.451,49.478 300.451,49.247 310.393,49.247 310.393,49.478 310.624,49.478 310.624,67.512 321.028,67.512 321.028,98.031 
		330.508,98.031 330.508,138.954 338.369,138.954 338.369,128.319 348.311,128.55 348.311,118.608 358.252,118.608 358.252,108.667 
		368.426,108.435 368.426,98.956 358.946,98.493 358.946,88.783 350.392,88.783 350.392,78.61 340.449,78.841 340.449,68.899 
		330.739,68.899 330.739,59.42 321.26,59.42 321.028,49.478 310.855,49.478 310.855,49.015 311.011,49.397 310.855,39.999 
		300.451,39.999 300.451,49.247 300.451,49.247 300.451,49.247 290.594,49.158 290.51,58.726 281.03,58.726 281.03,68.206 
		270.857,68.206 270.857,78.61 261.147,78.61 261.147,88.321 251.204,88.321 251.204,98.493 242.65,98.956 242.65,109.36 
		250.279,109.36 250.279,119.302 260.222,119.302 260.222,129.706 270.163,129.706 270.163,138.492 	"/>
	<polygon fill="#FFFF32" points="390.621,157.682 390.621,148.203 398.713,148.203 398.713,130.169 380.217,130.169 
		380.217,157.682 	"/>
	<polygon fill="#FFFF32" points="347.154,243.229 347.154,235.367 354.784,235.367 354.784,227.969 339.756,227.969 
		339.756,235.367 332.127,235.367 332.127,243.229 324.496,242.997 324.496,250.627 347.154,250.627 	"/>
	<polygon fill="#DBE4EB" points="230.858,158.838 230.858,130.169 212.362,130.169 212.362,147.74 221.842,147.74 221.842,158.838 	
		"/>
	<polygon fill="#DBE4EB" points="54.911,298.486 44.738,298.486 44.738,310.047 53.293,310.047 53.293,319.988 63.004,319.988 
		63.004,329.467 72.483,329.467 72.483,339.641 82.425,339.641 82.425,349.582 92.366,349.582 92.366,359.523 102.077,359.523 
		102.077,369.928 112.25,369.928 112.25,379.869 122.192,379.869 122.192,389.117 170.514,389.117 170.514,400.217 181.15,399.754 
		181.15,410.158 192.247,410.158 192.247,420.1 201.495,420.1 201.495,440.678 211.9,440.678 211.9,468.422 222.535,468.422 
		222.535,458.711 232.246,458.711 232.246,448.537 240.8,448.537 240.8,418.48 250.742,418.713 250.742,389.117 259.527,389.117 
		260.222,291.088 251.204,291.088 251.204,271.666 240.569,271.666 240.569,251.09 230.397,251.09 230.858,230.975 220.454,230.975 
		220.454,220.57 211.438,220.57 211.438,199.068 221.379,199.299 221.379,199.53 221.842,199.53 221.842,208.316 230.397,208.316 
		230.397,199.299 221.842,199.53 221.842,199.068 221.379,199.068 221.842,188.895 212.362,188.895 212.362,178.953 
		201.958,178.722 201.958,150.053 193.635,150.053 193.635,160.225 183.692,160.225 183.692,170.167 173.751,170.167 
		173.751,180.109 163.809,180.109 163.809,190.051 154.099,190.051 154.099,200.224 144.156,200.224 144.156,210.166 
		134.215,210.166 134.215,220.108 124.504,220.108 124.504,230.975 113.868,230.975 113.868,240.916 103.927,240.916 
		103.927,250.395 94.679,250.395 94.679,260.568 84.506,260.568 84.506,270.741 74.795,270.741 74.795,280.684 64.854,280.684 
		64.854,290.625 54.68,290.625 	"/>
	<polygon fill="#DBE4EB" points="294.209,318.602 294.209,333.859 301.607,333.859 301.607,325.768 309.468,325.768 
		309.468,333.859 316.867,333.859 316.867,318.602 309.468,318.602 309.468,303.572 301.607,303.572 301.607,318.602 	"/>
	<rect x="316.867" y="333.859" fill="#DBE4EB" width="7.629" height="7.631"/>
	<polygon fill="#DBE4EB" points="287.041,333.629 286.811,341.258 294.209,341.258 294.209,333.859 	"/>
	<polygon fill="#DBE4EB" points="264.152,242.997 264.152,243.229 264.152,250.627 286.811,250.627 286.811,242.997 
		279.181,243.229 279.181,235.367 271.551,235.367 271.551,227.969 252.823,227.969 252.823,235.367 264.152,235.367 	"/>
</g>
</svg>
