<svg id="Capa_1" data-name="Capa 1" xmlns="http://www.w3.org/2000/svg" xmlns:xlink="http://www.w3.org/1999/xlink" viewBox="0 0 26.47 28.35"><defs><style>.cls-1{fill:none;}.cls-2{fill:#dbe4eb;}.cls-3{fill:#ffff32;}.cls-4{clip-path:url(#clip-path);}</style><clipPath id="clip-path"><polygon class="cls-1" points="19.36 26.34 29.25 26.34 29.25 0.53 13.36 0.53 13.36 23.1 19.36 26.34"/></clipPath></defs><title>ssi_icon_ToT</title><rect class="cls-2" x="4.84" y="6.01" width="17.02" height="17.02" transform="translate(-6.36 13.7) rotate(-45)"/><path class="cls-2" d="M13.36,3.19,24.69,14.52,13.36,25.85,2,14.52,13.36,3.19m0-1.41-.71.71L1.32,13.82l-.71.7.71.71L12.65,26.56l.71.71.7-.71L25.39,15.23l.71-.71-.71-.7L14.06,2.49l-.7-.71Z"/><polygon class="cls-3" points="12.73 25.08 12.71 25.52 13.13 25.5 13.15 25.07 12.73 25.08"/><rect class="cls-3" x="12.72" y="25.08" width="0.01"/><rect class="cls-3" x="12.71" y="25.07"/><rect class="cls-3" x="12.71" y="25.07" width="0.01" height="0.01"/><polygon class="cls-3" points="13.13 25.89 13.54 25.89 13.54 25.52 13.15 25.52 13.13 25.89"/><polygon class="cls-3" points="12.27 24.16 12.27 22.85 11.84 22.85 11.84 21.55 11.41 21.55 11.41 15.38 11.41 13.79 11.02 13.79 11.02 12.94 10.59 12.93 10.59 12.06 10.16 12.06 10.16 11.2 9.75 11.2 9.75 10.75 9.29 10.75 9.29 9.91 9.72 9.92 9.72 9.93 9.73 9.93 9.73 10.31 10.11 10.31 10.13 9.91 9.73 9.92 9.73 9.91 9.71 9.91 9.72 9.43 9.29 9.43 9.29 8.98 8.85 8.98 8.85 7.78 8.41 7.78 8.41 8.18 7.98 8.18 7.98 8.61 7.55 8.61 7.55 9.05 7.13 9.05 7.13 9.48 6.7 9.48 6.7 9.91 6.28 9.91 6.28 10.34 5.85 10.34 5.85 10.78 5.41 10.78 5.41 11.22 4.99 11.22 4.99 11.66 4.56 11.66 4.56 12.09 4.16 12.09 4.16 12.5 3.72 12.5 3.72 12.93 3.3 12.93 3.3 13.37 2.87 13.37 2.87 13.8 2.46 13.8 2.46 14.22 2.07 14.22 2.07 14.72 2.46 14.72 2.46 15.16 2.9 15.16 2.9 15.59 3.33 15.59 3.33 16.01 3.74 16.01 3.72 16.44 4.16 16.44 4.16 16.88 4.59 16.88 4.59 17.31 5.01 17.31 5.01 17.74 5.44 17.74 5.44 18.16 5.86 18.16 5.86 18.6 6.29 18.6 6.29 19.03 6.71 19.03 6.71 19.46 7.14 19.46 7.14 19.88 7.55 19.88 7.55 20.35 8.02 20.35 8.02 20.78 8.44 20.78 8.44 21.22 8.87 21.22 8.87 21.65 9.3 21.65 9.3 22.08 9.72 22.08 9.72 22.53 10.16 22.53 10.16 22.95 10.58 22.95 10.58 23.39 11.02 23.39 11.02 23.82 11.45 23.82 11.45 24.26 11.87 24.26 11.87 24.66 12.28 24.66 12.27 25.07 12.71 25.07 12.71 24.16 12.27 24.16"/><rect class="cls-3" x="13.14" y="25.5" width="0.01" height="0.01"/><polygon points="14.89 7.28 14.89 6.9 15.32 6.9 15.32 6.45 15.75 6.45 15.75 6.02 16.08 6.02 16.08 5.57 15.71 5.55 15.71 5.11 15.28 5.11 15.28 4.69 14.86 4.69 14.86 4.24 14.42 4.24 14.42 3.83 14.01 3.83 14.02 3.41 13.58 3.43 13.58 3.42 13.57 3.42 13.58 3.02 13.13 3.02 13.15 3.41 13.13 3.41 13.13 3.43 12.69 3.43 12.68 3.86 12.27 3.86 12.27 4.27 11.85 4.27 11.85 4.7 11.42 4.69 11.42 5.13 11.05 5.13 11.05 5.55 10.64 5.57 10.64 5.98 11.08 5.99 11.08 6.42 11.51 6.42 11.51 6.85 11.94 6.84 11.94 7.3 12.28 7.3 12.28 5.53 12.69 5.53 12.69 4.21 13.14 4.21 13.14 3.43 13.15 3.43 13.15 3.42 13.57 3.42 13.57 3.43 13.58 3.43 13.58 4.2 14.02 4.21 14.02 5.53 14.44 5.53 14.44 7.28 14.89 7.28"/><polygon points="10.13 8.11 10.13 6.92 9.33 6.92 9.33 7.7 9.68 7.7 9.68 8.11 10.13 8.11"/><polygon points="11.56 12.13 12.54 12.13 12.54 11.8 12.21 11.81 12.21 11.47 11.88 11.47 11.88 11.15 11.23 11.15 11.23 11.47 11.56 11.47 11.56 11.81 11.56 12.13"/><polygon class="cls-3" points="16.98 8.16 16.98 7.68 17.39 7.68 17.39 6.92 16.59 6.92 16.59 8.16 16.98 8.16"/><rect class="cls-3" x="13.13" y="25.5" transform="translate(-12.84 37.68) rotate(-87.88)"/><polygon class="cls-3" points="24.21 13.86 23.77 13.86 23.77 13.43 23.34 13.43 23.34 13 22.92 13 22.92 12.56 22.48 12.56 22.48 12.12 22.08 12.12 22.08 11.71 21.65 11.71 21.65 11.28 21.19 11.28 21.19 10.81 20.77 10.81 20.77 10.38 20.34 10.38 20.34 9.95 19.91 9.95 19.91 9.51 19.49 9.51 19.49 9.08 19.06 9.08 19.06 8.65 18.63 8.65 18.63 8.22 18.2 8.22 18.2 7.78 17.84 7.78 17.84 9.02 17.39 9.03 17.39 9.46 16.98 9.46 17 9.9 16.98 9.9 16.98 9.92 16.61 9.91 16.61 10.3 16.98 10.3 16.98 9.92 17 9.92 17 9.91 17.43 9.9 17.43 10.83 17.04 10.83 17.04 11.28 16.59 11.28 16.61 12.15 16.17 12.15 16.17 13.04 15.71 13.04 15.71 13.88 15.32 13.88 15.35 18.12 15.73 18.12 15.73 19.4 16.16 19.39 16.16 20.69 16.53 20.69 16.53 21.13 16.95 21.13 16.95 21.55 17.41 21.55 17.41 20.35 17.86 20.35 17.86 19.46 18.26 19.46 18.26 19.03 18.74 19.03 18.74 18.58 19.2 18.6 19.2 18.12 21.29 18.12 21.29 17.72 21.72 17.72 21.72 17.29 22.16 17.29 22.16 16.84 22.58 16.84 22.58 16.41 23.01 16.41 23.01 15.98 23.44 15.98 23.44 15.54 23.85 15.54 23.85 15.13 24.27 15.13 24.27 14.7 24.64 14.7 24.64 14.2 24.2 14.2 24.21 13.86"/><polygon points="13.53 15.07 13.53 14.42 13.19 14.42 13.19 15.07 12.87 15.07 12.87 15.73 13.19 15.73 13.19 15.38 13.53 15.38 13.53 15.73 13.85 15.73 13.85 15.07 13.53 15.07"/><rect class="cls-3" x="13.14" y="25.51" width="0.01"/><rect x="12.54" y="15.73" width="0.33" height="0.33"/><polygon class="cls-3" points="13.85 15.73 13.85 16.05 14.17 16.05 14.16 15.72 13.85 15.73"/><polygon class="cls-3" points="15.15 11.47 15.64 11.47 15.64 11.15 14.83 11.15 14.83 11.47 14.5 11.47 14.5 11.81 14.17 11.8 14.17 12.13 15.15 12.13 15.15 11.81 15.15 11.8 15.15 11.47"/><g class="cls-4"><polygon points="12.73 25.08 12.71 25.52 13.13 25.5 13.15 25.07 12.73 25.08"/><rect x="12.72" y="25.08" width="0.01"/><rect x="12.71" y="25.07"/><rect x="12.71" y="25.07" width="0.01" height="0.01"/><polygon points="13.13 25.89 13.54 25.89 13.54 25.52 13.15 25.52 13.13 25.89"/><polygon points="12.27 24.16 12.27 22.85 11.84 22.85 11.84 21.55 11.41 21.55 11.41 15.38 11.41 13.79 11.02 13.79 11.02 12.94 10.59 12.93 10.59 12.06 10.16 12.06 10.16 11.2 9.75 11.2 9.75 10.75 9.29 10.75 9.29 9.91 9.72 9.92 9.72 9.93 9.73 9.93 9.73 10.31 10.11 10.31 10.13 9.91 9.73 9.92 9.73 9.91 9.71 9.91 9.72 9.43 9.29 9.43 9.29 8.98 8.85 8.98 8.85 7.78 8.41 7.78 8.41 8.18 7.98 8.18 7.98 8.61 7.55 8.61 7.55 9.05 7.13 9.05 7.13 9.48 6.7 9.48 6.7 9.91 6.28 9.91 6.28 10.34 5.85 10.34 5.85 10.78 5.41 10.78 5.41 11.22 4.99 11.22 4.99 11.66 4.56 11.66 4.56 12.09 4.16 12.09 4.16 12.5 3.72 12.5 3.72 12.93 3.3 12.93 3.3 13.37 2.87 13.37 2.87 13.8 2.46 13.8 2.46 14.22 2.07 14.22 2.07 14.72 2.46 14.72 2.46 15.16 2.9 15.16 2.9 15.59 3.33 15.59 3.33 16.01 3.74 16.01 3.72 16.44 4.16 16.44 4.16 16.88 4.59 16.88 4.59 17.31 5.01 17.31 5.01 17.74 5.44 17.74 5.44 18.16 5.86 18.16 5.86 18.6 6.29 18.6 6.29 19.03 6.71 19.03 6.71 19.46 7.14 19.46 7.14 19.88 7.55 19.88 7.55 20.35 8.02 20.35 8.02 20.78 8.44 20.78 8.44 21.22 8.87 21.22 8.87 21.65 9.3 21.65 9.3 22.08 9.72 22.08 9.72 22.53 10.16 22.53 10.16 22.95 10.58 22.95 10.58 23.39 11.02 23.39 11.02 23.82 11.45 23.82 11.45 24.26 11.87 24.26 11.87 24.66 12.28 24.66 12.27 25.07 12.71 25.07 12.71 24.16 12.27 24.16"/><rect x="13.14" y="25.5" width="0.01" height="0.01"/><polygon points="14.89 7.28 14.89 6.9 15.32 6.9 15.32 6.45 15.75 6.45 15.75 6.02 16.08 6.02 16.08 5.57 15.71 5.55 15.71 5.11 15.28 5.11 15.28 4.69 14.86 4.69 14.86 4.24 14.42 4.24 14.42 3.83 14.01 3.83 14.02 3.41 13.58 3.43 13.58 3.42 13.57 3.42 13.58 3.02 13.13 3.02 13.15 3.41 13.13 3.41 13.13 3.43 12.69 3.43 12.68 3.86 12.27 3.86 12.27 4.27 11.85 4.27 11.85 4.7 11.42 4.69 11.42 5.13 11.05 5.13 11.05 5.55 10.64 5.57 10.64 5.98 11.08 5.99 11.08 6.42 11.51 6.42 11.51 6.85 11.94 6.84 11.94 7.3 12.28 7.3 12.28 5.53 12.69 5.53 12.69 4.21 13.14 4.21 13.14 3.43 13.15 3.43 13.15 3.42 13.57 3.42 13.57 3.43 13.58 3.43 13.58 4.2 14.02 4.21 14.02 5.53 14.44 5.53 14.44 7.28 14.89 7.28"/><polygon points="10.13 8.11 10.13 6.92 9.33 6.92 9.33 7.7 9.68 7.7 9.68 8.11 10.13 8.11"/><polygon points="11.56 12.13 12.54 12.13 12.54 11.8 12.21 11.81 12.21 11.47 11.88 11.47 11.88 11.15 11.23 11.15 11.23 11.47 11.56 11.47 11.56 11.81 11.56 12.13"/><polygon points="16.98 8.16 16.98 7.68 17.39 7.68 17.39 6.92 16.59 6.92 16.59 8.16 16.98 8.16"/><rect x="13.13" y="25.5" transform="translate(-12.84 37.68) rotate(-87.88)"/><polygon points="24.21 13.86 23.77 13.86 23.77 13.43 23.34 13.43 23.34 13 22.92 13 22.92 12.56 22.48 12.56 22.48 12.12 22.08 12.12 22.08 11.71 21.65 11.71 21.65 11.28 21.19 11.28 21.19 10.81 20.77 10.81 20.77 10.38 20.34 10.38 20.34 9.95 19.91 9.95 19.91 9.51 19.49 9.51 19.49 9.08 19.06 9.08 19.06 8.65 18.63 8.65 18.63 8.22 18.2 8.22 18.2 7.78 17.84 7.78 17.84 9.02 17.39 9.03 17.39 9.46 16.98 9.46 17 9.9 16.98 9.9 16.98 9.92 16.61 9.91 16.61 10.3 16.98 10.3 16.98 9.92 17 9.92 17 9.91 17.43 9.9 17.43 10.83 17.04 10.83 17.04 11.28 16.59 11.28 16.61 12.15 16.17 12.15 16.17 13.04 15.71 13.04 15.71 13.88 15.32 13.88 15.35 18.12 15.73 18.12 15.73 19.4 16.16 19.39 16.16 20.69 16.53 20.69 16.53 21.13 16.95 21.13 16.95 21.55 17.41 21.55 17.41 20.35 17.86 20.35 17.86 19.46 18.26 19.46 18.26 19.03 18.74 19.03 18.74 18.58 19.2 18.6 19.2 18.12 21.29 18.12 21.29 17.72 21.72 17.72 21.72 17.29 22.16 17.29 22.16 16.84 22.58 16.84 22.58 16.41 23.01 16.41 23.01 15.98 23.44 15.98 23.44 15.54 23.85 15.54 23.85 15.13 24.27 15.13 24.27 14.7 24.64 14.7 24.64 14.2 24.2 14.2 24.21 13.86"/><polygon points="13.53 15.07 13.53 14.42 13.19 14.42 13.19 15.07 12.87 15.07 12.87 15.73 13.19 15.73 13.19 15.38 13.53 15.38 13.53 15.73 13.85 15.73 13.85 15.07 13.53 15.07"/><rect x="13.14" y="25.51" width="0.01"/><rect x="12.54" y="15.73" width="0.33" height="0.33"/><polygon points="13.85 15.73 13.85 16.05 14.17 16.05 14.16 15.72 13.85 15.73"/><polygon points="15.15 11.47 15.64 11.47 15.64 11.15 14.83 11.15 14.83 11.47 14.5 11.47 14.5 11.81 14.17 11.8 14.17 12.13 15.15 12.13 15.15 11.81 15.15 11.8 15.15 11.47"/></g></svg>