<svg id="Capa_1" data-name="Capa 1" xmlns="http://www.w3.org/2000/svg" viewBox="0 0 26.47 28.35"><defs><style>.cls-1{fill:#ffff32;}.cls-2{fill:#dbe4eb;}</style></defs><title>ssi_icon_defiWallet</title><path class="cls-1" d="M13.25,2.92s-3.69,1.17-5.5,2A29.26,29.26,0,0,0,4,7v6.18c0,5.72,4,11.07,9.28,12.37m-1.59-7.3.43-3.7a2.7,2.7,0,0,1,1.16-5.15"/><path d="M13.25,25.59c5.32-1.3,9.27-6.65,9.27-12.37V7a28.79,28.79,0,0,0-3.77-2.15c-1.82-.8-5.5-2-5.5-2"/><path class="cls-2" d="M13.25,2.92s3.68,1.17,5.5,2A28.79,28.79,0,0,1,22.52,7v6.18c0,5.72-3.95,11.07-9.27,12.37C7.93,24.29,4,18.94,4,13.22V7A29.26,29.26,0,0,1,7.75,4.89c1.81-.8,5.5-2,5.5-2M11.66,18.29l1.59-8.85a2.7,2.7,0,0,0-1.16,5.15l-.43,3.7M13.25,1.92A.76.76,0,0,0,13,2c-.16,0-3.77,1.19-5.61,2A28.19,28.19,0,0,0,3.41,6.22,1,1,0,0,0,3,7v6.18c0,6.21,4.32,11.94,10,13.34a1,1,0,0,0,.48,0c5.72-1.4,10-7.13,10-13.34V7a1,1,0,0,0-.43-.82A29.28,29.28,0,0,0,19.15,4c-1.84-.82-5.45-2-5.6-2a.79.79,0,0,0-.3-.05Zm-1.61,10.8a1.8,1.8,0,0,1-.1-.57,1.71,1.71,0,0,1,.4-1.1l-.3,1.67Z"/><path class="cls-1" d="M13.25,9.44a2.71,2.71,0,0,1,1.16,5.15l.43,3.7h-1.6"/><path d="M13.26,18.29h-1.6l.43-3.7a2.7,2.7,0,0,1,1.16-5.15"/><path class="cls-1" d="M20.33,12.82a.55.55,0,0,1-.4,0L18.68,12a.36.36,0,0,1-.14-.5.35.35,0,0,1,.49-.15l.7.4a4.9,4.9,0,0,0-4.84-4.19c-.15,0-.35-.15-.35-.35a.39.39,0,0,1,.4-.4,5.59,5.59,0,0,1,5.59,5.64A.38.38,0,0,1,20.33,12.82Z"/><path d="M6.33,15.44a.55.55,0,0,1,.4,0l1.25.8a.37.37,0,1,1-.35.65l-.7-.4a4.89,4.89,0,0,0,4.84,4.19c.15-.05.35.15.35.35a.39.39,0,0,1-.4.4,5.6,5.6,0,0,1-5.59-5.64A.38.38,0,0,1,6.33,15.44Z"/></svg>