<svg id="Capa_2" data-name="Capa 2" xmlns="http://www.w3.org/2000/svg" viewBox="0 0 100 100"><defs><style>.cls-1{fill:#dbe4eb;}</style></defs><title>ICO_tydraDEX1</title><path class="cls-1" d="M59.25,29.48s-2,1.75-2.32.85,2.85-2,2.35-7.15c0,0-1.89,3.85-2.85,2.5,0,0,.8-4.75.25-7,0,0-2.61,7.06-4.15,4.6-1.19-1.88-2.53-8-2.53-8s-1.34,6.17-2.53,8.05c-1.54,2.46-4.15-4.6-4.15-4.6-.55,2.25.25,7,.25,7-1,1.35-2.85-2.5-2.85-2.5-.5,5.1,2.65,6.25,2.35,7.15s-2.32-.85-2.32-.85c0,3.95,5.07,8.06,5.07,8.06V49a23.43,23.43,0,0,0,2.24,10L50,63.09l8.61-8.6-2.76-4.88a12.4,12.4,0,0,1-1.6-5.91l-.07-6.16S59.27,33.43,59.25,29.48ZM45.9,32.3l-1.33-.66h.94a1.82,1.82,0,0,1,1.29.54l2,2S45.9,34.91,45.9,32.3Zm4.54,9a4.65,4.65,0,0,1-.43-.62c-.14.22-.33.5-.43.62a22,22,0,0,1-1.69,1.44s1.69-3.18,1.69-4.22h.86c0,1,1.67,4.22,1.67,4.22A20.78,20.78,0,0,1,50.44,41.33Zm3.66-9c0,2.61-2.9,1.88-2.9,1.88l2-2a1.82,1.82,0,0,1,1.29-.54h.94Z"/><path class="cls-1" d="M64.72,44.34A1,1,0,0,0,64,45.67l.92,4.2a1.55,1.55,0,0,0,.82.82,1.08,1.08,0,0,0,1.12-.31,16.22,16.22,0,0,0,.11-23,1.15,1.15,0,0,0-1.64,0c-.41.41-.41,1.23,0,1.43a14.21,14.21,0,0,1,1.33,18.54l-.62-2.25A1,1,0,0,0,64.72,44.34Z"/><path class="cls-1" d="M35.23,33.56A1,1,0,0,0,36,32.23l-1-4.3a1.55,1.55,0,0,0-.82-.82,1.08,1.08,0,0,0-1.12.31,16.67,16.67,0,0,0,0,23.35,1.06,1.06,0,0,0,1.63,0,1.14,1.14,0,0,0,0-1.64,14.22,14.22,0,0,1-1.33-18.54l.62,2.25A1,1,0,0,0,35.23,33.56Z"/><path class="cls-1" d="M21.45,68.84H19.93v2.44H18.17v1.44h1.76V76.3a.92.92,0,0,0,.26.67.89.89,0,0,0,.67.27h2.52V75.8H21.77c-.22,0-.32-.12-.32-.36V72.72h2.14V71.28H21.45Z"/><path class="cls-1" d="M29.47,74.4a2,2,0,0,1-.31,1.2,1.18,1.18,0,0,1-1,.44,1.1,1.1,0,0,1-.9-.36,1.46,1.46,0,0,1-.3-1V71.28H25.44V75a3.4,3.4,0,0,0,.16,1.07,2.14,2.14,0,0,0,.45.75,1.9,1.9,0,0,0,.68.44,2.21,2.21,0,0,0,.82.14,1.63,1.63,0,0,0,1.71-1h.21v1.47c0,.24-.1.36-.32.36H26.52v1.44h3.54a.89.89,0,0,0,.67-.27A.92.92,0,0,0,31,78.7V71.28H29.47Z"/><path class="cls-1" d="M36.82,72.15H36.6a1.82,1.82,0,0,0-.66-.76,2.09,2.09,0,0,0-1.14-.27,2.51,2.51,0,0,0-1,.2,2.54,2.54,0,0,0-.86.59,2.85,2.85,0,0,0-.57,1,3.62,3.62,0,0,0-.21,1.28v.22a3.64,3.64,0,0,0,.2,1.29,2.66,2.66,0,0,0,.55,1,2.33,2.33,0,0,0,.83.59,2.61,2.61,0,0,0,1,.19,3.1,3.1,0,0,0,.74-.08,2,2,0,0,0,.53-.23,1.15,1.15,0,0,0,.36-.33,1.9,1.9,0,0,0,.23-.39h.22v.87h1.51v-8.4H36.82Zm0,2.18a1.62,1.62,0,0,1-.44,1.18,1.52,1.52,0,0,1-1.15.45,1.54,1.54,0,0,1-1.14-.43,1.64,1.64,0,0,1-.44-1.2v-.14a1.64,1.64,0,0,1,.44-1.2,1.54,1.54,0,0,1,1.14-.43,1.52,1.52,0,0,1,1.15.45,1.62,1.62,0,0,1,.44,1.18Z"/><path class="cls-1" d="M43.63,71.12a1.69,1.69,0,0,0-1,.27,1.42,1.42,0,0,0-.57.76h-.22v-.87H39.36v1.44h1.08V75.8H39.22v1.44h4.1V75.8H42V73.88a1.53,1.53,0,0,1,.29-1,1,1,0,0,1,.79-.35.94.94,0,0,1,.76.3,1.13,1.13,0,0,1,.25.78v.17l1.56-.14v-.27a2.38,2.38,0,0,0-.54-1.7A1.89,1.89,0,0,0,43.63,71.12Z"/><path class="cls-1" d="M52.23,75.44V71.28H50.71V72H50.5a1.55,1.55,0,0,0-.62-.67,2.16,2.16,0,0,0-1-.21,2.38,2.38,0,0,0-1,.21,2.59,2.59,0,0,0-.81.6,3.21,3.21,0,0,0-.55,1,3.89,3.89,0,0,0-.2,1.27v.2a3.66,3.66,0,0,0,.21,1.28,2.85,2.85,0,0,0,.57,1,2.55,2.55,0,0,0,.83.6,2.51,2.51,0,0,0,1,.2,2,2,0,0,0,1-.23,1.56,1.56,0,0,0,.68-.8h.21a.83.83,0,0,0,.26.63.93.93,0,0,0,.67.24h1V75.8h-.23C52.33,75.8,52.23,75.68,52.23,75.44Zm-1.52-1.11a1.75,1.75,0,0,1-.39,1.2,1.37,1.37,0,0,1-1.06.43,1.34,1.34,0,0,1-1-.43,1.71,1.71,0,0,1-.4-1.2v-.14a1.71,1.71,0,0,1,.4-1.2,1.34,1.34,0,0,1,1-.43,1.37,1.37,0,0,1,1.06.43,1.75,1.75,0,0,1,.39,1.2Z"/><path class="cls-1" d="M57.74,68.71H54.5v8.65h3.24a4.33,4.33,0,0,0,0-8.65Zm0,7.42h-2V69.94h2a3.1,3.1,0,0,1,0,6.19Z"/><polygon class="cls-1" points="63.66 77.36 71.22 77.36 71.22 76.13 64.88 76.13 64.88 73.65 68.98 73.65 68.98 72.42 64.88 72.42 64.88 69.94 71.22 69.94 71.22 68.72 63.66 68.72 63.66 77.36"/><polygon class="cls-1" points="81.84 68.72 80.23 68.72 77.34 72.09 74.46 68.72 72.85 68.72 76.53 73.04 72.85 77.36 74.46 77.36 77.34 73.98 80.23 77.36 81.84 77.36 78.15 73.04 81.84 68.72"/></svg>