<svg xmlns="http://www.w3.org/2000/svg" xmlns:xlink="http://www.w3.org/1999/xlink" viewBox="0 0 400 400"><defs><style>.cls-1{fill:url(#Degradado_sin_nombre_69);}.cls-10,.cls-11,.cls-12,.cls-2,.cls-7,.cls-8,.cls-9{opacity:0.2;}.cls-2{fill:url(#Degradado_sin_nombre_30);}.cls-3,.cls-4,.cls-5,.cls-6{opacity:0.1;}.cls-3{fill:url(#Degradado_sin_nombre_30-2);}.cls-4{fill:url(#Degradado_sin_nombre_30-3);}.cls-5{fill:url(#Degradado_sin_nombre_30-4);}.cls-6{fill:url(#Degradado_sin_nombre_30-5);}.cls-7{fill:url(#Degradado_sin_nombre_22);}.cls-8{fill:url(#Degradado_sin_nombre_23);}.cls-9{fill:url(#Degradado_sin_nombre_22-2);}.cls-10{fill:url(#Degradado_sin_nombre_41);}.cls-11{fill:url(#Degradado_sin_nombre_40);}.cls-12{fill:url(#Degradado_sin_nombre_23-2);}.cls-13,.cls-14,.cls-15,.cls-16{stroke-linecap:round;stroke-linejoin:round;}.cls-13,.cls-14,.cls-15{stroke-width:1.6px;}.cls-13{fill:url(#Degradado_sin_nombre_15);stroke:url(#Degradado_sin_nombre_314);}.cls-14{fill:url(#Degradado_sin_nombre_123);stroke:url(#Degradado_sin_nombre_314-2);}.cls-15{fill:url(#Degradado_sin_nombre_117);stroke:url(#Degradado_sin_nombre_314-3);}.cls-16,.cls-24{fill:none;}.cls-16{stroke:#ffff32;}.cls-17{fill:url(#Degradado_sin_nombre_92);}.cls-18{fill:url(#Degradado_sin_nombre_92-2);}.cls-19{fill:url(#Degradado_sin_nombre_92-3);}.cls-20{fill:url(#Degradado_sin_nombre_92-4);}.cls-21{fill:url(#Degradado_sin_nombre_92-5);}.cls-22{fill:url(#Degradado_sin_nombre_92-6);}.cls-23{opacity:0.5;}.cls-24{stroke:#dbe4eb;stroke-miterlimit:10;}</style><radialGradient id="Degradado_sin_nombre_69" cx="200" cy="200" r="200" gradientUnits="userSpaceOnUse"><stop offset="0.93" stop-color="#8a8d92"/><stop offset="0.96" stop-color="#f2f5f8"/><stop offset="0.97" stop-color="#dbe4eb"/><stop offset="0.98" stop-color="#fff"/><stop offset="1" stop-color="#dbe4eb"/></radialGradient><radialGradient id="Degradado_sin_nombre_30" cx="200" cy="200" r="158" gradientUnits="userSpaceOnUse"><stop offset="0" stop-color="#ffff32"/><stop offset="0.53" stop-color="#ccb307" stop-opacity="0"/></radialGradient><radialGradient id="Degradado_sin_nombre_30-2" cx="179.43" cy="106.47" r="104.23" xlink:href="#Degradado_sin_nombre_30"/><radialGradient id="Degradado_sin_nombre_30-3" cx="213.06" cy="294.99" r="104.23" xlink:href="#Degradado_sin_nombre_30"/><radialGradient id="Degradado_sin_nombre_30-4" cx="248.34" cy="177.22" r="104.23" xlink:href="#Degradado_sin_nombre_30"/><radialGradient id="Degradado_sin_nombre_30-5" cx="152.55" cy="214.92" r="104.23" xlink:href="#Degradado_sin_nombre_30"/><radialGradient id="Degradado_sin_nombre_22" cx="19.08" cy="201.41" r="157.41" gradientTransform="translate(131.36 12.9) scale(1.72 0.36)" gradientUnits="userSpaceOnUse"><stop offset="0" stop-color="#ffff32"/><stop offset="0.4" stop-color="#ccb307" stop-opacity="0"/></radialGradient><radialGradient id="Degradado_sin_nombre_23" cx="12.42" cy="232.25" fx="-35.34042210869455" r="159.24" gradientTransform="matrix(0.4, -1.68, 0.26, 0.06, 119.56, 110.83)" gradientUnits="userSpaceOnUse"><stop offset="0" stop-color="#ffff32"/><stop offset="0.51" stop-color="#ccb307" stop-opacity="0"/></radialGradient><radialGradient id="Degradado_sin_nombre_22-2" cx="-74.85" cy="335.64" r="157.41" gradientTransform="translate(382.35 147.94) scale(1.72 0.35)" xlink:href="#Degradado_sin_nombre_22"/><radialGradient id="Degradado_sin_nombre_41" cx="-53.42" cy="356.16" fx="-71.67694050738929" r="88.85" gradientTransform="matrix(2.18, -0.66, 0.14, 0.48, 289.47, -29.93)" gradientUnits="userSpaceOnUse"><stop offset="0" stop-color="#ffff32"/><stop offset="0.34" stop-color="#ccb307" stop-opacity="0"/></radialGradient><radialGradient id="Degradado_sin_nombre_40" cx="-54.2" cy="304.75" fx="-81.08400217171989" r="88.85" gradientTransform="matrix(-2.11, 0.64, -0.14, -0.48, 95.53, 398.37)" xlink:href="#Degradado_sin_nombre_41"/><radialGradient id="Degradado_sin_nombre_23-2" cx="106.12" cy="55.27" fx="58.35211714006193" r="159.24" gradientTransform="matrix(-0.46, 1.66, -0.27, -0.07, 275.78, 115.21)" xlink:href="#Degradado_sin_nombre_23"/><linearGradient id="Degradado_sin_nombre_15" x1="202.01" y1="207.52" x2="194.72" y2="185.44" gradientUnits="userSpaceOnUse"><stop offset="0" stop-color="#e6e604"/><stop offset="0.1" stop-color="#ccb307"/><stop offset="0.24" stop-color="#ffff32"/><stop offset="0.46" stop-color="#fff34d"/><stop offset="0.66" stop-color="#e6e600"/><stop offset="0.76" stop-color="#ffff32"/><stop offset="0.93" stop-color="#ccb307"/></linearGradient><linearGradient id="Degradado_sin_nombre_314" x1="149.69" y1="245.72" x2="246.32" y2="149.1" gradientUnits="userSpaceOnUse"><stop offset="0.07" stop-color="#ccb307"/><stop offset="0.26" stop-color="#e6e604"/><stop offset="0.49" stop-color="#e6e604"/><stop offset="0.56" stop-color="#e6e679"/><stop offset="0.66" stop-color="#e6e604"/><stop offset="0.85" stop-color="#ccb307"/><stop offset="1" stop-color="#e6e604"/></linearGradient><linearGradient id="Degradado_sin_nombre_123" x1="205.96" y1="277.3" x2="230.04" y2="283.56" xlink:href="#Degradado_sin_nombre_15"/><linearGradient id="Degradado_sin_nombre_314-2" x1="223.28" y1="399.15" x2="223.28" y2="164.45" xlink:href="#Degradado_sin_nombre_314"/><linearGradient id="Degradado_sin_nombre_117" x1="170.3" y1="116.95" x2="185.35" y2="121" xlink:href="#Degradado_sin_nombre_15"/><linearGradient id="Degradado_sin_nombre_314-3" x1="170.73" y1="232.36" x2="170.73" y2="1.77" xlink:href="#Degradado_sin_nombre_314"/><linearGradient id="Degradado_sin_nombre_92" x1="195.78" y1="303.46" x2="196.15" y2="285.4" gradientUnits="userSpaceOnUse"><stop offset="0" stop-color="#7a8396"/><stop offset="0.12" stop-color="#dbe4eb"/><stop offset="0.36" stop-color="#cad5de"/><stop offset="0.45" stop-color="#dbe4eb"/><stop offset="0.62" stop-color="#fff"/><stop offset="0.72" stop-color="#dbe4eb"/><stop offset="0.75" stop-color="#a7b1b9"/><stop offset="0.86" stop-color="#6d7782"/><stop offset="1" stop-color="#c5d0db"/></linearGradient><linearGradient id="Degradado_sin_nombre_92-2" x1="123.51" y1="276.15" x2="135.59" y2="278.86" xlink:href="#Degradado_sin_nombre_92"/><linearGradient id="Degradado_sin_nombre_92-3" x1="198.32" y1="112.88" x2="198.44" y2="99.94" xlink:href="#Degradado_sin_nombre_92"/><linearGradient id="Degradado_sin_nombre_92-4" x1="281.82" y1="121.97" x2="257.81" y2="128.35" xlink:href="#Degradado_sin_nombre_92"/><linearGradient id="Degradado_sin_nombre_92-5" x1="167.73" y1="135.3" x2="148.96" y2="147.08" xlink:href="#Degradado_sin_nombre_92"/><linearGradient id="Degradado_sin_nombre_92-6" x1="240.8" y1="253.27" x2="221.81" y2="265.19" xlink:href="#Degradado_sin_nombre_92"/></defs><title>ssi_token_S$I mejor</title><g id="Capa_2" data-name="Capa 2"><circle cx="200" cy="200" r="193.23"/><path class="cls-1" d="M200,400C89.72,400,0,310.28,0,200S89.72,0,200,0,400,89.72,400,200,310.28,400,200,400Zm0-386.46C97.19,13.54,13.54,97.19,13.54,200S97.19,386.46,200,386.46,386.46,302.81,386.46,200,302.81,13.54,200,13.54Z"/><circle class="cls-2" cx="200" cy="200" r="158"/><circle class="cls-3" cx="179.43" cy="106.47" r="104.23"/><circle class="cls-4" cx="213.06" cy="294.99" r="104.23"/><circle class="cls-5" cx="248.34" cy="177.22" r="104.23"/><circle class="cls-6" cx="152.55" cy="214.92" r="104.23"/><rect class="cls-7" x="38.8" y="78.07" width="227.51" height="55.95" transform="translate(290.82 -18.04) rotate(103.29)"/><polygon class="cls-8" points="243.69 16.26 193.33 189.77 150.77 221.42 203.64 6.8 243.69 16.26"/><rect class="cls-9" x="127.89" y="259" width="227.51" height="54.91" transform="translate(-99.13 442.41) rotate(-74.44)"/><polygon class="cls-10" points="158.26 173.1 322.74 113.74 332.43 145.51 137.78 218.49 158.26 173.1"/><polygon class="cls-11" points="229.82 221.33 70.78 279.03 61.09 247.27 249.27 176.26 229.82 221.33"/><polygon class="cls-12" points="146.72 372.06 204.41 200.81 250 171.38 188.55 383.71 146.72 372.06"/><polygon class="cls-13" points="136.66 231.56 225.82 196.7 236.38 195.33 261.34 165.25 164.83 194.28 141.78 219.99 136.66 231.56"/><polyline class="cls-14" points="225.82 196.7 185.23 398.35 261.34 165.25"/><polyline class="cls-15" points="136.66 231.56 204.8 2.57 167.83 193.28"/><polygon class="cls-16" points="261.34 165.25 167.72 193.41 167.83 193.28 204.8 2.57 136.66 231.56 225.82 196.7 185.23 398.35 261.34 165.25"/><polygon class="cls-17" points="115.64 305.38 275.84 305.38 273.54 302.48 237.9 284.19 131.83 284.19 117.55 301.21 115.64 305.38"/><polygon class="cls-18" points="136.66 284.19 133.04 247.28 115.64 305.38 136.66 284.19"/><polygon class="cls-19" points="278.38 98.27 118.54 98.27 123.51 102.55 153.57 114.67 258.2 114.67 276.47 102.42 278.38 98.27"/><polygon class="cls-20" points="253.37 114.67 263.03 151.58 278.38 98.27 253.37 114.67"/><polyline class="cls-21" points="200.46 182.66 158.41 114.67 118.54 98.27 175.35 190.19"/><polyline class="cls-22" points="187.93 212.35 233.07 284.19 275.84 305.38 212.7 202.66"/><g class="cls-23"><polygon class="cls-24" points="200.46 182.66 158.41 114.67 253.37 114.67 263.03 151.58 278.38 98.27 118.54 98.27 175.35 190.19 200.46 182.66"/><polygon class="cls-24" points="187.93 212.35 233.07 284.19 136.66 284.19 133.04 247.28 115.64 305.38 275.84 305.38 212.7 202.66 187.93 212.35"/></g></g></svg>