<svg id="Capa_1" data-name="Capa 1" xmlns="http://www.w3.org/2000/svg" viewBox="0 0 26.47 28.35"><defs><style>.cls-1,.cls-2{fill:#dbe4eb;}.cls-2{stroke:#dbe4eb;stroke-linejoin:round;}.cls-3{fill:#29a635;}</style></defs><title>ssi_icon_commun</title><path class="cls-1" d="M11.27,25.63a1.22,1.22,0,0,1-.95-.52,1.2,1.2,0,0,1-.14-1c.08-.25.17-.51.26-.77l0-.09A9.79,9.79,0,0,1,5.66,20a1.21,1.21,0,0,1-.28-1A1.24,1.24,0,0,1,6,18.17c.33-.18.66-.36,1-.56a1.36,1.36,0,0,1,.71-.21,1.28,1.28,0,0,1,1,.46,6.19,6.19,0,0,0,2,1.52l.32.14a2.52,2.52,0,0,1-.2-1.47,2.5,2.5,0,0,1,5,.09,2.5,2.5,0,0,1-.22,1.39,6.23,6.23,0,0,0,2.36-1.68,1.3,1.3,0,0,1,.95-.46h.12a1.29,1.29,0,0,1,.54.19l.31.18c.22.13.44.26.67.38a1.28,1.28,0,0,1,.66.85,1.26,1.26,0,0,1-.3,1.05A9.84,9.84,0,0,1,16,23.22l.3.89a1.2,1.2,0,0,1-.16,1,1.21,1.21,0,0,1-.88.51h-4Z"/><path class="cls-1" d="M13.25,16.45h0a2,2,0,0,1,2,1.75,2,2,0,0,1-1.5,2.22,5.21,5.21,0,0,0,1-.14,6.65,6.65,0,0,0,3.45-2.09.78.78,0,0,1,.58-.3h.06a.93.93,0,0,1,.33.12l.33.19a7.69,7.69,0,0,0,.69.39.71.71,0,0,1,.21,1.14,9.3,9.3,0,0,1-4.85,3.1h0a.26.26,0,0,0-.15.07l.39,1.18a.88.88,0,0,1,.05.15.68.68,0,0,1-.6.89h-4a.67.67,0,0,1-.61-.9c.08-.27.17-.53.26-.8s.09-.25.13-.37l0-.11,0,0a.17.17,0,0,0-.13-.07h0A9.14,9.14,0,0,1,6.05,19.7a.69.69,0,0,1,.19-1.09c.34-.18.67-.37,1-.57a.78.78,0,0,1,.44-.14.76.76,0,0,1,.58.29,6.74,6.74,0,0,0,2.18,1.64,5.93,5.93,0,0,0,2,.56l.11,0,.15,0h.1a2,2,0,0,1-1.49-2.29,2,2,0,0,1,2-1.68m0-1a3,3,0,0,0-1.92.7,2.94,2.94,0,0,0-1,1.82,3.18,3.18,0,0,0,0,.62A5.67,5.67,0,0,1,9,17.53a1.74,1.74,0,0,0-2.3-.34c-.29.18-.6.36-1,.54a1.75,1.75,0,0,0-.87,1.18,1.69,1.69,0,0,0,.39,1.43,10.23,10.23,0,0,0,4.55,3.2c0,.13-.08.26-.13.4a1.68,1.68,0,0,0,1.49,2.19h4.15A1.69,1.69,0,0,0,16.81,24a.78.78,0,0,1,0-.14l-.09-.28a10.24,10.24,0,0,0,4.53-3.17,1.72,1.72,0,0,0,.41-1.47,1.79,1.79,0,0,0-.93-1.2q-.32-.16-.63-.36l-.34-.2A1.76,1.76,0,0,0,19,16.9h-.18a1.73,1.73,0,0,0-1.32.63,6.52,6.52,0,0,1-1.25,1.07,2.83,2.83,0,0,0,0-.5,3,3,0,0,0-2.92-2.64Z"/><path class="cls-1" d="M7.39,10A.55.55,0,0,1,7,9.77.53.53,0,0,1,7,9.38a.59.59,0,0,1,.52-.45h0a.49.49,0,0,1,.36.15A.47.47,0,0,1,8,9.45a.56.56,0,0,1-.53.52Z"/><path class="cls-1" d="M7.48,9.43s0,0,0,0h0s0,0,0,0m0-1h0a1,1,0,0,0-1,.86,1,1,0,0,0,.18.77,1,1,0,0,0,.69.4h.12a1,1,0,0,0,1-1,1,1,0,0,0-.3-.73,1,1,0,0,0-.7-.29Z"/><path class="cls-2" d="M13.22,25.13h2a.68.68,0,0,0,.6-.89.88.88,0,0,0-.05-.15l-.39-1.18a.26.26,0,0,1,.15-.07h0a9.3,9.3,0,0,0,4.85-3.1.71.71,0,0,0-.21-1.14,7.69,7.69,0,0,1-.69-.39L19.21,18a.93.93,0,0,0-.33-.12.77.77,0,0,0-.64.3,6.65,6.65,0,0,1-3.45,2.09,5.21,5.21,0,0,1-1,.14A2,2,0,0,0,14.59,17a2,2,0,0,0-1.3-.51"/><path class="cls-1" d="M21.66,17.53a1.26,1.26,0,0,1-.65-.19c-.32-.2-.64-.38-1-.56a1.25,1.25,0,0,1-.62-1.57,6.07,6.07,0,0,0,.31-2.5c0-.12,0-.24,0-.36a2.54,2.54,0,0,1-1.18.91,2.41,2.41,0,0,1-.88.16,2.5,2.5,0,0,1-2.45-3,2.5,2.5,0,0,1,.94-1.47,2.56,2.56,0,0,1,1.31-.51,6.42,6.42,0,0,0-2.63-1.2,1.26,1.26,0,0,1-.92-.68A1.2,1.2,0,0,1,13.77,6V5.59c0-.25,0-.5,0-.76a1.28,1.28,0,0,1,.34-.92A1.16,1.16,0,0,1,15,3.54l.26,0a9.71,9.71,0,0,1,5.14,2.56L21,5.44a1.21,1.21,0,0,1,.87-.39,1.18,1.18,0,0,1,1,.52,1.35,1.35,0,0,1,.13.21l1.88,3.27a1.18,1.18,0,0,1,0,1.08,1.16,1.16,0,0,1-.82.63l-.81.17-.09,0a9.71,9.71,0,0,1-.36,5.76A1.19,1.19,0,0,1,21.66,17.53Z"/><path class="cls-1" d="M15,4l.17,0a9.24,9.24,0,0,1,5.11,2.65l0,0a.26.26,0,0,0,.14.09c.28-.3.55-.62.83-.93l.1-.12a.71.71,0,0,1,.51-.22.7.7,0,0,1,.57.3l.09.15,1.81,3.15.08.13a.68.68,0,0,1-.47,1l-.83.17-.38.08-.11,0h-.05a.2.2,0,0,0,0,.15v0a9.18,9.18,0,0,1-.26,5.81.68.68,0,0,1-.65.48.7.7,0,0,1-.39-.11c-.32-.2-.66-.39-1-.57a.74.74,0,0,1-.37-1,6.9,6.9,0,0,0,.33-2.71,6.48,6.48,0,0,0-.5-2,.42.42,0,0,1,0-.1.48.48,0,0,0-.12-.22,2,2,0,0,1-1.23,2.43,1.94,1.94,0,0,1-.71.13,2,2,0,0,1-1.75-1,2,2,0,0,1-.21-1.38,2,2,0,0,1,2-1.6,2.12,2.12,0,0,1,1.45.6,5.29,5.29,0,0,0-.65-.83A6.7,6.7,0,0,0,14.9,6.73a.77.77,0,0,1-.57-.4A.7.7,0,0,1,14.27,6V5.6c0-.26,0-.53,0-.79A.7.7,0,0,1,15,4m0-1a1.71,1.71,0,0,0-1.24.52,1.8,1.8,0,0,0-.47,1.3c0,.24,0,.49,0,.73V6a1.83,1.83,0,0,0,.14.74,1.74,1.74,0,0,0,1.28,1,5.88,5.88,0,0,1,1.56.55,2.73,2.73,0,0,0-.43.26,3,3,0,0,0,.77,5.22,3.08,3.08,0,0,0,1,.18,3,3,0,0,0,1.06-.19,3.25,3.25,0,0,0,.56-.28,5.52,5.52,0,0,1-.3,1.6,1.74,1.74,0,0,0,.85,2.17c.31.16.62.34.95.55a1.8,1.8,0,0,0,.91.25,1.68,1.68,0,0,0,1.59-1.14,10.24,10.24,0,0,0,.49-5.54l.41-.09a1.7,1.7,0,0,0,1.16-.9,1.67,1.67,0,0,0,0-1.48l0-.08-.08-.13L23.37,5.51a1.44,1.44,0,0,0-.11-.19l0-.05a1.69,1.69,0,0,0-2.61-.18l-.1.11-.19.22a10.28,10.28,0,0,0-5-2.34A1.32,1.32,0,0,0,15,3Z"/><path class="cls-2" d="M23.43,7.61,22.51,6l-.09-.15a.69.69,0,0,0-1.08-.08l-.1.12c-.28.31-.55.63-.83.93a.26.26,0,0,1-.14-.09l0,0a9.24,9.24,0,0,0-5.11-2.65.71.71,0,0,0-.88.75c0,.26,0,.53,0,.79V6a.7.7,0,0,0,.06.35.77.77,0,0,0,.57.4,6.7,6.7,0,0,1,3.54,1.95,5.29,5.29,0,0,1,.65.83,2,2,0,0,0-2.67-.18,2,2,0,0,0-.75,1.18,2,2,0,0,0,.21,1.38"/><path class="cls-1" d="M4.89,17.53a1.19,1.19,0,0,1-1.12-.82A9.73,9.73,0,0,1,3.4,11h0l-.84-.18a1.16,1.16,0,0,1-.82-.63,1.18,1.18,0,0,1,0-1.05L3.61,5.76l.1-.17a1.17,1.17,0,0,1,1.86-.15l.61.69a9.85,9.85,0,0,1,5.14-2.56l.26,0a1.2,1.2,0,0,1,.88.37,1.33,1.33,0,0,1,.33.93c0,.25,0,.5,0,.75V6a1.22,1.22,0,0,1-.1.55,1.28,1.28,0,0,1-.93.69,6.36,6.36,0,0,0-2.63,1.2,2.64,2.64,0,0,1,1.31.5,2.56,2.56,0,0,1,.94,1.48,2.5,2.5,0,0,1-2.45,3A2.41,2.41,0,0,1,8,13.26a2.49,2.49,0,0,1-1.18-.91c0,.12,0,.23,0,.35a6.1,6.1,0,0,0,.31,2.51,1.24,1.24,0,0,1-.62,1.57c-.33.18-.65.36-1,.56A1.26,1.26,0,0,1,4.89,17.53Z"/><path class="cls-1" d="M11.58,4a.7.7,0,0,1,.71.77c0,.26,0,.53,0,.79V6a.7.7,0,0,1-.06.35.77.77,0,0,1-.57.4A6.7,6.7,0,0,0,8.11,8.68a5.29,5.29,0,0,0-.65.83,2.12,2.12,0,0,1,1.45-.6,2,2,0,0,1,2,1.6,2,2,0,0,1-.21,1.38,2,2,0,0,1-1.75,1,1.94,1.94,0,0,1-.71-.13A2,2,0,0,1,7,10.36a.48.48,0,0,0-.12.22.42.42,0,0,1,0,.1,6.19,6.19,0,0,0-.49,2,6.72,6.72,0,0,0,.32,2.71.74.74,0,0,1-.37,1c-.34.18-.68.37-1,.57a.7.7,0,0,1-.39.11.68.68,0,0,1-.65-.48A9.18,9.18,0,0,1,4,10.73v0a.2.2,0,0,0,0-.15H3.94l-.11,0-.38-.08-.83-.17a.68.68,0,0,1-.47-1l.08-.13L4,6l.09-.15a.7.7,0,0,1,1.08-.08l.1.12c.28.31.55.63.83.93a.26.26,0,0,0,.14-.09l0,0a9.24,9.24,0,0,1,5.11-2.65l.17,0m0-1a1.45,1.45,0,0,0-.35,0,10.25,10.25,0,0,0-5,2.34l-.16-.18C6,5.16,6,5.13,5.93,5.09a1.69,1.69,0,0,0-2.61.18l0,.05a2.55,2.55,0,0,0-.14.24L1.36,8.66l-.08.13,0,.08a1.67,1.67,0,0,0,0,1.48,1.7,1.7,0,0,0,1.16.9l.41.09a10.24,10.24,0,0,0,.49,5.54A1.68,1.68,0,0,0,4.89,18a1.72,1.72,0,0,0,.91-.26c.33-.2.64-.38,1-.54a1.74,1.74,0,0,0,.85-2.17,5.52,5.52,0,0,1-.3-1.6,3.25,3.25,0,0,0,.56.28,3,3,0,0,0,1.06.19,3.08,3.08,0,0,0,1-.18,3,3,0,0,0,1.9-3.44,3,3,0,0,0-1.13-1.77,2.2,2.2,0,0,0-.43-.27,5.88,5.88,0,0,1,1.56-.55,1.72,1.72,0,0,0,1.26-1,1.76,1.76,0,0,0,.16-.82V5.59c0-.24,0-.49,0-.73a1.8,1.8,0,0,0-.47-1.3A1.71,1.71,0,0,0,11.58,3Z"/><path class="cls-2" d="M3.12,7.61,4,6l.09-.15a.69.69,0,0,1,1.08-.08l.1.12c.28.31.55.63.83.93a.26.26,0,0,0,.14-.09l0,0a9.24,9.24,0,0,1,5.11-2.65.71.71,0,0,1,.88.75c0,.26,0,.53,0,.79V6a.7.7,0,0,1-.06.35.77.77,0,0,1-.57.4A6.7,6.7,0,0,0,8.11,8.68a5.29,5.29,0,0,0-.65.83,2,2,0,0,1,2.67-.18,2,2,0,0,1,.75,1.18,2,2,0,0,1-.21,1.38"/><path class="cls-3" d="M20.23,18.59a7.69,7.69,0,0,1-.69-.39L19.21,18a.93.93,0,0,0-.33-.12.77.77,0,0,0-.64.3,6.65,6.65,0,0,1-3.45,2.09,5.21,5.21,0,0,1-1,.14A2,2,0,0,0,14.59,17a2,2,0,0,0-1.3-.51,2,2,0,0,0-1.32.46,2,2,0,0,0-.69,1.22,2,2,0,0,0,1.49,2.29.69.69,0,0,1-.25,0l-.11,0a5.93,5.93,0,0,1-2-.56,6.74,6.74,0,0,1-2.18-1.64.73.73,0,0,0-1-.15c-.33.2-.66.39-1,.57a.69.69,0,0,0-.19,1.09,9.14,9.14,0,0,0,4.89,3.13h0a.17.17,0,0,1,.13.07l0,0,0,.11c0,.12-.08.24-.13.37s-.18.53-.26.8a.67.67,0,0,0,.61.9h4a.68.68,0,0,0,.6-.89.88.88,0,0,0-.05-.15l-.39-1.18a.26.26,0,0,1,.15-.07h0a9.3,9.3,0,0,0,4.85-3.1A.71.71,0,0,0,20.23,18.59Z"/><path class="cls-3" d="M7.48,9.43s0,0,0,0S7.46,9.43,7.48,9.43Z"/><path d="M13.22,25.13h2a.68.68,0,0,0,.6-.89.88.88,0,0,0-.05-.15l-.39-1.18a.26.26,0,0,1,.15-.07h0a9.3,9.3,0,0,0,4.85-3.1.71.71,0,0,0-.21-1.14,7.69,7.69,0,0,1-.69-.39L19.21,18a.93.93,0,0,0-.33-.12.77.77,0,0,0-.64.3,6.65,6.65,0,0,1-3.45,2.09,5.21,5.21,0,0,1-1,.14A2,2,0,0,0,14.59,17a2,2,0,0,0-1.3-.51"/><path class="cls-3" d="M14.26,4.81c0,.26,0,.53,0,.79V6a.7.7,0,0,0,.06.35.77.77,0,0,0,.57.4,6.7,6.7,0,0,1,3.54,1.95,5.29,5.29,0,0,1,.65.83,2,2,0,0,0-2.67-.18,2,2,0,0,0-.75,1.18,2,2,0,0,0,.21,1.38,2,2,0,0,0,1.06.91,2,2,0,0,0,1.4,0,2,2,0,0,0,1.23-2.43.48.48,0,0,1,.12.22.42.42,0,0,0,0,.1,6.48,6.48,0,0,1,.5,2,6.9,6.9,0,0,1-.33,2.71.74.74,0,0,0,.37,1c.34.18.68.37,1,.57a.69.69,0,0,0,1-.37,9.18,9.18,0,0,0,.26-5.81v0a.2.2,0,0,1,0-.15h.05l.11,0,.38-.08.83-.17a.68.68,0,0,0,.47-1l-.08-.13L22.51,6l-.09-.15a.69.69,0,0,0-1.08-.08l-.1.12c-.28.31-.55.63-.83.93a.26.26,0,0,1-.14-.09l0,0a9.24,9.24,0,0,0-5.11-2.65A.71.71,0,0,0,14.26,4.81Z"/><path d="M23.43,7.61,22.51,6l-.09-.15a.69.69,0,0,0-1.08-.08l-.1.12c-.28.31-.55.63-.83.93a.26.26,0,0,1-.14-.09l0,0a9.24,9.24,0,0,0-5.11-2.65.71.71,0,0,0-.88.75c0,.26,0,.53,0,.79V6a.7.7,0,0,0,.06.35.77.77,0,0,0,.57.4,6.7,6.7,0,0,1,3.54,1.95,5.29,5.29,0,0,1,.65.83,2,2,0,0,0-2.67-.18,2,2,0,0,0-.75,1.18,2,2,0,0,0,.21,1.38"/><path d="M12.29,4.81c0,.26,0,.53,0,.79V6a.7.7,0,0,1-.06.35.77.77,0,0,1-.57.4A6.7,6.7,0,0,0,8.11,8.68a5.29,5.29,0,0,0-.65.83,2,2,0,0,1,2.67-.18,2,2,0,0,1,.75,1.18,2,2,0,0,1-.21,1.38,2,2,0,0,1-1.06.91,2,2,0,0,1-1.4,0A2,2,0,0,1,7,10.36a.48.48,0,0,0-.12.22.42.42,0,0,1,0,.1,6.19,6.19,0,0,0-.49,2,6.72,6.72,0,0,0,.32,2.71.74.74,0,0,1-.37,1c-.34.18-.68.37-1,.57a.69.69,0,0,1-1-.37A9.18,9.18,0,0,1,4,10.73v0a.2.2,0,0,0,0-.15H3.94l-.11,0-.38-.08-.83-.17a.68.68,0,0,1-.47-1l.08-.13L4,6l.09-.15a.69.69,0,0,1,1.08-.08l.1.12c.28.31.55.63.83.93a.26.26,0,0,0,.14-.09l0,0a9.24,9.24,0,0,1,5.11-2.65A.71.71,0,0,1,12.29,4.81Z"/><path class="cls-3" d="M3.12,7.61,4,6l.09-.15a.69.69,0,0,1,1.08-.08l.1.12c.28.31.55.63.83.93a.26.26,0,0,0,.14-.09l0,0a9.24,9.24,0,0,1,5.11-2.65.71.71,0,0,1,.88.75c0,.26,0,.53,0,.79V6a.7.7,0,0,1-.06.35.77.77,0,0,1-.57.4A6.7,6.7,0,0,0,8.11,8.68a5.29,5.29,0,0,0-.65.83,2,2,0,0,1,2.67-.18,2,2,0,0,1,.75,1.18,2,2,0,0,1-.21,1.38"/></svg>