<svg id="Capa_1" data-name="Capa 1" xmlns="http://www.w3.org/2000/svg" viewBox="0 0 26.47 28.35"><defs><style>.cls-1{fill:#dbe4eb;stroke:#dbe4eb;stroke-miterlimit:10;stroke-width:2px;}.cls-2{fill:#ffff32;}</style></defs><title>ssi_icon_ZilXWallet</title><path class="cls-1" d="M13.25,2.82A17,17,0,0,1,3,9.43C3,23.3,13.25,26.68,13.25,26.68S23.46,23.3,23.46,9.43A17,17,0,0,1,13.25,2.82Z"/><path class="cls-2" d="M13.25,2.82A17,17,0,0,1,3,9.43C3,23.3,13.25,26.68,13.25,26.68M12,19.91V15.56a2.84,2.84,0,0,1,1.22-5.41"/><path d="M13.25,26.68S23.46,23.3,23.46,9.43A17,17,0,0,1,13.25,2.82m0,7.33a2.84,2.84,0,0,1,1.22,5.41v4.35"/><path class="cls-2" d="M13.25,10.15a2.84,2.84,0,0,1,1.22,5.41v4.35H13.24"/><path d="M13.24,19.91H12V15.56a2.84,2.84,0,0,1,1.22-5.41"/></svg>