<svg width="25" height="26" viewBox="0 0 25 26" fill="none" xmlns="http://www.w3.org/2000/svg">
<g id="ssi_icon_3arrowsDown">
<path id="Vector 70 (Stroke)" fill-rule="evenodd" clip-rule="evenodd" d="M0.81772 6.40366C1.59877 5.62261 2.8651 5.62261 3.64615 6.40366L12.2319 14.9894L20.8177 6.40366C21.5988 5.62261 22.8651 5.62261 23.6461 6.40366C24.4272 7.18471 24.4272 8.45104 23.6461 9.23208L13.6461 19.2321C12.8651 20.0131 11.5988 20.0131 10.8177 19.2321L0.81772 9.23208C0.0366714 8.45104 0.0366714 7.18471 0.81772 6.40366Z" fill="black"/>
<path id="Vector 71 (Stroke)" fill-rule="evenodd" clip-rule="evenodd" d="M0.81772 12.0619C1.59877 11.2808 2.8651 11.2808 3.64615 12.0619L12.2319 20.6476L20.8177 12.0619C21.5988 11.2808 22.8651 11.2808 23.6461 12.0619C24.4272 12.8429 24.4272 14.1092 23.6461 14.8903L13.6461 24.8903C12.8651 25.6713 11.5988 25.6713 10.8177 24.8903L0.81772 14.8903C0.0366714 14.1092 0.0366714 12.8429 0.81772 12.0619Z" fill="#DBE4EB"/>
<path id="Vector 73 (Stroke)" fill-rule="evenodd" clip-rule="evenodd" d="M0.81772 0.70981C1.59877 -0.0712388 2.8651 -0.0712388 3.64615 0.70981L12.2319 9.2956L20.8177 0.70981C21.5988 -0.0712388 22.8651 -0.0712388 23.6461 0.70981C24.4272 1.49086 24.4272 2.75719 23.6461 3.53824L13.6461 13.5382C12.8651 14.3193 11.5988 14.3193 10.8177 13.5382L0.81772 3.53824C0.0366714 2.75719 0.0366714 1.49086 0.81772 0.70981Z" fill="#FFFF32"/>
</g>
</svg>
