<svg id="Capa_2" data-name="Capa 2" xmlns="http://www.w3.org/2000/svg" viewBox="0 0 100 100"><defs><style>.cls-1,.cls-2{fill:#dbe4eb;}.cls-2{stroke:#dbe4eb;stroke-miterlimit:10;stroke-width:0.25px;}</style></defs><title>ICO_tydraDEX</title><path class="cls-1" d="M59.25,29.48s-2,1.75-2.32.85,2.85-2,2.35-7.15c0,0-1.89,3.85-2.85,2.5,0,0,.8-4.75.25-7,0,0-2.61,7.06-4.15,4.6-1.19-1.88-2.53-8-2.53-8s-1.34,6.17-2.53,8.05c-1.54,2.46-4.15-4.6-4.15-4.6-.55,2.25.25,7,.25,7-1,1.35-2.85-2.5-2.85-2.5-.5,5.1,2.65,6.25,2.35,7.15s-2.32-.85-2.32-.85c0,3.95,5.07,8.06,5.07,8.06V49a23.43,23.43,0,0,0,2.24,10L50,63.09l8.61-8.6-2.76-4.88a12.4,12.4,0,0,1-1.6-5.91l-.07-6.16S59.27,33.43,59.25,29.48ZM45.9,32.3l-1.33-.66h.94a1.82,1.82,0,0,1,1.29.54l2,2S45.9,34.91,45.9,32.3Zm4.54,9a4.65,4.65,0,0,1-.43-.62c-.14.22-.33.5-.43.62a22,22,0,0,1-1.69,1.44s1.69-3.18,1.69-4.22h.86c0,1,1.67,4.22,1.67,4.22A20.78,20.78,0,0,1,50.44,41.33Zm3.66-9c0,2.61-2.9,1.88-2.9,1.88l2-2a1.82,1.82,0,0,1,1.29-.54h.94Z"/><path class="cls-1" d="M64.72,44.34A1,1,0,0,0,64,45.67l.92,4.2a1.55,1.55,0,0,0,.82.82,1.08,1.08,0,0,0,1.12-.31,16.22,16.22,0,0,0,.11-23,1.15,1.15,0,0,0-1.64,0c-.41.41-.41,1.23,0,1.43a14.21,14.21,0,0,1,1.33,18.54l-.62-2.25A1,1,0,0,0,64.72,44.34Z"/><path class="cls-1" d="M35.23,33.56A1,1,0,0,0,36,32.23l-1-4.3a1.55,1.55,0,0,0-.82-.82,1.08,1.08,0,0,0-1.12.31,16.67,16.67,0,0,0,0,23.35,1.06,1.06,0,0,0,1.63,0,1.14,1.14,0,0,0,0-1.64,14.22,14.22,0,0,1-1.33-18.54l.62,2.25A1,1,0,0,0,35.23,33.56Z"/><path class="cls-2" d="M18.7,71.45h1.87V69h.93v2.45h2.31v.87H21.5v3.86q0,.36.33.36h1.69v.86h-2a.86.86,0,0,1-.66-.26.9.9,0,0,1-.26-.67V72.32H18.7Z"/><path class="cls-2" d="M30.32,76.32h-.14a2.38,2.38,0,0,1-.76.92,2,2,0,0,1-1.18.33,2.45,2.45,0,0,1-.91-.16,1.85,1.85,0,0,1-.71-.49,2.14,2.14,0,0,1-.45-.8A3.43,3.43,0,0,1,26,75V71.45h.94v3.43a2.06,2.06,0,0,0,.38,1.37,1.5,1.5,0,0,0,1.18.43,1.65,1.65,0,0,0,1.34-.58,2.35,2.35,0,0,0,.48-1.55v-3.1h.94v7.42a.94.94,0,0,1-.26.67.86.86,0,0,1-.66.26h-3.4v-.86H30c.22,0,.32-.12.32-.36Z"/><path class="cls-2" d="M32.77,71.45h2.16v.79h.15a1.51,1.51,0,0,1,.64-.72,1.9,1.9,0,0,1,1-.24,1.93,1.93,0,0,1,1.46.59,2.57,2.57,0,0,1,.58,1.72l-1,.14a1.53,1.53,0,0,0-.4-1.19,1.34,1.34,0,0,0-1-.37,1.29,1.29,0,0,0-.64.15,1.2,1.2,0,0,0-.45.39,1.66,1.66,0,0,0-.26.59,2.73,2.73,0,0,0-.09.72v2.52h1.51v.86H32.63v-.86H34V72.32H32.77Z"/><path class="cls-2" d="M45.83,74.5a3.16,3.16,0,0,1-.25,1.31,2.86,2.86,0,0,1-.65,1,2.79,2.79,0,0,1-1,.6,3.32,3.32,0,0,1-2.27,0,2.79,2.79,0,0,1-1.6-1.56,3.16,3.16,0,0,1-.25-1.31v-.14a3.19,3.19,0,0,1,.25-1.31,2.74,2.74,0,0,1,.66-1,2.56,2.56,0,0,1,1-.6,3.15,3.15,0,0,1,2.26,0,2.56,2.56,0,0,1,1,.6,2.74,2.74,0,0,1,.66,1,3.19,3.19,0,0,1,.25,1.31Zm-3,2.18a2.11,2.11,0,0,0,.8-.15,1.85,1.85,0,0,0,.64-.43,2.23,2.23,0,0,0,.43-.69,2.38,2.38,0,0,0,.16-.91v-.14a2.35,2.35,0,0,0-.16-.89,2.23,2.23,0,0,0-.43-.69,2,2,0,0,0-.65-.45,2,2,0,0,0-1.58,0,2,2,0,0,0-.65.45,2.23,2.23,0,0,0-.43.69,2.35,2.35,0,0,0-.16.89v.14a2.38,2.38,0,0,0,.16.91,2.23,2.23,0,0,0,.43.69,1.85,1.85,0,0,0,.64.43A2.11,2.11,0,0,0,42.84,76.68Z"/><path class="cls-2" d="M48.25,77.4h-.93v-6h.93v1h.15a2,2,0,0,1,1.92-1.18,2.17,2.17,0,0,1,1.64.65,2.67,2.67,0,0,1,.61,1.92V77.4h-.93V74a2,2,0,0,0-.42-1.4,1.46,1.46,0,0,0-1.14-.47,1.67,1.67,0,0,0-1.34.58,2.33,2.33,0,0,0-.49,1.56Z"/><path class="cls-2" d="M61.67,73.21a4.2,4.2,0,0,1-4.2,4.19H54.36V69h3.11A4.2,4.2,0,0,1,61.67,73.21Zm-1,0A3.22,3.22,0,0,0,57.47,70H55.34v6.44h2.13A3.22,3.22,0,0,0,60.69,73.21Z"/><path class="cls-2" d="M64.49,70v2.73h4.1v1h-4.1v2.73h6.33v1H63.51V69h7.31v1Z"/><path class="cls-2" d="M80,77.4,77.08,74,74.14,77.4H72.85l3.58-4.19L72.85,69h1.29l2.94,3.44L80,69H81.3l-3.58,4.2L81.3,77.4Z"/></svg>