<svg id="Capa_1" data-name="Capa 1" xmlns="http://www.w3.org/2000/svg" xmlns:xlink="http://www.w3.org/1999/xlink" viewBox="0 0 26.47 28.35"><defs><style>.cls-1{fill:none;}.cls-2{fill:#dbe4eb;}.cls-3{clip-path:url(#clip-path);}.cls-4,.cls-7{fill:#ffff32;}.cls-4,.cls-6{fill-rule:evenodd;}.cls-5{clip-path:url(#clip-path-2);}</style><clipPath id="clip-path"><polygon class="cls-1" points="15.5 29.47 1.15 29.47 1.15 -0.24 14 -0.24 15.5 29.47"/></clipPath><clipPath id="clip-path-2"><path class="cls-1" d="M14,29.47H24.86V-.24H9.31S14.72,6,13.5,10.12c2,3-.31,5.63-.81,9.17A17.58,17.58,0,0,0,14,29.47Z"/></clipPath></defs><title>ssi_icon_fire</title><path class="cls-2" d="M11.31,2.5c2.62.8,9,3.42,8.42,12.4,1,0,1.51-1.22,1.74-3.15,2.63,5.43,1,15.11-8.18,15.11-3.9,0-9.45-3.08-9.45-9a10.57,10.57,0,0,1,1.67-6.1A9.65,9.65,0,0,0,7.06,6.9a3.87,3.87,0,0,1,2.33,3.31A7.31,7.31,0,0,0,11.31,2.5m-.12,12.73a2.31,2.31,0,0,0-1.52-1.67,6.08,6.08,0,0,1-.92,2.86,6.68,6.68,0,0,0-1,3.58c0,3.16,3.47,4.7,5.41,4.7,4.56,0,6.31-4.84,5-7.73a1.9,1.9,0,0,1-1.4,1.19.5.5,0,0,1-.17,0c.27-4.77-1.73-7.59-3-8,.57,1.56-1.48,4.33-2.33,5.11M9.62.93l.75,1.93a6.11,6.11,0,0,1-.58,5.28A4.64,4.64,0,0,0,7.43,6l-1.3-.53-.07,1.4a8.73,8.73,0,0,1-1.42,4.4,11.54,11.54,0,0,0-1.8,6.59c0,6.53,6.07,10,10.45,10a9.51,9.51,0,0,0,8.57-4.43,13.15,13.15,0,0,0,.51-12.12L20.89,8.25l-.35,2.89c-1.08-6.2-5.86-8.65-8.94-9.6l-2-.61Zm.77,16.41L11.87,16a11.41,11.41,0,0,0,2.47-3.76,10.06,10.06,0,0,1,1.22,5.87l0,.82.79.21a1.86,1.86,0,0,0,.42.05,2,2,0,0,0,.82-.19,5.08,5.08,0,0,1-.79,2.8,4.12,4.12,0,0,1-3.63,1.93c-1.54,0-4.41-1.27-4.41-3.7a5.73,5.73,0,0,1,.91-3.11,12.83,12.83,0,0,0,.6-1.23l.16,1.68Z"/><g class="cls-3"><path class="cls-4" d="M13.29,26.86c-3.9,0-9.45-3.08-9.45-9a10.57,10.57,0,0,1,1.67-6.1A9.65,9.65,0,0,0,7.06,6.9a3.87,3.87,0,0,1,2.33,3.31A7.31,7.31,0,0,0,11.31,2.5c2.62.8,9,3.42,8.42,12.4,1,0,1.51-1.22,1.74-3.15C24.1,17.18,22.44,26.86,13.29,26.86Zm-.16-2.16c-1.94,0-5.41-1.54-5.41-4.7a6.68,6.68,0,0,1,1-3.58,6.08,6.08,0,0,0,.92-2.86,2.31,2.31,0,0,1,1.52,1.67c.85-.78,2.9-3.55,2.33-5.11,1.31.43,3.31,3.25,3,8,.49.13,1.15-.35,1.57-1.17C19.44,19.86,17.69,24.7,13.13,24.7Z"/><path d="M7.72,20c0,3.16,3.47,4.7,5.41,4.7,4.56,0,6.31-4.84,5-7.73-.42.82-1.08,1.3-1.57,1.17.27-4.77-1.73-7.59-3-8,.57,1.56-1.48,4.33-2.33,5.11a2.31,2.31,0,0,0-1.52-1.67C9.55,16.22,7.72,16.84,7.72,20Z"/></g><g class="cls-5"><path class="cls-6" d="M13.29,26.86c-3.9,0-9.45-3.08-9.45-9a10.57,10.57,0,0,1,1.67-6.1A9.65,9.65,0,0,0,7.06,6.9a3.87,3.87,0,0,1,2.33,3.31A7.31,7.31,0,0,0,11.31,2.5c2.62.8,9,3.42,8.42,12.4,1,0,1.51-1.22,1.74-3.15C24.1,17.18,22.44,26.86,13.29,26.86Zm-.16-2.16c-1.94,0-5.41-1.54-5.41-4.7a6.68,6.68,0,0,1,1-3.58,6.08,6.08,0,0,0,.92-2.86,2.31,2.31,0,0,1,1.52,1.67c.85-.78,2.9-3.55,2.33-5.11,1.31.43,3.31,3.25,3,8,.49.13,1.15-.35,1.57-1.17C19.44,19.86,17.69,24.7,13.13,24.7Z"/><path class="cls-7" d="M7.72,20c0,3.16,3.47,4.7,5.41,4.7,4.56,0,6.31-4.84,5-7.73-.42.82-1.08,1.3-1.57,1.17.27-4.77-1.73-7.59-3-8,.57,1.56-1.48,4.33-2.33,5.11a2.31,2.31,0,0,0-1.52-1.67C9.55,16.22,7.72,16.84,7.72,20Z"/></g></svg>