<svg id="Capa_1" data-name="Capa 1" xmlns="http://www.w3.org/2000/svg" viewBox="0 0 26.47 28.35"><defs><style>.cls-1{fill:#ffff32;}.cls-2{fill:#dbe4eb;}</style></defs><title>ssi_icon_thunder</title><path class="cls-1" d="M9.4,27.62a.46.46,0,0,1-.23-.06.52.52,0,0,1-.27-.62l3.26-10.87H5.23a.5.5,0,0,1-.47-.3.52.52,0,0,1,.07-.56L16.82.92a.53.53,0,0,1,.4-.19.45.45,0,0,1,.25.07.52.52,0,0,1,.25.61l-2.83,9.31h6.35a.52.52,0,0,1,.42.84L9.82,27.41A.54.54,0,0,1,9.4,27.62Z"/><path class="cls-2" d="M17.22,1.26l-3,10h7L9.4,27.09l3.46-11.54H5.23l12-14.29m0-1a1,1,0,0,0-.8.37l-12,14.3a1,1,0,0,0,.8,1.72h6.23L8.4,26.79A1,1,0,0,0,8.93,28a1,1,0,0,0,.47.11,1.05,1.05,0,0,0,.84-.42L22.08,11.87a1,1,0,0,0-.84-1.67H15.6l2.62-8.64a1,1,0,0,0-.5-1.22,1,1,0,0,0-.5-.13Z"/><polygon points="9.4 27.09 21.24 11.24 14.19 11.24 17.22 1.26 10.64 13.31 16.56 13.31 9.4 27.09"/></svg>