<svg width="25" height="20" viewBox="0 0 25 20" fill="none" xmlns="http://www.w3.org/2000/svg">
<g id="ssi_icon_2arrowsDown">
<path id="Vector 94 (Stroke)" fill-rule="evenodd" clip-rule="evenodd" d="M0.81772 0.810884C1.59877 0.0298355 2.8651 0.0298355 3.64615 0.810884L12.2319 9.39667L20.8177 0.810884C21.5988 0.0298355 22.8651 0.0298355 23.6461 0.810884C24.4272 1.59193 24.4272 2.85826 23.6461 3.63931L13.6461 13.6393C12.8651 14.4204 11.5988 14.4204 10.8177 13.6393L0.81772 3.63931C0.0366714 2.85826 0.0366714 1.59193 0.81772 0.810884Z" fill="black"/>
<path id="Vector 96 (Stroke)" fill-rule="evenodd" clip-rule="evenodd" d="M0.81772 6.46909C1.59877 5.68804 2.8651 5.68804 3.64615 6.46909L12.2319 15.0549L20.8177 6.46909C21.5988 5.68804 22.8651 5.68804 23.6461 6.46909C24.4272 7.25014 24.4272 8.51647 23.6461 9.29751L13.6461 19.2975C12.8651 20.0786 11.5988 20.0786 10.8177 19.2975L0.81772 9.29751C0.0366714 8.51647 0.0366714 7.25014 0.81772 6.46909Z" fill="#DBE4EB"/>
</g>
</svg>
