<svg id="Capa_1" data-name="Capa 1" xmlns="http://www.w3.org/2000/svg" viewBox="0 0 26.47 28.35"><defs><style>.cls-1{fill:#31ced8;}.cls-2{fill:#dbe4eb;}</style></defs><title>ssi_icon_tydraDEX</title><path class="cls-1" d="M11.89,24.57a11.89,11.89,0,0,1-1.14-5.08V14.1c-.6-.52-2.5-2.32-2.49-4.16V9l.39.34a4.32,4.32,0,0,1-.41-2.48l.16-1.59.71,1.44a5.32,5.32,0,0,0,.42.71,9.19,9.19,0,0,1,0-2.82L9.89,3.1l.52,1.4a5.45,5.45,0,0,0,1.26,2.21A23.88,23.88,0,0,0,12.8,2.87L13.25.82l.44,2.05a18.64,18.64,0,0,0,1.18,3.8A5.48,5.48,0,0,0,16.08,4.5l.52-1.4L17,4.55a9.59,9.59,0,0,1,0,2.83,6.19,6.19,0,0,0,.42-.72l.71-1.44.16,1.59a4.32,4.32,0,0,1-.41,2.48L18.22,9v1c0,1.83-1.89,3.63-2.48,4.15l0,2.8a5.79,5.79,0,0,0,.72,2.67L18,22.25l-4.92,4.91Z"/><path class="cls-2" d="M13.25,3a19.63,19.63,0,0,0,1.23,3.94.45.45,0,0,0,.37.25c.74,0,1.66-2.5,1.66-2.5a12,12,0,0,1-.12,3.42.28.28,0,0,0,.24.14c.49,0,1.16-1.36,1.16-1.36.24,2.49-1.3,3.06-1.15,3.5a.16.16,0,0,0,.18.12c.33,0,.95-.54.95-.54,0,1.93-2.48,3.94-2.48,3.94l0,3a6,6,0,0,0,.78,2.9l1.35,2.38-4.21,4.21-.95-2a11.49,11.49,0,0,1-1.1-4.89V13.88s-2.49-2-2.48-3.94c0,0,.62.54.95.54a.18.18,0,0,0,.19-.12c.14-.44-1.4-1-1.15-3.5,0,0,.67,1.36,1.16,1.36a.28.28,0,0,0,.23-.14A12,12,0,0,1,10,4.66s.92,2.5,1.67,2.5A.44.44,0,0,0,12,6.91,19.83,19.83,0,0,0,13.25,3m1,9.31a.88.88,0,0,0,1-1L15.9,11h-.46a.89.89,0,0,0-.63.26l-1,1a2.1,2.1,0,0,0,.41,0m-2,0a2.14,2.14,0,0,0,.42,0l-1-1a.88.88,0,0,0-.63-.26h-.46l.65.32a.88.88,0,0,0,1,1m0,4.16a10.31,10.31,0,0,0,.83-.7c.05-.06.14-.2.21-.31.07.11.16.25.21.31a10.62,10.62,0,0,0,.82.7,9.06,9.06,0,0,1-.82-2.06H13a8.44,8.44,0,0,1-.83,2.06m1-17.76-.9,4.1a26.26,26.26,0,0,1-.83,3,9.48,9.48,0,0,1-.68-1.46l-1-2.8-.71,2.9a4.82,4.82,0,0,0-.11.9L8.11,3.58,7.8,6.77a5.36,5.36,0,0,0,0,1.34V9.94c0,1.89,1.71,3.66,2.48,4.36v5.19a12.52,12.52,0,0,0,1.18,5.28l.95,2L13,28l.92-.92,4.21-4.21.49-.49-.34-.61L16.9,19.34a5.17,5.17,0,0,1-.66-2.46l0-2.58c.77-.7,2.49-2.47,2.48-4.36V8.1a6.43,6.43,0,0,0,0-1.33l-.32-3.2-.87,1.76a4,4,0,0,0-.11-.89l-.71-2.9-1,2.8A11.83,11.83,0,0,1,15,5.8a29.15,29.15,0,0,1-.84-3l-.89-4.1Z"/><path d="M13.25,26.38l4.21-4.21-1.35-2.38a6,6,0,0,1-.78-2.9l0-3s2.49-2,2.48-3.94c0,0-1,.86-1.13.42s1.39-1,1.15-3.5c0,0-.93,1.88-1.4,1.22a12,12,0,0,0,.12-3.42s-1.27,3.45-2,2.25A19.63,19.63,0,0,1,13.25,3"/><path d="M20.21,20.79l-.26,0a1.2,1.2,0,0,1-.72-.64l0-.05L18.74,18a1,1,0,0,1,.1-.75.93.93,0,0,1,.61-.45.77.77,0,0,1,.25,0,1,1,0,0,1,.94.74l0,.07A6.44,6.44,0,0,0,19.55,10a.82.82,0,0,1-.31-.52,1,1,0,0,1,1-1.17,1,1,0,0,1,.72.3,8.3,8.3,0,0,1,2.46,5.94,8.46,8.46,0,0,1-2.51,6A1,1,0,0,1,20.21,20.79Z"/><path class="cls-2" d="M20.24,8.72a.6.6,0,0,1,.4.17,7.94,7.94,0,0,1-.05,11.28.51.51,0,0,1-.38.16H20a.76.76,0,0,1-.4-.41l-.45-2.05a.5.5,0,0,1,.35-.65.45.45,0,0,1,.16,0,.51.51,0,0,1,.49.38l.3,1.1a7,7,0,0,0-.65-9.06c-.2-.11-.2-.51,0-.71a.59.59,0,0,1,.4-.17m0-.91h0a1.47,1.47,0,0,0-1.45,1.7,1.25,1.25,0,0,0,.46.79,6,6,0,0,1,1.34,6.28,1.48,1.48,0,0,0-.89-.31,1.51,1.51,0,0,0-1.26.71,1.44,1.44,0,0,0-.14,1.11l.45,2,0,.11.05.1a1.65,1.65,0,0,0,.93.86l.05,0h.06a1.45,1.45,0,0,0,.35,0,1.42,1.42,0,0,0,1-.44,8.92,8.92,0,0,0,2.64-6.3,8.74,8.74,0,0,0-2.59-6.26,1.51,1.51,0,0,0-1.05-.44Z"/><path class="cls-1" d="M6.24,21a1,1,0,0,1-.72-.32,8.63,8.63,0,0,1,0-12.07.93.93,0,0,1,.7-.31l.26,0A1.27,1.27,0,0,1,7.2,9l0,0,.52,2.16a1,1,0,0,1-.1.76.91.91,0,0,1-.61.44.72.72,0,0,1-.25,0h0a1,1,0,0,1-.94-.74l0-.08A6.46,6.46,0,0,0,7,19.23,1,1,0,0,1,6.24,21Z"/><path class="cls-2" d="M6.22,8.76l.17,0a.77.77,0,0,1,.4.4l.5,2.11a.5.5,0,0,1-.35.65l-.16,0a.5.5,0,0,1-.49-.37L6,10.48a7,7,0,0,0,.65,9.07.56.56,0,0,1,0,.8.52.52,0,0,1-.8,0,8.16,8.16,0,0,1,0-11.42.5.5,0,0,1,.38-.17m0-.91a1.41,1.41,0,0,0-1,.43A9.11,9.11,0,0,0,5.18,21a1.54,1.54,0,0,0,1.06.47,1.53,1.53,0,0,0,1-.46,1.45,1.45,0,0,0,.43-1.11,1.49,1.49,0,0,0-.43-1,6,6,0,0,1-1.4-6.34,1.43,1.43,0,0,0,.89.32,1.34,1.34,0,0,0,.4-.06A1.35,1.35,0,0,0,8,12.16,1.41,1.41,0,0,0,8.17,11L7.68,9l0-.1,0-.1a1.69,1.69,0,0,0-.93-.86l0,0H6.57l-.35,0Z"/><path d="M11.24,11.32,10.59,11h.46a.88.88,0,0,1,.63.26l1,1S11.24,12.6,11.24,11.32Z"/><path class="cls-1" d="M13.46,15.74c-.05-.06-.14-.2-.21-.31-.07.11-.16.25-.21.31a10.31,10.31,0,0,1-.83.7A8.44,8.44,0,0,0,13,14.38h.42a9.06,9.06,0,0,0,.82,2.06A10.62,10.62,0,0,1,13.46,15.74Z"/><path class="cls-1" d="M15.25,11.32c0,1.28-1.41.92-1.41.92l1-1a.89.89,0,0,1,.63-.26h.46Z"/><path d="M13.25,15.43c-.07.11-.16.25-.21.31a10.31,10.31,0,0,1-.83.7A8.44,8.44,0,0,0,13,14.38h.21"/></svg>