<svg id="Capa_2" data-name="Capa 2" xmlns="http://www.w3.org/2000/svg" viewBox="0 0 100 100"><defs><style>.cls-1{fill:#dbe4eb;}</style></defs><title>ssi_ICO_dragondex</title><path class="cls-1" d="M46.34,95.18C31.59,93.69,18.15,85.92,11,74.65A42.51,42.51,0,0,1,5,59.5a82.61,82.61,0,0,1-.4-10c.34-10.29,2.74-18.24,7.6-25.33a33.77,33.77,0,0,1,5.26-6.06,45.67,45.67,0,0,1,13.1-8.92A48,48,0,0,1,44.57,5a54,54,0,0,1,11.37.06c8.69,1.31,16.36,5,23.73,11.49s13,15,14.87,23.27A27.38,27.38,0,0,1,95.39,48a31.28,31.28,0,0,1-.8,8.35l-.45,2.17-1.6.34a107.48,107.48,0,0,0-13.9,3.72c-2.74,1-3.31,1.26-7.37,3a51.75,51.75,0,0,1-7.78,3c-4.4,1.21-9.09,1.32-12.23.29C47,67.39,43.77,64,43.08,60.13a14.67,14.67,0,0,1,.28-5.2,26,26,0,0,1,6.07-10.12l1.08-1.15s.23,1.43.4,3.09.4,3.09.4,3.15l1.26-.4a21.2,21.2,0,0,1,11.78-.75,74.26,74.26,0,0,1,9.09,2.86c1.37.52,2.86,1,3.37,1.14a17.3,17.3,0,0,0,8.86-1.14c.69-.29.75-.34.92-1a16.78,16.78,0,0,0,0-4.8l-.17-.86L83.62,43C66.92,31.94,52.86,25.31,41,23c-3.26-.68-8.92-1.2-8.92-.85s0,.22-.05.28a51.91,51.91,0,0,0,5.94,3.09l6,2.91a21.39,21.39,0,0,1-2.58.92,71.81,71.81,0,0,0-9.49,3.77c-2.28,1.15-5.6,3-5.6,3.26l2.74.35,2.75.22-1.49,1.6c-2.06,2.12-3.2,3.49-6.12,7l-2.4,3h2.12a13.54,13.54,0,0,1,2.11.17c0,.06-1,3.32-2.17,7.26s-2.17,7.2-2.11,7.2l2.23-.45a6,6,0,0,1,2.34-.35c.06.12.29,3.26.57,7.09s.46,7,.52,7A18,18,0,0,0,29.3,75l2.06-1.55c.06,0,1.77,2.57,3.89,5.72s3.83,5.72,3.88,5.72a14.09,14.09,0,0,0,1.83-2c1.38-1.6,1.78-2,1.89-1.83L44.45,83c.74.91,2.12,2.4,3,3.32l1.6,1.6h3.43a34.28,34.28,0,0,1,13.32,2.17l1.38.46-.46.34a23.42,23.42,0,0,1-10.52,4,40.18,40.18,0,0,1-5.26.35c-1.89.05-4,0-4.63-.06Z"/></svg>