<svg id="Capa_1" data-name="Capa 1" xmlns="http://www.w3.org/2000/svg" viewBox="0 0 26.47 28.35"><defs><style>.cls-1{fill:#dbe4eb;}.cls-2{fill:#ffff32;}</style></defs><title>ssi_icon_sbtWallet</title><path class="cls-1" d="M17,7.79a.66.66,0,0,1,.27.06.69.69,0,0,1,.22.16.72.72,0,0,1,.14.24.65.65,0,0,1,0,.28L17,16.8a.63.63,0,0,1-.19.4l-.92.59a.68.68,0,0,0-.19.4l-.5,8.31a.63.63,0,0,1-.21.43.66.66,0,0,1-.44.17H11.89a.66.66,0,0,1-.44-.17.63.63,0,0,1-.21-.43l-.5-8.31a.68.68,0,0,0-.19-.4l-.92-.59a.68.68,0,0,1-.19-.4L8.78,8.53a1.27,1.27,0,0,1,0-.28A.72.72,0,0,1,9,8a.69.69,0,0,1,.22-.16.66.66,0,0,1,.27-.06h1.83a3.36,3.36,0,0,0,2,1,3.36,3.36,0,0,0,2-1H17m0-1H14.76l-.29.32a2.33,2.33,0,0,1-1.23.73A2.38,2.38,0,0,1,12,7.11l-.29-.32H9.44a1.56,1.56,0,0,0-.67.15,1.6,1.6,0,0,0-.56.4,1.66,1.66,0,0,0-.35.6,1.81,1.81,0,0,0-.07.69l.66,8.25a1.67,1.67,0,0,0,.47,1L9,18l.1.06.67.43.48,8.09a1.66,1.66,0,0,0,1.65,1.54h2.69a1.63,1.63,0,0,0,1.11-.43,1.65,1.65,0,0,0,.54-1.07l.49-8.13.67-.43.09-.06.08-.08a1.73,1.73,0,0,0,.47-1l.66-8.29a1.76,1.76,0,0,0-.08-.67,1.66,1.66,0,0,0-.35-.6,1.51,1.51,0,0,0-.56-.4A1.56,1.56,0,0,0,17,6.79Z"/><path class="cls-1" d="M13.24,1.84a2.59,2.59,0,0,1,1.83.75,2.49,2.49,0,0,1,.76,1.8c0,1.4-1.16,3-2.59,3s-2.6-1.62-2.6-3a2.49,2.49,0,0,1,.76-1.8,2.63,2.63,0,0,1,1.84-.75m0-1a3.63,3.63,0,0,0-2.54,1A3.53,3.53,0,0,0,9.64,4.39c0,1.9,1.54,4,3.6,4s3.59-2.12,3.59-4a3.53,3.53,0,0,0-1.06-2.52,3.62,3.62,0,0,0-2.53-1Z"/><path d="M13.24,7.41c1.43,0,2.59-1.62,2.59-3a2.49,2.49,0,0,0-.76-1.8,2.59,2.59,0,0,0-1.83-.75"/><path d="M13.24,27.1h1.34a.66.66,0,0,0,.44-.17.63.63,0,0,0,.21-.43l.5-8.31a.68.68,0,0,1,.19-.4l.92-.59a.63.63,0,0,0,.19-.4l.66-8.27a.65.65,0,0,0,0-.28A.72.72,0,0,0,17.52,8a.69.69,0,0,0-.22-.16A.66.66,0,0,0,17,7.79H15.2a3.36,3.36,0,0,1-2,1"/><path class="cls-2" d="M13.24,1.84a2.63,2.63,0,0,0-1.84.75,2.49,2.49,0,0,0-.76,1.8c0,1.4,1.16,3,2.6,3"/><path class="cls-2" d="M13.24,8.84a3.36,3.36,0,0,1-2-1H9.44a.66.66,0,0,0-.27.06A.69.69,0,0,0,9,8a.72.72,0,0,0-.14.24,1.27,1.27,0,0,0,0,.28l.66,8.27a.68.68,0,0,0,.19.4l.92.59a.68.68,0,0,1,.19.4l.5,8.31a.63.63,0,0,0,.21.43.66.66,0,0,0,.45.17h1.34"/><path d="M13.24,16.74h-.77V13.93a1.74,1.74,0,0,1-.86-.85,1.83,1.83,0,0,1-.14-1.2,1.8,1.8,0,0,1,1.77-1.43"/><path class="cls-2" d="M13.24,10.45a1.79,1.79,0,0,1,1.13.4,1.87,1.87,0,0,1,.64,1,1.78,1.78,0,0,1-.15,1.2,1.74,1.74,0,0,1-.86.85v2.81h-.76"/></svg>