<svg width="33" height="29" viewBox="0 0 33 29" fill="none" xmlns="http://www.w3.org/2000/svg">
<path d="M3.41981 20.0111C3.41981 16.9666 5.88786 14.4986 8.93237 14.4986C11.9769 14.4986 14.4449 16.9666 14.4449 20.0111L14.4449 21.8517L3.41981 21.8517L3.41981 20.0111Z" fill="#FFFF32" stroke="#FFFF32" stroke-width="0.7"/>
<path d="M19.5534 7.06308L10.0128 7.06308M10.0128 7.06308L8.85958 7.06308L3.87961 10.3656C3.87961 10.3656 2.72634 10.8373 1.83518 9.94611C0.94403 9.05496 1.20613 7.84939 1.20613 7.84939L10.8516 1.03468L20.3397 1.03468L25.7912 2.81699L31.1909 2.81699L31.1909 10.3656C31.1909 10.3656 27.8999 10.3656 25.7912 10.3656C25.7912 10.3656 23.7995 12.2529 20.9164 12.2529C18.0332 12.2529 16.513 10.3656 16.513 10.3656L13.6299 10.3656C13.6299 10.3656 12.3503 10.3871 11.4282 8.95024C10.5061 7.5134 10.0128 7.06308 10.0128 7.06308Z" stroke="#DBE4EB" stroke-width="2" stroke-linecap="round" stroke-linejoin="round"/>
<path d="M31.1909 12.3378L25.7912 12.3378C25.7912 12.3378 23.7995 14.2251 20.9164 14.2251C18.0332 14.2251 16.513 12.3378 16.513 12.3378L13.6299 12.3378C13.6299 12.3378 12.3503 12.3593 11.4282 10.9224C10.5061 9.48557 10.0128 9.03524 10.0128 9.03524L8.85958 9.03524L3.87961 12.3378C3.87961 12.3378 2.72634 12.8094 1.83518 11.9183C0.944029 11.0271 1.20613 9.82156 1.20613 9.82156L10.8516 3.00685L20.3397 3.00685L25.7912 4.78916L31.1909 4.78916L31.1909 12.3378Z" fill="black"/>
<path d="M19.5534 9.03525L10.0128 9.03524M10.0128 9.03524L8.85958 9.03524L3.87961 12.3378C3.87961 12.3378 2.72634 12.8094 1.83518 11.9183C0.94403 11.0271 1.20613 9.82156 1.20613 9.82156L10.8516 3.00685L20.3397 3.00685L25.7912 4.78916L31.1909 4.78916L31.1909 12.3378C31.1909 12.3378 27.8999 12.3378 25.7912 12.3378C25.7912 12.3378 23.7995 14.2251 20.9164 14.2251C18.0332 14.2251 16.513 12.3378 16.513 12.3378L13.6299 12.3378C13.6299 12.3378 12.3503 12.3593 11.4282 10.9224C10.5061 9.48557 10.0128 9.03524 10.0128 9.03524Z" stroke="#FFFF32" stroke-width="2" stroke-linecap="round" stroke-linejoin="round"/>
<path d="M3.56981 22.2019C3.56981 19.2402 5.97071 16.8393 8.93237 16.8393C11.894 16.8393 14.2949 19.2402 14.2949 22.2019C14.2949 25.1636 11.894 27.5645 8.93237 27.5645C5.97071 27.5645 3.56981 25.1636 3.56981 22.2019Z" fill="black" stroke="#DBE4EB"/>
</svg>
