<svg id="Capa_1" data-name="Capa 1" xmlns="http://www.w3.org/2000/svg" xmlns:xlink="http://www.w3.org/1999/xlink" viewBox="0 0 26.47 28.35"><defs><style>.cls-1{fill:none;}.cls-2{fill:#dbe4eb;}.cls-3{fill:#ffff32;}.cls-4{clip-path:url(#clip-path);}</style><clipPath id="clip-path"><rect class="cls-1" x="15.66" y="4.81" width="8.48" height="13.96"/></clipPath></defs><title>ssi_icon_NFTsGallery</title><rect class="cls-2" x="8.92" y="5.22" width="13.58" height="12.53"/><path class="cls-3" d="M22,5.72V17.25H9.42V5.72H22m1-1H8.42V18.25H23V4.72Z"/><path class="cls-3" d="M10.17,19.27A2.25,2.25,0,0,1,7.93,17V6.56a2.24,2.24,0,0,1,2.23-2.25h11a2.24,2.24,0,0,1,2.23,2.25V17a2.24,2.24,0,0,1-2.23,2.24Z"/><path class="cls-2" d="M21.16,4.81a1.75,1.75,0,0,1,1.73,1.75V17a1.74,1.74,0,0,1-1.73,1.74h-11A1.75,1.75,0,0,1,8.43,17V6.56a1.75,1.75,0,0,1,1.73-1.75h11m0-1h-11A2.74,2.74,0,0,0,7.44,6.56V17a2.75,2.75,0,0,0,2.74,2.75h11A2.74,2.74,0,0,0,23.89,17V6.56a2.74,2.74,0,0,0-2.73-2.75Z"/><path class="cls-3" d="M7.15,21.83a1.76,1.76,0,0,1-1.76-1.76V9.22A2.59,2.59,0,0,1,6.94,6.85l.7-.3V18.19A1.38,1.38,0,0,0,9,19.57H21.17l-.3.7a2.58,2.58,0,0,1-2.38,1.56Z"/><path class="cls-2" d="M7.14,7.31V18.19A1.89,1.89,0,0,0,9,20.07H20.41a2.09,2.09,0,0,1-1.92,1.26H7.15a1.26,1.26,0,0,1-1.26-1.26V9.22A2.08,2.08,0,0,1,7.14,7.31h0m1-1.52-1.39.6A3.08,3.08,0,0,0,4.89,9.22V20.07a2.26,2.26,0,0,0,2.26,2.26H18.49a3.09,3.09,0,0,0,2.84-1.86l.6-1.4H9a.89.89,0,0,1-.89-.88V5.79Z"/><path class="cls-3" d="M4.74,24.25A1.76,1.76,0,0,1,3,22.49V11.65A2.59,2.59,0,0,1,4.53,9.28L5.23,9V20.61A1.38,1.38,0,0,0,6.61,22H18.76l-.3.7a2.6,2.6,0,0,1-2.38,1.56Z"/><path class="cls-2" d="M4.73,9.73V20.61a1.88,1.88,0,0,0,1.88,1.88H18a2.09,2.09,0,0,1-1.92,1.26H4.74a1.25,1.25,0,0,1-1.26-1.26V11.65A2.1,2.1,0,0,1,4.73,9.73m1-1.52-1.4.61a3.09,3.09,0,0,0-1.85,2.83V22.49a2.26,2.26,0,0,0,2.26,2.26H16.08a3.08,3.08,0,0,0,2.83-1.86l.61-1.4H6.61a.88.88,0,0,1-.88-.88V8.21Z"/><g class="cls-4"><path d="M10.17,19.27A2.25,2.25,0,0,1,7.93,17V6.56a2.24,2.24,0,0,1,2.23-2.25h11a2.24,2.24,0,0,1,2.23,2.25V17a2.24,2.24,0,0,1-2.23,2.24Z"/><path class="cls-2" d="M21.16,4.81a1.75,1.75,0,0,1,1.73,1.75V17a1.74,1.74,0,0,1-1.73,1.74h-11A1.75,1.75,0,0,1,8.43,17V6.56a1.75,1.75,0,0,1,1.73-1.75h11m0-1h-11A2.74,2.74,0,0,0,7.44,6.56V17a2.75,2.75,0,0,0,2.74,2.75h11A2.74,2.74,0,0,0,23.89,17V6.56a2.74,2.74,0,0,0-2.73-2.75Z"/></g><path d="M13.84,13.55a.47.47,0,0,1-.31.48.46.46,0,0,1-.55-.2L11.59,12c-.14-.2-.29-.39-.44-.58H11.1v1.95a1.11,1.11,0,0,1,0,.26.44.44,0,0,1-.45.42.45.45,0,0,1-.46-.41,1.34,1.34,0,0,1,0-.2v-3.3a1.27,1.27,0,0,1,0-.2.44.44,0,0,1,.32-.39.43.43,0,0,1,.47.13c.07.08.13.17.19.25L12.74,12l.17.21V10.14a1.77,1.77,0,0,1,0-.23.46.46,0,0,1,.9,0,.81.81,0,0,1,0,.22c0,1.11,0,2.22,0,3.33Z"/><path class="cls-3" d="M16.75,11.35H17a.44.44,0,0,1,.46.44.45.45,0,0,1-.48.46H15.72c-.09.07-.06.15-.06.23v1.15a.45.45,0,0,1-.45.43.46.46,0,0,1-.46-.42V10a.44.44,0,0,1,.43-.44H17a.46.46,0,0,1,.45.46.44.44,0,0,1-.46.44H16a1,1,0,0,0-.33,0v.88Z"/><path class="cls-3" d="M20.67,10.44h-.4a.69.69,0,0,0,0,.31v2.68a2.35,2.35,0,0,1,0,.26.46.46,0,0,1-.9,0,1.11,1.11,0,0,1,0-.26V10.74a.81.81,0,0,0,0-.3H18.9a.47.47,0,0,1-.5-.47.45.45,0,0,1,.49-.44h1.77a.46.46,0,0,1,.49.45A.47.47,0,0,1,20.67,10.44Z"/><path d="M20.41,20.07H13.78l-1.09,1.26h5.8a2.09,2.09,0,0,0,1.92-1.26"/><path d="M18,22.49H11.37l-1.09,1.26h5.8A2.09,2.09,0,0,0,18,22.49"/><path d="M14.75,13.56V10.13a.81.81,0,0,1,0-.22.44.44,0,0,1,.46-.38h.44s0,.52,0,.6c0,1.11,0,2.28,0,3.39v.08a.41.41,0,0,1-.32.44.45.45,0,0,1-.61-.42Z"/></svg>