<svg id="Capa_2" data-name="Capa 2" xmlns="http://www.w3.org/2000/svg" viewBox="0 0 100 100"><defs><style>.cls-1{fill:#dbe4eb;}</style></defs><title>ssi_ICO_tydradex</title><path class="cls-1" d="M69.32,29.87s-4.19,3.63-4.82,1.75,5.92-4.28,4.87-14.88c0,0-3.93,8.05-5.92,5.21,0,0,1.66-9.88.51-14.57,0,0-5.37,14.69-8.63,9.57C52.86,13,50.07.19,50.07.19S47.32,13,44.81,17c-3.23,5.12-8.65-9.57-8.65-9.57C35,12.07,36.67,22,36.67,22c-2,2.82-5.92-5.21-5.92-5.21-1,10.6,5.52,13,4.89,14.88s-4.83-1.75-4.83-1.75c0,8.21,10.56,16.76,10.56,16.76V70.5A48.86,48.86,0,0,0,46,91.27l4,8.54L68,81.89,62.23,71.74A25.67,25.67,0,0,1,58.91,59.4l-.16-12.81S69.37,38.08,69.32,29.87ZM41.53,35.72l-2.76-1.34h1.94a3.82,3.82,0,0,1,2.69,1.11l4.16,4.16S41.53,41.14,41.53,35.72Zm9.4,18.79A13,13,0,0,1,50,53.17a13.07,13.07,0,0,1-.9,1.34,44,44,0,0,1-3.52,3s3.52-6.63,3.52-8.8h1.79c0,2.07,3.49,8.8,3.49,8.8a45.05,45.05,0,0,1-3.45-3Zm7.63-18.79c0,5.37-6,3.9-6,3.9l4.19-4.16a3.81,3.81,0,0,1,2.69-1.11h1.94Z"/><path class="cls-1" d="M80.71,60.74a2.15,2.15,0,0,0-1.54,2.63.83.83,0,0,0,0,.15l1.92,8.73A3.37,3.37,0,0,0,82.83,74a2.27,2.27,0,0,0,2.35-.64,33.76,33.76,0,0,0,.43-47.74l-.21-.22A2.36,2.36,0,0,0,82,25.31a.12.12,0,0,0-.05.05c-.86.85-.86,2.56,0,3a29.53,29.53,0,0,1,2.76,38.59l-1.34-4.7a2.15,2.15,0,0,0-2.64-1.51Z"/><path class="cls-1" d="M19.32,38.35a2.17,2.17,0,0,0,1.53-2.66l0-.12-2.14-8.95A3.34,3.34,0,0,0,17,24.91a2.26,2.26,0,0,0-2.35.65,34.74,34.74,0,0,0,0,48.6,2.23,2.23,0,0,0,3.14.27,1.72,1.72,0,0,0,.27-.27,2.37,2.37,0,0,0,.06-3.36L18,70.74a29.53,29.53,0,0,1-2.76-38.58l1.27,4.69a2.17,2.17,0,0,0,2.64,1.54Z"/></svg>