<svg id="Capa_1" data-name="Capa 1" xmlns="http://www.w3.org/2000/svg" xmlns:xlink="http://www.w3.org/1999/xlink" viewBox="0 0 26.47 28.35"><defs><style>.cls-1,.cls-2{fill:none;}.cls-2{clip-rule:evenodd;}.cls-3,.cls-7{fill:#ffff32;}.cls-4{fill:#dbe4eb;}.cls-5{clip-path:url(#clip-path);}.cls-6{clip-path:url(#clip-path-2);}.cls-7,.cls-9{fill-rule:evenodd;}.cls-8{clip-path:url(#clip-path-3);}</style><clipPath id="clip-path"><polygon class="cls-1" points="24.15 23.11 24.23 25.81 24.23 3.29 4.61 3.29 24.15 23.11"/></clipPath><clipPath id="clip-path-2"><rect class="cls-1" x="12.34" y="9.27" width="10.21" height="9.94"/></clipPath><clipPath id="clip-path-3"><polygon class="cls-2" points="14.45 22.42 24.36 22.42 24.36 5.87 14.9 5.87 14.58 9.27 22.55 9.27 22.55 19.13 14.58 19.13 14.45 22.42"/></clipPath></defs><title>ssi_icon_ssiWallet</title><path class="cls-3" d="M5.86,24.07a3,3,0,0,1-3-3V7.29a3,3,0,0,1,3-3H19.6a3,3,0,0,1,3,3V8.77h1.19V19.63H22.64V21a3.05,3.05,0,0,1-3,3Z"/><path class="cls-4" d="M19.6,4.75a2.54,2.54,0,0,1,2.54,2.54v2h1.19v9.86H22.14V21a2.54,2.54,0,0,1-2.54,2.54H5.86A2.54,2.54,0,0,1,3.32,21V7.29A2.54,2.54,0,0,1,5.86,4.75H19.6m0-1H5.86A3.55,3.55,0,0,0,2.32,7.29V21a3.55,3.55,0,0,0,3.54,3.54H19.6A3.55,3.55,0,0,0,23.14,21v-.9h1.19V8.27H23.14v-1A3.55,3.55,0,0,0,19.6,3.75Z"/><g class="cls-5"><path d="M5.86,4.75H19.6a2.54,2.54,0,0,1,2.54,2.54v2h1.19v9.86H22.14V21a2.54,2.54,0,0,1-2.54,2.54H5.86A2.54,2.54,0,0,1,3.32,21V7.29A2.54,2.54,0,0,1,5.86,4.75Z"/></g><polyline points="18.95 9.27 14.58 9.27 14.58 19.13 18.95 19.13"/><rect x="18.95" y="9.27" width="4.38" height="9.86" transform="translate(42.28 28.4) rotate(180)"/><g class="cls-6"><polygon class="cls-7" points="19.41 6.32 16.25 15.28 19.78 14.75 18.46 21.99 21.9 12.92 18.21 13.62 19.41 6.32"/><polygon class="cls-7" points="15.91 18.12 16.59 15.77 17.03 15.81 17.13 16.94 19.88 16.94 15.91 10.33 22.07 10.33 21.47 12.5 21.04 12.49 20.78 11.4 18.09 11.4 22.09 18.12 15.91 18.12"/><path d="M21.78,10.55l-.53,1.89L21,11.18H17.69l4,6.71H16.21l.59-2.06.13,1.34h3.35l-4-6.62h5.47m.59-.45H15.51l.41.68,3.56,5.94H17.34l-.09-.93-.88-.08-.6,2.06-.16.57h6.87l-.4-.68-3.6-6H20.6l.22.91.87,0,.52-1.89.16-.57Z"/></g><g class="cls-8"><polygon class="cls-9" points="19.41 6.32 16.25 15.28 19.78 14.75 18.46 21.99 21.9 12.92 18.21 13.62 19.41 6.32"/><polygon class="cls-7" points="21.25 12.44 21.78 10.55 16.3 10.55 20.28 17.17 16.93 17.17 16.8 15.83 16.21 17.89 21.69 17.89 17.69 11.18 20.96 11.18 21.25 12.44"/></g><polygon class="cls-7" points="21.9 12.92 17.24 13.81 16.25 15.28 20.66 14.62 21.9 12.92"/><polyline class="cls-7" points="18.84 9.77 19.41 6.32 18.17 9.84"/><polygon class="cls-9" points="17.55 13.49 17.77 13.88 22.3 13.09 22.17 12.67 17.55 13.49"/><polygon class="cls-9" points="15.49 15.15 15.75 15.46 20.3 14.67 20.11 14.32 15.49 15.15"/><polygon class="cls-9" points="18.17 11.4 18.72 12.21 18.96 11.32 18.17 11.4"/><polygon class="cls-9" points="19.07 15.99 19.7 16.71 19.63 16.99 18.8 16.84 19.07 15.99"/></svg>