<svg xmlns="http://www.w3.org/2000/svg" xmlns:xlink="http://www.w3.org/1999/xlink" viewBox="0 0 400 400"><defs><style>.cls-1{fill:url(#Degradado_sin_nombre_69);}.cls-2{fill:url(#Degradado_sin_nombre_93);}.cls-3{fill:url(#Degradado_sin_nombre_146);}.cls-4,.cls-5,.cls-6,.cls-7{opacity:0.5;}.cls-4{fill:url(#Degradado_sin_nombre_120);}.cls-5{fill:url(#Degradado_sin_nombre_83);}.cls-6{fill:url(#Degradado_sin_nombre_83-2);}.cls-7{fill:url(#Degradado_sin_nombre_82);}.cls-8{fill:url(#Degradado_sin_nombre_146-2);}.cls-9{fill:url(#Degradado_sin_nombre_146-3);}</style><radialGradient id="Degradado_sin_nombre_69" cx="200" cy="200" r="177.2" gradientUnits="userSpaceOnUse"><stop offset="0.93" stop-color="#8a8d92"/><stop offset="0.96" stop-color="#f2f5f8"/><stop offset="0.97" stop-color="#dbe4eb"/><stop offset="0.98" stop-color="#fff"/><stop offset="1" stop-color="#dbe4eb"/></radialGradient><linearGradient id="Degradado_sin_nombre_93" x1="124.19" y1="244.96" x2="288.54" y2="80.62" gradientUnits="userSpaceOnUse"><stop offset="0.07" stop-color="#e5ce32"/><stop offset="0.26" stop-color="#ffff32"/><stop offset="0.56" stop-color="#ffff9c"/><stop offset="1" stop-color="#ffff32"/></linearGradient><radialGradient id="Degradado_sin_nombre_146" cx="89.2" cy="149.99" r="10.18" gradientUnits="userSpaceOnUse"><stop offset="0.21" stop-color="#ffff9c"/><stop offset="0.63" stop-color="#ffff32"/><stop offset="0.88" stop-color="#e5ce32"/><stop offset="1" stop-color="#bfac2a"/></radialGradient><linearGradient id="Degradado_sin_nombre_120" x1="202.34" y1="110.92" x2="202.34" y2="106.49" gradientUnits="userSpaceOnUse"><stop offset="0" stop-color="#f7f631"/><stop offset="0.21" stop-color="#ffff32"/><stop offset="0.96" stop-color="#968121"/></linearGradient><linearGradient id="Degradado_sin_nombre_83" x1="141.13" y1="232.85" x2="141.13" y2="121.92" gradientUnits="userSpaceOnUse"><stop offset="0" stop-color="#8a741e"/><stop offset="0.64" stop-color="#ffff32"/><stop offset="0.91" stop-color="#968121"/></linearGradient><linearGradient id="Degradado_sin_nombre_83-2" x1="196.13" y1="210.64" x2="196.13" y2="137.14" xlink:href="#Degradado_sin_nombre_83"/><linearGradient id="Degradado_sin_nombre_82" x1="203.24" y1="242.22" x2="241.98" y2="242.22" gradientUnits="userSpaceOnUse"><stop offset="0.09" stop-color="#968121"/><stop offset="0.36" stop-color="#ffff32"/><stop offset="1" stop-color="#8a741e"/></linearGradient><radialGradient id="Degradado_sin_nombre_146-2" cx="311.2" cy="149.99" r="10.18" xlink:href="#Degradado_sin_nombre_146"/><radialGradient id="Degradado_sin_nombre_146-3" cx="206.36" cy="326.49" r="10.18" xlink:href="#Degradado_sin_nombre_146"/></defs><title>ssi_token_Tyron</title><g id="Capa_1" data-name="Capa 1"><circle cx="200" cy="200" r="171.2"/><path class="cls-1" d="M200,377.2c-97.71,0-177.2-79.49-177.2-177.2S102.29,22.8,200,22.8,377.2,102.29,377.2,200,297.71,377.2,200,377.2Zm0-342.4C108.91,34.8,34.8,108.91,34.8,200S108.91,365.2,200,365.2,365.2,291.09,365.2,200,291.09,34.8,200,34.8Z"/></g><g id="Capa_2" data-name="Capa 2"><polygon class="cls-2" points="85.84 110.92 85.84 151.92 96.84 151.92 96.84 121.92 164.63 121.92 117.63 232.85 241.98 160.42 203.24 324.01 214.34 327.21 256.98 137.14 135.27 210.64 178.44 121.92 307.84 121.92 307.84 151.92 318.84 151.92 318.84 110.92 85.84 110.92"/><circle class="cls-3" cx="91.34" cy="151.92" r="8.5"/><rect class="cls-4" x="85.84" y="106.49" width="233" height="4.43"/><polygon class="cls-5" points="164.63 121.92 118.13 203.35 117.63 232.85 164.63 121.92"/><polygon class="cls-6" points="135.27 210.64 148.49 183.48 256.98 137.14 135.27 210.64"/><polygon class="cls-7" points="203.24 324.01 225.69 169.91 241.98 160.42 203.24 324.01"/><circle class="cls-8" cx="313.34" cy="151.92" r="8.5"/><circle class="cls-9" cx="208.5" cy="328.42" r="8.5"/></g></svg>