<svg id="Capa_1" data-name="Capa 1" xmlns="http://www.w3.org/2000/svg" viewBox="0 0 26.47 28.35"><defs><style>.cls-1{fill:#ffff32;stroke-width:0.56px;}.cls-1,.cls-3{stroke:#ffff32;}.cls-2,.cls-3{fill:none;stroke-linecap:round;stroke-linejoin:round;stroke-width:1.61px;}.cls-2,.cls-4{stroke:#dbe4eb;}.cls-4{stroke-width:0.8px;}.cls-5{fill:#dbe4eb;}</style></defs><title>ssi_icon_send</title><path class="cls-1" d="M3,18.76a4.43,4.43,0,0,1,8.86,0v1.48H3Z"/><path class="cls-2" d="M16,8.36H8.28m0,0H7.35L3.35,11a1.58,1.58,0,0,1-1.64-.33A1.94,1.94,0,0,1,1.21,9L9,3.52h7.62L21,5H25.3V11H21A6.19,6.19,0,0,1,17,12.53,4.74,4.74,0,0,1,13.5,11H11.19A2.22,2.22,0,0,1,9.42,9.88,8.21,8.21,0,0,0,8.28,8.36Z"/><path d="M25.3,12.6H21A6.19,6.19,0,0,1,17,14.12,4.74,4.74,0,0,1,13.5,12.6H11.19a2.22,2.22,0,0,1-1.77-1.14A8.29,8.29,0,0,0,8.28,10H7.35l-4,2.65a1.57,1.57,0,0,1-1.64-.34,1.92,1.92,0,0,1-.5-1.68L9,5.1h7.62L21,6.53H25.3Z"/><path class="cls-3" d="M16,10H8.28m0,0H7.35l-4,2.65a1.57,1.57,0,0,1-1.64-.34,1.92,1.92,0,0,1-.5-1.68L9,5.1h7.62L21,6.53H25.3V12.6H21A6.19,6.19,0,0,1,17,14.12,4.74,4.74,0,0,1,13.5,12.6H11.19a2.22,2.22,0,0,1-1.77-1.14A8.29,8.29,0,0,0,8.28,10Z"/><path class="cls-4" d="M3.1,20.52a4.31,4.31,0,1,1,4.31,4.31A4.3,4.3,0,0,1,3.1,20.52Z"/><path class="cls-5" d="M5.79,20.52a1.63,1.63,0,1,1,1.62,1.63A1.63,1.63,0,0,1,5.79,20.52Z"/></svg>