<svg width="25" height="26" viewBox="0 0 25 26" fill="none" xmlns="http://www.w3.org/2000/svg">
<g id="ssi_icon_3arrowsUp">
<path id="Vector 91 (Stroke)" fill-rule="evenodd" clip-rule="evenodd" d="M23.9084 19.1964C23.1273 19.9775 21.861 19.9775 21.0799 19.1964L12.4941 10.6107L3.90835 19.1964C3.12731 19.9775 1.86098 19.9775 1.07993 19.1964C0.298878 18.4154 0.298878 17.1491 1.07993 16.368L11.0799 6.36801C11.861 5.58696 13.1273 5.58696 13.9084 6.36801L23.9084 16.368C24.6894 17.1491 24.6894 18.4154 23.9084 19.1964Z" fill="black"/>
<path id="Vector 92 (Stroke)" fill-rule="evenodd" clip-rule="evenodd" d="M23.9084 13.5382C23.1273 14.3193 21.861 14.3193 21.0799 13.5382L12.4941 4.95245L3.90835 13.5382C3.12731 14.3193 1.86098 14.3193 1.07993 13.5382C0.298878 12.7572 0.298878 11.4909 1.07993 10.7098L11.0799 0.709808C11.861 -0.0712396 13.1273 -0.0712395 13.9084 0.709808L23.9084 10.7098C24.6894 11.4909 24.6894 12.7572 23.9084 13.5382Z" fill="#DBE4EB"/>
<path id="Vector 93 (Stroke)" fill-rule="evenodd" clip-rule="evenodd" d="M23.9084 24.8903C23.1273 25.6713 21.861 25.6713 21.0799 24.8903L12.4941 16.3045L3.90835 24.8903C3.12731 25.6713 1.86098 25.6713 1.07993 24.8903C0.298878 24.1092 0.298878 22.8429 1.07993 22.0619L11.0799 12.0619C11.861 11.2808 13.1273 11.2808 13.9084 12.0619L23.9084 22.0619C24.6894 22.8429 24.6894 24.1092 23.9084 24.8903Z" fill="#FFFF32"/>
</g>
</svg>
