<svg id="Capa_2" data-name="Capa 2" xmlns="http://www.w3.org/2000/svg" viewBox="0 0 100 100"><defs><style>.cls-1{fill:#dbe4eb;}</style></defs><title>ssi_ICO_zilswap</title><path class="cls-1" d="M86.26,25.24l-32.95-19a6.58,6.58,0,0,0-6.62,0l-32.95,19A6.62,6.62,0,0,0,10.43,31V69a6.65,6.65,0,0,0,3.31,5.76l32.95,19a6.58,6.58,0,0,0,6.62,0l33-19A6.63,6.63,0,0,0,89.57,69V31A6.62,6.62,0,0,0,86.26,25.24Zm-6,24.85a3.48,3.48,0,0,1-.45,1.7A3.41,3.41,0,0,1,75.18,53L48.3,37.52a3.41,3.41,0,0,1,3.4-5.9l6.65,3.83v0L69,41.62a3.41,3.41,0,1,0,3.4-5.92l-5.68-3.27-15-8.67a3,3,0,0,0-3.36,0l-15.78,9.1c-1.59.92-1.53,2.16,0,3,8,4.64,44.89,26.09,46,26.75a3.32,3.32,0,0,1,1.71,3,3.4,3.4,0,0,1-1.71,3L51.7,84.11a3.41,3.41,0,0,1-3.41,0L21.41,68.59a3.4,3.4,0,0,1-1.71-3V50a3.47,3.47,0,0,1,.46-1.73A3.4,3.4,0,0,1,24.81,47L51.68,62.49a3.4,3.4,0,1,1-3.4,5.9l-6.6-3.81v0L31.09,58.41a3.42,3.42,0,1,0-3.39,6l3.75,2.16,16.86,9.75a3.06,3.06,0,0,0,3.36,0l15.77-9.11c1.59-.92,1.54-2.15,0-3-8-4.67-46-26.78-46-26.78a3.51,3.51,0,0,1-1.24-1.24,3.41,3.41,0,0,1,1.24-4.66L48.3,15.92a3.39,3.39,0,0,1,3.4,0L78.59,31.44a3.41,3.41,0,0,1,1.7,2.94Z"/></svg>