<svg id="Capa_1" data-name="Capa 1" xmlns="http://www.w3.org/2000/svg" viewBox="0 0 26.47 28.35"><defs><style>.cls-1{fill:#dbe4eb;}.cls-2{fill:#ffff32;}</style></defs><title>ssi_icon_balance</title><ellipse class="cls-1" cx="13.24" cy="8.27" rx="8.37" ry="4.44"/><path class="cls-1" d="M13.24,4.33c3.91,0,7.87,1.36,7.87,3.94s-4,3.94-7.87,3.94S5.36,10.85,5.36,8.27s4-3.94,7.88-3.94m0-1C9,3.33,4.36,4.88,4.36,8.27s4.6,4.94,8.88,4.94,8.87-1.55,8.87-4.94-4.6-4.94-8.87-4.94Z"/><path class="cls-1" d="M13.24,16.64c-4,0-8.38-1.39-8.38-4.43v-2a.5.5,0,0,1,.5-.5.5.5,0,0,1,.5.5c0,2.23,3.8,3.44,7.38,3.44s7.37-1.21,7.37-3.44a.5.5,0,0,1,1,0v2C21.61,15.25,17.27,16.64,13.24,16.64Z"/><path class="cls-1" d="M21.11,10.24v2c0,2.58-4,3.93-7.87,3.93s-7.88-1.35-7.88-3.93v-2c0,2.58,4,3.94,7.88,3.94s7.87-1.36,7.87-3.94m0-1a1,1,0,0,0-1,1c0,1.62-3.08,2.94-6.87,2.94s-6.88-1.32-6.88-2.94a1,1,0,0,0-2,0v2c0,3.39,4.6,4.93,8.88,4.93s8.87-1.54,8.87-4.93v-2a1,1,0,0,0-1-1Z"/><path class="cls-1" d="M13.24,20.58c-4,0-8.38-1.39-8.38-4.44v-2a.5.5,0,0,1,.5-.5.5.5,0,0,1,.5.5c0,2.23,3.8,3.43,7.38,3.43s7.37-1.2,7.37-3.43a.5.5,0,0,1,1,0v2C21.61,19.19,17.27,20.58,13.24,20.58Z"/><path class="cls-1" d="M21.11,14.18v2c0,2.59-4,3.94-7.87,3.94s-7.88-1.35-7.88-3.94v-2c0,2.58,4,3.93,7.88,3.93s7.87-1.35,7.87-3.93m0-1a1,1,0,0,0-1,1c0,1.61-3.08,2.93-6.87,2.93s-6.88-1.32-6.88-2.93a1,1,0,0,0-2,0v2c0,3.4,4.6,4.94,8.88,4.94s8.87-1.54,8.87-4.94v-2a1,1,0,0,0-1-1Z"/><path class="cls-1" d="M13.24,24.52c-4,0-8.38-1.39-8.38-4.44v-2a.51.51,0,0,1,.5-.5.5.5,0,0,1,.5.5c0,2.23,3.8,3.44,7.38,3.44s7.37-1.21,7.37-3.44a.5.5,0,0,1,1,0v2C21.61,23.13,17.27,24.52,13.24,24.52Z"/><path class="cls-1" d="M21.11,18.11v2c0,2.58-4,3.94-7.87,3.94s-7.88-1.36-7.88-3.94v-2c0,2.59,4,3.94,7.88,3.94s7.87-1.35,7.87-3.94m0-1a1,1,0,0,0-1,1c0,1.62-3.08,2.94-6.87,2.94s-6.88-1.32-6.88-2.94a1,1,0,0,0-2,0v2C4.36,23.47,9,25,13.24,25s8.87-1.55,8.87-4.94v-2a1,1,0,0,0-1-1Z"/><path class="cls-2" d="M13.24,12.21c3.91,0,7.87-1.36,7.87-3.94s-4-3.94-7.87-3.94S5.36,5.69,5.36,8.27,9.32,12.21,13.24,12.21Z"/><path class="cls-2" d="M5.36,12.21c0,2.58,4,3.93,7.88,3.93s7.87-1.35,7.87-3.93v-2c0,2.58-4,3.94-7.87,3.94s-7.88-1.36-7.88-3.94Z"/><path class="cls-2" d="M5.36,16.14c0,2.59,4,3.94,7.88,3.94s7.87-1.35,7.87-3.94v-2c0,2.58-4,3.93-7.87,3.93s-7.88-1.35-7.88-3.93Z"/><path class="cls-2" d="M5.36,20.08c0,2.58,4,3.94,7.88,3.94s7.87-1.36,7.87-3.94v-2c0,2.59-4,3.94-7.87,3.94S5.36,20.7,5.36,18.11Z"/><path d="M13.24,12.21c3.91,0,7.87-1.36,7.87-3.94s-4-3.94-7.87-3.94"/><path d="M13.24,16.14c3.91,0,7.87-1.35,7.87-3.93v-2c0,2.58-4,3.94-7.87,3.94"/><path d="M13.24,20.08c3.91,0,7.87-1.35,7.87-3.94v-2c0,2.58-4,3.93-7.87,3.93"/><path d="M13.24,24c3.91,0,7.87-1.36,7.87-3.94v-2c0,2.59-4,3.94-7.87,3.94"/></svg>