<svg width="28" height="33" viewBox="0 0 28 33" fill="none" xmlns="http://www.w3.org/2000/svg">
<path fill-rule="evenodd" clip-rule="evenodd" d="M12.4033 31.8196C7.68018 31.8196 0.947754 27.0941 0.947754 19.8965C0.947754 16.0747 2.24219 14.2794 3.50251 12.5314C4.61571 10.9874 5.70228 9.4804 5.84672 6.64645C7.38754 7.27271 8.4897 8.75491 8.68018 10.651C10.7333 8.87386 11.3925 3.86102 9.9964 0.306641C13.1797 1.28438 20.8622 4.45913 20.2052 15.3355C21.417 15.3355 22.0345 13.8522 22.3181 11.5161C25.5014 18.0943 23.4892 31.8196 12.4033 31.8196ZM12.2109 27.2134C9.86006 27.2134 5.65541 25.3435 5.65541 21.5163C5.65541 19.4748 6.28478 18.3061 6.89535 17.1724C7.42944 16.1807 7.94914 15.2156 8.02066 13.7165C8.78757 14.0495 9.76525 14.7293 9.86006 15.7376C10.8819 14.7926 13.3742 11.4347 12.6793 9.54473C14.2637 10.0646 16.692 13.4778 16.3649 19.2612C16.9611 19.4187 17.7599 18.8359 18.2704 17.8424C19.8548 21.3402 17.7286 27.2134 12.2109 27.2134Z" fill="black"/>
<path fill-rule="evenodd" clip-rule="evenodd" d="M14.7505 32.0782C10.0273 32.0782 5.29492 29.0941 5.29492 21.8965C5.29492 18.1031 6.84794 16.8617 8.36206 15.6514C9.72081 14.5653 11.0482 13.5043 11.1939 10.6464C11.8441 10.9107 12.0601 10.9713 12.1068 11.0955C12.1707 11.2656 11.9172 11.5551 12.0273 12.651C14.0805 10.8739 14.7397 6.86102 13.3436 3.30664C16.5269 4.28438 25.1746 6.98421 24.5176 17.8606C25.7294 17.8606 26.3817 16.8522 26.6653 14.5161C29.8486 21.0943 25.8364 32.0782 14.7505 32.0782ZM16.5581 30.2134C14.2072 30.2134 10.0026 28.3435 10.0026 24.5163C10.0026 22.4748 10.6319 21.3061 11.2425 20.1724C11.7766 19.1807 12.2963 18.2156 12.3678 16.7165C13.1347 17.0495 14.1124 17.7293 14.2072 18.7376C15.2291 17.7926 17.7213 14.4347 17.0264 12.5447C18.6109 13.0646 21.0391 16.4778 20.7121 22.2612C21.3082 22.4187 22.1071 21.8359 22.6175 20.8424C24.2019 24.3402 22.0758 30.2134 16.5581 30.2134Z" fill="#D9D9D9"/>
<path fill-rule="evenodd" clip-rule="evenodd" d="M14.4033 32.0999C9.68018 32.0999 2.94775 28.3744 2.94775 21.1768C2.94775 17.3367 3.96995 15.5425 4.97037 13.7866C5.84504 12.2513 6.70306 10.7453 6.84672 7.92672C8.38754 8.55299 9.4897 10.0352 9.68018 11.9313C11.7333 10.1541 13.3925 6.14129 11.9964 2.58691C15.1797 3.56466 22.8622 6.7394 22.2052 17.6158C23.417 17.6158 24.0345 16.1325 24.3181 13.7964C27.5014 20.3745 25.4892 32.0999 14.4033 32.0999ZM14.2109 29.4937C11.8601 29.4937 7.65541 27.6238 7.65541 23.7966C7.65541 21.7551 8.28478 20.5864 8.89535 19.4527C9.42944 18.4609 9.94914 17.4959 10.0207 15.9968C10.7876 16.3298 11.7653 17.0096 11.8601 18.0179C12.8819 17.0729 15.3742 13.715 14.6793 11.825C16.2637 12.3449 18.692 15.7581 18.3649 21.5415C18.9611 21.699 19.7599 21.1162 20.2704 20.1226C21.8548 23.6204 19.7286 29.4937 14.2109 29.4937Z" fill="#FFFF32"/>
<path d="M7.65527 23.7968C7.65527 27.624 11.8599 29.4938 14.2107 29.4938C19.7285 29.4938 21.8546 23.6206 20.2702 20.1228C19.7598 21.1164 18.9609 21.6992 18.3648 21.5417C18.6918 15.7583 16.2636 12.3451 14.6791 11.8252C15.374 13.7152 12.8818 17.0731 11.8599 18.0181C11.7651 17.0098 10.7874 16.33 10.0205 15.997C9.86724 19.2099 7.65527 19.9695 7.65527 23.7968Z" fill="black"/>
</svg>
