<svg width="22" height="28" viewBox="0 0 22 28" fill="none" xmlns="http://www.w3.org/2000/svg">
<path d="M0.655762 16.8966C0.655762 22.7444 5.31318 25.7713 9.15059 25.7713C13.9339 25.7713 17.8566 21.7485 17.8566 16.8966C17.8566 10.6311 11.3017 1.92396 6.19504 0.355469C7.41237 9.72971 0.655762 9.73397 0.655762 16.8966Z" fill="black"/>
<path d="M4.65576 18.8966C4.65576 24.7444 9.31318 27.7713 13.1506 27.7713C17.9339 27.7713 21.8566 23.7485 21.8566 18.8966C21.8566 12.6311 15.3017 3.92396 10.195 2.35547C11.4124 11.7297 4.65576 11.734 4.65576 18.8966Z" fill="#D9D9D9"/>
<path d="M2.65576 18.8966C2.65576 24.7444 7.31318 27.7713 11.1506 27.7713C15.9339 27.7713 19.8566 23.7485 19.8566 18.8966C19.8566 12.6311 13.3017 3.92396 8.19504 2.35547C9.41237 11.7297 2.65576 11.734 2.65576 18.8966Z" fill="#31CED8"/>
<path d="M4.63184 19.6152C4.63184 23.6131 8.62286 25.3884 10.994 25.3884C14.3882 25.3884 17.7074 23.0847 17.7074 19.6152C17.7074 19.6152 15.3008 23.6152 11.1696 23.6152C7.03843 23.6152 4.63184 19.6152 4.63184 19.6152Z" fill="black"/>
</svg>
