<?xml version="1.0" encoding="utf-8"?>
<!-- Generator: Adobe Illustrator 24.0.0, SVG Export Plug-In . SVG Version: 6.00 Build 0)  -->
<svg version="1.1" id="Capa_1" xmlns="http://www.w3.org/2000/svg" xmlns:xlink="http://www.w3.org/1999/xlink" x="0px" y="0px"
	 viewBox="0 0 65.9 63.6" style="enable-background:new 0 0 65.9 63.6;" xml:space="preserve">
<style type="text/css">
	.st0{fill:#FFFFFF;}
	.st1{fill:#FFFFFF;filter:url(#Adobe_OpacityMaskFilter);}
	.st2{mask:url(#mask0_501_158_1_);}
</style>
<g>
	<path class="st0" d="M17.8,26.4c5.3,0,9.6-4.3,9.6-9.5c0-5.3-4.3-9.5-9.6-9.5c-5.3,0-9.6,4.3-9.6,9.5C8.2,22.2,12.5,26.4,17.8,26.4
		z M24.6,28.8h-1.3c-1.7,0.8-3.5,1.2-5.5,1.2c-2,0-3.8-0.4-5.5-1.2h-1.3C5.5,28.8,1,33.3,1,38.8v3.1c0,2,1.6,3.6,3.6,3.6h26.5
		c2,0,3.6-1.6,3.6-3.6v-3.1C34.7,33.3,30.2,28.8,24.6,28.8z"/>
</g>
<g>
	<path class="st0" d="M51.5,39.8c-0.3,0-0.5-0.1-0.7-0.4c-0.1-0.2-0.1-0.5,0-0.8l1.6-2.6c0.2-0.4,0.7-0.5,1-0.3
		c0.4,0.2,0.5,0.7,0.3,1l-0.8,1.4c4.7-0.7,8.4-4.7,8.4-9.7c0-0.4,0.3-0.8,0.8-0.8s0.8,0.3,0.8,0.8C62.8,34.7,57.7,39.8,51.5,39.8z
		 M32,20.3c-0.4,0-0.8-0.3-0.8-0.8c0-6.2,5-11.2,11.3-11.2c0.3,0,0.5,0.1,0.7,0.4c0.1,0.2,0.1,0.5,0,0.8L41.6,12
		c-0.2,0.4-0.7,0.5-1,0.3c-0.4-0.2-0.5-0.7-0.3-1l0.8-1.4c-4.7,0.7-8.4,4.7-8.4,9.7C32.8,19.9,32.4,20.3,32,20.3z"/>
</g>
<g>
	<path class="st0" d="M56.5,24.6c-4.4,0-8.1-3.1-8.1-6.9v-4c0-0.4,0.3-0.8,0.8-0.8s0.8,0.3,0.8,0.8c0,2.9,2.8,5,6.6,5s6.6-2.2,6.6-5
		c0-0.4,0.3-0.8,0.8-0.8s0.8,0.3,0.8,0.8v4C64.6,21.5,60.9,24.6,56.5,24.6z M49.9,17.6v0.1c0,3,2.9,5.4,6.6,5.4s6.6-2.4,6.6-5.4
		v-0.1c-1.4,1.6-3.8,2.6-6.6,2.6S51.4,19.2,49.9,17.6z"/>
</g>
<g>
	<path class="st0" d="M56.5,14.8c-3.1,0-5.8-1.3-7.2-3.5c-0.6-0.9-0.9-2-0.9-3.1c0-1.9,0.9-3.6,2.4-4.9c1.5-1.3,3.5-2,5.7-2
		c2.1,0,4.1,0.7,5.7,2c1.6,1.3,2.4,3.1,2.4,4.9c0,1.1-0.3,2.2-0.9,3.1C62.3,13.5,59.6,14.8,56.5,14.8z M56.5,2.9
		c-1.8,0-3.4,0.6-4.7,1.6c-1.2,1-1.9,2.3-1.9,3.7c0,0.8,0.2,1.6,0.7,2.3c1.1,1.7,3.3,2.8,5.9,2.8s4.8-1.1,5.9-2.8
		c0.4-0.7,0.7-1.5,0.7-2.3c0-1.4-0.7-2.7-1.9-3.8C59.9,3.5,58.3,2.9,56.5,2.9z"/>
</g>
<g>
	<path class="st0" d="M56.5,20.3c-4.6,0-8.1-2.8-8.1-6.5V8.3c0-3.8,3.6-6.9,8.1-6.9c2.1,0,4.1,0.7,5.7,2c1.6,1.3,2.4,3.1,2.4,4.9
		v5.4C64.6,17.4,61.1,20.3,56.5,20.3z M56.5,2.9c-3.6,0-6.6,2.4-6.6,5.4v5.4c0,2.9,2.8,5,6.6,5s6.6-2.2,6.6-5V8.3
		c0-1.4-0.7-2.7-1.9-3.8C59.9,3.5,58.3,2.9,56.5,2.9z"/>
</g>
<defs>
	<filter id="Adobe_OpacityMaskFilter" filterUnits="userSpaceOnUse" x="1" y="50" width="63" height="12">
		<feColorMatrix  type="matrix" values="1 0 0 0 0  0 1 0 0 0  0 0 1 0 0  0 0 0 1 0"/>
	</filter>
</defs>
<mask maskUnits="userSpaceOnUse" x="1" y="50" width="63" height="12" id="mask0_501_158_1_">
	<path class="st1" d="M44.4,71c2.5,0,4.9,0,7.4,0c0.2-0.6,0.5-1,0.8-1.5c0.5-0.9,1.1-1.7,1.7-2.5c0.6-0.9,1.2-1.9,1.8-2.8
		c0.7-1,1.3-2.1,2.1-3c0.2-0.2,0.3-0.6,0.3-0.9l0,0c-0.1-0.1-0.3,0-0.4-0.2c0.1-0.3,0.2-0.6,0.5-0.8c0.3-0.3,0.3-0.7,0.2-1.1
		c-0.2-0.5-0.4-1.1-0.7-1.5c-0.9-1.1-1.8-2.1-2.8-3.1c-1-1-2.1-2-3.2-3c-0.7-0.6-1.4-1.3-2.2-1.9c-1.4-1.2-2.9-2.3-4.6-3.2
		c-0.7-0.4-1.4-0.8-2.2-0.8c-0.2,0.4-0.2,0.7-0.3,1.1c-0.6,2.4-1.2,4.9-1.9,7.3c-0.2,0.8-0.5,1.7-0.8,2.5c-0.5,1.6-1.1,3.2-1.7,4.7
		c-0.4,1-0.9,1.9-1.1,3.1c0.9-0.4,1.9-0.5,2.8-0.6c2.7-0.2,5.3-0.6,8-1.1c2.5-0.4,5.1-0.7,7.6-1.2c0.4-0.1,0.9-0.3,1.3-0.1
		c-1.3,0.4-2.6,0.7-4,0.9c-0.8,0.1-1.5,0.1-2.3,0.3c-3,0.6-5.9,1.1-9,1.3c-1.5,0.1-2.9,0.5-4.4,0.9c0,0.2,0,0.3,0,0.3
		c0.3,1.1,1.3,1.7,2.1,2.3c0.6,0.5,1.3,1.1,1.9,1.6c0.8,0.8,1.6,1.5,2.4,2.2C44.1,70.5,44.3,70.7,44.4,71z M42.8,65.2L42.8,65.2
		L42.8,65.2L42.8,65.2L42.8,65.2z M39.3,61.6C39.4,61.6,39.4,61.5,39.3,61.6c0.1-0.1,0.1-0.1,0.1-0.1C39.5,61.6,39.5,61.6,39.3,61.6
		C39.4,61.7,39.4,61.6,39.3,61.6z M43.8,68.1c0.1,0,0.1,0,0.1,0.1c0,0,0,0-0.1,0C43.7,68.2,43.7,68.2,43.8,68.1
		C43.7,68.1,43.8,68.1,43.8,68.1z M45.6,63.6C45.7,63.6,45.7,63.6,45.6,63.6c0,0.1,0,0.1,0,0.1C45.6,63.7,45.5,63.7,45.6,63.6
		C45.6,63.6,45.6,63.6,45.6,63.6z M45.4,68.2C45.4,68.2,45.4,68.1,45.4,68.2c0.1-0.1,0.1-0.1,0.1,0C45.5,68.2,45.5,68.2,45.4,68.2
		C45.4,68.2,45.4,68.2,45.4,68.2z M44.4,67.1C44.4,67.1,44.5,67,44.4,67.1C44.6,67.1,44.6,67.1,44.4,67.1
		C44.5,67.2,44.5,67.2,44.4,67.1C44.4,67.1,44.4,67.1,44.4,67.1z M46.4,67.1C46.4,67.1,46.3,67.2,46.4,67.1c-0.2,0-0.2,0-0.1-0.1
		C46.3,67,46.3,67,46.4,67.1C46.4,67.1,46.4,67.1,46.4,67.1z M42.1,64.1L42.1,64.1l-0.1,0L42.1,64.1z M41.4,65.7L41.4,65.7
		L41.4,65.7L41.4,65.7z"/>
	<path class="st0" d="M21.2,71c0.2-0.4,0.6-0.5,0.9-0.7c0.5-0.3,1-0.5,1.5-0.7c1.5-0.6,3-1.5,4.6-2c0.1,0,0.2,0,0.3-0.1
		c1.6-0.9,3.3-1.5,5-2.4c0.5-0.2,0.7-0.6,1-1c0-0.6-0.4-1.1-0.7-1.5c-0.6-0.9-1.4-1.6-2.1-2.4c-1-1.1-2.1-2.2-3.1-3.2
		c-1.3-1.3-2.7-2.6-4.2-3.8c-0.4-0.3-0.8-0.3-1.3-0.3c-1.3,0.2-2.4,0.7-3.5,1.6c-1.8,1.5-3.5,3.1-5.2,4.6c-1.7,1.5-3.3,3.2-4.9,4.8
		c-2.1,2.1-4,4.3-6,6.4C3.3,70.5,3.1,70.7,3,71c4.7,0,9.3,0,14,0c0-0.1,0-0.1,0-0.2c-0.1,0-0.3,0-0.3-0.2c0.2-0.1,0.2,0.1,0.3,0.2
		c0.1,0.1,0.1,0.1,0.2,0.2C18.6,71,19.9,71,21.2,71z M22.4,62.4c-0.1,0-0.1,0-0.1,0S22.4,62.4,22.4,62.4z M15.2,61.8
		c-0.1-0.1-0.2-0.1-0.2-0.3C15.2,61.5,15.2,61.7,15.2,61.8L15.2,61.8L15.2,61.8z M13.6,61.4c0.2-0.2,0.3,0,0.5,0
		c0.1,0,0.3,0.1,0.3,0.3C14,61.8,13.8,61.7,13.6,61.4z M12.5,63.7c-0.4-0.1-0.7-0.3-1-0.7C12.1,63.1,12.3,63.4,12.5,63.7z
		 M13.2,64.1c0.1,0,0.2,0,0.2,0.1c0,0,0,0.1-0.1,0C13.3,64.3,13.2,64.2,13.2,64.1z M30.1,64.4c0,0-0.1-0.1-0.1-0.1
		c0-0.1,0-0.1,0.1-0.1c0,0,0,0,0.1,0.1C30.1,64.3,30.1,64.4,30.1,64.4z M15.4,60.8c-0.1,0-0.1,0-0.1-0.1c0,0,0-0.1,0.1-0.1
		c0.1,0,0.1,0,0.1,0.1C15.5,60.7,15.4,60.8,15.4,60.8z M17,59.1c-0.1,0.1-0.2,0-0.2-0.1c0,0,0-0.1,0-0.1C16.9,58.9,17,58.9,17,59.1z
		 M27.2,57.2c0.1-0.1,0.2,0,0.2,0.1c0,0,0,0.1,0,0.1C27.3,57.3,27.2,57.3,27.2,57.2z M20.5,56.5C20.5,56.5,20.5,56.5,20.5,56.5
		c-0.1-0.1,0-0.1,0-0.1C20.5,56.4,20.6,56.5,20.5,56.5C20.6,56.5,20.6,56.5,20.5,56.5z M27,67.1C27,67.1,27,67.1,27,67.1
		C26.9,67,27,67,27,67C27,67,27,67,27,67.1C27,67,27,67.1,27,67.1z M32.2,64.9C32.2,64.9,32.2,64.9,32.2,64.9
		c0.1-0.1,0.1-0.1,0.1-0.1C32.4,64.9,32.3,65,32.2,64.9C32.3,65,32.2,64.9,32.2,64.9z M14.3,60.3L14.3,60.3L14.3,60.3L14.3,60.3z
		 M30.6,65.3L30.6,65.3L30.6,65.3L30.6,65.3z"/>
	<path class="st0" d="M48,40.6c-0.4,0.6-1.1,0.9-1.7,1.2c-0.7,0.4-1.2,0.9-1.7,1.3c0,0.6,0.4,1,0.8,1.3c0.6,0.6,1.2,1.1,2,1.5
		c0.6,0.3,1.1,0.8,1.6,1.3c1.8,1.6,3.6,3.2,5.3,4.8c1.7,1.5,3.2,3.3,4.7,5c0.8,0.9,1.8,0.7,2.3-0.4c0.7-1.6,1.5-3.2,2.1-4.8
		c0.1-0.3,0.2-0.6,0.5-0.8c0-5.9,0-11.9,0-17.8c-1.1,0.3-2.2,0.7-3.1,1.2c-1.5,0.7-3,1.3-4.4,2c-1.7,0.8-3.4,1.6-5,2.4
		c-0.3,0.2-0.6,0.4-1,0.4l0,0c-0.5,0.4-1.1,0.8-1.6,1.2C48.6,40.5,48.3,40.7,48,40.6L48,40.6z"/>
	<path class="st0" d="M46.6,9.8c-0.5,0.6-1.1,0.8-1.7,1.1c-0.5,0.2-1,0.3-1.5,0.7c0.4,0.6,1,0.9,1.5,1.3c1.1,1,2.3,1.9,3.3,3
		c0.4,0.4,1.1,0.6,1.2,1.4l0,0c0.5,0.1,0.8,0.3,1.1,0.7c0.2,0.4,0.6,0.6,0.9,0.9c0.6,0.5,1.1,1,1.6,1.6c0.7,0.7,1.4,1.3,2,2
		c0.6,0.6,1,1.4,1.7,1.9c0.2,0.2,0.3,0.5,0.3,0.7l0,0c0.6,0.3,1.1,0.7,1.2,1.4l0,0c0.1,0.1,0.2,0.2,0.2,0.2l0,0
		c0.6,0.2,0.9,0.7,1,1.2l0,0c0.1,0.1,0.2,0.2,0.2,0.2l0,0c0.4,0.4,0.9,0.7,1,1.2l0,0c0.2,0.1,0.2,0.3,0.2,0.4l0,0
		c0.3,0.2,0.5,0.5,0.6,0.8l0,0c0.3,0,0.4,0.2,0.4,0.4l0,0c0.5,0.7,1,1.4,1.5,2.2c0.3-0.1,0.5-0.1,0.7-0.2C64,24.9,64,17,64,9
		c-5.3,0-10.7,0-16,0c-0.1,0.3-0.3,0.4-0.6,0.4l0,0c-0.1,0.2-0.3,0.2-0.4,0.2l0,0C46.9,9.8,46.7,9.8,46.6,9.8L46.6,9.8z"/>
	<path class="st0" d="M0,58.8c0.5,0,1-0.2,1.4-0.4c2.5-1.1,5.1-1.8,7.7-2.7c2-0.7,4-1.2,6-1.9c1.8-0.7,3.8-1.1,5.6-1.6
		c0.9-0.2,1.1-0.4,1.6-1.1c0.1-0.4-0.2-0.8-0.5-1c-0.9-0.9-1.7-1.7-2.7-2.5c-1.4-1.3-2.8-2.5-4.2-3.8c-1.6-1.4-3.2-2.7-4.9-3.9
		c-0.8-0.6-1.3-0.6-2.2,0c-0.9,0.6-1.6,1.5-2.2,2.4c-0.6,0.8-1.2,1.7-1.8,2.5c-0.7,0.9-1.3,1.9-2,2.9c-0.6,0.9-1.2,1.8-1.9,2.7
		c0,2.1,0,4.3,0,6.4c0.1,0,0.2,0.1,0.2,0.2C0.3,57,0.1,57,0,57C0,57.6,0,58.2,0,58.8z M11.2,43L11.2,43L11.2,43L11.2,43z M5.2,43.8
		L5.2,43.8L5.2,43.8c0.1,0,0.1,0,0.1,0C5.3,43.8,5.3,43.8,5.2,43.8z M8.4,42.8c0,0-0.2,0.1-0.2-0.1C8.3,42.7,8.3,42.8,8.4,42.8
		c0,0,0.1,0,0.2,0.1C8.5,42.9,8.5,42.8,8.4,42.8z M2.8,53.2c-0.1,0-0.1,0-0.1-0.1C2.7,53.2,2.7,53.2,2.8,53.2
		c0.1,0.1,0.3,0.1,0.4,0.2c0.3,0,0.6,0.1,1,0.3c-0.5,0.3-0.7-0.1-0.9-0.3C3.1,53.4,2.9,53.3,2.8,53.2z M7.8,51.8
		c-0.1,0-0.2,0.1-0.2-0.1C7.7,51.7,7.7,51.7,7.8,51.8L7.8,51.8z M10.8,51c-0.1,0-0.1,0-0.1,0C10.7,51,10.8,51,10.8,51L10.8,51z
		 M12.8,46.6c-0.1,0-0.3,0.1-0.4-0.1C12.6,46.4,12.7,46.5,12.8,46.6L12.8,46.6z M11.6,47.8c-0.1,0-0.2,0-0.3-0.2
		C11.5,47.6,11.5,47.7,11.6,47.8L11.6,47.8L11.6,47.8z M12.8,44.6c-0.1,0-0.2,0-0.4-0.1C12.6,44.4,12.7,44.5,12.8,44.6
		C12.8,44.6,12.9,44.6,12.8,44.6C12.9,44.7,12.8,44.6,12.8,44.6z M9.6,49.8c0.1,0.1,0.2,0.1,0.2,0.3C9.6,50,9.7,49.9,9.6,49.8
		L9.6,49.8L9.6,49.8z M6,46.6c0.1,0,0.2,0,0.2,0.2C6.1,46.8,6.1,46.7,6,46.6C6,46.6,5.9,46.6,6,46.6C5.9,46.5,6,46.6,6,46.6z
		 M3.2,47.6c-0.2,0.1-0.4,0.2-0.6,0.2c-0.1,0-0.1,0.1-0.1,0c0,0,0,0,0.1,0C2.7,47.4,2.9,47.4,3.2,47.6c0,0.1,0.2,0,0.1,0.3
		C3.3,47.7,3.3,47.7,3.2,47.6z M10.6,47.8c-0.3,0-0.6,0-0.8-0.3C10.2,47.4,10.4,47.6,10.6,47.8c0,0.1,0.2,0.1,0.1,0.3
		C10.6,48,10.7,47.9,10.6,47.8z M0.6,51.6c0.3,0.1,0.4,0.2,0.1,0.5C0.5,51.9,0.6,51.8,0.6,51.6L0.6,51.6z M6.4,55.2L6.4,55.2
		c-0.1,0.4-0.1,0.4-0.4,0.4C6.1,55.3,6.3,55.3,6.4,55.2z M8.2,50.4c-0.3,0-0.7,0-0.8-0.5C7.8,50,8,50.2,8.2,50.4
		c0.1,0.1,0.4,0,0.3,0.3C8.3,50.7,8.3,50.5,8.2,50.4z M4.8,49.6c0.3,0,0.7,0,0.9,0.3C5.4,49.8,5.1,49.8,4.8,49.6
		c0-0.1-0.2,0-0.2-0.1C4.7,49.5,4.8,49.6,4.8,49.6z M8.2,48c-0.3,0.2-0.6,0-0.9-0.3C7.7,47.7,8,47.8,8.2,48c0,0,0.1,0,0.2,0.1
		C8.3,48.1,8.3,48,8.2,48z M16,51.4c0.3,0,0.6,0.1,0.9,0.5C16.4,51.9,16.2,51.7,16,51.4L16,51.4L16,51.4z M10.8,54.2
		c-0.2,0.1-0.5,0.3-0.7-0.1C10.4,53.9,10.6,53.7,10.8,54.2C10.8,54.2,10.9,54.2,10.8,54.2C10.9,54.3,10.9,54.2,10.8,54.2z
		 M14.6,50.6c-0.8-0.1-1.5-0.2-2.1-0.7C13.1,50.3,14.1,49.5,14.6,50.6z M8.6,51.4c0.8,0,1.2,0.4,1.7,0.8C9.5,52.5,9.3,51.8,8.6,51.4
		z M12.4,42.8c-0.5-0.3-1.1-0.3-1.6-0.8C11.5,42.1,12,42,12.4,42.8z M8.5,54c0.6,0.1,0.7,0.4,0.7,0.9C8.8,54.8,8.7,54.4,8.5,54z
		 M5.8,48.1c-0.5,0-0.5,0-0.9-0.3C5.2,47.7,5.5,47.7,5.8,48.1z M18.2,50.6c-0.6,0.1-0.6,0.1-0.9-0.3C17.5,50.4,17.8,50.5,18.2,50.6z
		 M11.4,53.1c-0.3,0.3-0.5,0.2-0.8,0C10.9,52.9,11.1,52.8,11.4,53.1z M6.9,48.9c-0.3,0-0.4-0.1-0.5-0.4C6.7,48.5,6.9,48.5,6.9,48.9z
		 M6.2,50.6c0.4,0.1,0.6,0.2,0.7,0.6C6.6,51,6.4,50.9,6.2,50.6z M11.9,49.3c-0.3,0-0.5,0-0.6-0.2C11.5,48.9,11.7,48.9,11.9,49.3z
		 M5.2,51.5c0.3,0,0.4,0.1,0.2,0.4C5.3,51.8,5.1,51.8,5.2,51.5z M0.4,53.6c0.4,0.3,0.4,0.3,0.5,0.6C0.6,54.1,0.5,54,0.4,53.6z
		 M15.2,53c0,0,0.1-0.1,0.1-0.1c0,0,0.1,0,0.1,0.1c0,0.1-0.1,0.2-0.2,0.1C15.3,53.1,15.2,53,15.2,53z M8.6,46.2
		C8.8,46,8.9,46.1,9,46.3C8.8,46.4,8.6,46.4,8.6,46.2z M7.8,54.9c-0.1,0.3-0.2,0.3-0.4,0.1C7.5,54.8,7.6,54.7,7.8,54.9z M19.2,48.9
		c0.2-0.2,0.3-0.1,0.4,0.2C19.4,49.2,19.3,49.2,19.2,48.9z M9.6,42.9c0.2-0.1,0.4-0.1,0.4,0.2C9.8,43.2,9.7,43.2,9.6,42.9z
		 M13.8,43.7c-0.2,0.1-0.3,0.1-0.4-0.3C13.6,43.5,13.8,43.4,13.8,43.7z M6.5,54.3c-0.1,0-0.1-0.1-0.2-0.1c0,0,0-0.1,0.1-0.1
		c0.1,0,0.2,0,0.2,0.1C6.6,54.2,6.6,54.3,6.5,54.3z M8.6,41.7c-0.3,0.1-0.4,0.1-0.4-0.2C8.4,41.4,8.5,41.5,8.6,41.7z M17.5,51.3
		c0,0,0.1,0.1,0.1,0.1c0,0-0.1,0.1-0.1,0.1c-0.1,0-0.2-0.1-0.1-0.2C17.4,51.3,17.5,51.3,17.5,51.3z M18.7,51.9
		c0.1-0.1,0.3-0.1,0.3,0.1C18.8,52.1,18.7,52,18.7,51.9z M14,52.1c-0.2,0.1-0.4,0.1-0.5,0C13.7,52,13.8,52,14,52.1z M2.2,52.3
		c0.2,0,0.3,0,0.3,0.2C2.4,52.5,2.3,52.5,2.2,52.3z M6.4,52.8c0-0.1,0-0.1,0.1-0.1c0.1,0,0.1,0,0.2,0.1c0,0,0,0.1-0.1,0.1
		C6.5,52.9,6.5,52.8,6.4,52.8z M11.6,44.5c-0.2,0-0.3,0-0.4-0.2C11.4,44.3,11.5,44.3,11.6,44.5z M8.4,44.7c0.2,0,0.4,0,0.3,0.2
		C8.6,44.9,8.5,44.9,8.4,44.7z M3.8,45.9c0-0.2,0.2-0.2,0.3-0.1C4.1,45.9,4,45.9,3.8,45.9z M10.4,49.4c0,0.1,0,0.1-0.1,0.1
		c0,0-0.1,0-0.1,0c-0.1-0.1,0-0.1,0-0.1C10.3,49.3,10.3,49.4,10.4,49.4z M16.3,49.7c-0.2-0.1-0.4,0-0.4-0.2
		C16,49.4,16.1,49.5,16.3,49.7z M12.6,52.9C12.6,52.9,12.6,52.9,12.6,52.9c-0.1-0.1-0.1-0.1-0.1-0.1C12.6,52.7,12.7,52.7,12.6,52.9
		C12.7,52.8,12.7,52.9,12.6,52.9z M3.4,47c-0.1,0.1-0.2,0-0.2-0.1c0,0,0-0.1,0-0.1C3.4,46.9,3.4,46.9,3.4,47z M1,56.8
		C1,56.8,1,56.8,1,56.8C1,56.8,1.1,56.8,1,56.8C1.1,56.8,1.1,56.9,1,56.8C1,56.9,1,56.8,1,56.8z M18.4,48.5c-0.1,0-0.1,0-0.1,0
		c-0.1,0-0.1-0.1,0-0.2C18.4,48.3,18.4,48.4,18.4,48.5z M6.6,44C6.6,43.9,6.6,43.9,6.6,44c0.1-0.1,0.2-0.1,0.2-0.1
		c0.1,0.1,0.1,0.1,0,0.1C6.7,44.1,6.7,44,6.6,44z M1.6,54.9c-0.1-0.1-0.2,0-0.2-0.2C1.6,54.7,1.6,54.8,1.6,54.9z M10.6,48.7
		c-0.1,0-0.1,0-0.1-0.1c0-0.1,0-0.1,0.1-0.1c0,0,0.1,0,0.1,0C10.6,48.6,10.6,48.7,10.6,48.7z M14.2,45.7c-0.1,0-0.1-0.1-0.1-0.2
		c0,0,0.1,0,0.1,0C14.2,45.5,14.3,45.6,14.2,45.7z M10.4,45.6c-0.1-0.1-0.1-0.1,0-0.1c0,0,0.1,0,0.1,0c0,0,0,0.1,0,0.1
		C10.6,45.7,10.5,45.6,10.4,45.6z M5,53.1c-0.1,0.1-0.2,0-0.2,0c0,0,0-0.1,0-0.1C4.9,53,5,53,5,53.1z M15,46.2
		c-0.1-0.1-0.1-0.1,0-0.2c0,0,0.1,0,0.1,0C15.1,46,15,46.1,15,46.2z M7.6,52.4C7.6,52.4,7.6,52.4,7.6,52.4
		C7.6,52.5,7.6,52.5,7.6,52.4C7.6,52.5,7.6,52.4,7.6,52.4C7.6,52.4,7.6,52.4,7.6,52.4z M16.4,46.2C16.4,46.2,16.4,46.2,16.4,46.2
		C16.4,46.3,16.4,46.3,16.4,46.2C16.4,46.3,16.4,46.2,16.4,46.2C16.4,46.2,16.4,46.2,16.4,46.2z M17.3,52.2
		C17.4,52.1,17.4,52.2,17.3,52.2C17.4,52.2,17.4,52.3,17.3,52.2C17.4,52.3,17.3,52.2,17.3,52.2z M7.3,47.1C7.3,47,7.4,47,7.3,47.1
		C7.4,47,7.4,47.1,7.3,47.1C7.4,47.1,7.4,47.1,7.3,47.1z M12.7,43.3C12.7,43.3,12.7,43.2,12.7,43.3c0.2,0,0.2,0,0.1,0.1
		C12.8,43.4,12.7,43.3,12.7,43.3C12.7,43.3,12.7,43.3,12.7,43.3z M13.1,51.3C13.1,51.3,13.2,51.3,13.1,51.3
		C13.2,51.3,13.2,51.3,13.1,51.3C13.1,51.3,13.1,51.3,13.1,51.3C13.1,51.3,13.1,51.3,13.1,51.3z M0.3,55.8
		C0.3,55.8,0.4,55.8,0.3,55.8c0.1,0,0.1,0,0.1,0C0.5,55.9,0.4,55.9,0.3,55.8C0.3,55.9,0.3,55.8,0.3,55.8z M4.4,55.7
		c-0.1-0.1,0-0.1,0-0.1C4.5,55.6,4.5,55.6,4.4,55.7C4.5,55.7,4.5,55.7,4.4,55.7z M3.6,55.2C3.6,55.2,3.6,55.2,3.6,55.2
		c0-0.1,0-0.1,0-0.1C3.7,55.1,3.7,55.2,3.6,55.2C3.7,55.2,3.7,55.2,3.6,55.2z M5.3,54.2c0.1,0.1,0,0.1,0,0.1
		C5.2,54.3,5.2,54.2,5.3,54.2C5.2,54.2,5.2,54.2,5.3,54.2z M7.8,53.7C7.8,53.7,7.9,53.7,7.8,53.7c0.1,0.1,0.1,0.1,0.1,0.1
		C7.9,53.8,7.8,53.8,7.8,53.7C7.8,53.8,7.8,53.7,7.8,53.7z M1.3,51.1C1.3,51.1,1.4,51.1,1.3,51.1C1.3,51.2,1.3,51.2,1.3,51.1
		C1.3,51.1,1.3,51.1,1.3,51.1z M12.3,53.9C12.3,53.9,12.3,53.9,12.3,53.9c-0.1,0-0.1,0-0.1,0C12.2,53.8,12.3,53.8,12.3,53.9
		C12.3,53.8,12.3,53.8,12.3,53.9z M13.2,53.7C13.2,53.7,13.3,53.7,13.2,53.7c0.1,0.1,0.1,0.1,0,0.1C13.2,53.8,13.2,53.8,13.2,53.7
		C13.2,53.8,13.2,53.7,13.2,53.7z M8.6,51.1C8.7,51.1,8.7,51.1,8.6,51.1c0.1-0.1,0.1-0.1,0.1-0.1C8.8,51.1,8.8,51.1,8.6,51.1
		C8.7,51.2,8.7,51.1,8.6,51.1z M15.4,50.7L15.4,50.7L15.4,50.7L15.4,50.7z M3.8,48.7L3.8,48.7L3.8,48.7L3.8,48.7z"/>
	<path class="st0" d="M2.4,71c0.1-0.6,0.7-1,1-1.4c0.5-0.6,1-1.1,1.5-1.7c0.8-0.9,1.6-1.7,2.4-2.5c0.4-0.5,0.9-1,1.4-1.4
		c0.7-0.6,1.3-1.3,2-1.9c0.8-0.7,1.5-1.5,2.3-2.2c0.7-0.6,1.4-1.3,2-1.9c1.6-1.4,3.1-3,4.8-4.2c0.1-0.1,0.4-0.1,0.4-0.4
		c-0.2-0.2-0.4-0.1-0.7-0.1c-0.8,0.2-1.6,0.3-2.4,0.5c-2,0.6-4,1.3-6,1.9C9,56.2,7,57,5,57.7c-1.7,0.6-3.4,1.1-5,1.9
		c0,0.3,0,0.5,0,0.8c0.1,0,0.3,0,0.4,0.1c0,0.3-0.2,0.3-0.4,0.5c0,1.1,0,2.3,0,3.4c0,0.1,0,0.1,0,0.2c0,1.7,0,3.5,0,5.2
		c0.1,0.1,0.4,0,0.4,0.3c-0.1,0-0.3-0.1-0.4-0.1c0,0.2,0,0.4,0,0.6c0.4-0.1,0.7,0,0.8,0.4C1.4,71,1.9,71,2.4,71z M8,63.8L8,63.8
		L8,63.8L8,63.8z M12.6,58.8L12.6,58.8L12.6,58.8L12.6,58.8L12.6,58.8z M3,62.6c-0.1,0-0.1,0-0.1,0C2.9,62.6,3,62.6,3,62.6L3,62.6z
		 M8.8,62.6c-0.1,0-0.2,0.1-0.2-0.1C8.7,62.5,8.8,62.5,8.8,62.6L8.8,62.6L8.8,62.6z M8,57.8c0,0-0.1-0.1,0-0.2C8,57.7,8,57.8,8,57.8
		c0,0,0.1,0,0.2,0.1C8.1,57.9,8.1,57.8,8,57.8z M9.6,58c-0.2-0.1-0.4-0.1-0.2-0.4C9.6,57.7,9.6,57.9,9.6,58L9.6,58z M10.4,60
		c-0.2-0.2-0.6-0.1-0.7-0.4C10.2,59.4,10.3,59.7,10.4,60c0,0.1,0.2,0.1,0.1,0.3C10.5,60.2,10.5,60.1,10.4,60z M0.9,60.3
		c0.4-0.2,0.6,0,0.8,0.4C1.3,60.9,1.1,60.8,0.9,60.3z M7,61.1c0,0.2-0.1,0.2-0.3,0.2c-0.1,0-0.4,0-0.3-0.3C6.7,60.8,6.9,60.8,7,61.1
		z M7.1,64.2c-0.5,0-0.8-0.2-1-0.5C6.4,63.7,6.7,63.8,7.1,64.2z M13.4,58.5c-0.4-0.1-0.6,0-0.8-0.2C12.9,58.1,13.1,58,13.4,58.5z
		 M8.5,59.1c0.4-0.1,0.5,0,0.6,0.3C8.8,59.5,8.7,59.4,8.5,59.1z M14.7,56.9c0.2-0.3,0.4-0.3,0.7-0.3C15.3,56.8,15.1,56.9,14.7,56.9z
		 M8.1,62.3c-0.2,0-0.4,0-0.4-0.2c0,0,0.1-0.1,0.1-0.1C8,61.9,8,62.1,8.1,62.3z M12.6,57.4c0-0.2,0.1-0.2,0.2-0.2
		c0.1,0,0.2,0.1,0.2,0.2c0,0.1-0.1,0.2-0.2,0.2C12.7,57.5,12.6,57.4,12.6,57.4z M3.5,59.2c-0.1,0-0.2-0.1-0.2-0.2
		c0-0.1,0.1-0.2,0.2-0.2c0.1,0,0.2,0.1,0.2,0.2C3.7,59.2,3.6,59.2,3.5,59.2z M11.3,57.3c0,0.1,0,0.1-0.1,0.2c0,0-0.1,0-0.2-0.1
		c-0.1-0.1,0-0.2,0.1-0.2C11.2,57.2,11.3,57.3,11.3,57.3z M2.9,60c-0.2,0.1-0.3,0-0.3-0.1c0,0,0.1-0.1,0.1-0.1
		C2.9,59.8,2.9,59.8,2.9,60z M5.2,60.9c-0.1,0-0.1-0.1-0.1-0.1c0,0,0-0.1,0.1-0.1c0.1,0,0.2,0,0.2,0.1C5.3,60.8,5.2,60.9,5.2,60.9z
		 M9,61.4c0.1,0.1,0.2,0.2,0.3,0.3c0,0-0.1,0.1-0.1,0.1C9,61.8,9,61.7,9,61.4z M1.5,62.2c0,0,0.1-0.1,0.1-0.1c0,0,0.1,0,0.1,0.1
		c0,0.1,0,0.2-0.1,0.1C1.6,62.3,1.6,62.2,1.5,62.2z M1.7,65.2c0,0.2-0.1,0.2-0.3,0.1C1.5,65.1,1.5,65.1,1.7,65.2z M6.2,62
		c0,0,0.1-0.1,0.1-0.1c0,0,0.1,0.1,0.1,0.1c0,0-0.1,0.1-0.1,0.1C6.3,62.1,6.2,62.1,6.2,62z M7.9,60C7.9,60,7.9,60,7.9,60
		c-0.1,0.1-0.1,0.1-0.1,0C7.8,60,7.8,59.9,7.9,60C7.8,59.9,7.9,60,7.9,60z M11.5,59.7c-0.2,0.1-0.3,0.1-0.2-0.2
		C11.4,59.5,11.4,59.5,11.5,59.7z M5.6,58.9C5.6,58.9,5.6,58.9,5.6,58.9C5.7,59,5.7,59,5.6,59C5.6,59,5.6,59,5.6,58.9
		C5.6,59,5.6,59,5.6,58.9z M10,60.4C10,60.3,10,60.3,10,60.4C10.1,60.3,10.1,60.4,10,60.4C10.1,60.4,10,60.4,10,60.4z M9.9,57
		C9.9,56.9,10,56.9,9.9,57C10.1,56.9,10.1,57,9.9,57C10,57,10,57,9.9,57C9.9,57,9.9,57,9.9,57z M9.5,61C9.5,61,9.6,61,9.5,61
		c0.1,0,0.1,0,0.1,0.1C9.6,61.1,9.6,61.1,9.5,61C9.5,61.1,9.5,61,9.5,61z M5.8,65.1C5.9,65.1,5.9,65.2,5.8,65.1
		C5.8,65.2,5.8,65.2,5.8,65.1C5.7,65.2,5.8,65.1,5.8,65.1z M4.4,63.8C4.4,63.8,4.4,63.8,4.4,63.8c0,0.1,0,0.1,0,0.1
		C4.3,63.9,4.3,63.9,4.4,63.8C4.4,63.8,4.4,63.8,4.4,63.8z M4.2,59.7L4.2,59.7L4.2,59.7L4.2,59.7z"/>
	<path class="st0" d="M15.2,25.2c0.3,0,0.5-0.1,0.7-0.4c-0.2-0.4-0.7-0.2-0.8-0.5c0.4-0.4,0.8,0.2,1.2-0.2c-0.3-0.6-0.9-0.3-1.4-0.6
		c0.6-0.3,1.1,0.2,1.7,0.2c0.8-1.2,1.6-2.5,2.5-3.8c-0.1-0.3-0.3-0.2-0.5-0.2c-1.8,0.1-3.5,0.6-5.2,1.2c-1.9,0.6-3.6,1.4-5.4,2.2
		c-1.8,0.7-3.5,1.6-5.3,2.5c-0.9,0.4-1.6,1-2.6,1.2c0,0.8,0,1.6,0,2.4c0,0.1,0,0.1,0,0.2c0,0.3,0,0.7,0,1c0.8-0.1,0.8-0.1,1,0.3
		c-0.3,0.2-0.6,0-1,0.1c0,0.1,0,0.3,0,0.4C0.7,31.3,1,32,1.7,32l0,0c-0.1-0.2-0.3-0.4-0.3-0.6c0.1-0.1,0.2-0.2,0.4-0.2
		c0.3,0.3,0.5,0.6,0.9,0.7c0.2,0,0.3,0.3,0.4,0.5l0,0c0.6,0.6,1.4,0.6,2.1,0.8c0.1-0.4-0.2-0.4-0.3-0.6c-0.1,0-0.1,0-0.1,0
		c0,0,0,0,0.1,0c0.2-0.1,0.3-0.1,0.5-0.1c0.3,0.2,0.3,0.6,0.7,0.9c0.4,0,0.8,0.3,1.3,0.5c0.6,0.3,1.3,0.4,2,0.6
		c0.2,0.1,0.4,0.1,0.5,0.5c-0.8,0.1-1.4-0.2-2.1-0.5c-0.7-0.3-1.3-0.7-2.1-0.9c-0.4-0.1-0.7-0.2-1.1-0.1c-0.4,0.2-0.7-0.4-1.1-0.2
		c-0.2,0.2-0.2,0.4-0.1,0.5c0.7,0.4,1.2,1,1.8,1.4c0.1,0.1,0.4,0.1,0.6,0.2c0-0.1,0-0.2,0-0.2l0,0c0,0,0,0,0,0.1c0,0,0,0.1,0,0.1
		c0.1,0.3,0.3,0.5,0.6,0.6c0-0.3,0-0.6,0.4-0.5c0.2,0,0.3,0.1,0.2,0.3C6.7,36.1,6.5,36,6.2,36c0.2,0.5,0.6,0.7,1.2,0.4
		c0.1,0.3-0.1,0.8,0.4,0.8c0.4,0,0.8,0.1,1.1,0c0.2,0,0.4-0.4,0.7-1c-0.6-0.4-1.3-0.5-1.9-0.8C7,35.2,6.4,35,5.8,34.6
		c-0.4,0-0.7-0.3-1-0.6c0.6,0.1,0.9,0.2,1,0.7c0.8-0.3,1.3,0,1.8,0.8c0.3-0.1,0.6-0.3,0.9-0.1c0.4,0.2,0.8,0.3,1.3,0.4
		c0.5-0.5,0.7-1.1,0.9-1.7c-0.3-0.4-0.9-0.3-1.1-0.6c-0.3-0.2-0.6-0.3-1-0.5c0.6-0.1,0.9,0,1,0.6c0.4-0.2,0.8,0.1,1.3,0
		c0.5-0.4,0.7-1.1,1-1.6c-0.1-0.4-0.6-0.1-0.7-0.5c0.2-0.4,0.7-0.2,1-0.4c0.1-0.1,0.1-0.2,0-0.4c-0.4-0.2-0.9-0.1-1.3-0.7
		c0.5,0.1,0.9,0.4,1.2,0.3l0,0l0,0c0,0.1,0,0.3,0,0.4c0.7-0.4,1-1.1,1.1-1.8c-0.1,0-0.2,0-0.2-0.1c0.1,0,0.1,0.1,0.2,0.1
		c0.2-0.1,0.4-0.2,0.5-0.4c0.1-0.4-0.4-0.3-0.5-0.6c0.3,0,0.5,0,0.7,0c0.5-0.4,0.6-1,1-1.6c-0.7-0.2-1.3-0.4-2.1-0.6
		c0.9-0.8,1.6,0.2,2.3,0.1C15.5,25.6,15.3,25.4,15.2,25.2c-0.1,0-0.2,0-0.4,0C15,25,15.1,25.2,15.2,25.2z M8.2,32.6L8.2,32.6
		L8.2,32.6L8.2,32.6L8.2,32.6z M9,31.6L9,31.6L9,31.6c-0.1,0.1-0.3,0.1-0.4,0c-0.1,0-0.2,0.1-0.2-0.1c0.1,0,0.1,0.1,0.2,0.1
		C8.8,31.6,8.9,31.6,9,31.6z M13.8,26.8c0,0,0.2,0,0.1,0.1C13.9,26.9,13.9,26.8,13.8,26.8c0-0.1-0.2,0-0.1-0.1
		C13.7,26.8,13.8,26.8,13.8,26.8z M3.2,30c-0.2,0-0.5,0.1-0.6-0.3C2.9,29.7,3.1,29.8,3.2,30L3.2,30L3.2,30z M9.4,25
		C9.3,25,9,25,9.1,24.7C9.3,24.7,9.4,24.9,9.4,25c0.1,0.1,0.2,0,0.3,0.2C9.5,25.2,9.5,25.1,9.4,25z M12,29c0.2,0.1,0.5,0,0.6,0.3
		C12.3,29.4,12.1,29.3,12,29c-0.2,0.1-0.4,0.2-0.6,0C11.7,28.7,11.8,28.9,12,29z M5.6,29L5.6,29c-0.3,0.6-0.6,0.2-0.9,0
		C5.1,28.8,5.3,29,5.6,29z M4.8,26.8c0.9-0.3,0.9-0.3,1.2,0.2C5.6,26.8,5.2,27.1,4.8,26.8c0,0-0.2,0-0.2-0.1
		C4.7,26.7,4.8,26.8,4.8,26.8z M9.6,31c0.4,0,0.7-0.1,1.1-0.3C10.4,31.5,10.4,31.5,9.6,31c-0.2-0.4-0.2-0.4,0.3-0.5
		C9.9,30.8,9.7,30.9,9.6,31z M4.4,30.8c0.3,0.1,0.8,0.1,0.9,0.6C4.7,31.4,4.7,31.4,4.4,30.8c0-0.1-0.2,0.1-0.2-0.1
		C4.3,30.7,4.4,30.8,4.4,30.8z M8,33.2c0.6,0,0.6,0.5,0.8,0.8c0.1-0.1,0.2-0.3,0.5-0.3c0.2,0.2,0.4,0.3,0.7,0.5c0,0,0,0.1-0.1,0.1
		c-0.4-0.1-0.8-0.2-1.1-0.3c-0.5-0.1-1-0.2-1.5-0.6C7.6,33.3,7.9,33.4,8,33.2L8,33.2z M2,30c-0.6,0-0.9-0.2-1.3-0.7
		c-0.1-0.2-0.2-0.4,0.1-0.6c0.1,0.4,0.5,0.5,0.8,0.6C2.1,29.4,2.1,29.7,2,30c0.1,0.1,0.2,0,0.2,0.2C2,30.3,2.1,30.1,2,30z M4.8,30
		c0.8,0.3,1.7,0.3,2.3,1.2C5.6,30.9,5.4,30.7,4.8,30c-0.2,0.1-0.4,0.3-0.6,0C4.5,29.7,4.6,29.9,4.8,30z M8,28.6
		C7,28.7,6,28,4.9,28.1c0.3-0.5,0.6-0.4,0.9-0.4c0.8,0.1,1.5,0.5,2.3,0.7l0,0C8,28.5,8,28.6,8,28.6c0.3,0,0.6-0.1,0.8,0.3
		C8.4,29.1,8.2,28.9,8,28.6z M8.2,30.7c-0.1-0.6-0.5-0.8-1.1-0.8c-0.4,0-0.8,0-1-0.4c0.5-0.4,0.7-0.5,1.1-0.1
		C7.6,29.7,8,29.8,8.4,30c0.2,0.1,0.3,0.2,0.3,0.4C8.7,30.5,8.6,30.6,8.2,30.7z M3.3,31.8c0.7-0.1,0.7-0.1,1,0.4
		C4,32.2,3.7,32.3,3.3,31.8z M13.5,22.1c-0.2,0.3-0.4,0.3-0.7,0.1c-0.2-0.1-0.2-0.3,0-0.5C13.1,21.7,13.3,21.9,13.5,22.1z M4.1,25.1
		c0.5,0.3,0.9,0.3,1.1,0.8C4.6,26.1,4.4,25.8,4.1,25.1z M15.9,21.9c-0.3-0.3-0.8-0.3-0.9-0.8C15.4,21.2,15.7,21.4,15.9,21.9z
		 M2.6,30.8c0.4,0,0.8-0.1,1.1,0.2C3.2,31.5,2.9,31,2.6,30.8z M1.4,26.7c0.3,0.1,0.5,0.3,0.5,0.6c-0.3,0.2-0.5,0.1-0.7-0.2
		C1,26.9,1.1,26.8,1.4,26.7z M4.2,27.7c-0.4,0.4-0.4,0.4-0.8-0.2C3.9,27.5,3.9,27.5,4.2,27.7z M1.2,28.3c0.5-0.2,0.5-0.2,0.6,0.1
		c0,0.2,0,0.3-0.2,0.4C1.3,28.7,1.2,28.6,1.2,28.3z M9.8,28.3c0.3,0.2,0.5,0.3,0.8,0.5C10.3,28.8,9.8,29,9.8,28.3z M11.6,22.2
		c0.2-0.1,0.3-0.1,0.4,0c0.1,0.1,0.3,0.2,0.3,0.4C12,22.6,11.8,22.5,11.6,22.2z M7.5,27.4c0-0.2,0-0.4,0-0.5
		c0.1-0.1,0.2-0.2,0.5-0.2C8.1,27.1,8.1,27.3,7.5,27.4z M3.7,25.6c0.2,0.3,0.1,0.5-0.2,0.6c-0.1,0-0.2,0-0.2-0.1
		C3.2,25.8,3.3,25.6,3.7,25.6z M2.3,27.4c0.3-0.7,0.7-0.6,1.1-0.6C3.1,27,2.8,27.2,2.3,27.4z M5.7,25.8C6,25.6,6.2,25.6,6.4,26
		C6.1,26.2,5.9,26.2,5.7,25.8z M14.6,21.8c-0.3,0.1-0.5,0.2-0.7,0c-0.1-0.1-0.1-0.2,0.1-0.4C14.2,21.3,14.4,21.5,14.6,21.8z
		 M11.2,27.6c-0.4,0.2-0.6,0.1-0.6-0.3C10.9,27.3,11.1,27.3,11.2,27.6z M12.5,28c-0.3,0.1-0.5,0-0.6-0.3
		C12.3,27.6,12.4,27.7,12.5,28z M11,23.3c-0.1-0.1-0.1-0.2,0-0.2c0.3,0,0.5,0,0.9,0C11.6,23.4,11.3,23.4,11,23.3z M3.1,29.2
		c-0.2,0.1-0.3,0.1-0.4,0c-0.1-0.1-0.3-0.1-0.2-0.4C2.7,29,2.9,29,3.1,29.2z M10.8,32.8c-0.2,0.1-0.3,0.1-0.4,0
		c-0.1,0-0.3-0.1-0.2-0.3C10.5,32.5,10.7,32.6,10.8,32.8z M2.4,27.9c0.3-0.2,0.5-0.2,0.7,0.1C2.8,28.3,2.6,28.2,2.4,27.9z M3.5,28.7
		c0.3,0,0.5,0,0.6,0.3C3.8,29.1,3.6,29.1,3.5,28.7z M2.8,26.5c-0.3,0.1-0.5,0.1-0.7-0.2C2.5,26.2,2.7,26.3,2.8,26.5z M13,23.6
		c0.1-0.1,0.2-0.1,0.4-0.1c0.1,0.1,0.3,0,0.3,0.2C13.4,23.8,13.2,23.8,13,23.6z M9.3,27.5c-0.2,0.2-0.4,0.2-0.6,0
		C8.8,27.4,9,27.2,9.3,27.5z M0.5,27.5c0.2,0.1,0.3,0.2,0.2,0.4c0,0.1-0.2,0.1-0.2,0C0.3,27.8,0.3,27.6,0.5,27.5z M7.5,24.7
		c-0.4,0-0.6-0.1-0.6-0.6C7.2,24.3,7.4,24.4,7.5,24.7z M10.6,25.9c-0.1-0.1-0.4,0-0.3-0.3C10.5,25.5,10.6,25.6,10.6,25.9z M5.3,25
		c0-0.1,0.1-0.2,0.2-0.2c0,0,0.1,0.1,0.1,0.1c0,0.1,0,0.2-0.1,0.2C5.4,25.2,5.4,25.1,5.3,25z M9.7,31.8c0.3-0.2,0.4-0.1,0.4,0.2
		C9.9,32.1,9.8,32,9.7,31.8z M11,32c0,0,0.1-0.1,0.1-0.1c0,0,0.1,0.1,0.1,0.1c0,0.1-0.1,0.1-0.2,0.1C11,32.1,11,32,11,32z
		 M11.5,26.9c-0.1,0-0.2-0.1-0.2-0.2c0,0,0.1-0.1,0.1-0.1c0.1,0,0.2,0,0.2,0.1C11.7,26.8,11.6,26.9,11.5,26.9z M9.9,23.8
		c-0.1,0-0.1,0-0.2-0.1c0-0.1,0-0.1,0.1-0.1c0.1,0,0.1,0,0.2,0.1C10,23.7,10,23.7,9.9,23.8z M13.9,24.8c0,0-0.1,0.1-0.1,0.1
		c-0.1,0-0.1-0.1-0.1-0.1c0-0.1,0-0.1,0.1-0.1C13.8,24.7,13.8,24.7,13.9,24.8z M11.2,25c0,0,0.1-0.1,0.1-0.1c0,0,0.1,0.1,0.1,0.1
		c0,0.1,0,0.1-0.1,0.1C11.2,25.1,11.2,25.1,11.2,25z M7.8,26.2c0,0,0.1-0.1,0.1-0.1c0,0,0.1,0.1,0.1,0.1c0,0-0.1,0.1-0.1,0.1
		C7.8,26.3,7.8,26.3,7.8,26.2z M6.6,32.7c0.2,0,0.4,0,0.3,0.2C6.8,32.9,6.7,32.9,6.6,32.7z M9.8,26.4c0,0,0.1-0.1,0.1-0.1
		c0,0,0.1,0,0.1,0.1c0,0-0.1,0.1-0.1,0.1C9.9,26.5,9.9,26.4,9.8,26.4z M6,32.1C6,32.1,6,32.1,6,32.1C6,32,6,32,6,31.9c0,0,0,0,0.1,0
		C6.1,32,6,32.1,6,32.1z M9.6,22.9c0,0,0.1-0.1,0.1-0.1c0,0,0,0,0.1,0.1C9.8,23,9.7,23,9.6,22.9C9.6,23,9.6,23,9.6,22.9z M12.8,27
		C12.8,27,12.8,27,12.8,27c0.1-0.1,0.1-0.1,0.1,0C12.9,27.1,12.9,27.1,12.8,27C12.8,27.1,12.8,27.1,12.8,27z M17,21.3
		c-0.1,0.1-0.2,0.1-0.3,0C16.7,21.2,16.8,21.1,17,21.3z M9.2,26.5C9.2,26.5,9.1,26.4,9.2,26.5c0.1-0.1,0.1-0.1,0.1,0
		C9.3,26.5,9.3,26.5,9.2,26.5C9.2,26.5,9.2,26.5,9.2,26.5z M12.2,25.3C12.2,25.2,12.1,25.2,12.2,25.3c0.1-0.1,0.1-0.1,0.1,0
		C12.3,25.2,12.3,25.3,12.2,25.3C12.2,25.3,12.2,25.3,12.2,25.3z M7,25.8c0.1-0.1,0.2,0,0.2,0.1c0,0,0,0.1,0,0.1
		C7.1,25.9,7,25.9,7,25.8z M10,27.4C9.9,27.4,9.9,27.4,10,27.4C9.8,27.3,9.9,27.3,10,27.4C9.9,27.3,10,27.3,10,27.4
		C10,27.3,10,27.3,10,27.4z M14.3,23.3C14.3,23.3,14.3,23.3,14.3,23.3c0-0.1,0-0.1,0-0.1C14.5,23.2,14.5,23.3,14.3,23.3
		C14.4,23.3,14.4,23.3,14.3,23.3z M9.1,23.7c-0.1,0-0.1,0,0-0.1C9,23.6,9.1,23.6,9.1,23.7C9.1,23.7,9.1,23.7,9.1,23.7z M10.4,24.3
		c-0.1-0.1,0-0.1,0-0.1C10.5,24.2,10.5,24.3,10.4,24.3C10.5,24.3,10.5,24.3,10.4,24.3z M7.3,32.4C7.3,32.4,7.3,32.4,7.3,32.4
		c0-0.1,0-0.1,0-0.1C7.4,32.3,7.4,32.3,7.3,32.4C7.4,32.4,7.3,32.4,7.3,32.4z M11.8,26C11.8,26,11.9,26,11.8,26
		c0.1,0.1,0.1,0.1,0,0.1C11.8,26.1,11.8,26.1,11.8,26C11.8,26.1,11.8,26,11.8,26z M12.4,26.3L12.4,26.3L12.4,26.3L12.4,26.3z
		 M8.1,23.6L8.1,23.6L8.1,23.6L8.1,23.6z M17.8,20.8L17.8,20.8L17.8,20.8L17.8,20.8z"/>
	<path class="st0" d="M6.4,22.6c0.2,0,0.5,0.1,0.7,0.1c0.3,0,0.6,0,0.8-0.3c0.3-0.6,0.7-0.5,1.2-0.3C9,21.5,8.4,21.4,8.2,21
		c-0.1,0-0.1,0-0.1,0c0,0,0,0,0.1,0c0.6-0.2,0.9,0.6,1.5,0.6c0.2-0.1,0.6-0.2,0.9-0.3c0.2-0.6-0.5-0.7-0.5-1.2
		c0.6,0.1,0.8,0.7,1.2,1c0.6-0.1,1.1-0.4,1.5-0.7c0.1-0.6-0.5-0.7-0.6-1c0.6-0.1,0.6-0.1,1.3,0.7c1.1-0.2,2.3-0.5,3.4-0.7
		c0.5-0.1,0.7-0.4,0.9-0.8c0-0.2,0-0.4,0-0.6c-0.1-0.1-0.2-0.1-0.2-0.3c0.2,0,0.1,0.2,0.2,0.3c0.4,0.2,0.3,0.4,0,0.6
		c0.8,0.4,1.1,0.3,2-0.3c-0.7-0.8-1.8-0.9-2.6-1.5c-0.8-0.6-1.6-1.2-2.5-1.8c-0.9-0.6-1.5-1.3-2.4-1.9c-0.8-0.6-1.7-1.2-2.3-2
		c-1.5,0.9-3.1,1.5-4.6,2.2c-1.4,0.6-2.7,1.5-4.2,1.9c-0.4,0.1-0.7,0.5-1.2,0.5c0,0.4,0,0.8,0,1.2C0,16.9,0,17,0,17
		c0,0.1,0,0.1,0,0.2c0.3,0.1,0.5,0.2,0.8,0.2c0-0.2-0.2-0.4-0.1-0.6c0.3,0,0.5,0.4,0.8,0.3c1.1-0.4,1.1-0.4,1.3,0.2
		c-0.2,0.3-0.6-0.1-0.8,0.1C1.9,17.7,2,18,1.6,18c-0.4,0-0.5-0.4-0.8-0.6c0,0.6,0.3,1,0.9,1.1c0.8,0.2,1.5,0.7,2.3,1.2
		c-0.5,0.4-0.9,0.1-1.1,0c-0.9-0.6-2-1-2.8-1.8c0,0.3,0,0.5,0,0.8c0.1,0,0.1,0,0.2,0.1c0,0.1-0.1,0.1-0.2,0.1c0,0.7,0,1.5,0,2.2
		c0.2-0.1,0.3-0.2,0.5-0.3c0.3,0.1,0.2,0.5,0.4,0.5c0.3,0.2,0.5,0,0.8-0.1c0.2,0.7,0.7,0.8,1.3,0.6l0,0c0-0.1,0-0.1,0-0.2
		c0.9,0.1,1.4,0.4,1.9,1.1c0.6-0.2,1,0.1,1.1,0.7l0,0c0.2,0,0.4,0,0.5-0.2C6.7,23,6.2,22.9,6.4,22.6c-0.3-0.1-0.6-0.2-0.9-0.4
		c-0.6-0.5-1.3-0.8-2-1c-1.1-0.3-2-1-3.1-1.5c0,0,0-0.1,0-0.3c1.9,0.6,3.5,1.5,5.4,2c-0.2,0.5-0.1,0.7,0.4,0.8c0-0.3,0-0.5,0.2-0.7
		c0.3,0,0.4,0.1,0.4,0.4c-0.2,0.1-0.5,0.1-0.7,0.2C6.3,22.4,6.4,22.5,6.4,22.6z M0.8,19C0.9,19.1,1,19.2,1,19.2c0,0,0.2-0.1,0.1,0.1
		c0,0-0.1-0.1-0.1-0.1C1,19.2,0.9,19.1,0.8,19L0.8,19z M12.8,18.6c-0.2,0-0.3-0.1-0.4-0.2c-0.2,0-0.4,0-0.4-0.3
		c0.3-0.1,0.3,0.1,0.4,0.3C12.5,18.4,12.7,18.4,12.8,18.6L12.8,18.6L12.8,18.6z M9.6,17C9.6,17,9.6,17.1,9.6,17
		C9.6,17.1,9.6,17.1,9.6,17c0.1,0,0-0.1,0.1-0.2C9.7,16.9,9.7,17,9.6,17z M11,18.6c0.1,0,0.3-0.1,0.3,0.1
		C11.2,18.8,11.1,18.7,11,18.6L11,18.6L11,18.6z M7,20.2c0.1,0.1,0.4,0.1,0.2,0.4C7.1,20.5,7.1,20.4,7,20.2L7,20.2z M7.2,18.2
		c0,0.1,0,0.3-0.3,0.2C7,18.3,7.1,18.2,7.2,18.2c0.1-0.1,0.2-0.3,0.4-0.2C7.5,18.2,7.4,18.2,7.2,18.2z M9.4,12.4
		c-0.2-0.1-0.5,0-0.4-0.5C9.1,12.1,9.3,12.3,9.4,12.4L9.4,12.4L9.4,12.4z M8.8,17.6c-0.2,0-0.4,0.1-0.4-0.3
		C8.6,17.3,8.7,17.4,8.8,17.6c0.1,0.1,0.2,0,0.2,0.2C8.9,17.8,8.9,17.7,8.8,17.6z M16,17c-0.3,0-0.7,0.1-0.9-0.4
		C15.7,16.3,15.8,16.7,16,17L16,17L16,17z M17,18.2c-0.6,0.1-1,0-1.2-0.7C16.2,17.8,16.8,17.8,17,18.2L17,18.2L17,18.2z M14.4,18.4
		c-0.9-0.1-0.9-0.1-1.3-0.7C13.6,18,14.1,17.9,14.4,18.4c0.1,0.2,0.4,0.2,0.3,0.6C14.4,18.9,14.4,18.6,14.4,18.4z M12.8,17
		c-0.5,0-0.8-0.1-1.1-0.6C12.3,16.4,12.7,16.4,12.8,17L12.8,17L12.8,17z M4.8,18.8c-0.8,0.1-1.5-0.2-2.2-0.9
		C3.6,17.9,4.1,18.6,4.8,18.8c0,0.1,0.2,0.1,0.2,0.3C4.8,19,4.9,18.9,4.8,18.8z M9.8,18.6c0.6,0.5,1.3,0.9,2,1.2
		c-0.2,0.3-0.5,0.3-0.7,0.1C10.7,19.5,9.9,19.4,9.8,18.6c-0.2-0.1-0.4,0.1-0.6-0.2C9.5,18.2,9.7,18.4,9.8,18.6z M7.2,21.2
		c-1.1-0.1-2.3-0.7-2.9-1.5C5.4,20.1,6.5,20.2,7.2,21.2c0.2,0.2,0.7,0.1,0.9,0.6C7.6,21.8,7.3,21.6,7.2,21.2z M5.6,18.6
		c0.6-0.1,1,0.1,1.2,0.7c0.6,0,0.9,0.5,1.2,0.9c-0.6-0.1-1.1-0.7-1.8-0.5C6,19.3,5.8,19,5.6,18.6c-0.8,0-1-0.8-1.8-1.1
		C4.9,17.4,5.4,17.8,5.6,18.6z M0.6,16c0.7-0.1,0.8-0.1,1.1-0.4c0,0.5,0.5,0.5,0.7,0.9C1.8,16.7,1.8,16.7,0.6,16z M12.5,15.8
		c-0.7,0.1-1.4-0.1-2-0.6C11.4,14.9,11.8,15.6,12.5,15.8z M12.9,14c-0.1,0.3-0.2,0.5-0.4,0.8c-0.1-0.2-0.4,0.1-0.6-0.2
		C12.1,14.2,12.4,14,12.9,14z M11.5,17.3c-0.9-0.2-1.1-0.3-1.4-1C10.7,16.5,11.1,16.9,11.5,17.3z M5.2,13.8c0.7,0.6,0.7,0.7,0,0.9
		C5.2,14.4,5,14.1,5.2,13.8z M2.1,15.2c0.6-0.3,0.8,0,1.1,0.5C2.7,15.7,2.4,15.6,2.1,15.2z M4.1,15.1c-0.8,0.1-0.8,0.1-0.7-0.4
		C3.7,14.5,4,14.7,4.1,15.1z M8.4,15.8C9,15.2,9.3,15.9,9.6,16C9.3,16,8.9,16.1,8.4,15.8z M14.2,17.2c0.3,0.1,0.8,0.2,0.9,0.7
		C14.6,17.8,14.4,17.5,14.2,17.2z M9.9,17.8c0.4-0.2,0.7-0.2,0.8,0.3C10.4,18.3,10.1,18.2,9.9,17.8z M3.2,16.3
		c0.7,0.1,0.7,0.1,0.4,0.6C3.3,16.8,3.1,16.7,3.2,16.3z M7.3,12.6c0.5,0.1,0.6,0.3,0.4,0.7C7.3,13.3,7,13.2,7.3,12.6z M4.7,16
		c-0.6,0-0.6,0-1-0.4C4.2,15.5,4.4,15.7,4.7,16z M6.1,14c-0.1-0.2-0.3-0.5,0.1-0.7c0.3,0.1,0.4,0.2,0.4,0.5C6.4,13.9,6.3,14,6.1,14z
		 M6.6,17.7c-0.3,0.2-0.5,0.1-0.7-0.2c0,0,0-0.1,0-0.2C6.3,17.2,6.5,17.4,6.6,17.7z M10.1,21.1C9.6,21,9.6,21,9.3,20.4
		C9.6,20.8,10,20.7,10.1,21.1z M8.8,13.7c0.4,0.3,0.4,0.5,0.1,0.7C8.6,14.2,8.6,14,8.8,13.7z M7.3,15.3c0.4,0,0.6,0,0.6,0.4
		C7.5,15.8,7.4,15.7,7.3,15.3z M4.7,16.8c0.2-0.2,0.4-0.2,0.5,0C5.1,17.1,5,17,4.7,16.8z M14.1,19.6c-0.4,0.1-0.5-0.2-0.6-0.4
		c-0.1-0.1,0-0.1,0.1-0.1C13.7,19.2,14,19.3,14.1,19.6z M9.5,13.3c0.2,0.2,0.3,0.4,0.5,0.7C9.6,13.9,9.4,13.7,9.5,13.3z M13,15.9
		c-0.2-0.2-0.2-0.3,0-0.6C13.1,15.5,13.3,15.7,13,15.9z M6.9,16.3c0.2,0.1,0.5,0.1,0.4,0.5C7.1,16.7,6.9,16.7,6.9,16.3z M8,18.7
		c0.2,0.1,0.4,0.2,0.2,0.5C8.1,19,7.9,19,8,18.7z M5.8,15.8c0-0.1,0-0.2,0.2-0.2c0.1,0,0.1,0.1,0.1,0.1c0,0.1,0,0.2-0.1,0.2
		C5.9,15.9,5.8,15.9,5.8,15.8z M13.9,15.9c0.1,0,0.1,0,0.2,0.1c0,0,0,0.1,0,0.2c-0.1,0.1-0.2,0-0.2-0.1C13.8,16,13.8,15.9,13.9,15.9
		z M10.6,12.9c0.2,0.2,0.2,0.4-0.1,0.5C10.3,13.2,10.4,13,10.6,12.9z M6.9,14.8c0,0,0.1-0.1,0.1-0.1c0.1,0,0.2,0.1,0.1,0.2
		c0,0-0.1,0.1-0.1,0.1S6.9,14.8,6.9,14.8z M9.4,19.3c0,0,0.1,0.1,0.1,0.1c0,0-0.1,0.1-0.1,0.1c0,0-0.1-0.1-0.1-0.1
		C9.3,19.4,9.3,19.4,9.4,19.3z M11.2,13.7c0.1-0.1,0.2-0.1,0.3-0.1c0.1,0.1,0.2,0.1,0.1,0.3C11.4,13.9,11.3,13.9,11.2,13.7z
		 M4.5,14.6c0,0-0.1-0.1-0.1-0.1c0,0,0.1-0.1,0.1-0.1c0,0,0.1,0.1,0.1,0.1C4.6,14.5,4.5,14.6,4.5,14.6z M12.2,17.6
		c0,0.1,0,0.1-0.1,0.1c0,0-0.1,0-0.1,0c-0.1-0.1-0.1-0.1,0-0.1C12.1,17.5,12.2,17.6,12.2,17.6z M8,14.2c0.2,0,0.2,0.1,0.1,0.2
		C8,14.4,7.9,14.3,8,14.2z M8.2,16.3c-0.2,0-0.3-0.1-0.2-0.2C8.1,16.1,8.2,16.1,8.2,16.3z M14.4,16.5c0,0,0.1-0.1,0.1-0.1
		c0,0,0.1,0.1,0.1,0.1c0,0,0,0.1,0,0.1C14.5,16.6,14.4,16.6,14.4,16.5z M10.1,12.3C10.1,12.3,10.1,12.3,10.1,12.3
		C10.2,12.3,10.1,12.4,10.1,12.3C10.1,12.3,10.1,12.3,10.1,12.3z M15.7,18.8C15.6,18.7,15.7,18.7,15.7,18.8
		C15.8,18.7,15.8,18.7,15.7,18.8C15.7,18.8,15.7,18.8,15.7,18.8z M11.3,12.7L11.3,12.7L11.3,12.7L11.3,12.7z M9.7,14.9L9.7,14.9
		L9.7,14.9L9.7,14.9z M16.8,17.3L16.8,17.3L16.8,17.3L16.8,17.3z"/>
	<path class="st0" d="M25.8,9c-0.6,1.1-1.2,2.1-1.7,3.2c-0.6,1.2-1.3,2.3-1.7,3.6c-0.1,0.5-0.4,0.9-0.7,1.3
		c-0.1,0.2-0.2,0.3-0.1,0.6c0.7-0.1,1.5-0.4,2.2-0.7c1.8-0.8,3.8-1.4,5.7-2.1c3.2-1,6.5-1.9,9.7-2.7c0.5-0.1,1-0.3,1.5-0.4
		c0.3-0.1,0.5-0.2,0.6-0.6c-0.3-0.7-0.8-1.3-1.5-1.6C39.5,9.5,39.2,9.4,39,9c-0.7,0-1.3,0-2,0c-0.1,0.1-0.1,0.1-0.2,0
		c-0.5,0-0.9,0-1.4,0c-0.1,0.1-0.1,0.1-0.2,0c-1.7,0-3.5,0-5.2,0c-0.1,0.1-0.1,0.1-0.2,0.2l0,0c0-0.1,0-0.1,0-0.2
		c-0.1,0-0.3,0-0.4,0c-0.1,0.1-0.3,0.1-0.4,0C28,9,26.9,9,25.8,9z M28.8,13.8c0.1,0,0.1,0,0.1,0C28.9,13.9,28.9,13.8,28.8,13.8
		C28.8,13.8,28.8,13.8,28.8,13.8z M34.4,9.8c0.1,0,0.2-0.1,0.2,0.1C34.5,9.9,34.5,9.9,34.4,9.8L34.4,9.8z M31.8,11
		c0,0,0.1-0.1,0.1-0.1c0.1,0,0.2,0.1,0.1,0.2c0,0-0.1,0.1-0.2,0.1C31.8,11.1,31.8,11,31.8,11z M30.9,10.3c0.1-0.1,0.2,0,0.2,0
		C31,10.5,30.9,10.4,30.9,10.3z M30.4,11.4C30.4,11.4,30.4,11.4,30.4,11.4c0,0.1,0,0.1,0,0.1C30.3,11.5,30.3,11.4,30.4,11.4
		C30.3,11.4,30.4,11.4,30.4,11.4z M26.9,9.5C26.9,9.4,26.9,9.4,26.9,9.5C27,9.4,27,9.4,26.9,9.5C27.1,9.5,27,9.5,26.9,9.5
		C27,9.5,26.9,9.5,26.9,9.5z M27.1,14.6C27.1,14.6,27.1,14.6,27.1,14.6c0.1,0.2,0,0.2-0.1,0.1C27,14.7,27,14.6,27.1,14.6
		C27,14.6,27.1,14.6,27.1,14.6z M35.4,10L35.4,10L35.4,10L35.4,10z M34.7,12.6L34.7,12.6L34.7,12.6L34.7,12.6z M23.2,15.3
		c0-0.1,0.1-0.1,0.1,0C23.3,15.3,23.3,15.3,23.2,15.3C23.2,15.4,23.2,15.3,23.2,15.3z"/>
	<path class="st0" d="M64,61.4c-0.4,0-0.7-0.3-0.9-0.5c-0.5-0.4-1-0.8-1.6-1c-1-0.3-1.7-0.1-2.3,0.8c-1.1,1.6-2.2,3.1-3.2,4.7
		c-0.5,0.9-1.2,1.7-1.7,2.6c-0.5,0.9-1.1,1.7-1.6,2.5c-0.1,0.2-0.3,0.4-0.3,0.6c3.9,0,7.7,0,11.6,0C64,67.8,64,64.6,64,61.4z"/>
	<path class="st0" d="M24.2,10.8c0.2-0.1,0.4-0.2,0.4-0.5c0-0.4-0.5-0.3-0.6-0.6c0.3-0.2,0.5,0.1,0.8,0c0.3-0.1,0.3-0.4,0.4-0.7
		c-0.7,0-1.5,0-2.2,0c-0.3,0.4-0.3,0.4-0.6,0c-1.3,0-2.7,0-4,0c0,0.1,0,0.1,0,0.2l0,0c-0.2,0-0.4,0-0.6-0.2c-0.2,0-0.4,0-0.6,0
		c0,0.1,0.2,0.3,0,0.4c-0.3,0-0.5,0-0.4-0.4c-0.3,0-0.5,0-0.8,0c-0.1,0.1-0.1,0.1-0.2,0c-0.5,0-0.9,0-1.4,0
		c-0.4,0.4-0.9,0.6-1.4,0.7c-0.8,0.2-1.6,0.6-2.4,1.1c0.7,0.9,1.7,1.6,2.5,2.3c1.5,1.3,3.2,2.4,4.9,3.5c0.5,0.3,1.1,0.5,1.7,0.8
		c0.5,0.2,0.8,0.1,1.2-0.2c0.2-0.2,0-0.5,0.1-0.7c0.1-0.2,0.4-0.2,0.5-0.5c0-0.1,0-0.2-0.1-0.2c-0.5-0.3-1.2-0.4-1.8-0.8
		c0.9-0.2,1.5,0.4,2.4,0.4c-0.2-0.6-0.9-0.4-1-1c0.4,0,0.7,0.5,1.1,0.4c0.2-0.1,0.2-0.4,0.2-0.5c-0.1-0.1-0.3-0.1-0.4-0.2
		c0,0-0.1,0-0.1-0.1c0,0,0.1,0.1,0.1,0.1c0.2,0,0.3,0.1,0.4,0.2c0.2-0.3,0.2-0.6,0-0.8c-0.4,0-0.7,0-1.2-0.3
		c0.5,0.1,0.9,0.1,1.1,0.4c0.2,0,0.5,0.1,0.7-0.2c-0.1-0.5-0.7-0.5-1.1-0.9c0.5,0,0.9,0.4,1.4,0.3C23.8,12.1,24,11.4,24.2,10.8
		c-0.2,0-0.5,0-0.8-0.3C23.8,10.5,24,10.6,24.2,10.8z M16,12.3L16,12.3L16,12.3L16,12.3L16,12.3z M16.2,9.6L16.2,9.6L16.2,9.6
		L16.2,9.6L16.2,9.6z M19,12.8c-0.1-0.1-0.3-0.1-0.4-0.2c-0.4-0.1-0.8-0.2-1.2-0.3c-0.3-0.1-0.5-0.3-0.6-0.6
		c0.5,0.5,1.2,0.4,1.7,0.9C18.7,12.6,18.9,12.7,19,12.8C19,12.8,19,12.8,19,12.8z M17.8,11.6C17.8,11.6,17.7,11.6,17.8,11.6
		C17.7,11.6,17.7,11.6,17.8,11.6C17.8,11.7,17.9,11.7,17.8,11.6C17.9,11.7,17.8,11.6,17.8,11.6z M19.2,10.8c-0.3-0.2-0.1-0.3,0-0.5
		C19.4,10.6,19.2,10.7,19.2,10.8C19.2,10.8,19.3,10.9,19.2,10.8C19.3,10.9,19.2,10.9,19.2,10.8z M14.6,13.4L14.6,13.4L14.6,13.4
		c0-0.1,0-0.2,0-0.2c0.2-0.1,0.3,0,0.4,0.2C14.9,13.4,14.7,13.4,14.6,13.4z M19.8,13.6c0.2,0.1,0.5-0.1,0.5,0.3
		C20.1,14,20,13.8,19.8,13.6C19.8,13.6,19.8,13.6,19.8,13.6C19.7,13.6,19.8,13.6,19.8,13.6z M21.8,9.8c0.3,0,0.7,0,0.8,0.5
		C22.3,10.2,22.1,10,21.8,9.8c-0.1-0.1-0.2,0-0.2-0.3C21.7,9.7,21.8,9.8,21.8,9.8z M15.8,11c-0.4-0.1-0.8-0.2-0.9-0.7
		C15.2,10.6,15.7,10.6,15.8,11L15.8,11L15.8,11z M19.6,16.6c-0.5,0-0.9-0.2-1.2-0.6c-0.2-0.2-0.4-0.4-0.7-0.5
		c-0.4-0.1-0.4-0.4-0.5-0.7c-0.3-0.1-0.5,0.3-0.8,0.2c-0.2-0.3-0.2-0.5-0.2-0.8c-0.2,0.1-0.4,0.4-0.7,0.3c-0.2-0.2-0.3-0.3-0.2-0.6
		c0.4-0.2,0.6,0,0.8,0.3c0.4,0,0.8,0.2,1,0.6c0.6,0.3,1.1,0.5,1.2,1.2C18.8,16.1,19.3,16.1,19.6,16.6L19.6,16.6z M18.6,15.2
		c0.5,0.1,0.9,0.4,1.2,0.7C19.4,15.9,18.9,15.7,18.6,15.2L18.6,15.2z M19,14.8c-0.6,0-1-0.3-1.4-0.6C18.2,14.1,18.6,14.5,19,14.8
		L19,14.8z M22.4,11c-1,0-1.9-0.5-2.5-1.3C20.7,10.2,21.6,10.6,22.4,11c0.2,0.1,0.5,0,0.6,0.3C22.7,11.3,22.6,11.1,22.4,11z
		 M13.5,12.7c-0.1-0.8-1.3-0.6-1.4-1.5c0.7,0.4,1.4,0.7,1.9,1.3C14,12.6,13.8,12.6,13.5,12.7z M15.4,12.4c0.7,0.2,1.2,0.5,1.6,0.9
		C16.4,13.3,15.9,13,15.4,12.4z M15.6,12c-0.6,0-0.9-0.1-1.1-0.6C14.9,11.6,15.4,11.3,15.6,12z M12.9,10.3c0.5,0,0.7,0.3,1,0.7
		C13.4,10.8,13.2,10.6,12.9,10.3z M20.1,11.2c0.3,0,0.5,0,0.5,0.3C20.3,11.7,20.2,11.6,20.1,11.2z M17,10.5c0.2,0,0.2,0,0.3,0.1
		c0,0-0.1,0.1-0.1,0.1C17.1,10.7,17,10.6,17,10.5z M19.3,14.1c-0.2,0-0.3-0.1-0.3-0.4C19.1,13.8,19.2,13.9,19.3,14.1z M21.4,11.9
		c-0.1,0-0.2,0-0.2-0.2C21.4,11.7,21.4,11.8,21.4,11.9z M18,13.2c0.1,0,0.1,0,0.2,0c0.1,0.1,0.1,0.2,0,0.2
		C18.1,13.3,18,13.3,18,13.2z M18.5,10C18.5,10,18.5,9.9,18.5,10c0.1-0.1,0.1,0,0.1,0C18.6,10,18.6,10.1,18.5,10
		C18.5,10.1,18.5,10,18.5,10z M20.2,16.8C20.2,16.8,20.2,16.7,20.2,16.8c0.1-0.1,0.1-0.1,0.1,0C20.3,16.8,20.3,16.9,20.2,16.8
		C20.2,16.9,20.2,16.8,20.2,16.8z M16.8,11.2L16.8,11.2L16.8,11.2L16.8,11.2z"/>
	<path class="st0" d="M43.8,71c-1-1-2-1.9-3.1-2.9c-1-0.9-1.9-1.8-3-2.5c-0.8-0.6-1.9-0.6-2.6,0.2c-1,1.1-1.9,2.3-2.7,3.6
		c-0.3,0.6-1,0.9-1.1,1.6c2.7,0,5.5,0,8.2,0c0.1-0.1,0.1-0.1,0.2,0C41.1,71,42.5,71,43.8,71z M33.9,69.8c-0.2,0.3-0.3,0.2-0.5,0.1
		C33.6,69.6,33.7,69.6,33.9,69.8z M36.2,68c-0.1-0.1-0.1-0.1-0.1-0.2c0,0,0.1-0.1,0.2-0.1c0.1,0,0.1,0.1,0.1,0.2
		C36.3,68,36.2,68,36.2,68z M34.6,69.2c-0.2,0.1-0.3,0-0.4-0.1C34.4,69,34.5,69,34.6,69.2z M33.4,70.7c0-0.1,0-0.1,0.1-0.1
		c0,0,0.1,0,0.1,0c0.1,0,0.1,0.1,0,0.1C33.5,70.7,33.5,70.7,33.4,70.7z M34.5,69.9c0,0,0.1,0.1,0.1,0.1c0,0-0.1,0-0.1,0
		c0,0,0,0-0.1-0.1C34.4,69.9,34.4,69.9,34.5,69.9z"/>
	<path class="st0" d="M30.8,71c0.8-1.2,1.5-2.5,2.5-3.7c0.4-0.4,0.8-0.9,0.8-1.5c-0.4-0.3-0.7,0-0.9,0.1c-2,0.9-4.1,1.8-6.1,2.7
		c-1.4,0.6-2.7,1.4-4.2,1.9c-0.3,0.1-0.5,0.3-0.7,0.5C25.1,71,28,71,30.8,71z M30.7,68.5c0.4-0.2,0.6-0.1,0.6,0.3
		c0,0-0.1,0.1-0.1,0.2C31,68.9,30.8,68.8,30.7,68.5z M30,68.8c-0.3,0.2-0.6,0.2-0.8-0.1C29.4,68.7,29.7,68.6,30,68.8z M32.2,67.5
		L32.2,67.5L32.2,67.5L32.2,67.5z M31.6,67.9L31.6,67.9L31.6,67.9L31.6,67.9z"/>
	<path class="st0" d="M0.6,36.6c0.4,0,0.9,0,1.3,0.1c0.3,0.9,1,1.1,1.8,1.2c0.7,0.2,1.5,0.3,2.2,0.5c0.2,0.2,0,0.5,0.2,0.7
		c0.3-0.2,0.8-0.3,1-0.7c-0.1-0.5-0.4-0.9-0.8-1.2C5.1,36,3.8,35,2.6,34C1.9,33.4,1,33,0.4,32.2C0.4,32.1,0.2,32.1,0,32
		c0,0.3,0,0.5,0,0.8c0.2,0,0.4,0,0.6,0.2l0,0l0,0c-0.2,0-0.4,0-0.6,0c0,0.1,0,0.3,0,0.4c0.4,0.3,1.1,0.1,1.4,0.8
		C0.9,34.1,0.5,34,0,34c0,0.1,0,0.1,0,0.2c0.3,0.1,0.6,0.2,0.7,0.6C0.5,35,0.3,34.9,0,35c0,0.2,0,0.4,0,0.6c0.3,0,0.6,0.2,0.9,0.3
		c0.7-0.4,0.7-0.4,1.3,0.5c-0.5-0.2-0.8,0.1-1.2,0C0.8,36.2,0.7,36.4,0.6,36.6L0.6,36.6z M3,36.8L3,36.8L3,36.8c0,0.1,0,0.2-0.2,0.2
		C2.8,36.8,2.9,36.9,3,36.8z M5.4,37.2L5.4,37.2L5.4,37.2c-0.1,0.1-0.1,0.3-0.2,0.3c-0.6,0.1-1.2,0.2-1.8-0.1c0.3-0.1,0.7,0.1,1-0.1
		C4.7,37,5.1,37.1,5.4,37.2z M4.2,35.6C3.4,36,3.4,36,2.4,35.4C3,35.2,3.5,35.4,4.2,35.6z M2.2,34.8c-0.4,0-0.7,0.5-1.2,0
		c0.3-0.4,0.7-0.4,1-0.5C2.2,34.4,2.3,34.5,2.2,34.8z M3.8,36.5c0.3,0,0.5-0.5,1-0.1C4.5,36.7,4.2,36.9,3.8,36.5z M6,37.6
		C6,37.6,6,37.6,6,37.6c0.1,0.1,0.1,0.1,0,0.1C6,37.7,6,37.7,6,37.6C5.9,37.6,6,37.6,6,37.6z"/>
	<path class="st0" d="M64,52.2c-0.4,0.2-0.5,0.6-0.6,1c-0.2,0.7-0.5,1.4-0.9,2c-0.5,0.9-0.7,1.9-1,2.8c-0.2,0.8,0.4,1.3,0.9,1.8
		c0.5,0.4,1,0.9,1.5,1.2C64,58.1,64,55.1,64,52.2z"/>
	<path class="st0" d="M0,40.4c0.3-0.2,0.5-0.2,0.8,0.1C1,40.7,1.1,40.8,1.2,41l0,0c0.7-0.2,1.5-0.3,2.1-0.7c0.7-0.4,1.4-0.6,2.1-1
		c-0.2-0.2-0.5-0.2-0.6-0.5l0,0c0-0.1,0-0.2,0-0.2l0,0c-0.2-0.4-0.6-0.4-1-0.4c-0.8,0-1.4-0.3-2-0.7c-0.4-0.3-1-0.4-1.3-0.9l0,0
		c-0.3,0-0.4-0.3-0.6-0.4c0,0.3,0,0.7,0,1c0.9,0.2,3.7,1.6,4.2,2.1c-0.2,0.2-0.4,0.1-0.6,0.1c-0.1,0.1-0.3,0.2-0.5,0.2
		C3,39.8,2.8,40,2.6,40.3c-0.3-0.3-0.5-0.5-0.8-0.8c0.6-0.2,1-0.1,1.4,0.1c0.2-0.1,0.3-0.1,0.5-0.2c-0.3-0.4-0.8-0.4-1.2-0.6
		c-0.4-0.2-0.6-0.7-1.2-0.7c0,0.4,0.6,0.5,0.5,0.9c-0.7-0.1-1-0.7-1.3-1.2c-0.2,0-0.3,0-0.4,0c0,0.2,0,0.4,0,0.6
		c0.4,0.2,0.7,0.5,1,0.9c-0.3,0.3-0.7,0.2-1,0.1C0,39.7,0,40.1,0,40.4z M1.8,40.3c-0.6,0-0.8-0.1-0.9-0.6C1.3,39.7,1.5,40,1.8,40.3z
		"/>
	<path class="st0" d="M6.8,11.4c0.3,0.1,0.5,0.5,0.9,0.2c0.2-0.4-0.3-0.6-0.2-1l0,0c0.4,0,0.6,0.3,0.9,0.5c0.4-0.1,0.9-0.3,1.3-0.5
		c-0.1-0.9-1-1-1.3-1.6C8.4,9,8.3,9,8.2,9c0,0.3,0,0.5,0.2,0.8l0,0C8,9.7,8,9.3,8,9C7.6,9,7.1,9,6.6,9C6.6,9.1,6.5,9.1,6.4,9
		C6.4,9,6.3,9,6.2,9C6.2,9.1,6.1,9.1,6,9C5.8,9,5.6,9,5.4,9C5.2,9.2,4.9,9.3,4.6,9C4.2,9,3.8,9,3.4,9C4,9.5,4.9,9.5,5.3,10.2
		c-0.2,0.2-0.3,0.2-0.5,0.2l0,0c0,0.1,0,0.3,0,0.4l0,0c0.2-0.1,0.4-0.2,0.6,0c0.2,0.2,0.5,0.3,0.8,0.4l0,0c0.1-0.1,0.2-0.2,0.2-0.2
		l0,0c0-0.2-0.3-0.4-0.1-0.7C7,10.4,6.8,11,6.8,11.4L6.8,11.4z M5.5,9.5c0.3,0,0.4,0.1,0.3,0.4C5.6,9.9,5.5,9.8,5.5,9.5z M7.2,9.9
		C7.2,9.8,7.2,9.8,7.2,9.9c0.1-0.1,0.1-0.1,0.1,0C7.3,9.8,7.3,9.9,7.2,9.9C7.2,9.9,7.2,9.9,7.2,9.9z"/>
	<path class="st0" d="M39.8,9c0.3,0.2,0.6,0.5,0.7,0.6c0.4,0.2,0.7,0,1.1,0.1c0.4,0.5,1.2,0.5,1.5,1c1.3,0.3,2.3-0.7,3.5-0.9l0,0
		c0.1-0.1,0.3-0.2,0.4-0.2l0,0c0.1-0.2,0.3-0.2,0.4-0.2l0,0c0.1-0.1,0.1-0.3,0.2-0.4c-0.8,0-1.6,0-2.4,0c0,0.1,0,0.3-0.2,0.3
		c0-0.1,0-0.2,0-0.3c-1.3,0-2.5,0-3.8,0c-0.1,0-0.1,0-0.2,0C40.6,9,40.2,9,39.8,9z"/>
	<path class="st0" d="M0.6,43.2c0.3,0,0.5,0.1,0.8,0.1c0.2-0.3-0.2-0.6,0-1c0.3-0.3,0.7-0.4,1.2-0.1c0.7,0.4,1.5,0.3,2.3,0.3
		C5.5,41.7,6,40.8,6.5,40c-0.3-0.3-0.6-0.1-0.9,0c-1.3,0.6-2.7,0.9-3.9,1.7C1.2,42,0.6,42,0,42.2c0,0.2,0,0.4,0,0.6
		C0.3,42.9,0.6,42.9,0.6,43.2L0.6,43.2z M4.3,41.8C4.2,41.9,4,42,4,41.8c0,0,0-0.1,0-0.2C4.1,41.6,4.2,41.6,4.3,41.8z M3,41.7
		C3,41.7,3,41.6,3,41.7c0-0.1,0.1-0.1,0.1-0.1c0,0,0,0,0,0.1C3.1,41.7,3,41.7,3,41.7z"/>
	<path class="st0" d="M0,43.8c0.5-0.1,1,0.1,1.4,0.4c0.5,0.3,1,0.5,1.6,0.5c0.8-0.3,0.9-1,1.3-1.6c-0.9-0.1-1.7-0.3-2.6-0.7
		c0.1,0.9,0.8,1.3,1.3,1.9c-0.4,0-1.7-0.6-2.4-1.1l0,0c-0.2,0-0.4,0-0.6,0C0,43.4,0,43.6,0,43.8z M3.6,43.5
		c-0.3,0.2-0.5,0.1-0.6-0.2C3.2,43.2,3.4,43.3,3.6,43.5z"/>
	<path class="st0" d="M0,46.2c0.6,0,1.1,0.4,1.8,0.5C2,46.1,2.5,45.7,3,45.2c-1-0.3-1.9-0.8-2.9-1c0,0.1,0,0.3,0,0.4
		c0.2,0,0.4,0,0.6,0.2C0.8,44.8,1,45,1,45.2c0.1,0,0.1,0,0.1,0c0,0,0,0-0.1,0c-0.2-0.1-0.3-0.2-0.4-0.4c-0.2,0-0.4,0-0.6,0
		c0,0.2,0,0.4,0,0.6c0.2,0.1,0.5,0.1,0.6,0.4c0.1,0,0.2,0,0.5,0c-0.2,0.1-0.3,0-0.4,0c-0.2,0-0.4,0-0.6,0C0,45.9,0,46.1,0,46.2z"/>
	<path class="st0" d="M1.4,9c0,0.2,0,0.4,0.2,0.6c0.9,0,1.5,0.6,2.2,1.2c0.5,0.5,1,1,1.9,1.3c-0.2-0.6-0.7-0.9-1-1.3l0,0
		c-0.3-0.1-0.4-0.3,0-0.4l0,0c0-0.2-0.1-0.4-0.3-0.5c-0.6,0-1.9-0.4-2.4-0.8C2.1,9.1,2,9.1,2,9C1.8,9,1.6,9,1.4,9z"/>
	<path class="st0" d="M0,21.8c0.9,0.9,2.1,1.2,3.1,1.7c0.2,0.1,0.5,0.2,0.8-0.1c-0.2-0.3-0.5-0.4-0.8-0.5c-0.9-0.4-1.8-0.7-2.5-1.3
		c-0.1-0.1-0.4-0.1-0.6-0.2C0,21.6,0,21.7,0,21.8z"/>
	<path class="st0" d="M2.9,12.2c-0.2,0-0.4,0-0.6-0.1c-0.7-0.4-1.5-0.3-2.3-0.3c0,0.3,0,0.5,0,0.8c0.3,0,0.5,0,0.8,0l0,0
		c0-0.2-0.1-0.3,0-0.5c0.6,0.2,1.2,0.4,1.8,0.6C2.8,12.6,2.8,12.4,2.9,12.2C2.8,12.2,2.9,12.2,2.9,12.2z"/>
	<path class="st0" d="M9.2,9c0.3,0.4,0.6,0.8,1.2,1.1c0.3-0.2,0.7-0.1,1-0.5l0,0c-0.1-0.1-0.2-0.2-0.2-0.2l0,0C11.1,9.3,11,9.2,11,9
		c-0.1,0-0.3,0-0.4,0c0,0.1,0,0.2-0.1,0.2c0,0,0-0.1-0.1-0.2C10,9,9.6,9,9.2,9z"/>
	<path class="st0" d="M3.2,24c-0.8-0.3-1.6-0.7-2.4-1.1c-0.3-0.1-0.5-0.3-0.8-0.3c0,0.1,0,0.3,0,0.4c0.6,0,0.9,0.5,1.4,0.7
		C2,23.9,2.6,24,3.2,24L3.2,24z"/>
	<path class="st0" d="M0,24c0.5,0,0.9,0.4,1.3,0.6c0.3,0.2,0.6,0.6,1.3,0.4C1.8,24.3,1,23.9,0,23.8C0,23.9,0,24,0,24z"/>
	<path class="st0" d="M0.8,48c0.2-0.3,0.4-0.6,0.7-0.9c-0.5-0.1-1-0.2-1.5-0.3c0,0.2,0,0.4,0,0.6C0.4,47.4,0.8,47.5,0.8,48z"/>
	<path class="st0" d="M1,13.6c-0.3-0.3-0.6-0.3-1-0.4c0,0.1,0,0.3,0,0.4c0.5,0.1,0.4,0.7,0.7,1C1.2,14.4,0.7,13.9,1,13.6L1,13.6z"/>
	<path class="st0" d="M11.4,9.6c0.7,0.1,0.9,0,1-0.6c-0.3,0-0.7,0-1,0c-0.1,0.1-0.1,0.3-0.2,0.4l0,0C11.3,9.5,11.4,9.6,11.4,9.6
		L11.4,9.6z"/>
	<path class="st0" d="M0,10c0.3,0,0.5,0.2,0.7,0.4c0.2,0.2,0.4,0.1,0.6-0.2C1,9.7,0.5,9.8,0,9.8C0,9.9,0,10,0,10z"/>
	<path class="st0" d="M0,41.8c0.2-0.1,0.5-0.2,0.6-0.5c0-0.4-0.4-0.4-0.6-0.5C0,41.1,0,41.5,0,41.8z"/>
	<path class="st0" d="M0,11c0.3,0,0.6,0.4,1.1,0.2c-0.3-0.4-0.7-0.4-1.1-0.4C0,10.9,0,11,0,11z"/>
	<path class="st0" d="M0,9.4c0.4,0.1,0.8,0,1-0.4C0.7,9,0.4,9,0,9C0,9.2,0,9.3,0,9.4z"/>
	<path class="st0" d="M0.8,25c-0.1-0.4-0.4-0.6-0.8-0.6c0,0.1,0,0.3,0,0.4C0.3,24.9,0.5,25.1,0.8,25L0.8,25z"/>
	<path class="st0" d="M0.8,48c-0.3-0.1-0.5-0.1-0.8-0.2c0,0.1,0,0.3,0,0.4c0.1,0.1,0.3,0.1,0.4,0.2l0,0C0.6,48.3,0.7,48.2,0.8,48z"
		/>
	<path class="st0" d="M0,49c0.3-0.1,0.4-0.3,0.4-0.6l0,0c-0.1,0-0.3,0-0.4,0C0,48.6,0,48.8,0,49z"/>
	<path class="st0" d="M0,25.6c0.1,0,0.3,0,0.4-0.1c0-0.3-0.2-0.3-0.4-0.3C0,25.4,0,25.5,0,25.6z"/>
	<path class="st0" d="M12.8,9c0.2,0.2,0.4,0.2,0.6,0C13.2,9,13,9,12.8,9z"/>
	<path class="st0" d="M2.4,9c0.1,0.1,0.1,0.1,0.2,0C2.6,9,2.5,9,2.4,9z"/>
	<path class="st0" d="M0.2,71c-0.1-0.1-0.1-0.1-0.2-0.2C0,71,0,71,0.2,71z"/>
	<path class="st0" d="M50.4,39.2c0.4-0.7,1.2-0.9,1.9-1.2c0.3-0.2,0.7-0.3,1.1-0.5c1.5-0.8,3-1.5,4.6-2.1c1.4-0.7,2.9-1.3,4.3-1.9
		c0.2-0.1,0.4-0.2,0.5-0.4c-0.2-0.8-0.8-1.4-0.9-2.3l0,0c-0.2-0.1-0.4-0.2-0.4-0.4l0,0c-0.3-0.2-0.6-0.4-0.6-0.8l0,0
		c-0.1-0.1-0.2-0.3-0.2-0.4l0,0c-0.5-0.3-0.9-0.6-1-1.2l0,0c-0.1-0.1-0.2-0.2-0.2-0.2l0,0c-0.4-0.3-0.9-0.7-1-1.2l0,0
		c-0.1-0.1-0.2-0.2-0.2-0.2l0,0c-0.6-0.3-0.9-0.9-1.2-1.4l0,0c-0.3-0.1-0.5-0.4-0.7-0.6c-1.5-1.7-3.1-3.3-4.8-5
		c-0.8-0.7-1.6-1.4-2.2-2.3l0,0c-0.8-0.4-1.3-1-1.9-1.5c-0.7-0.6-1.4-1.2-2.1-1.8c-0.6-0.5-1.2-0.9-1.8-1.3
		c-0.6-0.4-1.2-0.3-1.8-0.3c-0.7,1.2-1.1,2.5-1.4,3.8c-0.3,1.2-0.6,2.5-0.9,3.7c-0.2,0.6-0.3,1.3-0.4,1.9c-0.2,0.9-0.4,1.8-0.6,2.6
		c-0.6,1.9-1,3.8-1.7,5.6c0,0.1-0.1,0.3-0.1,0.4c0.7,0.8,1.4,1.5,2,2.4c0.6,1,1.2,2,1.6,3.1c0.3,0.6,0.6,1.2,0.9,1.9
		c0.6,1.7,1.5,3.3,2.1,5c0.2,0.1,0.4,0.1,0.6,0c1-0.4,2.1-0.9,3-1.6c0.4-0.3,0.8-0.5,1.3-0.5l0,0c0.7-0.7,1.4-1.3,2.4-1.4L50.4,39.2
		z"/>
	<path class="st0" d="M42.3,44.6c-0.2-0.3-0.6-0.2-0.7-0.5c0-0.3,0.4-0.4,0.5-0.7c-0.2-1.4-0.6-2.7-1.2-4.1c-0.6-1.3-1-2.6-1.6-3.9
		c-0.5-1-1-2-1.7-2.9c-0.9-1.1-1.6-1.4-2.8-0.9c-0.3,0.1-0.5,0.3-0.7,0.5c-0.3,0.4-0.6,0.7-0.8,1.1c-0.7,1.3-1.5,2.4-2.1,3.7
		c-0.6,1.3-1.2,2.5-1.9,3.7c-0.1,0.2-0.2,0.4-0.3,0.6c-0.8,2.1-2,4.1-3,6.2c-0.3,0.7-0.8,1.2-1.1,1.9c-0.6,1.3-0.4,2.3,0.7,3.3
		c1.9,1.9,3.7,3.8,5.6,5.7c1,1,1.9,2.1,2.9,3.1c0.3,0.3,0.6,0.7,1,0.9c0.8,0.5,1.5,0.3,1.9-0.5c0.3-0.6,0.6-1.3,0.8-1.9
		c1.1-2.4,1.9-5,2.6-7.5c0.3-1.1,0.7-2.1,0.9-3.2C41.6,47.9,42.2,46.3,42.3,44.6z M26.2,51.6c0.1,0.2,0.2,0.3-0.1,0.4
		C26.2,51.8,26.2,51.7,26.2,51.6L26.2,51.6z M26.8,47.8L26.8,47.8c0.2-0.3,0.5-0.4,0.8-0.4c0.1,0,0.2-0.2,0.4,0c-0.2,0-0.3,0-0.4,0
		C27.4,47.7,27.2,47.8,26.8,47.8z M26.8,53.1C26.8,53,26.8,53,26.8,53.1c0-0.1,0.1-0.1,0.1-0.1l0,0.1C26.8,53.1,26.8,53.1,26.8,53.1
		z M29.7,46.8c0,0,0.1-0.1,0.1-0.1c0,0,0.1,0.1,0,0.1C29.8,46.8,29.8,46.8,29.7,46.8C29.8,46.9,29.8,46.8,29.7,46.8z M36.6,60.6
		c0,0-0.1-0.1-0.1-0.1c0,0,0,0,0.1-0.1C36.6,60.4,36.7,60.5,36.6,60.6C36.7,60.5,36.7,60.6,36.6,60.6z M30.9,46.2
		C30.9,46.2,30.9,46.3,30.9,46.2c-0.1,0.1-0.1,0.1-0.1,0C30.8,46.2,30.8,46.2,30.9,46.2C30.9,46.2,30.9,46.2,30.9,46.2z M27.1,51.4
		c0.1-0.1,0.1,0,0.1,0.1C27.3,51.5,27.2,51.5,27.1,51.4C27.2,51.5,27.1,51.4,27.1,51.4z"/>
	<path class="st0" d="M22.4,35.4c0.8,0,1.5-0.4,2.3-0.6c1.8-0.6,3.6-1.3,5.5-1.9c1.2-0.3,2.2-1,3.3-1.4c0.4-0.1,0.5-0.5,0.7-0.9
		c-0.4-0.6-0.9-1.1-1.4-1.5c-1.1-1-2.4-1.8-3.5-2.8c-1.2-1.1-2.5-2.1-3.8-3.2c-1.1-1-2.3-1.9-3.4-2.8c-0.3-0.3-0.8-0.4-1.2-0.6
		c-0.4-0.2-0.9-0.1-1.2,0.3c-0.3,0.4-0.7,0.7-1,1.1c-1,1.6-2,3.1-2.9,4.7c-0.6,1-1.2,2-1.7,3c-0.7,1.2-1.3,2.5-2,3.8
		c-0.7,1.3-1.3,2.7-2,4c-0.2,0.3-0.4,0.6-0.3,1.1c0.3,0.6,0.8,0.8,1.6,0.7c1.7-0.4,3.4-0.6,5-1.3c0.7-0.3,1.4-0.4,2.1-0.6
		C19.9,36.4,21.1,35.9,22.4,35.4L22.4,35.4z M15.6,28.6c-0.2,0-0.4,0.3-0.8,0.2C15.1,28.5,15.3,28.5,15.6,28.6L15.6,28.6z
		 M14.3,36.5C14.3,36.5,14.4,36.5,14.3,36.5C14.3,36.6,14.3,36.6,14.3,36.5C14.3,36.5,14.3,36.5,14.3,36.5
		C14.3,36.5,14.3,36.5,14.3,36.5z"/>
	<path class="st0" d="M21.5,18.6c0.8,1.3,1.9,2.1,2.9,3c0.7,0.6,1.5,1.2,2.2,1.9c1.1,1.1,2.4,2,3.6,3c0.9,0.8,1.9,1.5,2.8,2.3
		c0.4,0.4,1,0.7,1.6,1c0.7,0.3,1.7-0.2,2.1-0.9c0.8-1.7,1.2-3.5,1.5-5.3c0.1-0.5,0.3-0.9,0.4-1.4c0.6-2.1,0.9-4.2,1.5-6.3
		c0.3-1,0.5-2.2,0.9-3.2c-0.3-0.3-0.6-0.2-0.8-0.1c-2.6,0.7-5.2,1.3-7.8,2.1c-1.8,0.5-3.6,1.1-5.3,1.6c-0.4,0.1-0.8,0.3-1.2,0.5
		C24.4,17.3,22.9,17.6,21.5,18.6z M24.2,18.1c0.3,0.1,0.4,0.1,0.2,0.4C24.3,18.4,24.2,18.3,24.2,18.1z M23.1,19.8
		C23.2,19.8,23.2,19.8,23.1,19.8c0.1-0.1,0.1-0.1,0.1-0.1C23.3,19.8,23.3,19.9,23.1,19.8C23.2,19.9,23.2,19.9,23.1,19.8z M28.5,23.5
		c0,0,0.1,0.1,0.1,0.1c0,0-0.1,0.1-0.1,0.1c0,0-0.1,0-0.1,0C28.4,23.5,28.4,23.5,28.5,23.5z M24.2,20C24.2,19.9,24.2,19.9,24.2,20
		C24.3,20,24.3,20,24.2,20C24.3,20,24.2,20,24.2,20z M32.9,27.2L32.9,27.2L32.9,27.2L32.9,27.2z"/>
	<path class="st0" d="M24.2,49.4c0.1-0.1,0.2-0.2,0.3-0.3c0.9-1.7,1.9-3.3,2.7-5.1c0.6-1.3,1.2-2.6,1.8-3.9c0.6-1.3,1.2-2.6,2-3.8
		c0.6-0.9,1.1-1.9,1.6-2.9c0.2-0.4,0.7-0.8,0.8-1.2c-0.1,0-0.1-0.1-0.2-0.1c-1.1,0.6-2.4,0.9-3.5,1.3c-1.9,0.8-3.8,1.3-5.7,2
		c-0.1,0-0.2,0-0.3,0.1c-2,0.7-4,1.2-6,1.9c-0.8,0.3-1.6,0.5-2.5,0.7c-1.4,0.2-2.7,0.9-4.2,1.2c0.4,0.6,0.9,1,1.5,1.4
		c1.8,1.1,3.3,2.6,4.8,4c1.4,1.3,2.9,2.6,4.3,4c0.6,0.6,1.2,1.2,2,1.4C23.8,49.9,24,49.6,24.2,49.4L24.2,49.4L24.2,49.4z M13,40.3
		C13,40.3,13,40.3,13,40.3C13,40.2,13,40.2,13,40.2C13,40.1,13.1,40.1,13,40.3C13.1,40.2,13.1,40.3,13,40.3z M18.9,42.4
		C18.8,42.5,18.8,42.4,18.9,42.4C18.8,42.4,18.9,42.3,18.9,42.4C18.9,42.3,18.9,42.4,18.9,42.4z M22.9,42.9
		C22.9,42.9,22.8,42.9,22.9,42.9C22.8,42.8,22.8,42.8,22.9,42.9C22.9,42.8,22.9,42.8,22.9,42.9z"/>
	<path class="st0" d="M2.8,12.2C3,12.2,3.1,12.1,3.3,12c0.3,0.3,0.9,0.3,0.8,1.1c0.4-0.8,0.3-1.3-0.3-1.7c-0.5-0.3-1-0.7-1.4-1
		c-0.3,0-0.4,0.2-0.5,0.5C1.9,11.5,2.8,11.6,2.8,12.2L2.8,12.2z"/>
	<path class="st0" d="M6.2,11.2C6,11.6,6.1,12,6.6,12.1c0.3-0.2,0.2-0.5,0.2-0.7l0,0c-0.1-0.1-0.3-0.3-0.4-0.4l0,0
		C6.3,11.1,6.3,11.2,6.2,11.2C6.2,11.2,6.2,11.2,6.2,11.2z"/>
	<path class="st0" d="M4.6,24c0.5-0.5,0.5-0.5-0.3-0.9C4.3,23.5,4.6,23.7,4.6,24L4.6,24z"/>
	<path class="st0" d="M1.8,13.2c-0.2-0.5-0.5-0.7-1-0.6l0,0C0.9,13.3,1.4,13.2,1.8,13.2L1.8,13.2z"/>
	<path class="st0" d="M3,21.8c0,0.6,0.4,0.8,1,0.8C3.7,22.1,3.4,22,3,21.8L3,21.8z"/>
	<path class="st0" d="M1,13.6c0.2,0.2,0.3,0.6,0.7,0.7C1.6,13.8,1.6,13.8,1,13.6L1,13.6z"/>
	<path class="st0" d="M4.7,12.1c0.1,0.4,0.2,0.6,0.6,0.5C5.4,12.2,5.1,12.2,4.7,12.1z"/>
	<path class="st0" d="M3.6,12.9c-0.5-0.1-0.5-0.1-0.4,0.3C3.5,13.3,3.5,13,3.6,12.9z"/>
	<path class="st0" d="M1.8,13.2c0.1,0.3,0.1,0.5,0.4,0.6C2.3,13.4,2.3,13.4,1.8,13.2L1.8,13.2z"/>
	<path class="st0" d="M0.8,25c0.2,0.3,0.3,0.6,0.7,0.6C1.4,25.1,1.4,25.1,0.8,25L0.8,25z"/>
	<path class="st0" d="M1.6,32c0.2,0.6,0.7,0.3,1,0.4l0,0C2.4,32.1,2,32,1.6,32L1.6,32z"/>
	<path class="st0" d="M2.7,32.4c-0.1,0.2-0.2,0.3-0.3,0.5C2.9,33,3,32.7,3,32.4l0,0C2.9,32.4,2.8,32.4,2.7,32.4L2.7,32.4z"/>
	<path class="st0" d="M3.8,24.4c-0.3,0-0.4-0.2-0.6-0.4l0,0c0,0.2,0,0.4,0,0.6C3.6,24.8,3.7,24.6,3.8,24.4L3.8,24.4z"/>
	<path class="st0" d="M3.8,24.4c0.3,0,0.6-0.2,0.8-0.4l0,0C4.2,23.7,4,24.1,3.8,24.4L3.8,24.4z"/>
	<path class="st0" d="M6.1,23.4c-0.2,0-0.4,0-0.6,0.2C5.7,23.8,5.8,23.5,6.1,23.4L6.1,23.4z"/>
	<path class="st0" d="M4.8,38.8c0.1,0,0.3,0,0.4-0.1c-0.1-0.3-0.3-0.1-0.4-0.1l0,0C4.8,38.7,4.8,38.8,4.8,38.8L4.8,38.8z"/>
	<path class="st0" d="M58.6,60.2C58.6,60.2,58.7,60.2,58.6,60.2C58.7,60.2,58.6,60.2,58.6,60.2L58.6,60.2z"/>
	<path class="st0" d="M1.2,41L1.2,41L1.2,41L1.2,41z"/>
</mask>
<g class="st2">
	<g>
		<path class="st0" d="M60.8,62c1.7,0,3.2-1.3,3.2-3v-6c0-1.7-1.4-3-3.2-3H4.2C2.4,50,1,51.3,1,53v6c0,1.7,1.4,3,3.2,3H60.8z"/>
	</g>
</g>
</svg>
