<svg id="Capa_1" data-name="Capa 1" xmlns="http://www.w3.org/2000/svg" viewBox="0 0 26.47 28.35"><defs><style>.cls-1{fill:#dbe4eb;}.cls-2{fill:#ffff32;}</style></defs><title>ssi_icon_sbtWallet</title><path class="cls-1" d="M17,7.29a.66.66,0,0,1,.27.06.69.69,0,0,1,.22.16.72.72,0,0,1,.14.24.65.65,0,0,1,0,.28L17,16.3a.63.63,0,0,1-.19.4l-.92.59a.68.68,0,0,0-.19.4L15.23,26a.63.63,0,0,1-.21.43.66.66,0,0,1-.44.17H11.89a.66.66,0,0,1-.44-.17.63.63,0,0,1-.21-.43l-.5-8.31a.68.68,0,0,0-.19-.4l-.92-.59a.68.68,0,0,1-.19-.4L8.78,8a1.27,1.27,0,0,1,0-.28A.72.72,0,0,1,9,7.51a.69.69,0,0,1,.22-.16.66.66,0,0,1,.27-.06h1.83a3.36,3.36,0,0,0,2,1,3.36,3.36,0,0,0,2-1H17m0-.93H14.79l-.27.3a2.43,2.43,0,0,1-1.28.75A2.45,2.45,0,0,1,12,6.66l-.27-.3H9.44a1.57,1.57,0,0,0-.64.14,1.5,1.5,0,0,0-.54.39,1.64,1.64,0,0,0-.33.57,1.66,1.66,0,0,0-.07.66l.66,8.25a1.54,1.54,0,0,0,.45,1l.07.07.09.06.69.45.49,8.13a1.59,1.59,0,0,0,1.58,1.47h2.69a1.64,1.64,0,0,0,1.07-.41,1.62,1.62,0,0,0,.51-1l.49-8.16.7-.45.08-.06.08-.07a1.65,1.65,0,0,0,.45-1l.66-8.29a1.61,1.61,0,0,0-.08-.64,1.64,1.64,0,0,0-.33-.57,1.5,1.5,0,0,0-.54-.39A1.53,1.53,0,0,0,17,6.36Z"/><path class="cls-1" d="M13.24,1.84a2.59,2.59,0,0,1,1.83.75,2.49,2.49,0,0,1,.76,1.8c0,1.4-1.16,3-2.59,3s-2.6-1.62-2.6-3a2.49,2.49,0,0,1,.76-1.8,2.63,2.63,0,0,1,1.84-.75m0-.93a3.53,3.53,0,0,0-2.49,1,3.49,3.49,0,0,0-1,2.47c0,1.86,1.51,4,3.53,4s3.53-2.09,3.53-3.95a3.46,3.46,0,0,0-1-2.47,3.53,3.53,0,0,0-2.48-1Z"/><path class="cls-2" d="M13.24,7.41c1.43,0,2.59-1.62,2.59-3a2.49,2.49,0,0,0-.76-1.8,2.59,2.59,0,0,0-1.83-.75,2.63,2.63,0,0,0-1.84.75,2.49,2.49,0,0,0-.76,1.8C10.64,5.79,11.8,7.41,13.24,7.41Z"/><path class="cls-2" d="M13.24,26.6h1.34a.66.66,0,0,0,.44-.17.63.63,0,0,0,.21-.43l.5-8.31a.68.68,0,0,1,.19-.4l.92-.59a.63.63,0,0,0,.19-.4L17.69,8a.65.65,0,0,0,0-.28.72.72,0,0,0-.14-.24.69.69,0,0,0-.22-.16A.66.66,0,0,0,17,7.29H15.2a3.36,3.36,0,0,1-2,1m-.57,6.56V12.84a1.36,1.36,0,0,1-.73-1.5,1.36,1.36,0,0,1,.47-.75,1.29,1.29,0,0,1,.83-.29"/><path d="M13.24,1.84a2.63,2.63,0,0,0-1.84.75,2.49,2.49,0,0,0-.76,1.8c0,1.4,1.16,3,2.6,3"/><path d="M13.24,8.34a3.36,3.36,0,0,1-2-1H9.44a.66.66,0,0,0-.27.06A.69.69,0,0,0,9,7.51a.72.72,0,0,0-.14.24,1.27,1.27,0,0,0,0,.28l.66,8.27a.68.68,0,0,0,.19.4l.92.59a.68.68,0,0,1,.19.4l.5,8.31a.63.63,0,0,0,.21.43.66.66,0,0,0,.45.17h1.34"/><path class="cls-2" d="M13.24,14.9h-.57V12.84a1.36,1.36,0,0,1-.73-1.5,1.36,1.36,0,0,1,.47-.75,1.29,1.29,0,0,1,.83-.29"/><path d="M13.24,10.3a1.33,1.33,0,0,1,.83.29,1.4,1.4,0,0,1,.46.75,1.33,1.33,0,0,1-.1.88,1.4,1.4,0,0,1-.63.62V14.9h-.56"/></svg>