<svg id="Capa_1" data-name="Capa 1" xmlns="http://www.w3.org/2000/svg" viewBox="0 0 26.47 28.35"><defs><style>.cls-1{fill:#dbe4eb;}.cls-2{fill:#ffff32;}.cls-3{fill:#49c1bf;}</style></defs><title>ssi_icon_bloqExp</title><path class="cls-1" d="M17.76,25.52a.65.65,0,0,1-.3-.09l-12-5.75a.57.57,0,0,1-.36-.55v-3a.62.62,0,0,1,.35-.57l7.45-3.65L5.43,8.37a.61.61,0,0,1-.36-.57v-3a.57.57,0,0,1,.2-.47l.11-.07.4-.18L8.45,2.91a.54.54,0,0,1,.28-.08A.56.56,0,0,1,9,2.92l12,5.78a.58.58,0,0,1,.35.55q0,1.48,0,3a.59.59,0,0,1-.37.56l-3,1.33a1.14,1.14,0,0,1-.16.09l-7.27,3.7,6.66,3.2V15.39a.55.55,0,0,1,.36-.59l3-1.34a.83.83,0,0,1,.27-.07.5.5,0,0,1,.5.5v9.64a1.45,1.45,0,0,1,0,.29,1,1,0,0,1-.46.35.42.42,0,0,1-.14.06l-.14.07h0l-.2.11-.37.16-.14.05a.84.84,0,0,1-.14.06,7084425888386.52,7084425888386.52,0,0,0-.28.12l-.1.06-.51.23a.35.35,0,0,1-.11,0l-.14.07-.13.06-.14.06,0,0a1.94,1.94,0,0,1-.3.13h0l-.1,0Z"/><path class="cls-1" d="M8.76,3.33s0,0,.06,0l7.87,3.79,4.16,2s.06,0,0,.1v3c0,.06,0,.08-.06.11l-3,1.33-.07,0-.14.08L15.22,15l-2.6,1.32-2.53,1.29-.53.27s0,0-.06,0a2.1,2.1,0,0,1,.26.13l1.55.74,2.82,1.36,2,.94,1.62.78.07,0v-6.5c0-.12,0-.09.09-.14l3-1.34.07,0h0v9.64a.27.27,0,0,1,0,.09.21.21,0,0,0-.13.07h0a.14.14,0,0,0-.12.06h0a.14.14,0,0,0-.12.06h0a.23.23,0,0,0-.12.06h0a1,1,0,0,1-.18.09l-.33.14a.15.15,0,0,1-.07,0h0a.18.18,0,0,0-.14.06h0a.16.16,0,0,0-.12.06h0a.14.14,0,0,0-.12.06h0a.14.14,0,0,0-.12.06h0l0,0-.51.23h-.06a.17.17,0,0,0-.11.06h0a.19.19,0,0,0-.13.07h0a.17.17,0,0,0-.12.05h0a.21.21,0,0,0-.13.05h0a1.22,1.22,0,0,1-.24.1h0l0,0h0l0,0-1.42-.68-2.9-1.38-1.74-.83L9.11,20.88,7.36,20l-1.71-.81-.05,0s0,0,0,0v-3A.12.12,0,0,1,5.64,16l2.48-1.21,1.57-.77,2.49-1.22L13.93,12l.07,0-.07,0-2-1L9.35,9.69l-2-.94L5.64,7.92a.12.12,0,0,1-.07-.12v-3s0-.06,0-.08L6,4.54,8.67,3.36s.05,0,.06,0h0M19.62,24.2h0m-1.27.57h0M8.76,2.33h0a1,1,0,0,0-.51.14l-1.33.58-1.31.58-.28.12-.12.06A.79.79,0,0,0,5,4a1,1,0,0,0-.38.89v3a1.12,1.12,0,0,0,.64,1l1.38.66L7,9.65l.53.26,1.43.69,1.5.71,1.05.51.26.13-1.54.75-.93.46-.92.45-.65.32-.53.26-1.95,1a1.11,1.11,0,0,0-.63,1v2.95a1.06,1.06,0,0,0,.64,1l.51.24L6.93,21l1.75.84.79.38,1.76.84.9.43.84.4,2.56,1.22.34.17.36.17,1,.49a1.13,1.13,0,0,0,.5.13,1.2,1.2,0,0,0,.42-.08,2.48,2.48,0,0,0,.37-.17l.15-.07.12-.05.13-.06.12,0,.52-.23.11-.06.13-.06.14-.06.1-.05.17-.06.06,0,.28-.12.25-.13a.31.31,0,0,0,.13-.06.42.42,0,0,0,.14-.06l.17-.08a1,1,0,0,0,.55-.54,1,1,0,0,0,.08-.51V13.89a1,1,0,0,0-.4-.8,1.06,1.06,0,0,0,.4-.87v-3a1.07,1.07,0,0,0-.62-1L17.62,6.49l-.5-.24L9.32,2.5a1,1,0,0,0-.56-.17Zm3,15.56L13,17.25l.06,0,.39-.2,2.21-1.12,1-.49.15-.07v5l-.26-.12-.78-.38-1.17-.56-1.74-.84-1.09-.52Z"/><path d="M5.59,4.72,6,4.54,8.67,3.36s.05,0,.06,0h0s0,0,.06,0l7.87,3.79,4.16,2s.06,0,0,.1v3c0,.06,0,.08-.06.11l-3,1.33-.07,0v-3a.09.09,0,0,0-.05-.09l-.25-.11-.77-.37L16,9.73l-.78-.37L14.51,9l-.78-.37L13,8.31l-.86-.41-.64-.31-.81-.39L10,6.87l-.78-.38-.69-.32-.8-.39-.7-.34L6.3,5.08l-.68-.33S5.59,4.74,5.59,4.72Z"/><path class="cls-2" d="M5.59,4.72s0,0,0,0l.68.33.76.36.7.34.8.39.69.32.78.38.7.33.81.39.64.31.86.41.69.33.78.37.72.35.78.37.7.34.77.37.25.11a.09.09,0,0,1,.05.09v3l-.14.08L15.22,15l-2.6,1.32-2.53,1.29-.53.27s0,0-.06,0a2.1,2.1,0,0,1,.26.13l1.55.74,2.82,1.36,2,.94,1.62.78.07,0V25s0,0-.06,0l-1.42-.68-2.9-1.38-1.74-.83L9.11,20.88,7.36,20l-1.71-.81-.05,0s0,0,0,0v-3A.12.12,0,0,1,5.64,16l2.48-1.21,1.57-.77,2.49-1.22L13.93,12l.07,0-.07,0-2-1L9.35,9.69l-2-.94L5.64,7.92a.12.12,0,0,1-.07-.12v-3S5.56,4.74,5.59,4.72Z"/><path d="M17.78,25V15.39c0-.12,0-.09.09-.14l3-1.34.07,0v9.64a.27.27,0,0,1,0,.09.21.21,0,0,0-.13.07h0a.16.16,0,0,0-.13.06h0a.18.18,0,0,0-.13.06h0a.18.18,0,0,0-.13.06h-.06l-.49.23s0,0,0,0h0a.18.18,0,0,0-.14.06h0a.15.15,0,0,0-.13.06h0a.15.15,0,0,0-.13.06h0a.16.16,0,0,0-.13.06h-.06l-.5.22s0,0,0,0h0a.14.14,0,0,0-.12.06h0a.19.19,0,0,0-.14.07h0a.17.17,0,0,0-.13.05h0a.14.14,0,0,0-.13.05h0a.46.46,0,0,0-.23.09h0s0,0,0,0Z"/><path class="cls-3" d="M19.76,24.14s0,0,0,0l.49-.23h.05a1,1,0,0,1-.18.09l-.33.14A.11.11,0,0,1,19.76,24.14Z"/><path class="cls-3" d="M18.62,24.64s0,0,0,0l.5-.22h.05l0,0-.51.23Z"/><path class="cls-3" d="M17.84,25h0a.46.46,0,0,1,.23-.09A1.22,1.22,0,0,1,17.84,25Z"/><path class="cls-3" d="M20.77,23.69a.21.21,0,0,1,.13-.07A.19.19,0,0,1,20.77,23.69Z"/><path class="cls-3" d="M19.62,24.2a.18.18,0,0,1,.14-.06A.35.35,0,0,1,19.62,24.2Z"/><path class="cls-3" d="M18.35,24.77a.19.19,0,0,1,.14-.07A.27.27,0,0,1,18.35,24.77Z"/><path class="cls-3" d="M20.63,23.75a.16.16,0,0,1,.13-.06A.31.31,0,0,1,20.63,23.75Z"/><path class="cls-3" d="M20.49,23.81a.18.18,0,0,1,.13-.06A.31.31,0,0,1,20.49,23.81Z"/><path class="cls-3" d="M20.35,23.87a.18.18,0,0,1,.13-.06A.22.22,0,0,1,20.35,23.87Z"/><path class="cls-3" d="M19.49,24.26a.15.15,0,0,1,.13-.06A.31.31,0,0,1,19.49,24.26Z"/><path class="cls-3" d="M19.36,24.32a.15.15,0,0,1,.13-.06A.38.38,0,0,1,19.36,24.32Z"/><path class="cls-3" d="M19.22,24.38a.16.16,0,0,1,.13-.06A.31.31,0,0,1,19.22,24.38Z"/><path class="cls-3" d="M18.5,24.7a.14.14,0,0,1,.12-.06A.27.27,0,0,1,18.5,24.7Z"/><path class="cls-3" d="M18.22,24.82a.17.17,0,0,1,.13-.05A.29.29,0,0,1,18.22,24.82Z"/><path class="cls-3" d="M18.08,24.88a.14.14,0,0,1,.13-.05A.19.19,0,0,1,18.08,24.88Z"/><path class="cls-3" d="M17.79,25s0,0,0,0Z"/></svg>