<svg width="25" height="21" viewBox="0 0 25 21" fill="none" xmlns="http://www.w3.org/2000/svg">
<g id="ssi_icon_2arrowsUP">
<path id="Vector 95 (Stroke)" fill-rule="evenodd" clip-rule="evenodd" d="M23.9084 19.6994C23.1273 20.4804 21.861 20.4804 21.0799 19.6994L12.4941 11.1136L3.90835 19.6994C3.12731 20.4804 1.86098 20.4804 1.07993 19.6994C0.298878 18.9183 0.298878 17.652 1.07993 16.8709L11.0799 6.87094C11.861 6.08989 13.1273 6.08989 13.9084 6.87094L23.9084 16.8709C24.6894 17.652 24.6894 18.9183 23.9084 19.6994Z" fill="black"/>
<path id="Vector 97 (Stroke)" fill-rule="evenodd" clip-rule="evenodd" d="M23.9084 14.0412C23.1273 14.8222 21.861 14.8222 21.0799 14.0412L12.4941 5.45538L3.90835 14.0412C3.12731 14.8222 1.86098 14.8222 1.07993 14.0412C0.298878 13.2601 0.298878 11.9938 1.07993 11.2127L11.0799 1.21274C11.861 0.43169 13.1273 0.43169 13.9084 1.21274L23.9084 11.2127C24.6894 11.9938 24.6894 13.2601 23.9084 14.0412Z" fill="#DBE4EB"/>
</g>
</svg>
