<svg width="33" height="29" viewBox="0 0 33 29" fill="none" xmlns="http://www.w3.org/2000/svg">
<path d="M29.7189 8.08801C29.7189 11.1325 27.2508 13.6006 24.2063 13.6006C21.1618 13.6006 18.6937 11.1325 18.6937 8.08801V6.24746H29.7189V8.08801Z" fill="#FFFF32" stroke="#FFFF32" stroke-width="0.7"/>
<path d="M13.5852 21.036L23.1258 21.036M23.1258 21.036H24.2791L29.2591 17.7335C29.2591 17.7335 30.4123 17.2618 31.3035 18.153C32.1946 19.0442 31.9325 20.2497 31.9325 20.2497L22.2871 27.0644H12.7989L7.34743 25.2821H1.94775V17.7335C1.94775 17.7335 5.23873 17.7335 7.34743 17.7335C7.34743 17.7335 9.33915 15.8462 12.2223 15.8462C15.1054 15.8462 16.6257 17.7335 16.6257 17.7335H19.5088C19.5088 17.7335 20.7884 17.712 21.7105 19.1489C22.6326 20.5857 23.1258 21.036 23.1258 21.036Z" stroke="#DBE4EB" stroke-width="2" stroke-linecap="round" stroke-linejoin="round"/>
<path d="M1.94775 15.7613H7.34743C7.34743 15.7613 9.33915 13.874 12.2223 13.874C15.1054 13.874 16.6257 15.7613 16.6257 15.7613H19.5088C19.5088 15.7613 20.7884 15.7399 21.7105 17.1767C22.6326 18.6136 23.1258 19.0639 23.1258 19.0639H24.2791L29.2591 15.7613C29.2591 15.7613 30.4123 15.2897 31.3035 16.1808C32.1946 17.072 31.9325 18.2776 31.9325 18.2776L22.2871 25.0923H12.7989L7.34743 23.31H1.94775V15.7613Z" fill="black"/>
<path d="M13.5852 19.0639L23.1258 19.0639M23.1258 19.0639H24.2791L29.2591 15.7613C29.2591 15.7613 30.4123 15.2897 31.3035 16.1808C32.1946 17.072 31.9325 18.2776 31.9325 18.2776L22.2871 25.0923H12.7989L7.34743 23.31H1.94775V15.7613C1.94775 15.7613 5.23873 15.7613 7.34743 15.7613C7.34743 15.7613 9.33915 13.874 12.2223 13.874C15.1054 13.874 16.6257 15.7613 16.6257 15.7613H19.5088C19.5088 15.7613 20.7884 15.7399 21.7105 17.1767C22.6326 18.6136 23.1258 19.0639 23.1258 19.0639Z" stroke="#FFFF32" stroke-width="2" stroke-linecap="round" stroke-linejoin="round"/>
<path d="M29.5689 5.89722C29.5689 8.85888 27.168 11.2598 24.2063 11.2598C21.2446 11.2598 18.8438 8.85888 18.8438 5.89722C18.8438 2.93557 21.2446 0.534668 24.2063 0.534668C27.168 0.534668 29.5689 2.93557 29.5689 5.89722Z" fill="black" stroke="#DBE4EB"/>
</svg>
