<svg id="Capa_1" data-name="Capa 1" xmlns="http://www.w3.org/2000/svg" xmlns:xlink="http://www.w3.org/1999/xlink" viewBox="0 0 26.47 28.35"><defs><style>.cls-1,.cls-2{fill:none;}.cls-2{clip-rule:evenodd;}.cls-3{fill:#dbe4eb;}.cls-4{clip-path:url(#clip-path);}.cls-10,.cls-5,.cls-7{fill:#ffff32;}.cls-6{clip-path:url(#clip-path-2);}.cls-7,.cls-9{fill-rule:evenodd;}.cls-8{clip-path:url(#clip-path-3);}.cls-10{stroke:#000;stroke-width:0.5px;}</style><clipPath id="clip-path"><path class="cls-1" d="M25.3,24.56l.08,2.5V2H6.09V17.69a4.67,4.67,0,0,0,3.82,4.07Z"/></clipPath><clipPath id="clip-path-2"><rect class="cls-1" x="12.17" y="8.68" width="11.35" height="11.04"/></clipPath><clipPath id="clip-path-3"><polygon class="cls-2" points="14.52 23.29 25.53 23.29 25.53 4.91 15.02 4.91 14.66 8.68 23.52 8.68 23.52 19.64 14.66 19.64 14.52 23.29"/></clipPath></defs><title>ssi_icon_ssiWallet2</title><path d="M5,25.07a3.32,3.32,0,0,1-3.32-3.32V6.48A3.32,3.32,0,0,1,5,3.16H20.24a3.32,3.32,0,0,1,3.32,3.32v1.7h1.32v12H23.56v1.61a3.32,3.32,0,0,1-3.32,3.32Z"/><path class="cls-3" d="M20.24,3.66a2.82,2.82,0,0,1,2.82,2.82v2.2h1.32v11H23.06v2.11a2.82,2.82,0,0,1-2.82,2.82H5a2.82,2.82,0,0,1-2.82-2.82V6.48A2.82,2.82,0,0,1,5,3.66H20.24m0-1H5A3.82,3.82,0,0,0,1.15,6.48V21.75A3.82,3.82,0,0,0,5,25.57H20.24a3.83,3.83,0,0,0,3.82-3.82V20.64h1.32v-13H24.06V6.48a3.83,3.83,0,0,0-3.82-3.82Z"/><g class="cls-4"><path class="cls-5" d="M5,3.66H20.24a2.82,2.82,0,0,1,2.82,2.82v2.2h1.32v11H23.06v2.11a2.82,2.82,0,0,1-2.82,2.82H5a2.82,2.82,0,0,1-2.82-2.82V6.48A2.82,2.82,0,0,1,5,3.66Z"/></g><polyline points="19.52 8.68 14.66 8.68 14.66 19.64 19.52 19.64"/><rect x="19.52" y="8.68" width="4.86" height="10.96" transform="translate(43.91 28.32) rotate(180)"/><g class="cls-6"><polygon class="cls-7" points="20.03 5.41 16.51 15.36 20.44 14.77 18.97 22.82 22.8 12.74 18.69 13.52 20.03 5.41"/><polygon class="cls-7" points="16.14 18.51 16.89 15.91 17.38 15.95 17.5 17.21 20.55 17.21 16.14 9.86 22.99 9.86 22.32 12.27 21.83 12.26 21.55 11.05 18.56 11.05 23 18.51 16.14 18.51"/><path d="M22.66,10.11l-.58,2.1-.33-1.41H18.12l4.44,7.46H16.47L17.13,16l.14,1.48H21l-4.41-7.35h6.08m.66-.5H15.7l.45.76,4,6.59H17.73l-.1-1-1-.09L16,18.12l-.19.64h7.64L23,18,19,11.3h2.36l.23,1,1,0,.58-2.1.18-.63Z"/></g><g class="cls-8"><polygon class="cls-9" points="20.03 5.41 16.51 15.36 20.44 14.77 18.97 22.82 22.8 12.74 18.69 13.52 20.03 5.41"/><polygon class="cls-7" points="22.08 12.21 22.66 10.11 16.58 10.11 20.99 17.46 17.27 17.46 17.13 15.98 16.47 18.26 22.56 18.26 18.12 10.8 21.75 10.8 22.08 12.21"/></g><polygon class="cls-7" points="22.8 12.74 17.61 13.72 16.51 15.36 21.42 14.62 22.8 12.74"/><line class="cls-10" x1="18.13" y1="13.36" x2="22.16" y2="12.62"/><line class="cls-10" x1="17.15" y1="15.52" x2="20.93" y2="14.96"/></svg>