<svg xmlns="http://www.w3.org/2000/svg" xmlns:xlink="http://www.w3.org/1999/xlink" viewBox="0 0 400 400"><defs><style>.cls-1{fill:url(#Degradado_sin_nombre_69);}.cls-2,.cls-3,.cls-4{stroke-linecap:round;stroke-linejoin:round;stroke-width:1.6px;}.cls-2{fill:url(#Degradado_sin_nombre_333);stroke:url(#Degradado_sin_nombre_314);}.cls-3{fill:url(#Degradado_sin_nombre_329);stroke:url(#Degradado_sin_nombre_305);}.cls-4{fill:url(#Degradado_sin_nombre_329-2);stroke:url(#Degradado_sin_nombre_305-2);}.cls-5{fill:url(#Degradado_sin_nombre_310);}.cls-6{fill:url(#Degradado_sin_nombre_309);}.cls-7{fill:url(#Degradado_sin_nombre_308);}.cls-8{fill:url(#Degradado_sin_nombre_307);}.cls-9{fill:url(#Degradado_sin_nombre_306);}.cls-10{fill:url(#Degradado_sin_nombre_306-2);}</style><radialGradient id="Degradado_sin_nombre_69" cx="200" cy="200" r="177.2" gradientUnits="userSpaceOnUse"><stop offset="0.93" stop-color="#8a8d92"/><stop offset="0.96" stop-color="#f2f5f8"/><stop offset="0.97" stop-color="#dbe4eb"/><stop offset="0.98" stop-color="#fff"/><stop offset="1" stop-color="#dbe4eb"/></radialGradient><linearGradient id="Degradado_sin_nombre_333" x1="201.87" y1="206.23" x2="194.1" y2="185.03" gradientUnits="userSpaceOnUse"><stop offset="0" stop-color="#e6e604"/><stop offset="0.1" stop-color="#ccb307"/><stop offset="0.24" stop-color="#ffff32"/><stop offset="0.66" stop-color="#e6e600"/><stop offset="0.76" stop-color="#ffff32"/><stop offset="0.93" stop-color="#ccb307"/></linearGradient><linearGradient id="Degradado_sin_nombre_314" x1="149.69" y1="245.72" x2="246.32" y2="149.1" gradientUnits="userSpaceOnUse"><stop offset="0.07" stop-color="#ccb307"/><stop offset="0.26" stop-color="#e6e604"/><stop offset="0.49" stop-color="#e6e604"/><stop offset="0.56" stop-color="#e6e679"/><stop offset="0.66" stop-color="#e6e604"/><stop offset="0.85" stop-color="#ccb307"/><stop offset="1" stop-color="#e6e604"/></linearGradient><linearGradient id="Degradado_sin_nombre_329" x1="203.74" y1="275.45" x2="222.3" y2="281.48" gradientUnits="userSpaceOnUse"><stop offset="0" stop-color="#e6e604"/><stop offset="0.08" stop-color="#ccb307"/><stop offset="0.35" stop-color="#ffff32"/><stop offset="0.56" stop-color="#e6e600"/><stop offset="0.74" stop-color="#ffff32"/><stop offset="1" stop-color="#ccb307"/></linearGradient><linearGradient id="Degradado_sin_nombre_305" x1="223.28" y1="399.15" x2="223.28" y2="164.45" gradientUnits="userSpaceOnUse"><stop offset="0.07" stop-color="#ccb307"/><stop offset="0.43" stop-color="#e6e604"/><stop offset="0.56" stop-color="#e6e679"/><stop offset="0.68" stop-color="#e6e604"/><stop offset="0.89" stop-color="#ccb307"/><stop offset="1" stop-color="#e6e604"/></linearGradient><linearGradient id="Degradado_sin_nombre_329-2" x1="169.12" y1="116.66" x2="182.18" y2="119.92" xlink:href="#Degradado_sin_nombre_329"/><linearGradient id="Degradado_sin_nombre_305-2" x1="170.73" y1="232.36" x2="170.73" y2="1.77" xlink:href="#Degradado_sin_nombre_305"/><linearGradient id="Degradado_sin_nombre_310" x1="195.78" y1="303.46" x2="196.15" y2="285.4" gradientUnits="userSpaceOnUse"><stop offset="0" stop-color="#707479"/><stop offset="0.17" stop-color="#d8dcdf"/><stop offset="0.41" stop-color="#c0cad2"/><stop offset="0.64" stop-color="#e5e5e6"/><stop offset="0.8" stop-color="#e6e6e6"/><stop offset="0.94" stop-color="#c0cad2"/></linearGradient><linearGradient id="Degradado_sin_nombre_309" x1="123.51" y1="276.15" x2="135.59" y2="278.86" gradientUnits="userSpaceOnUse"><stop offset="0.07" stop-color="#707479"/><stop offset="0.24" stop-color="#d8dcdf"/><stop offset="0.45" stop-color="#c0cad2"/><stop offset="0.71" stop-color="#e5e5e6"/><stop offset="0.87" stop-color="#e6e6e6"/><stop offset="1" stop-color="#c0cad2"/></linearGradient><linearGradient id="Degradado_sin_nombre_308" x1="198.32" y1="112.88" x2="198.44" y2="99.94" gradientUnits="userSpaceOnUse"><stop offset="0.07" stop-color="#707479"/><stop offset="0.24" stop-color="#d8dcdf"/><stop offset="0.38" stop-color="#c0cad2"/><stop offset="0.64" stop-color="#e5e5e6"/><stop offset="0.8" stop-color="#e6e6e6"/><stop offset="1" stop-color="#c0cad2"/></linearGradient><linearGradient id="Degradado_sin_nombre_307" x1="281.82" y1="121.97" x2="257.81" y2="128.35" gradientUnits="userSpaceOnUse"><stop offset="0.02" stop-color="#c0cad2"/><stop offset="0.18" stop-color="#e6e6e6"/><stop offset="0.34" stop-color="#e5e5e6"/><stop offset="0.52" stop-color="#c0cad2"/><stop offset="0.82" stop-color="#d8dcdf"/><stop offset="0.96" stop-color="#707479"/></linearGradient><linearGradient id="Degradado_sin_nombre_306" x1="167.73" y1="135.3" x2="148.96" y2="147.08" gradientUnits="userSpaceOnUse"><stop offset="0" stop-color="#707479"/><stop offset="0.12" stop-color="#d8dcdf"/><stop offset="0.32" stop-color="#c0cad2"/><stop offset="0.5" stop-color="#e5e5e6"/><stop offset="0.72" stop-color="#e6e6e6"/><stop offset="0.75" stop-color="#c0cad2"/><stop offset="0.91" stop-color="#7b8085"/><stop offset="1" stop-color="#707479"/></linearGradient><linearGradient id="Degradado_sin_nombre_306-2" x1="240.8" y1="253.27" x2="221.81" y2="265.19" xlink:href="#Degradado_sin_nombre_306"/></defs><title>ssi_token_S$I</title><g id="Capa_1" data-name="Capa 1"><circle cx="200" cy="200" r="171.2"/><path class="cls-1" d="M200,377.2c-97.71,0-177.2-79.49-177.2-177.2S102.29,22.8,200,22.8,377.2,102.29,377.2,200,297.71,377.2,200,377.2Zm0-342.4C108.91,34.8,34.8,108.91,34.8,200S108.91,365.2,200,365.2,365.2,291.09,365.2,200,291.09,34.8,200,34.8Z"/></g><g id="Capa_2" data-name="Capa 2"><polygon class="cls-2" points="136.66 231.56 225.82 196.7 236.38 195.33 261.34 165.25 164.83 194.28 141.78 219.99 136.66 231.56"/><polyline class="cls-3" points="225.82 196.7 185.23 398.35 261.34 165.25"/><polyline class="cls-4" points="136.66 231.56 204.8 2.57 167.83 193.28"/><polygon class="cls-5" points="115.64 305.38 275.84 305.38 273.54 302.48 237.9 284.19 131.83 284.19 117.55 301.21 115.64 305.38"/><polygon class="cls-6" points="136.66 284.19 133.04 247.28 115.64 305.38 136.66 284.19"/><polygon class="cls-7" points="278.38 98.27 118.54 98.27 123.51 102.55 153.57 114.67 258.2 114.67 276.47 102.42 278.38 98.27"/><polygon class="cls-8" points="253.37 114.67 263.03 151.58 278.38 98.27 253.37 114.67"/><polyline class="cls-9" points="200.46 182.66 158.41 114.67 118.54 98.27 175.35 190.19"/><polyline class="cls-10" points="187.93 212.35 233.07 284.19 275.84 305.38 212.7 202.66"/></g></svg>