<svg id="Capa_1" data-name="Capa 1" xmlns="http://www.w3.org/2000/svg" xmlns:xlink="http://www.w3.org/1999/xlink" viewBox="0 0 26.47 28.35"><defs><style>.cls-1{fill:none;}.cls-2{fill:#dbe4eb;}.cls-3{clip-path:url(#clip-path);}.cls-4{fill:#ffff32;}</style><clipPath id="clip-path"><polygon class="cls-1" points="7.09 23.56 2.51 25.81 2.51 3.29 27.08 3.29 7.09 23.56"/></clipPath></defs><title>ssi_icon_wallet</title><path d="M7.15,24a3,3,0,0,1-3-3V19.58H3V8.82H4.15V7.29a3,3,0,0,1,3-3H20.88a3,3,0,0,1,3,3V21a3,3,0,0,1-3,3Z"/><path class="cls-2" d="M20.88,4.75a2.55,2.55,0,0,1,2.55,2.54V21a2.55,2.55,0,0,1-2.55,2.54H7.15A2.54,2.54,0,0,1,4.61,21v-1.9H3.41V9.27h1.2v-2A2.54,2.54,0,0,1,7.15,4.75H20.88m0-.9H7.15A3.44,3.44,0,0,0,3.71,7.29V8.37H2.51V20h1.2v1a3.44,3.44,0,0,0,3.44,3.44H20.88A3.45,3.45,0,0,0,24.33,21V7.29a3.45,3.45,0,0,0-3.45-3.44Z"/><g class="cls-3"><path class="cls-4" d="M7.15,24.07a3,3,0,0,1-3-3v-1.4H2.91V8.77h1.2V7.29a3,3,0,0,1,3-3H20.88a3,3,0,0,1,3.05,3V21a3.05,3.05,0,0,1-3.05,3Z"/><path class="cls-2" d="M20.88,4.75a2.55,2.55,0,0,1,2.55,2.54V21a2.55,2.55,0,0,1-2.55,2.54H7.15A2.54,2.54,0,0,1,4.61,21v-1.9H3.41V9.27h1.2v-2A2.54,2.54,0,0,1,7.15,4.75H20.88m0-1H7.15A3.54,3.54,0,0,0,3.61,7.29v1H2.41V20.13h1.2V21a3.54,3.54,0,0,0,3.54,3.54H20.88A3.55,3.55,0,0,0,24.43,21V7.29a3.55,3.55,0,0,0-3.55-3.54Z"/></g><polygon points="7.79 9.27 3.41 9.27 3.41 19.13 7.79 19.13 12.17 19.13 12.17 9.27 7.79 9.27"/><path class="cls-4" d="M8.72,12.1a1.63,1.63,0,0,0-.93-.32,1.63,1.63,0,0,0-.93.32,1.67,1.67,0,0,0-.5.79,1.47,1.47,0,0,0,.17.94,1.29,1.29,0,0,0,.66.66v2.18h1.2V14.49a1.29,1.29,0,0,0,.66-.66,1.54,1.54,0,0,0,.16-.94A1.58,1.58,0,0,0,8.72,12.1Z"/></svg>