<svg xmlns="http://www.w3.org/2000/svg" xmlns:xlink="http://www.w3.org/1999/xlink" viewBox="0 0 400 400"><defs><style>.cls-1{fill:url(#Degradado_sin_nombre_69);}.cls-2{fill:url(#Degradado_sin_nombre_93);}.cls-3{fill:url(#Degradado_sin_nombre_24);}.cls-4,.cls-5{opacity:0.5;}.cls-4{fill:url(#Degradado_sin_nombre_52);}.cls-5{fill:url(#Degradado_sin_nombre_50);}.cls-6{fill:url(#Degradado_sin_nombre_16);}</style><radialGradient id="Degradado_sin_nombre_69" cx="200" cy="200" r="200" gradientUnits="userSpaceOnUse"><stop offset="0.93" stop-color="#8a8d92"/><stop offset="0.96" stop-color="#f2f5f8"/><stop offset="0.97" stop-color="#dbe4eb"/><stop offset="0.98" stop-color="#fff"/><stop offset="1" stop-color="#dbe4eb"/></radialGradient><linearGradient id="Degradado_sin_nombre_93" x1="94.63" y1="281.63" x2="313.53" y2="99.12" gradientUnits="userSpaceOnUse"><stop offset="0.07" stop-color="#e5ce32"/><stop offset="0.26" stop-color="#ffff32"/><stop offset="0.56" stop-color="#ffff9c"/><stop offset="1" stop-color="#ffff32"/></linearGradient><linearGradient id="Degradado_sin_nombre_24" x1="204.42" y1="198.12" x2="293.36" y2="57.95" gradientUnits="userSpaceOnUse"><stop offset="0.07" stop-color="#e5ce32"/><stop offset="0.26" stop-color="#ffff32"/><stop offset="0.56" stop-color="#ffff9c"/><stop offset="0.88" stop-color="#ffff32"/></linearGradient><linearGradient id="Degradado_sin_nombre_52" x1="124.11" y1="101.95" x2="255.54" y2="101.95" gradientUnits="userSpaceOnUse"><stop offset="0" stop-color="#ffff32"/><stop offset="0.98" stop-color="#8a741e"/></linearGradient><linearGradient id="Degradado_sin_nombre_50" x1="294.99" y1="82.12" x2="320.69" y2="209.83" gradientUnits="userSpaceOnUse"><stop offset="0" stop-color="#8a741e"/><stop offset="0.94" stop-color="#ffff32"/></linearGradient><radialGradient id="Degradado_sin_nombre_16" cx="282.18" cy="62.37" r="7.14" gradientUnits="userSpaceOnUse"><stop offset="0" stop-color="#ffff32"/><stop offset="0.92" stop-color="#ffff32" stop-opacity="0"/></radialGradient></defs><title>ssi_token_T$</title><g id="Capa_1" data-name="Capa 1"><circle cx="200" cy="200" r="193.23"/><path class="cls-1" d="M200,400C89.72,400,0,310.28,0,200S89.72,0,200,0,400,89.72,400,200,310.28,400,200,400Zm0-386.46C97.19,13.54,13.54,97.19,13.54,200S97.19,386.46,200,386.46,386.46,302.81,386.46,200,302.81,13.54,200,13.54Z"/></g><g id="Capa_2" data-name="Capa 2"><path class="cls-2" d="M108.33,339.43a5.36,5.36,0,0,1-5.23-4.23,5.29,5.29,0,0,1,.73-4L278,60.35l3.89-5.57c1.6-2.77,8.69,4.87,8.35,5.38L112.84,337A5.32,5.32,0,0,1,108.33,339.43Z"/><path class="cls-3" d="M352.12,208.49,289.07,52,118.51,90a5.75,5.75,0,0,0-2.69,1.63h0l-.08.09-.12.14a4.25,4.25,0,0,0-.75,3.55l11.77,48.3a4.29,4.29,0,0,0,1.88,2.55s.06.07.11.1a3.17,3.17,0,0,0,.41.21h0a4.23,4.23,0,0,0,1.68.33,4.39,4.39,0,0,0,2.08-.51L284.3,60.63c1.4,41.19,5.15,147.27,5.19,148.39a5.18,5.18,0,0,0,1.31,3.29l0,.06,0,0a2.54,2.54,0,0,0,.5.36,4.67,4.67,0,0,0,2.43.75l54.51.48a4.17,4.17,0,0,0,3.18-1.41s0,0,0,0,.05-.08.08-.11l.17-.24a3.38,3.38,0,0,0,.22-.47l0,0h0A5,5,0,0,0,352.12,208.49ZM133.54,136.26l-9.43-38.71L255.54,67.64Zm164.23,68.5-4.95-122.2,48.92,123Z"/><polygon class="cls-4" points="124.11 97.55 255.54 67.64 133.54 136.26 124.11 97.55"/><path class="cls-5" d="M292.82,82.56l48.92,123-44-.83Z"/><circle class="cls-6" cx="282.18" cy="62.37" r="7.14"/></g></svg>