<svg width="100" height="100" viewBox="0 0 100 100" fill="none" xmlns="http://www.w3.org/2000/svg">
<path d="M50 100C77.6142 100 100 77.6142 100 50C100 22.3858 77.6142 0 50 0C22.3858 0 0 22.3858 0 50C0 77.6142 22.3858 100 50 100Z" fill="#333333"/>
<path fill-rule="evenodd" clip-rule="evenodd" d="M50.5 23C52.399 23 53.938 24.539 53.938 26.438V29.875C53.938 31.773 52.399 33.312 50.5 33.312C48.602 33.312 47.062 31.773 47.062 29.875V26.438C47.062 24.539 48.602 23 50.5 23ZM64.25 50.5C64.25 58.094 58.094 64.25 50.5 64.25C42.906 64.25 36.75 58.094 36.75 50.5C36.75 42.906 42.906 36.75 50.5 36.75C58.094 36.75 64.25 42.906 64.25 50.5ZM62.654 67.515L65.084 69.945C66.427 71.288 68.603 71.288 69.946 69.945C71.288 68.603 71.288 66.426 69.946 65.084L67.515 62.653C66.173 61.311 63.996 61.311 62.654 62.653C61.311 63.996 61.311 66.172 62.654 67.515ZM69.945 31.054C71.288 32.397 71.288 34.573 69.945 35.916L67.515 38.346C66.172 39.689 63.996 39.689 62.653 38.346C61.311 37.004 61.311 34.827 62.653 33.485L65.084 31.054C66.426 29.712 68.603 29.712 69.945 31.054ZM74.562 53.938C76.461 53.938 78 52.399 78 50.5C78 48.602 76.461 47.062 74.562 47.062H71.125C69.226 47.062 67.688 48.602 67.688 50.5C67.688 52.399 69.226 53.938 71.125 53.938H74.562ZM50.5 67.688C52.399 67.688 53.938 69.226 53.938 71.125V74.562C53.938 76.461 52.399 78 50.5 78C48.602 78 47.062 76.461 47.062 74.562V71.125C47.062 69.226 48.602 67.688 50.5 67.688ZM33.485 38.346C34.828 39.689 37.004 39.689 38.347 38.346C39.689 37.004 39.689 34.828 38.347 33.485L35.916 31.054C34.574 29.712 32.397 29.712 31.055 31.054C29.712 32.397 29.712 34.573 31.055 35.916L33.485 38.346ZM38.346 67.515L35.916 69.945C34.573 71.288 32.397 71.288 31.054 69.945C29.712 68.603 29.712 66.426 31.054 65.084L33.485 62.653C34.828 61.311 37.004 61.311 38.346 62.653C39.689 63.996 39.689 66.172 38.346 67.515ZM29.875 53.938C31.773 53.938 33.312 52.399 33.312 50.5C33.312 48.602 31.773 47.062 29.875 47.062H26.438C24.539 47.062 23 48.602 23 50.5C23 52.399 24.539 53.938 26.438 53.938H29.875Z" fill="#DBE4EB"/>
</svg>
