<svg width="32" height="32" viewBox="0 0 32 32" fill="none" xmlns="http://www.w3.org/2000/svg">
<path d="M32 16C32 7.16344 24.8366 0 16 0C7.16344 0 0 7.16344 0 16C0 24.8366 7.16344 32 16 32C24.8366 32 32 24.8366 32 16Z" fill="#5C5C5C"/>
<path d="M25.2887 14.8693C24.5197 10.717 20.8719 7.56223 16.5009 7.56223C14.7881 7.56223 13.1239 8.04818 11.688 8.96807C10.5 9.72832 9.51401 10.754 8.80227 11.9597L7.82682 8.79168L7.06745 9.02628L8.47065 13.5816L12.9131 11.8512L12.6256 11.1103L9.64189 12.2736C11.0971 9.92411 13.7068 8.44418 16.5 8.44418C20.4124 8.44418 23.6827 11.2479 24.4059 14.9522C23.7823 15.1903 23.3387 15.7927 23.3387 16.5C23.3387 17.2073 23.7823 17.8097 24.4059 18.0478C23.6818 21.7521 20.4124 24.5558 16.5 24.5558C12.5876 24.5558 9.31733 21.7521 8.59412 18.0478C9.21767 17.8097 9.66129 17.2073 9.66129 16.5C9.66129 15.5845 8.91868 14.8419 8.00321 14.8419C7.08774 14.8419 6.34513 15.5845 6.34513 16.5C6.34513 17.3158 6.93516 17.9932 7.71128 18.1307C8.48035 22.283 12.1281 25.4378 16.4991 25.4378C20.871 25.4378 24.5188 22.283 25.287 18.1307C26.0631 17.9932 26.6531 17.3158 26.6531 16.5C26.6549 15.6842 26.0648 15.0077 25.2887 14.8693Z" fill="white"/>
</svg>
