<svg width="32" height="32" viewBox="0 0 32 32" fill="none" xmlns="http://www.w3.org/2000/svg">
<path d="M32 16C32 7.16344 24.8366 0 16 0C7.16344 0 0 7.16344 0 16C0 24.8366 7.16344 32 16 32C24.8366 32 32 24.8366 32 16Z" fill="#5C5C5C"/>
<path d="M26.3563 14.5766C25.2943 14.5766 24.4329 15.4381 24.4329 16.5C24.4329 17.3205 24.9475 18.0193 25.6708 18.2955C24.8309 22.5924 21.0383 25.8447 16.5 25.8447C11.9617 25.8447 8.1681 22.5924 7.32918 18.2955C8.05249 18.0193 8.5671 17.3205 8.5671 16.5C8.5671 15.4381 7.70567 14.5766 6.64372 14.5766C5.58177 14.5766 4.72035 15.4381 4.72035 16.5C4.72035 17.4463 5.40478 18.2321 6.30509 18.3917C7.19721 23.2083 11.4286 26.8678 16.499 26.8678C21.5693 26.8678 25.8018 23.2083 26.6929 18.3917C27.5932 18.2321 28.2776 17.4463 28.2776 16.5C28.2797 15.4381 27.4182 14.5766 26.3563 14.5766Z" fill="white"/>
<path d="M19.6685 20.3764L20.2271 19.8168L16.9113 16.5L20.2271 13.1842L19.6685 12.6246L15.792 16.5L19.6685 20.3764Z" fill="white"/>
<path d="M16.6289 19.8168L13.3121 16.5L16.6289 13.1842L16.0693 12.6246L12.1939 16.5L16.0693 20.3764L16.6289 19.8168Z" fill="white"/>
</svg>
