<svg width="32" height="32" viewBox="0 0 32 32" fill="none" xmlns="http://www.w3.org/2000/svg">
<path d="M32 16C32 7.16344 24.8366 0 16 0C7.16344 0 0 7.16344 0 16C0 24.8366 7.16344 32 16 32C24.8366 32 32 24.8366 32 16Z" fill="#5C5C5C"/>
<path d="M28.0592 13.5204L27.3359 12.797L25.3563 14.7767L23.3766 12.797L22.6533 13.5204L24.633 15.5L22.6533 17.4796L23.3766 18.203L24.7496 16.83C24.102 21.355 20.201 24.8447 15.5 24.8447C10.9617 24.8447 7.16811 21.5924 6.32919 17.2955C7.0525 17.0193 7.5671 16.3205 7.5671 15.5C7.5671 14.4381 6.70568 13.5766 5.64373 13.5766C4.58178 13.5766 3.72035 14.4381 3.72035 15.5C3.72035 16.4463 4.40479 17.2321 5.30611 17.3917C6.19823 22.2083 10.4297 25.8678 15.5 25.8678C20.822 25.8678 25.2192 21.8369 25.8013 16.6683L27.3359 18.2019L28.0592 17.4786L26.0796 15.499L28.0592 13.5204Z" fill="white"/>
</svg>
