<svg width="32" height="32" viewBox="0 0 32 32" fill="none" xmlns="http://www.w3.org/2000/svg">
<path d="M32 16C32 7.16344 24.8366 0 16 0C7.16344 0 0 7.16344 0 16C0 24.8366 7.16344 32 16 32C24.8366 32 32 24.8366 32 16Z" fill="#5C5C5C"/>
<path d="M23.4229 14.3964C22.7562 10.7968 19.5939 8.06198 15.804 8.06198C13.9514 8.06198 12.1983 8.70804 10.8014 9.89312L10.9062 7.02447L10.2181 7L10.0682 11.1302L14.1976 10.9796L14.1732 10.2915L11.3963 10.3931C12.6387 9.37857 14.1785 8.82655 15.804 8.82655C19.1964 8.82655 22.0306 11.2579 22.6576 14.4691C22.117 14.6755 21.7324 15.1977 21.7324 15.8109C21.7324 16.6045 22.3762 17.2483 23.1698 17.2483C23.9634 17.2483 24.6072 16.6045 24.6072 15.8109C24.6072 15.1029 24.0957 14.5165 23.4229 14.3964Z" fill="white"/>
<path d="M15.804 23.559C17.6565 23.559 19.4097 22.9129 20.8065 21.7278L20.7018 24.5965L21.3899 24.621L21.5398 20.4908L17.4103 20.6414L17.4348 21.3295L20.2117 21.2278C18.9693 22.2424 17.4295 22.7944 15.804 22.7944C12.4116 22.7944 9.57735 20.3631 8.94964 17.1519C9.49019 16.9455 9.87477 16.4233 9.87477 15.8101C9.87477 15.0165 9.231 14.3727 8.43738 14.3727C7.64376 14.3727 7 15.0165 7 15.8101C7 16.5173 7.51149 17.1045 8.18431 17.2238C8.85178 20.8234 12.0148 23.559 15.804 23.559Z" fill="white"/>
</svg>
