<svg width="32" height="32" viewBox="0 0 32 32" fill="none" xmlns="http://www.w3.org/2000/svg">
<path d="M32 16C32 7.16344 24.8366 0 16 0C7.16344 0 0 7.16344 0 16C0 24.8366 7.16344 32 16 32C24.8366 32 32 24.8366 32 16Z" fill="#5C5C5C"/>
<path d="M26.3563 13.5766C25.2943 13.5766 24.4329 14.4381 24.4329 15.5C24.4329 16.3205 24.9475 17.0193 25.6708 17.2955C24.8309 21.5924 21.0383 24.8447 16.5 24.8447C11.9617 24.8447 8.1681 21.5924 7.32918 17.2955C8.05249 17.0193 8.5671 16.3205 8.5671 15.5C8.5671 14.4381 7.70567 13.5766 6.64372 13.5766C5.58178 13.5766 4.72035 14.4381 4.72035 15.5C4.72035 16.4463 5.40478 17.2321 6.30509 17.3917C7.19721 22.2083 11.4286 25.8678 16.499 25.8678C21.5693 25.8678 25.8018 22.2083 26.6929 17.3917C27.5932 17.2321 28.2786 16.4463 28.2786 15.5C28.2797 14.4381 27.4182 13.5766 26.3563 13.5766Z" fill="white"/>
<path d="M22.9494 10.3642L21.9775 9.39226L15.9261 15.4437L13.6825 13.2012L12.7116 14.1721L15.9261 17.3876L22.9494 10.3642Z" fill="white"/>
</svg>
