<svg width="24" height="25" viewBox="0 0 24 25" fill="none" xmlns="http://www.w3.org/2000/svg">
<path d="M5.14286 19.9289C5.14286 20.3835 5.32347 20.8195 5.64496 21.141C5.96645 21.4625 6.40249 21.6431 6.85714 21.6431H17.1429C17.5975 21.6431 18.0336 21.4625 18.355 21.141C18.6765 20.8195 18.8571 20.3835 18.8571 19.9289V7.92886H5.14286V19.9289ZM14.8571 10.786C14.8571 10.6344 14.9173 10.4891 15.0245 10.3819C15.1317 10.2748 15.277 10.2146 15.4286 10.2146C15.5801 10.2146 15.7255 10.2748 15.8326 10.3819C15.9398 10.4891 16 10.6344 16 10.786V18.786C16 18.9376 15.9398 19.0829 15.8326 19.1901C15.7255 19.2972 15.5801 19.3574 15.4286 19.3574C15.277 19.3574 15.1317 19.2972 15.0245 19.1901C14.9173 19.0829 14.8571 18.9376 14.8571 18.786V10.786ZM11.4286 10.786C11.4286 10.6344 11.4888 10.4891 11.5959 10.3819C11.7031 10.2748 11.8484 10.2146 12 10.2146C12.1516 10.2146 12.2969 10.2748 12.4041 10.3819C12.5112 10.4891 12.5714 10.6344 12.5714 10.786V18.786C12.5714 18.9376 12.5112 19.0829 12.4041 19.1901C12.2969 19.2972 12.1516 19.3574 12 19.3574C11.8484 19.3574 11.7031 19.2972 11.5959 19.1901C11.4888 19.0829 11.4286 18.9376 11.4286 18.786V10.786ZM8 10.786C8 10.6344 8.0602 10.4891 8.16737 10.3819C8.27453 10.2748 8.41988 10.2146 8.57143 10.2146C8.72298 10.2146 8.86833 10.2748 8.97549 10.3819C9.08265 10.4891 9.14286 10.6344 9.14286 10.786V18.786C9.14286 18.9376 9.08265 19.0829 8.97549 19.1901C8.86833 19.2972 8.72298 19.3574 8.57143 19.3574C8.41988 19.3574 8.27453 19.2972 8.16737 19.1901C8.0602 19.0829 8 18.9376 8 18.786V10.786ZM19.4286 4.50029H15.1429L14.8071 3.83243C14.736 3.68965 14.6265 3.56954 14.4908 3.48563C14.3552 3.40171 14.1988 3.35731 14.0393 3.35743H9.95714C9.79799 3.35682 9.64189 3.40105 9.50672 3.48506C9.37154 3.56907 9.26277 3.68945 9.19286 3.83243L8.85714 4.50029H4.57143C4.41988 4.50029 4.27453 4.56049 4.16737 4.66765C4.0602 4.77482 4 4.92016 4 5.07171V6.21457C4 6.36612 4.0602 6.51147 4.16737 6.61863C4.27453 6.7258 4.41988 6.786 4.57143 6.786H19.4286C19.5801 6.786 19.7255 6.7258 19.8326 6.61863C19.9398 6.51147 20 6.36612 20 6.21457V5.07171C20 4.92016 19.9398 4.77482 19.8326 4.66765C19.7255 4.56049 19.5801 4.50029 19.4286 4.50029Z" fill="#000000"/>
</svg>
