<svg width="24" height="24" viewBox="0 0 24 24" fill="none" xmlns="http://www.w3.org/2000/svg">
<path d="M18.339 7.96933L18.3303 7.97718L18.331 7.9889C18.3411 8.16307 18.3411 8.33739 18.3411 8.5125C18.3411 11.1767 17.5175 14.0435 15.9421 16.2436C14.3671 18.4432 12.0414 19.9756 9.03555 19.9756C7.21353 19.9756 5.51853 19.3364 4.08533 18.2234C4.31932 18.252 4.54775 18.2619 4.79188 18.2619C6.33196 18.2619 7.74905 17.6214 8.87991 16.5301L8.92183 16.4896L8.86359 16.4881C7.44687 16.4512 6.25356 15.3168 5.83036 13.7433C6.02186 13.7772 6.21441 13.7994 6.41626 13.7994C6.71338 13.7994 7.01032 13.7489 7.28662 13.6608L7.36851 13.6346L7.28511 13.6138C5.79617 13.2422 4.67414 11.6294 4.67414 9.67499V9.67101C5.10534 9.95822 5.60343 10.1374 6.13081 10.1619L6.20429 10.1653L6.14744 10.1186C5.27049 9.39877 4.69445 8.16857 4.69445 6.77497C4.69445 6.0449 4.84907 5.37462 5.12039 4.78726C6.73803 7.22192 9.1603 8.81211 11.8766 8.98685L11.9074 8.98883L11.9022 8.95841C11.8517 8.65955 11.8214 8.34845 11.8214 8.03751C11.8214 5.82092 13.2769 4.02441 15.0761 4.02441C16.0114 4.02441 16.8574 4.50725 17.4527 5.28978L17.4623 5.30241L17.4777 5.29876C18.2003 5.12813 18.8939 4.80374 19.5119 4.36025C19.2626 5.26371 18.7563 6.02087 18.0972 6.50532L18.1149 6.54919C18.7508 6.46491 19.3676 6.25356 19.9382 5.95987C19.4997 6.72855 18.9573 7.41349 18.339 7.96933Z" fill="white" stroke="#DBE4EB" stroke-width="0.0488281"/>
</svg>
