<svg id="Capa_2" data-name="Capa 2" xmlns="http://www.w3.org/2000/svg" viewBox="0 0 100 100"><defs><style>.cls-1{fill:#dbe4eb;}</style></defs><title>ICO_tDEX</title><rect class="cls-1" x="48.18" y="80.75" width="0.02"/><rect class="cls-1" x="48.15" y="80.71" width="0.01"/><rect class="cls-1" x="48.16" y="80.71" width="0.02" height="0.03"/><rect class="cls-1" x="49.4" y="81.98" width="0.02" height="0.03"/><rect class="cls-1" x="49.39" y="81.97" height="0.01" transform="matrix(0.04, -1, 1, 0.04, -34.35, 128.3)"/><rect class="cls-1" x="49.42" y="82.01" width="0.02" height="0.01"/><path class="cls-1" d="M62.58,36.89S59.85,39.26,59.44,38s3.85-2.79,3.18-9.7c0,0-2.57,5.23-3.86,3.4,0,0,1.08-6.44.33-9.49,0,0-3.53,9.56-5.62,6.23C51.86,25.92,50,17.57,50,17.57s-1.82,8.35-3.43,10.91C44.52,31.81,41,22.25,41,22.25c-.74,3.05.33,9.49.33,9.49-1.29,1.83-3.85-3.4-3.85-3.4-.68,6.91,3.59,8.48,3.18,9.7s-3.15-1.15-3.15-1.15c0,5.35,6.88,10.92,6.88,10.92V63.35a31.61,31.61,0,0,0,3,13.52L50,82.43,61.71,70.77,58,64.16a16.69,16.69,0,0,1-2.17-8l-.1-8.34S62.61,42.24,62.58,36.89ZM44.48,40.7l-1.79-.89H44a2.47,2.47,0,0,1,1.75.72l2.71,2.71S44.48,44.24,44.48,40.7Zm6.15,12.24c-.14-.16-.39-.55-.58-.84-.19.29-.44.68-.58.84a28.51,28.51,0,0,1-2.29,2s2.29-4.31,2.29-5.72h1.16c0,1.35,2.27,5.72,2.27,5.72A29.13,29.13,0,0,1,50.63,52.94Zm5-12.24c0,3.54-3.93,2.54-3.93,2.54l2.71-2.71a2.51,2.51,0,0,1,1.75-.72H57.4Z"/><path class="cls-1" d="M70,57a1.4,1.4,0,0,0-1,1.8l1.25,5.7a2.2,2.2,0,0,0,1.11,1.11,1.5,1.5,0,0,0,1.53-.42A22,22,0,0,0,73.05,34a1.55,1.55,0,0,0-2.22,0c-.56.55-.56,1.66,0,1.94a19.27,19.27,0,0,1,1.8,25.13L71.8,58A1.41,1.41,0,0,0,70,57Z"/><path class="cls-1" d="M30,42.41a1.39,1.39,0,0,0,1-1.8l-1.38-5.83a2.13,2.13,0,0,0-1.11-1.11,1.49,1.49,0,0,0-1.53.41,22.62,22.62,0,0,0,0,31.65,1.45,1.45,0,0,0,2.22,0,1.55,1.55,0,0,0,0-2.22,19.26,19.26,0,0,1-1.8-25.13l.83,3.06A1.4,1.4,0,0,0,30,42.41Z"/></svg>