<svg width="25" height="33" viewBox="0 0 25 33" fill="none" xmlns="http://www.w3.org/2000/svg">
<path d="M11.0052 32.0487C1.72295 18.5922 0 17.2112 0 12.2657C0 5.49153 5.49153 0 12.2657 0C19.0399 0 24.5315 5.49153 24.5315 12.2657C24.5315 17.2112 22.8085 18.5922 13.5263 32.0487C12.9172 32.9286 11.6142 32.9286 11.0052 32.0487ZM12.2657 17.3764C15.0883 17.3764 17.3764 15.0883 17.3764 12.2657C17.3764 9.44314 15.0883 7.15501 12.2657 7.15501C9.44314 7.15501 7.15501 9.44314 7.15501 12.2657C7.15501 15.0883 9.44314 17.3764 12.2657 17.3764Z" fill="white"/>
</svg>
