<svg width="22" height="27" viewBox="0 0 22 27" fill="none" xmlns="http://www.w3.org/2000/svg">
<path d="M10.6239 10.6239C15.904 10.6239 21.2478 8.79923 21.2478 5.31194C21.2478 1.82465 15.904 0 10.6239 0C5.34381 0 0 1.82465 0 5.31194C0 8.79923 5.34381 10.6239 10.6239 10.6239Z" fill="white"/>
<path d="M0 10.6237C0 14.111 5.34381 15.9357 10.6239 15.9357C15.904 15.9357 21.2478 14.111 21.2478 10.6237V7.96777C21.2478 11.4551 15.904 13.2797 10.6239 13.2797C5.34381 13.2797 0 11.4551 0 7.96777V10.6237Z" fill="white"/>
<path d="M0 15.9358C0 19.423 5.34381 21.2477 10.6239 21.2477C15.904 21.2477 21.2478 19.423 21.2478 15.9358V13.2798C21.2478 16.7671 15.904 18.5917 10.6239 18.5917C5.34381 18.5917 0 16.7671 0 13.2798V15.9358Z" fill="white"/>
<path d="M0 21.2478C0 24.7351 5.34381 26.5597 10.6239 26.5597C15.904 26.5597 21.2478 24.7351 21.2478 21.2478V18.5918C21.2478 22.0791 15.904 23.9037 10.6239 23.9037C5.34381 23.9037 0 22.0791 0 18.5918V21.2478Z" fill="white"/>
</svg>
