<svg width="30" height="30" viewBox="0 0 30 30" fill="none" xmlns="http://www.w3.org/2000/svg">
<g clip-path="url(#clip0_336_72)">
<path d="M15 0C6.7125 0 0 6.7125 0 15C0 23.2875 6.7125 30 15 30C23.2875 30 30 23.2875 30 15C30 6.7125 23.2875 0 15 0ZM24.375 12.2625C23.7 12.2625 23.175 11.7375 23.175 11.0625C23.175 10.8 23.25 10.5375 23.4375 10.3125V8.7375H13.2L11.025 14.2875L20.25 8.9625L16.5 25.3125C16.575 25.4625 16.6125 25.65 16.6125 25.8375C16.6125 26.5125 16.0875 27.0375 15.4125 27.0375C14.7375 27.0375 14.2125 26.5125 14.2125 25.8375C14.2125 25.4625 14.3625 25.125 14.6625 24.9L17.4 12.75L7.2375 18.6375L11.1375 8.7375H6.6375V10.3125C6.7875 10.5375 6.9 10.8 6.9 11.0625C6.9 11.7375 6.375 12.2625 5.7 12.2625C5.025 12.2625 4.5 11.7375 4.5 11.0625C4.5 10.8 4.575 10.5375 4.7625 10.3125V6.8625H25.3125V10.3125C25.4625 10.5375 25.575 10.8 25.575 11.0625C25.575 11.7 25.0125 12.2625 24.375 12.2625Z" fill="#878787"/>
</g>
<defs>
<clipPath id="clip0_336_72">
<rect width="30" height="30" fill="white"/>
</clipPath>
</defs>
</svg>
