<svg width="28" height="28" viewBox="0 0 28 28" fill="none" xmlns="http://www.w3.org/2000/svg">
<g clip-path="url(#clip0_336_58)">
<path d="M12.8556 27.859C8.31216 27.4012 4.1738 25.0062 1.95493 21.537C1.05682 20.1282 0.352415 18.332 0.123484 16.8704C0.020916 15.8524 -0.0202486 14.8291 0.000213952 13.8062C0.105874 10.6364 0.845497 8.18859 2.34235 6.00495C2.8047 5.31932 3.34873 4.6925 3.96248 4.13828C5.13554 2.99356 6.50049 2.06371 7.99518 1.39111C9.35802 0.738119 10.8132 0.2986 12.3096 0.0879611C13.4752 -0.0293924 14.6498 -0.0234898 15.814 0.105571C18.4908 0.510602 20.8505 1.65526 23.1222 3.6452C25.3939 5.63514 27.1197 8.27665 27.7008 10.8125C27.9298 11.7634 27.965 12.1332 27.965 13.3131C27.9974 14.1773 27.9145 15.0419 27.7185 15.8842L27.5776 16.5534L27.0845 16.659C25.6338 16.9432 24.204 17.3256 22.8052 17.8037C21.96 18.1207 21.7839 18.1911 20.5335 18.737C19.2832 19.2829 18.7901 19.4766 18.1386 19.6527C16.7826 20.0226 15.3386 20.0578 14.37 19.7408C13.0493 19.3005 12.0631 18.2439 11.8518 17.0641C11.7843 16.5289 11.8141 15.986 11.9398 15.4616C12.2216 14.4578 12.8379 13.4188 13.8065 12.3446L14.1411 11.9924C14.1411 11.9924 14.2115 12.4326 14.2644 12.9433C14.3172 13.454 14.3876 13.8943 14.3876 13.9119L14.7751 13.7886C15.9381 13.3697 17.1963 13.2903 18.4027 13.5597C19.3542 13.7917 20.2896 14.0859 21.2027 14.4402C21.6254 14.5987 22.0832 14.7571 22.2417 14.7924C23.1668 14.9157 24.1079 14.7942 24.9713 14.4402C25.1826 14.3521 25.2002 14.3345 25.253 14.1232C25.3237 13.6326 25.3237 13.1345 25.253 12.6439L25.2002 12.3798L24.3373 11.7987C19.1952 8.38231 14.8631 6.33954 11.2002 5.63514C10.1964 5.42381 8.45304 5.26532 8.45304 5.37098C8.45304 5.47664 8.45304 5.44142 8.43543 5.45903C8.41782 5.47664 8.92851 5.75841 10.2669 6.40998L12.1159 7.30809C11.8576 7.41756 11.593 7.51163 11.3235 7.58985C10.3225 7.90689 9.34559 8.29531 8.40021 8.75212C7.69581 9.10432 6.67443 9.68545 6.67443 9.75589L7.51971 9.86155L8.36499 9.93199L7.90713 10.4251C7.27317 11.0766 6.92097 11.4993 6.02285 12.5911L5.28323 13.5244H5.9348C6.15306 13.5245 6.37095 13.5422 6.58638 13.5773C6.58638 13.5949 6.287 14.5987 5.91719 15.8138C5.54738 17.0288 5.24801 18.0326 5.26562 18.0326L5.95241 17.8917C6.41027 17.7861 6.65682 17.7509 6.67443 17.7861C6.69204 17.8213 6.76248 18.7899 6.85053 19.9697C6.93858 21.1496 6.99141 22.1182 7.00902 22.1182C7.22029 21.975 7.42042 21.816 7.60776 21.6427L8.24172 21.1672C8.25933 21.1672 8.78763 21.9597 9.43921 22.9282C10.0908 23.8968 10.6191 24.6892 10.6367 24.6892C10.8422 24.5071 11.0309 24.3067 11.2002 24.0905C11.6229 23.5974 11.7461 23.4741 11.7813 23.527L12.2744 24.1081C12.5034 24.3899 12.926 24.8477 13.2078 25.1295L13.7008 25.6226H14.7574C16.4304 25.6226 17.4694 25.781 18.8606 26.2917L19.2832 26.4326L19.1424 26.5383C18.3147 27.1546 17.2405 27.5597 15.9021 27.771C15.365 27.8418 14.8237 27.8772 14.282 27.8766C13.7008 27.8943 13.0493 27.8766 12.8556 27.859Z" fill="#878787"/>
</g>
<defs>
<clipPath id="clip0_336_58">
<rect width="28" height="28" fill="white"/>
</clipPath>
</defs>
</svg>
