<svg width="50" height="45" viewBox="0 0 50 45" fill="none" xmlns="http://www.w3.org/2000/svg">
<path d="M49.4373 38.1956C51.0395 40.9728 49.0283 44.4444 45.8281 44.4444H4.17138C0.965042 44.4444 -1.03687 40.9674 0.562264 38.1956L21.3909 2.08203C22.9939 -0.696527 27.009 -0.691492 28.6091 2.08203L49.4373 38.1956ZM25 30.7292C22.7947 30.7292 21.007 32.5169 21.007 34.7222C21.007 36.9275 22.7947 38.7153 25 38.7153C27.2053 38.7153 28.9931 36.9275 28.9931 34.7222C28.9931 32.5169 27.2053 30.7292 25 30.7292ZM21.209 16.3762L21.8529 28.1818C21.883 28.7342 22.3398 29.1667 22.893 29.1667H27.107C27.6603 29.1667 28.117 28.7342 28.1472 28.1818L28.7911 16.3762C28.8236 15.7795 28.3485 15.2778 27.751 15.2778H22.249C21.6514 15.2778 21.1764 15.7795 21.209 16.3762Z" fill="#F9E600"/>
</svg>
