<svg width="32" height="33" viewBox="0 0 32 33" fill="none" xmlns="http://www.w3.org/2000/svg">
<rect y="0.5" width="32" height="32" rx="16" fill="#5C5C5C"/>
<path d="M16.3502 15.5222C14.3114 14.9978 13.6558 14.4556 13.6558 13.6111C13.6558 12.6422 14.5629 11.9667 16.0807 11.9667C17.6794 11.9667 18.2721 12.7222 18.326 13.8333H20.3109C20.248 12.3044 19.305 10.9 17.4279 10.4467V8.5H14.7335V10.42C12.9912 10.7933 11.5901 11.9133 11.5901 13.6289C11.5901 15.6822 13.3055 16.7044 15.8113 17.3C18.0566 17.8333 18.5056 18.6156 18.5056 19.4422C18.5056 20.0556 18.0656 21.0333 16.0807 21.0333C14.2306 21.0333 13.5031 20.2156 13.4043 19.1667H11.4285C11.5362 21.1133 13.0092 22.2067 14.7335 22.5711V24.5H17.4279V22.5889C19.1792 22.26 20.5713 21.2556 20.5713 19.4333C20.5713 16.9089 18.3889 16.0467 16.3502 15.5222Z" fill="#DBE4EB"/>
</svg>
