<svg width="32" height="33" viewBox="0 0 32 33" fill="none" xmlns="http://www.w3.org/2000/svg">
<rect y="0.5" width="32" height="32" rx="16" fill="#5C5C5C"/>
<path fill-rule="evenodd" clip-rule="evenodd" d="M16.7789 15.5222C14.7402 14.9978 14.0846 14.4556 14.0846 13.6111C14.0846 12.6422 14.9917 11.9667 16.5095 11.9667C18.1082 11.9667 18.7009 12.7222 18.7548 13.8333H20.7396C20.6768 12.3044 19.7337 10.9 17.8567 10.4467V8.5H15.1623V10.42C13.42 10.7933 12.0189 11.9133 12.0189 13.6289C12.0189 15.6822 13.7343 16.7044 16.2401 17.3C18.4854 17.8333 18.9344 18.6156 18.9344 19.4422C18.9344 20.0556 18.4943 21.0333 16.5095 21.0333C15.5906 21.0333 14.9486 20.8316 14.5231 20.5H12.1916C12.7383 21.6269 13.8809 22.3003 15.1623 22.5711V24.5H17.8567V22.5889C19.608 22.26 21.0001 21.2556 21.0001 19.4333C21.0001 16.9089 18.8177 16.0467 16.7789 15.5222ZM14 18.5H8.67562L11.1213 15.705L10.5 15L7 19L10.5 23L11.1169 22.295L8.67562 19.5H14V18.5Z" fill="#DBE4EB"/>
</svg>
