<svg width="30" height="29" viewBox="0 0 30 29" fill="none" xmlns="http://www.w3.org/2000/svg">
<path d="M25.7074 6.19228L15.6902 0.239699C15.1534 -0.0792731 14.4961 -0.0799392 13.9587 0.237945L3.89213 6.19291C3.34086 6.51902 3 7.13044 3 7.79317V19.6425C3 20.3031 3.33863 20.9128 3.88703 21.2398L13.9536 27.2413C14.4936 27.5632 15.1559 27.5625 15.6953 27.2395L25.7125 21.2404C26.2592 20.913 26.5966 20.3042 26.5966 19.6449V7.79079C26.5966 7.12933 26.257 6.51888 25.7074 6.19228Z" fill="#00FFB0"/>
<path d="M22.6248 14.7675L14.0235 9.80171C13.3481 9.41179 13.3671 8.42237 14.0572 8.04275C14.3642 7.87388 14.7344 7.87667 15.0348 8.05011L20.6333 11.2823C21.4181 11.7354 22.4021 11.1378 22.3775 10.223C22.3667 9.82002 22.15 9.4537 21.8044 9.25414L15.1563 5.416C14.7931 5.20631 14.3444 5.2075 13.9774 5.41912L9.55691 7.96776C8.75786 8.42846 8.74733 9.58274 9.538 10.0392L23.9 18.3308C24.2054 18.5072 24.3932 18.8343 24.3937 19.1905C24.3941 19.5566 24.1966 19.8963 23.8783 20.077L15.1093 25.0561C14.7433 25.2639 14.298 25.2636 13.9372 25.0553L5.33397 20.0884C4.97027 19.8784 4.74689 19.4885 4.74723 19.0642L4.75086 14.5802C4.75161 13.6586 5.74537 13.0737 6.53541 13.5298L15.0768 18.461C15.7669 18.8594 15.7283 19.8768 15.0093 20.2377C14.7085 20.3887 14.3543 20.3793 14.0655 20.2126L8.5522 17.0296C7.80339 16.5973 6.86005 17.1439 6.84736 18.0174C6.84138 18.4284 7.0555 18.8083 7.40781 19.0117L13.9454 22.786C14.3107 22.9969 14.7624 22.9944 15.1304 22.7793L19.5193 20.2144C20.3133 19.7504 20.32 18.6005 19.5313 18.146L5.25068 9.91693C4.943 9.73963 4.75368 9.41026 4.75325 9.05152C4.75281 8.68731 4.94709 8.34873 5.26176 8.16528L13.9729 3.08685C14.3407 2.87241 14.7918 2.87012 15.1568 3.08082L23.8019 8.07194C24.1637 8.2808 24.3868 8.66777 24.3887 9.08974L24.4094 13.7107C24.4135 14.6351 23.4173 15.225 22.6248 14.7675Z" fill="#003340"/>
</svg>
