<?xml version="1.0" encoding="utf-8"?>
<!-- Generator: Adobe Illustrator 24.0.0, SVG Export Plug-In . SVG Version: 6.00 Build 0)  -->
<svg version="1.1" id="logo" xmlns="http://www.w3.org/2000/svg" xmlns:xlink="http://www.w3.org/1999/xlink" x="0px" y="0px"
	 viewBox="0 0 1696.9 368.9" style="enable-background:new 0 0 1696.9 368.9;" xml:space="preserve">
<style type="text/css">
	.st0{fill:#DBE4EB;}
	.st1{fill:#FFFF32;}
</style>
<title>$_Tipo_Chrome_H_nglow</title>
<path class="st0" d="M356.7,78.2H255.1V52.5H484v25.7H382.4v238.1h-25.7V78.2z"/>
<path class="st0" d="M796.2,52.5L684.5,234.9v81.4h-25.7v-81.4L547.1,52.5h30.2l94.4,154.1l94.4-154.1L796.2,52.5z"/>
<path class="st0" d="M1015.3,197.3h-14.2l101.6,119h-33.8l-101.6-119h-82.9v119h-25.7V52.5h156.5c40,0,72.4,32.4,72.4,72.4
	C1087.7,164.9,1055.3,197.3,1015.3,197.3z M884.4,171.6h130.8c25.8-0.4,46.4-21.6,46-47.4c-0.4-25.2-20.7-45.6-46-46H884.4V171.6z"
	/>
<path class="st0" d="M1278.6,316.3c-72.7,0-131.9-59.2-131.9-131.9s59.2-131.9,131.9-131.9s131.9,59.2,131.9,131.9
	S1351.3,316.3,1278.6,316.3z M1384.8,184.4c0-58.7-47.5-106.2-106.2-106.2c-58.7,0-106.2,47.5-106.2,106.2s47.5,106.2,106.2,106.2
	c0,0,0,0,0,0C1337.2,290.6,1384.7,243,1384.8,184.4z"/>
<path class="st0" d="M1677.1,316.3l-184.4-216.1v216.1H1467V52.5h18.8l184.4,216.1V52.5h25.7v263.8H1677.1z"/>
<polygon class="st1" points="77.6,366.1 96.3,308.7 89.2,308.7 "/>
<path class="st1" d="M152.4,182.5l-6.9,21.1c10,7.8,15.8,19.8,15.6,32.4c0,21.9-16.5,39.6-36.8,39.6h-17.2l40.3-123.6l0,0l-56.7,17
	L61.5,178l0.1-0.1l13.8-71.4h-6.3c-1.5,0-3,0.1-4.6,0.3L45.1,172c-14-5.6-24-20.1-24-37.2c0-21.9,16.5-39.6,36.8-39.6h66.4
	c20.3,0,36.8,17.8,36.8,39.6h20.4c0-33.9-25.6-61.5-57-61.5H81.9L95.6,2.7l-21,70.7H58c-31.4,0-57,27.6-57,61.5
	c0,26.7,15.9,49.5,38,57.9L33,213l0,0l81.9-32l-19.1,94.7H58c-20.3,0-36.8-17.8-36.8-39.6H0.9c0,33.9,25.6,61.5,57,61.5h66.4
	c31.5,0,57-27.6,57-61.5C181.4,213.1,169.7,193.1,152.4,182.5z"/>
</svg>
